<svg width="24" height="24" viewBox="0 0 24 24" fill="none" xmlns="http://www.w3.org/2000/svg">
<path d="M18.3543 12.7631C18.3662 11.8432 18.6113 10.9412 19.0667 10.1411C19.522 9.34105 20.173 8.66882 20.9589 8.18699C20.4596 7.47594 19.801 6.89078 19.0352 6.47797C18.2695 6.06517 17.4178 5.8361 16.5478 5.80895C14.6918 5.61468 12.8926 6.91641 11.9468 6.91641C10.9827 6.91641 9.52661 5.82824 7.95858 5.86041C6.94435 5.89308 5.9559 6.18719 5.08953 6.71407C4.22317 7.24096 3.50845 7.98265 3.015 8.86688C0.87755 12.5573 2.4719 17.9809 4.51944 20.964C5.54387 22.4247 6.74113 24.0563 8.30774 23.9985C9.84076 23.9351 10.4133 23.0237 12.2638 23.0237C14.0971 23.0237 14.6342 23.9985 16.2326 23.9617C17.8777 23.9351 18.9141 22.4945 19.9026 21.0199C20.6386 19.9791 21.205 18.8288 21.5808 17.6116C20.6251 17.2085 19.8095 16.5338 19.2358 15.6716C18.662 14.8094 18.3555 13.7979 18.3543 12.7631Z" fill="#C7CDD1"/>
<path d="M15.3382 3.84713C16.2351 2.77342 16.677 1.39335 16.57 0C15.1997 0.143519 13.9339 0.796596 13.0249 1.82911C12.5804 2.33351 12.24 2.92033 12.0231 3.55601C11.8062 4.19168 11.7171 4.86375 11.7608 5.5338C12.4462 5.54084 13.1243 5.3927 13.7439 5.10054C14.3636 4.80838 14.9087 4.37982 15.3382 3.84713Z" fill="#C7CDD1"/>
</svg>
