<svg width="24" height="24" viewBox="0 0 24 24" fill="none" xmlns="http://www.w3.org/2000/svg">
<path d="M12.7071 5.70711C13.0976 5.31658 13.0976 4.68342 12.7071 4.29289C12.3166 3.90237 11.6834 3.90237 11.2929 4.29289L4.29289 11.1865C4.08931 11.3901 3.99185 11.6804 4.00053 11.9671C4.00018 11.978 4 11.989 4 12C4 12.3495 4.17927 12.6571 4.45086 12.8359L11.2929 19.7071C11.6834 20.0976 12.3166 20.0976 12.7071 19.7071C13.0976 19.3166 13.0976 18.6834 12.7071 18.2929L7.41421 13H19C19.5523 13 20 12.5523 20 12C20 11.4477 19.5523 11 19 11H7.41421L12.7071 5.70711Z" fill="#15243E"/>
</svg>
