<svg width="50" height="50" viewBox="0 0 50 50" fill="none" xmlns="http://www.w3.org/2000/svg">
<path fill-rule="evenodd" clip-rule="evenodd" d="M15 15C13.8954 15 13 15.8954 13 17V33C13 34.1046 13.8954 35 15 35H35C36.1046 35 37 34.1046 37 33V17C37 15.8954 36.1046 15 35 15H15ZM35 16.5C35.2761 16.5 35.5 16.7239 35.5 17V19.25H14.5V17C14.5 16.7239 14.7239 16.5 15 16.5H35ZM14.5 24.25V20.75H35.5V24.25H14.5ZM14.5 25.75H35.5V33C35.5 33.2761 35.2761 33.5 35 33.5H15C14.7239 33.5 14.5 33.2761 14.5 33V25.75Z" fill="#7A838E"/>
</svg>
