<svg width="18" height="25" viewBox="0 0 18 25" fill="none" xmlns="http://www.w3.org/2000/svg">
<path d="M12.9233 23.8555C0.529803 19.9556 -0.530912 9.09701 0.671168 3.03143C0.835352 2.20297 1.224 1.44841 1.95111 1.01875C2.75968 0.540949 3.81405 0.0670869 4.15592 0.0364456C6.43115 -0.167476 7.1284 1.79791 7.23849 2.82544C7.34858 3.85296 7.31188 5.9814 6.83482 6.86214C6.45317 7.56672 5.30577 8.2811 4.77977 8.55021C4.95592 13.8053 8.47396 16.8071 10.211 17.6511C10.8348 17.1007 11.9357 16.1833 13.2568 16.7337C14.2415 17.144 16.8532 18.4585 17.5137 19.9264C18.2042 22.0691 16.4312 23.3109 14.9077 23.8668C14.2711 24.0991 13.5696 24.0589 12.9233 23.8555Z" fill="#FFCA46"/>
</svg>
