<svg width="24" height="24" viewBox="0 0 24 24" fill="none" xmlns="http://www.w3.org/2000/svg">
<path fill-rule="evenodd" clip-rule="evenodd" d="M21.4563 13.7741L17.394 16.1165L13.8728 12.4853L17.4018 8.84927L21.4563 11.1871C22.6903 11.8984 22.6903 13.062 21.4563 13.7741ZM16.5091 8.33329L4.24449 1.2611C3.68826 0.940317 3.17833 0.884963 2.78558 1.05159L13.1763 11.767L16.5091 8.33329ZM12.4795 12.4849L2.12108 1.8028C2.04269 2.02192 2 2.28043 2 2.57445V22.3854C2 22.6799 2.04268 22.9383 2.12105 23.1573L12.4795 12.4849ZM2.78543 23.9086C3.17817 24.0753 3.68809 24.0195 4.24429 23.6987L16.5006 16.6317L13.176 13.2032L2.78543 23.9086Z" fill="#C7CDD1"/>
</svg>
