<svg width="24" height="24" viewBox="0 0 24 24" fill="none" xmlns="http://www.w3.org/2000/svg">
<path fill-rule="evenodd" clip-rule="evenodd" d="M3.40885 14.9626C4.38036 16.6177 7.66985 21.0207 12 24C14.2206 22.3448 18.5926 18.935 20.5911 14.9626C21.4861 13.4806 22 11.7492 22 9.90194C22 4.44267 17.517 0 12 0C6.48298 0 2 4.44267 2 9.90194C2 11.7492 2.5139 13.4806 3.40885 14.9626ZM8 10.0035C8 7.79164 9.79 6 12 6C14.2101 6 16 7.79164 16 10.0035C16 12.2084 14.2101 14 12 14C9.79 14 8 12.2084 8 10.0035Z" fill="#FFCA46"/>
</svg>
