<svg width="24" height="24" viewBox="0 0 24 24" fill="none" xmlns="http://www.w3.org/2000/svg">
<path fill-rule="evenodd" clip-rule="evenodd" d="M16.6334 17.6956C15.1113 18.9776 13.1459 19.75 11 19.75C6.16751 19.75 2.25 15.8325 2.25 11C2.25 6.16751 6.16751 2.25 11 2.25C15.8325 2.25 19.75 6.16751 19.75 11C19.75 13.1466 18.977 15.1127 17.6942 16.635L21.5288 20.4696C21.8217 20.7625 21.8217 21.2373 21.5288 21.5302C21.2359 21.8231 20.761 21.8231 20.4681 21.5302L16.6334 17.6956ZM3.75 11C3.75 15.0041 6.99594 18.25 11 18.25C12.9579 18.25 14.7345 17.4739 16.039 16.2126C16.0624 16.18 16.0888 16.1489 16.1181 16.1196C16.1475 16.0902 16.1787 16.0638 16.2113 16.0403C17.4734 14.7357 18.25 12.9585 18.25 11C18.25 6.99594 15.0041 3.75 11 3.75C6.99594 3.75 3.75 6.99594 3.75 11Z" fill="#7A838E"/>
</svg>
