<svg width="50" height="50" viewBox="0 0 50 50" fill="none" xmlns="http://www.w3.org/2000/svg">
<path d="M17 15.25C17.4142 15.25 17.75 15.5858 17.75 16V23C17.75 23.4142 17.4142 23.75 17 23.75C16.5858 23.75 16.25 23.4142 16.25 23V16C16.25 15.5858 16.5858 15.25 17 15.25Z" fill="#7A838E"/>
<path d="M16.25 27.75V34C16.25 34.4142 16.5858 34.75 17 34.75C17.4142 34.75 17.75 34.4142 17.75 34V27.75H20C20.4142 27.75 20.75 27.4142 20.75 27C20.75 26.5858 20.4142 26.25 20 26.25H14C13.5858 26.25 13.25 26.5858 13.25 27C13.25 27.4142 13.5858 27.75 14 27.75H16.25Z" fill="#7A838E"/>
<path d="M25.75 25C25.75 24.5858 25.4142 24.25 25 24.25C24.5858 24.25 24.25 24.5858 24.25 25V34C24.25 34.4142 24.5858 34.75 25 34.75C25.4142 34.75 25.75 34.4142 25.75 34V25Z" fill="#7A838E"/>
<path d="M25 15.25C25.4142 15.25 25.75 15.5858 25.75 16V20.25H28C28.4142 20.25 28.75 20.5858 28.75 21C28.75 21.4142 28.4142 21.75 28 21.75H22C21.5858 21.75 21.25 21.4142 21.25 21C21.25 20.5858 21.5858 20.25 22 20.25H24.25V16C24.25 15.5858 24.5858 15.25 25 15.25Z" fill="#7A838E"/>
<path d="M36 28.25C36.4142 28.25 36.75 28.5858 36.75 29C36.75 29.4142 36.4142 29.75 36 29.75H33.75V34C33.75 34.4142 33.4142 34.75 33 34.75C32.5858 34.75 32.25 34.4142 32.25 34V29.75H30C29.5858 29.75 29.25 29.4142 29.25 29C29.25 28.5858 29.5858 28.25 30 28.25H36Z" fill="#7A838E"/>
<path d="M33 15.25C33.4142 15.25 33.75 15.5858 33.75 16V25C33.75 25.4142 33.4142 25.75 33 25.75C32.5858 25.75 32.25 25.4142 32.25 25V16C32.25 15.5858 32.5858 15.25 33 15.25Z" fill="#7A838E"/>
</svg>
