<svg width="18" height="18" viewBox="0 0 18 18" fill="none" xmlns="http://www.w3.org/2000/svg">
<path d="M8.25208 7.5H6.75208V13.5H8.25208V7.5Z" fill="#15243E"/>
<path d="M11.2521 7.5H9.75208V13.5H11.2521V7.5Z" fill="#15243E"/>
<path fill-rule="evenodd" clip-rule="evenodd" d="M5.25207 16.5C4.42482 16.5 3.75207 15.8273 3.75207 15V6H2.25208V4.5H5.25207V3C5.25207 2.17275 5.92483 1.5 6.75208 1.5H11.2521C12.0793 1.5 12.7521 2.17275 12.7521 3V4.5H15.7521V6H14.2521V15C14.2521 15.8273 13.5793 16.5 12.7521 16.5H5.25207ZM11.2521 3H6.75208V4.5H11.2521V3ZM5.25207 6V15H12.7528L12.7521 6H5.25207Z" fill="#15243E"/>
</svg>
