<svg width="25" height="24" viewBox="0 0 25 24" fill="none" xmlns="http://www.w3.org/2000/svg">
<path fill-rule="evenodd" clip-rule="evenodd" d="M3.8593 7.66667C5.95217 7.66667 7.64877 5.95043 7.64877 3.83333C7.64877 1.71624 5.95217 0 3.8593 0C1.76643 0 0.0698242 1.71624 0.0698242 3.83333C0.0698242 5.95043 1.76643 7.66667 3.8593 7.66667ZM3.8593 6.16667C2.61108 6.16667 1.56982 5.13832 1.56982 3.83333C1.56982 2.52835 2.61108 1.5 3.8593 1.5C5.10751 1.5 6.14877 2.52835 6.14877 3.83333C6.14877 5.13832 5.10751 6.16667 3.8593 6.16667Z" fill="#C7CDD1"/>
<path fill-rule="evenodd" clip-rule="evenodd" d="M20.2802 23.9997C22.3731 23.9997 24.0697 22.2834 24.0697 20.1663C24.0697 18.0492 22.3731 16.333 20.2802 16.333C18.1873 16.333 16.4907 18.0492 16.4907 20.1663C16.4907 22.2834 18.1873 23.9997 20.2802 23.9997ZM20.2802 22.4997C19.032 22.4997 17.9907 21.4713 17.9907 20.1663C17.9907 18.8614 19.032 17.833 20.2802 17.833C21.5284 17.833 22.5697 18.8614 22.5697 20.1663C22.5697 21.4713 21.5284 22.4997 20.2802 22.4997Z" fill="#C7CDD1"/>
<path d="M8.56982 4.75H16.0698C17.8647 4.75 19.3198 6.20507 19.3198 8C19.3198 9.79493 17.8647 11.25 16.0698 11.25H8.06982C5.44647 11.25 3.31982 13.3766 3.31982 16C3.31982 18.6234 5.44647 20.75 8.06982 20.75H15.0698V19.25H8.06982C6.2749 19.25 4.81982 17.7949 4.81982 16C4.81982 14.2051 6.2749 12.75 8.06982 12.75H16.0698C18.6932 12.75 20.8198 10.6234 20.8198 8C20.8198 5.37665 18.6932 3.25 16.0698 3.25H8.56982V4.75Z" fill="#C7CDD1"/>
</svg>
