<svg width="378" height="378" viewBox="0 0 378 378" fill="none" xmlns="http://www.w3.org/2000/svg">
<path d="M59.6875 176.115C80.5473 176.115 81.6057 195.641 81.6057 199.556C81.6057 211.261 74.5405 220.765 62.1475 225.852C44.8023 220.494 37.0411 212.171 37.0411 199.029C37.0392 187.626 44.0436 176.115 59.6875 176.115ZM32.6427 282.517C32.6427 268.275 41.2422 257.223 56.3095 251.979C77.5468 258.811 86.2488 268.351 86.2488 284.623C86.2488 300.219 75.4756 310.698 59.4448 310.698C52.0515 310.698 45.6027 308.318 40.8003 303.819C35.2658 298.634 32.2938 290.931 32.6408 282.69L32.6427 282.517ZM89.9359 237.287C96.6976 232.784 101.993 227.322 105.73 220.981C109.925 213.861 112.051 205.855 112.051 197.187C112.051 184.961 107.509 173.587 99.2658 165.158C89.9322 155.618 76.6706 150.574 60.9091 150.574C45.9461 150.574 32.2634 155.523 22.3873 164.507C17.4446 169.004 13.5923 174.351 10.9407 180.405C8.2171 186.621 6.8363 193.42 6.8363 200.613C6.8363 209.007 9.12368 217.158 13.4462 224.185C17.0841 230.099 22.0591 235.17 28.2784 239.318C20.6385 243.762 14.4894 249.221 9.94308 255.609C3.82816 264.201 0.727051 274.318 0.727051 285.681C0.727051 299.413 6.2616 312.087 16.3103 321.367C21.492 326.151 27.6961 329.883 34.7518 332.459C42.1167 335.147 50.2611 336.51 58.9536 336.51C75.1551 336.51 90.0233 331.173 100.814 321.479C106.234 316.609 110.464 310.816 113.379 304.257C116.387 297.494 117.912 290.093 117.912 282.258C117.912 271.223 114.741 261.377 108.486 252.994C103.846 246.769 97.6232 241.507 89.9359 237.287Z" fill="#F7CB3A"/>
<path d="M212.48 238.205C210.858 237.266 209.182 236.418 207.456 235.66C213.481 232.035 218.418 227.525 222.197 222.18C227.576 214.569 230.303 205.719 230.303 195.873C230.303 183.821 225.956 172.75 218.062 164.695C209.011 155.458 195.814 150.574 179.895 150.574C161.387 150.574 144.055 157.747 135.084 164.856L132.688 166.755L141.417 192.931L147.198 188.478C153.343 183.747 164.505 178.224 175.741 178.224C196.405 178.224 198.634 193.144 198.634 199.558C198.634 217.529 180.415 224.052 168.168 224.052H151.234V250.386H168.168C185.467 250.386 204.03 258.213 204.256 280.186V280.215C204.324 284.192 203.628 294.224 195.708 301.479C190.368 306.372 182.829 308.853 173.3 308.853C159.179 308.853 146.081 302.391 141.128 298.975L135.398 295.024L126.539 322.088L129.189 323.962C137.367 329.747 153.889 336.503 173.543 336.503C192.853 336.503 209.062 330.682 220.421 319.67C230.734 309.674 236.412 295.825 236.412 280.672C236.412 268.355 232.462 257.24 224.99 248.534C221.484 244.451 217.273 240.974 212.48 238.205Z" fill="#F7CB3A"/>
<path d="M310.366 176.115C331.226 176.115 332.284 195.641 332.284 199.556C332.284 211.261 325.219 220.765 312.826 225.852C295.481 220.494 287.719 212.171 287.719 199.029C287.719 187.626 294.72 176.115 310.366 176.115ZM283.321 282.517C283.321 268.275 291.921 257.223 306.988 251.979C328.225 258.811 336.925 268.351 336.925 284.623C336.925 300.219 326.154 310.698 310.121 310.698C302.728 310.698 296.279 308.318 291.477 303.819C285.942 298.634 282.97 290.931 283.315 282.69L283.321 282.517ZM359.166 252.988C354.525 246.769 348.304 241.507 340.616 237.287C347.378 232.784 352.672 227.322 356.408 220.981C360.604 213.861 362.73 205.855 362.73 197.187C362.73 184.961 358.189 173.587 349.946 165.158C340.61 155.618 327.349 150.574 311.589 150.574C296.626 150.574 282.944 155.523 273.066 164.507C268.123 169.004 264.272 174.351 261.621 180.405C258.897 186.621 257.516 193.42 257.516 200.613C257.516 209.007 259.802 217.158 264.125 224.185C267.764 230.099 272.737 235.17 278.957 239.318C271.321 243.762 265.17 249.221 260.623 255.609C254.508 264.201 251.407 274.318 251.407 285.681C251.407 299.413 256.94 312.087 266.99 321.367C272.17 326.151 278.376 329.883 285.432 332.459C292.797 335.147 300.939 336.51 309.634 336.51C325.835 336.51 340.703 331.173 351.494 321.479C356.914 316.609 361.142 310.816 364.057 304.257C367.067 297.494 368.592 290.093 368.592 282.258C368.594 271.219 365.423 261.371 359.166 252.988Z" fill="#F7CB3A"/>
<path d="M0 54.5394H24.9585V131.621H38.3643V54.5394H63.4443V41.4883H0V54.5394Z" fill="#00B7F4"/>
<path d="M141.05 69.6466L148.291 92.1052H127.642L134.887 69.5138L134.899 69.4758C135.91 66.1149 136.888 62.5359 137.909 58.4523C138.795 62.0124 139.775 65.7033 141.05 69.6466ZM130.929 41.4883L101.908 131.621H115.801L124.323 104.386H151.626L160.39 131.621H174.644L145.497 41.4883H130.929Z" fill="#00B7F4"/>
<path d="M288.415 41.4921H272.798L261.194 62.5207C258.67 67.1012 256.712 70.8016 254.652 75.2228C252.623 71.0728 250.442 66.9893 248.05 62.5415L236.81 41.4883H221.138L246.237 86.0301L220.138 131.619H235.725L245.973 111.861C249.742 105.158 251.957 100.817 253.935 96.6345C256.32 101.181 258.927 105.761 262.421 111.763L273.283 131.619H288.977L262.4 85.4137L288.415 41.4921Z" fill="#00B7F4"/>
<path d="M358.125 41.4883H344.838V131.621H358.125V41.4883Z" fill="#00B7F4"/>
</svg>
