<?xml version="1.0" encoding="utf-8"?><svg xmlns="http://www.w3.org/2000/svg" xmlns:xlink="http://www.w3.org/1999/xlink"><symbol viewBox="0 0 24 24" id="apple" xmlns="http://www.w3.org/2000/svg"><path d="M18.354 12.763a5.443 5.443 0 012.605-4.576 5.593 5.593 0 00-4.411-2.378c-1.856-.194-3.655 1.107-4.601 1.107-.964 0-2.42-1.088-3.988-1.056a5.887 5.887 0 00-2.87.854 5.866 5.866 0 00-2.074 2.153c-2.137 3.69-.543 9.114 1.504 12.097 1.025 1.46 2.222 3.092 3.789 3.035 1.533-.064 2.105-.975 3.956-.975 1.833 0 2.37.974 3.969.938 1.645-.027 2.681-1.468 3.67-2.942a12.07 12.07 0 001.678-3.408 5.282 5.282 0 01-2.345-1.94 5.26 5.26 0 01-.882-2.909zm-3.016-8.916A5.36 5.36 0 0016.57 0a5.484 5.484 0 00-3.545 1.83 5.106 5.106 0 00-1.264 3.704 4.54 4.54 0 003.577-1.687z"/></symbol><symbol viewBox="0 0 9 14" id="arrow-L" xmlns="http://www.w3.org/2000/svg"><path fill-rule="evenodd" clip-rule="evenodd" d="M7.293.293L.586 7l6.707 6.707 1.414-1.414L3.414 7l5.293-5.293L7.293.293z"/></symbol><symbol viewBox="0 0 9 14" id="arrow-R" xmlns="http://www.w3.org/2000/svg"><path fill-rule="evenodd" clip-rule="evenodd" d="M1.707.293L8.414 7l-6.707 6.707-1.414-1.414L5.586 7 .293 1.707 1.707.293z"/></symbol><symbol viewBox="0 0 6 4" id="arrow-down" xmlns="http://www.w3.org/2000/svg"><path fill-rule="evenodd" clip-rule="evenodd" d="M5.795 1.045L3 3.839.205 1.045l.59-.59L3 2.661 5.205.455l.59.59z"/></symbol><symbol viewBox="0 0 24 24" id="arrow-left" xmlns="http://www.w3.org/2000/svg"><path d="M12.707 5.707a1 1 0 00-1.414-1.414l-7 6.894a1.059 1.059 0 00-.292.78L4 12a1 1 0 00.45.836l6.843 6.871a1 1 0 001.414-1.414L7.414 13H19a1 1 0 100-2H7.414l5.293-5.293z"/></symbol><symbol viewBox="0 0 21 8" id="arrow-nav" xmlns="http://www.w3.org/2000/svg"><path d="M.646 3.646a.5.5 0 000 .708l3.182 3.182a.5.5 0 00.708-.708L1.707 4l2.829-2.828a.5.5 0 10-.708-.708L.646 3.646zM21 3.5H1v1h20v-1z"/></symbol><symbol viewBox="0 0 9 14" id="arrow-next" xmlns="http://www.w3.org/2000/svg"><path fill-rule="evenodd" clip-rule="evenodd" d="M1.707.293L8.414 7l-6.707 6.707-1.414-1.414L5.586 7 .293 1.707 1.707.293z"/></symbol><symbol viewBox="0 0 9 14" id="arrow-prev" xmlns="http://www.w3.org/2000/svg"><path fill-rule="evenodd" clip-rule="evenodd" d="M7.293.293L.586 7l6.707 6.707 1.414-1.414L3.414 7l5.293-5.293L7.293.293z"/></symbol><symbol viewBox="0 0 11 8" id="arrow-type" xmlns="http://www.w3.org/2000/svg"><path d="M10.854 4.354a.5.5 0 000-.708L7.672.464a.5.5 0 10-.708.708L9.793 4 6.964 6.828a.5.5 0 10.708.708l3.182-3.182zM.5 4.5h10v-1H.5v1z"/></symbol><symbol viewBox="0 0 9 14" id="arrowL" xmlns="http://www.w3.org/2000/svg"><path fill-rule="evenodd" clip-rule="evenodd" d="M7.293.293L.586 7l6.707 6.707 1.414-1.414L3.414 7l5.293-5.293L7.293.293z"/></symbol><symbol viewBox="0 0 9 14" id="arrowR" xmlns="http://www.w3.org/2000/svg"><path fill-rule="evenodd" clip-rule="evenodd" d="M1.707.293L8.414 7l-6.707 6.707-1.414-1.414L5.586 7 .293 1.707 1.707.293z"/></symbol><symbol viewBox="0 0 24 24" id="calendar" xmlns="http://www.w3.org/2000/svg"><path d="M9 11H7v2h2v-2zm0 4H7v2h2v-2zm4-4h-2v2h2v-2zm0 4h-2v2h2v-2zm4-4h-2v2h2v-2zm0 4h-2v2h2v-2z"/><path fill-rule="evenodd" clip-rule="evenodd" d="M19 22H5c-1.103 0-2-.897-2-2V6c0-1.103.897-2 2-2h2V2h2v2h6V2h2v2h2c1.103 0 2 .897 2 2v14c0 1.103-.897 2-2 2zm.001-2L19 8H5v12h14.001z"/></symbol><symbol viewBox="0 0 50 50" id="card" xmlns="http://www.w3.org/2000/svg"><path fill-rule="evenodd" clip-rule="evenodd" d="M15 15a2 2 0 00-2 2v16a2 2 0 002 2h20a2 2 0 002-2V17a2 2 0 00-2-2H15zm20 1.5a.5.5 0 01.5.5v2.25h-21V17a.5.5 0 01.5-.5h20zm-20.5 7.75v-3.5h21v3.5h-21zm0 1.5h21V33a.5.5 0 01-.5.5H15a.5.5 0 01-.5-.5v-7.25z"/></symbol><symbol viewBox="0 0 32 32" id="check" xmlns="http://www.w3.org/2000/svg"><path d="M26.664 6.27a.829.829 0 00-1.177 0L13.088 18.611a.826.826 0 01-1.178 0l-5.433-5.532a.825.825 0 00-1.177 0l-2.401 2.158a.83.83 0 00-.246.583c0 .215.087.44.247.603l5.478 5.749c.324.328.855.861 1.178 1.186l2.355 2.374a.834.834 0 001.178 0L29.019 9.83a.846.846 0 000-1.188l-2.356-2.373z"/></symbol><symbol viewBox="0 0 24 24" id="check2" xmlns="http://www.w3.org/2000/svg"><path fill-rule="evenodd" clip-rule="evenodd" d="M23.296 5.295L7.5 21.091.705 14.295l1.59-1.59L7.5 17.909 21.705 3.704l1.59 1.591z"/></symbol><symbol viewBox="0 0 50 50" id="clock" xmlns="http://www.w3.org/2000/svg"><path d="M24.75 20h-1.5v6.75H30v-1.5h-5.25V20z"/><path d="M37 25c0 6.627-5.373 12-12 12s-12-5.373-12-12 5.373-12 12-12 12 5.373 12 12zm-1.5 0c0-5.799-4.701-10.5-10.5-10.5S14.5 19.201 14.5 25 19.201 35.5 25 35.5 35.5 30.799 35.5 25z"/></symbol><symbol viewBox="0 0 18 18" id="close" xmlns="http://www.w3.org/2000/svg"><path d="M9 10.227l7.47 7.47 1.06-1.061-7.47-7.47 7.47-7.469-1.06-1.06L9 8.105 1.53.636.47 1.696l7.47 7.47-7.47 7.47 1.06 1.06L9 10.228z"/></symbol><symbol viewBox="0 0 51 16" id="develop" xmlns="http://www.w3.org/2000/svg"><path fill-rule="evenodd" clip-rule="evenodd" d="M51 16H0V0h51v16zM32.144 8.729l2.006 2.32h2.198l-2.996-3.275 2.494-2.585h-2.275l-1.427 1.607V2h-1.775v9.05h1.775V8.729zm14.534-1.897c-.248-.117-.552-.175-.912-.175-.995 0-1.492.778-1.492 2.334v2.047h-1.787V5.176h1.787v1.419c.146-.511.38-.896.701-1.156.32-.259.654-.388.996-.388.394 0 .737.07 1.029.213l-.322 1.568zm-9.147 1.86h4.397a6.18 6.18 0 00.026-.541c0-.911-.294-1.655-.88-2.228-.588-.573-1.32-.859-2.194-.859-.882 0-1.625.28-2.23.84-.605.56-.907 1.293-.907 2.198 0 .903.302 1.641.907 2.214s1.348.86 2.23.86c1.277 0 2.19-.396 2.74-1.192l-1.299-.866c-.292.369-.729.552-1.311.552-.352 0-.676-.083-.972-.251a.948.948 0 01-.507-.727zm1.362-2.098c.292 0 .564.086.817.257.252.171.4.42.444.747h-2.598c.069-.334.235-.585.501-.753a1.55 1.55 0 01.836-.251zm-10.202 3.71c-.605.564-1.344.848-2.218.848-.875 0-1.612-.284-2.212-.848-.6-.565-.9-1.3-.9-2.202 0-.905.3-1.637.9-2.198.6-.56 1.337-.84 2.212-.84.874 0 1.613.28 2.218.84.603.561.906 1.293.906 2.198 0 .902-.303 1.637-.906 2.202zm-3.177-3.158c.262-.25.581-.377.958-.377s.7.126.965.377c.265.252.398.57.398.955 0 .4-.13.726-.392.972-.261.247-.585.37-.97.37-.378 0-.697-.123-.959-.37-.261-.246-.392-.571-.392-.972 0-.386.13-.703.392-.955zm-3.04-3.401a1.103 1.103 0 01-.785.301c-.308 0-.573-.1-.791-.301a.95.95 0 01-.328-.728c0-.283.109-.525.328-.722.218-.195.483-.294.79-.294.309 0 .57.1.785.294a.946.946 0 01.322.722.962.962 0 01-.322.728zm.115 7.708c0 .82-.177 1.449-.527 1.888-.352.44-.935.659-1.75.659H19.22v-1.581h.786c.539 0 .8-.31.783-.93v-6.3h1.801v6.264zm-4.154-.402h-1.774V2.942h1.774V5.19h1.372v1.513h-1.372v4.349zm-2.73-4.205c-.248-.117-.552-.176-.912-.176-.994 0-1.491.778-1.491 2.334v2.047h-1.787V5.189h1.787v1.419c.145-.51.38-.895.7-1.155.322-.26.654-.389.997-.389.394 0 .737.07 1.029.213l-.322 1.569zm-5.121 4.204H8.809v-.666c-.171.252-.435.444-.791.578-.355.135-.674.202-.957.202-.806 0-1.518-.282-2.135-.848C4.309 9.75 4 9.015 4 8.113c0-.903.309-1.637.926-2.202.617-.566 1.329-.847 2.135-.847.283 0 .593.058.932.175.338.117.61.317.816.603V5.19h1.775v5.861zM7.356 6.72c-.394 0-.743.132-1.047.395a1.263 1.263 0 00-.457.998c0 .401.152.734.457.997a1.55 1.55 0 001.047.396c.386 0 .725-.128 1.016-.384.291-.254.437-.59.437-1.01 0-.418-.146-.755-.437-1.01a1.496 1.496 0 00-1.016-.382z"/></symbol><symbol viewBox="0 0 45.437 45.437" id="empty" xmlns="http://www.w3.org/2000/svg"/><symbol viewBox="0 0 10 20" id="fb" xmlns="http://www.w3.org/2000/svg"><path d="M6.25 6.875v-2.5c0-.69.56-1.25 1.25-1.25h1.25V0h-2.5A3.75 3.75 0 002.5 3.75v3.125H0V10h2.5v10h3.75V10h2.5L10 6.875H6.25z"/></symbol><symbol viewBox="0 0 24 24" id="info" xmlns="http://www.w3.org/2000/svg"><path d="M13 17v-6h-2v6h2zm0-8V7h-2v2h2z"/><path fill-rule="evenodd" clip-rule="evenodd" d="M2 12C2 6.486 6.486 2 12 2s10 4.486 10 10-4.486 10-10 10S2 17.514 2 12zm2 0c0 4.411 3.589 8 8 8s8-3.589 8-8-3.589-8-8-8-8 3.589-8 8z"/></symbol><symbol viewBox="0 0 20 20" id="inst" xmlns="http://www.w3.org/2000/svg"><path d="M13.75 0h-7.5A6.25 6.25 0 000 6.25v7.5A6.25 6.25 0 006.25 20h7.5A6.25 6.25 0 0020 13.75v-7.5A6.25 6.25 0 0013.75 0zm4.375 13.75a4.38 4.38 0 01-4.375 4.375h-7.5a4.38 4.38 0 01-4.375-4.375v-7.5A4.38 4.38 0 016.25 1.875h7.5a4.38 4.38 0 014.375 4.375v7.5z"/><path d="M10 5a5 5 0 100 10 5 5 0 000-10zm0 8.125A3.13 3.13 0 016.875 10 3.129 3.129 0 0110 6.875 3.129 3.129 0 0113.125 10 3.13 3.13 0 0110 13.125zm5.373-7.834a.666.666 0 100-1.332.666.666 0 000 1.332z"/></symbol><symbol viewBox="0 0 24 24" id="list-menu" xmlns="http://www.w3.org/2000/svg"><path d="M4 11h12v2H4v-2zm0-5h16v2H4V6zm0 12h7.235v-2H4v2z"/></symbol><symbol viewBox="0 0 24 24" id="mob-menu" xmlns="http://www.w3.org/2000/svg"><path d="M0 8.25h24v-1.5H0v1.5zm0 9.5h12v-1.5H0v1.5z"/></symbol><symbol viewBox="0 0 18 25" id="phone" xmlns="http://www.w3.org/2000/svg"><path d="M12.923 23.855C.53 19.956-.53 9.098.671 3.031c.164-.828.553-1.583 1.28-2.012C2.76.54 3.814.067 4.156.036c2.275-.203 2.972 1.762 3.082 2.79.11 1.027.074 3.155-.403 4.036-.382.705-1.53 1.42-2.055 1.688.176 5.255 3.694 8.257 5.431 9.101.624-.55 1.725-1.468 3.046-.917.985.41 3.596 1.724 4.257 3.192.69 2.143-1.083 3.385-2.606 3.94-.637.233-1.338.193-1.985-.01z"/></symbol><symbol viewBox="0 0 24 24" id="play-market" xmlns="http://www.w3.org/2000/svg"><path fill-rule="evenodd" clip-rule="evenodd" d="M21.456 13.774l-4.062 2.342-3.521-3.63 3.529-3.637 4.054 2.338c1.234.711 1.234 1.875 0 2.587zm-4.947-5.44L4.244 1.26C3.688.94 3.178.884 2.786 1.05l10.39 10.716 3.333-3.434zm-4.03 4.15L2.121 1.804a2.288 2.288 0 00-.121.77v19.811c0 .295.043.553.121.772L12.48 12.485zM2.785 23.91c.393.166.903.11 1.46-.21L16.5 16.632l-3.325-3.429L2.786 23.91z"/></symbol><symbol viewBox="0 0 12 12" id="plus" xmlns="http://www.w3.org/2000/svg"><path d="M5.25 6.75V12h1.5V6.75H12v-1.5H6.75V0h-1.5v5.25H0v1.5h5.25z"/></symbol><symbol viewBox="0 0 24 24" id="point" xmlns="http://www.w3.org/2000/svg"><path fill-rule="evenodd" clip-rule="evenodd" d="M3.409 14.963C4.38 16.618 7.669 21.02 12 24c2.22-1.655 6.593-5.065 8.591-9.037A9.758 9.758 0 0022 9.902C22 4.442 17.517 0 12 0S2 4.443 2 9.902c0 1.847.514 3.579 1.409 5.06zM8 10.003a4 4 0 118.001-.005A4 4 0 018 10.004z"/></symbol><symbol viewBox="0 0 24 24" id="search" xmlns="http://www.w3.org/2000/svg"><path fill-rule="evenodd" clip-rule="evenodd" d="M16.633 17.696a8.75 8.75 0 111.06-1.06l3.836 3.834a.75.75 0 11-1.06 1.06l-3.836-3.834zM3.75 11a7.25 7.25 0 0012.289 5.213.75.75 0 01.172-.173A7.25 7.25 0 103.75 11z"/></symbol><symbol viewBox="0 0 50 50" id="services" xmlns="http://www.w3.org/2000/svg"><path d="M17 15.25a.75.75 0 01.75.75v7a.75.75 0 01-1.5 0v-7a.75.75 0 01.75-.75zm-.75 12.5V34a.75.75 0 001.5 0v-6.25H20a.75.75 0 000-1.5h-6a.75.75 0 000 1.5h2.25zm9.5-2.75a.75.75 0 00-1.5 0v9a.75.75 0 001.5 0v-9zM25 15.25a.75.75 0 01.75.75v4.25H28a.75.75 0 010 1.5h-6a.75.75 0 010-1.5h2.25V16a.75.75 0 01.75-.75zm11 13a.75.75 0 010 1.5h-2.25V34a.75.75 0 01-1.5 0v-4.25H30a.75.75 0 010-1.5h6zm-3-13a.75.75 0 01.75.75v9a.75.75 0 01-1.5 0v-9a.75.75 0 01.75-.75z"/></symbol><symbol viewBox="0 0 18 18" id="trash" xmlns="http://www.w3.org/2000/svg"><path d="M8.252 7.5h-1.5v6h1.5v-6zm3 0h-1.5v6h1.5v-6z"/><path fill-rule="evenodd" clip-rule="evenodd" d="M5.252 16.5c-.827 0-1.5-.673-1.5-1.5V6h-1.5V4.5h3V3c0-.827.673-1.5 1.5-1.5h4.5c.827 0 1.5.673 1.5 1.5v1.5h3V6h-1.5v9c0 .827-.673 1.5-1.5 1.5h-7.5zm6-13.5h-4.5v1.5h4.5V3zm-6 3v9h7.5V6h-7.5z"/></symbol><symbol viewBox="0 0 25 24" id="way" xmlns="http://www.w3.org/2000/svg"><path fill-rule="evenodd" clip-rule="evenodd" d="M3.86 7.667c2.092 0 3.789-1.717 3.789-3.834S5.952 0 3.859 0 .07 1.716.07 3.833s1.697 3.834 3.79 3.834zm0-1.5c-1.249 0-2.29-1.029-2.29-2.334C1.57 2.528 2.61 1.5 3.86 1.5c1.248 0 2.289 1.028 2.289 2.333 0 1.305-1.041 2.334-2.29 2.334zM20.28 24c2.093 0 3.79-1.717 3.79-3.834s-1.697-3.833-3.79-3.833-3.79 1.716-3.79 3.833S18.188 24 20.28 24zm0-1.5c-1.248 0-2.29-1.029-2.29-2.334 0-1.305 1.042-2.333 2.29-2.333s2.29 1.028 2.29 2.333c0 1.305-1.042 2.334-2.29 2.334z"/><path d="M8.57 4.75h7.5a3.25 3.25 0 010 6.5h-8a4.75 4.75 0 100 9.5h7v-1.5h-7a3.25 3.25 0 010-6.5h8a4.75 4.75 0 100-9.5h-7.5v1.5z"/></symbol><symbol viewBox="0 0 18 34" id="zip" xmlns="http://www.w3.org/2000/svg"><path d="M0 19.767L14.108 0l-3.76 14.232H18L3.184 34l3.98-14.233H0z"/></symbol></svg>