<svg width="172" height="56" viewBox="0 0 172 56" fill="none" xmlns="http://www.w3.org/2000/svg">
<rect x="0.699753" y="0.5" width="170.36" height="55" rx="11.5" fill="#15243E" stroke="white"/>
<path d="M36.0186 28.4203C36.0339 27.2518 36.3496 26.1061 36.9363 25.0897C37.523 24.0734 38.3616 23.2195 39.3742 22.6074C38.7309 21.7042 37.8823 20.9609 36.8958 20.4365C35.9093 19.9122 34.812 19.6212 33.6911 19.5867C31.3 19.3399 28.9819 20.9935 27.7635 20.9935C26.5214 20.9935 24.6454 19.6112 22.6253 19.6521C21.3186 19.6936 20.0451 20.0672 18.9289 20.7365C17.8128 21.4057 16.892 22.3479 16.2562 23.4711C13.5024 28.1588 15.5565 35.0483 18.1945 38.8375C19.5143 40.693 21.0568 42.7656 23.0751 42.6921C25.0502 42.6116 25.7878 41.4539 28.1719 41.4539C30.5338 41.4539 31.2259 42.6921 33.2851 42.6454C35.4045 42.6116 36.7397 40.7817 38.0133 38.9086C38.9616 37.5865 39.6913 36.1253 40.1754 34.5791C38.9441 34.0671 37.8934 33.2101 37.1542 32.1149C36.415 31.0196 36.0201 29.7347 36.0186 28.4203Z" fill="white"/>
<path d="M32.129 17.0951C33.2846 15.7312 33.8539 13.9782 33.716 12.2083C31.9506 12.3906 30.3198 13.2202 29.1487 14.5317C28.5761 15.1725 28.1375 15.9179 27.8581 16.7253C27.5786 17.5328 27.4638 18.3865 27.5201 19.2377C28.4032 19.2466 29.2767 19.0584 30.0751 18.6873C30.8734 18.3162 31.5757 17.7718 32.129 17.0951Z" fill="white"/>
<path d="M60.9851 37.9945H54.2451L52.6265 42.6935H49.7718L56.1558 25.3084H59.1218L65.5057 42.6935H62.6023L60.9851 37.9945ZM54.9432 35.8261H60.2857L57.652 28.2H57.5783L54.9432 35.8261Z" fill="white"/>
<path d="M79.2924 36.3571C79.2924 40.296 77.1482 42.8266 73.9124 42.8266C73.0927 42.8688 72.2775 42.6831 71.5602 42.2909C70.8428 41.8987 70.2523 41.3158 69.8562 40.609H69.7949V46.8871H67.1487V30.0188H69.7102V32.127H69.7588C70.1731 31.4236 70.7736 30.8437 71.4965 30.4491C72.2193 30.0545 73.0374 29.86 73.8637 29.8862C77.1356 29.8862 79.2924 32.4292 79.2924 36.3571ZM76.5725 36.3571C76.5725 33.7909 75.2236 32.1038 73.1656 32.1038C71.1438 32.1038 69.7839 33.8264 69.7839 36.3571C69.7839 38.911 71.1438 40.6213 73.1656 40.6213C75.2237 40.6213 76.5725 38.9465 76.5725 36.3571Z" fill="white"/>
<path d="M93.4819 36.3571C93.4819 40.2959 91.3377 42.8266 88.102 42.8266C87.2823 42.8687 86.4671 42.6831 85.7497 42.2909C85.0324 41.8987 84.4418 41.3158 84.0457 40.609H83.9845V46.8871H81.3383V30.0188H83.8997V32.127H83.9483C84.3626 31.4236 84.9632 30.8437 85.686 30.4491C86.4088 30.0545 87.2269 29.86 88.0532 29.8862C91.3252 29.8862 93.4819 32.4292 93.4819 36.3571ZM90.7621 36.3571C90.7621 33.7909 89.4132 32.1038 87.3552 32.1038C85.3334 32.1038 83.9734 33.8264 83.9734 36.3571C83.9734 38.911 85.3334 40.6213 87.3552 40.6213C89.4132 40.6213 90.7621 38.9465 90.7621 36.3571Z" fill="white"/>
<path d="M102.86 37.8499C103.056 39.5739 104.76 40.7059 107.087 40.7059C109.318 40.7059 110.923 39.5739 110.923 38.0194C110.923 36.67 109.955 35.862 107.663 35.3083L105.372 34.7655C102.125 33.9944 100.617 32.5014 100.617 30.0788C100.617 27.0792 103.276 25.0188 107.051 25.0188C110.788 25.0188 113.349 27.0792 113.435 30.0788H110.764C110.604 28.3438 109.145 27.2966 107.014 27.2966C104.882 27.2966 103.423 28.3561 103.423 29.8983C103.423 31.1274 104.355 31.8507 106.634 32.4043L108.582 32.8746C112.21 33.7182 113.718 35.151 113.718 37.6939C113.718 40.9465 111.082 42.9836 106.891 42.9836C102.97 42.9836 100.322 40.9943 100.151 37.8498L102.86 37.8499Z" fill="white"/>
<path d="M119.429 27.0192V30.0188H121.88V32.0791H119.429V39.0668C119.429 40.1524 119.92 40.6582 120.997 40.6582C121.288 40.6532 121.579 40.6331 121.868 40.598V42.6461C121.383 42.7351 120.891 42.7754 120.398 42.7664C117.788 42.7664 116.77 41.8025 116.77 39.3443V32.0791H114.896V30.0188H116.77V27.0192H119.429Z" fill="white"/>
<path d="M123.299 36.3571C123.299 32.369 125.688 29.863 129.414 29.863C133.151 29.863 135.529 32.3689 135.529 36.3571C135.529 40.3561 133.164 42.8512 129.414 42.8512C125.665 42.8512 123.299 40.3561 123.299 36.3571ZM132.833 36.3571C132.833 33.6213 131.558 32.0067 129.414 32.0067C127.269 32.0067 125.996 33.6336 125.996 36.3571C125.996 39.1037 127.269 40.7061 129.414 40.7061C131.558 40.7061 132.833 39.1037 132.833 36.3571Z" fill="white"/>
<path d="M137.711 30.0187H140.235V32.1761H140.296C140.467 31.5023 140.868 30.9068 141.433 30.4898C141.998 30.0728 142.691 29.8596 143.397 29.8861C143.702 29.885 144.006 29.9176 144.304 29.9831V32.4167C143.919 32.3011 143.517 32.248 143.115 32.2595C142.73 32.2442 142.347 32.3108 141.991 32.4549C141.635 32.5989 141.316 32.8169 141.054 33.094C140.792 33.371 140.594 33.7005 140.474 34.0599C140.353 34.4192 140.314 34.7999 140.357 35.1757V42.6938H137.711L137.711 30.0187Z" fill="white"/>
<path d="M156.505 38.9711C156.149 41.2721 153.87 42.8512 150.954 42.8512C147.203 42.8512 144.876 40.3807 144.876 36.4172C144.876 32.4415 147.216 29.863 150.842 29.863C154.409 29.863 156.652 32.2719 156.652 36.1151V37.0065H147.547V37.1637C147.505 37.6302 147.564 38.1001 147.721 38.5423C147.878 38.9845 148.129 39.3888 148.457 39.7283C148.785 40.0679 149.182 40.335 149.623 40.5118C150.065 40.6886 150.539 40.7711 151.015 40.7539C151.64 40.8115 152.268 40.6691 152.804 40.3479C153.34 40.0267 153.757 39.5438 153.992 38.9711L156.505 38.9711ZM147.559 35.1881H154.004C154.028 34.7687 153.964 34.349 153.814 33.9553C153.665 33.5616 153.435 33.2024 153.138 32.9004C152.841 32.5983 152.484 32.3598 152.089 32.1999C151.694 32.04 151.27 31.9621 150.842 31.9711C150.411 31.9686 149.984 32.05 149.586 32.2107C149.187 32.3713 148.824 32.608 148.519 32.9071C148.214 33.2062 147.972 33.5617 147.807 33.9532C147.642 34.3447 147.558 34.7644 147.559 35.1881Z" fill="white"/>
<path d="M53.0623 15.7542H54.1983C54.3939 15.7782 54.5924 15.762 54.7813 15.7068C54.9702 15.6516 55.1454 15.5585 55.2959 15.4334C55.4464 15.3083 55.5689 15.1539 55.6557 14.9799C55.7425 14.8059 55.7917 14.6162 55.8002 14.4226C55.8002 13.6522 55.2106 13.1545 54.2108 13.1545C54.0105 13.127 53.8065 13.1392 53.6111 13.1905C53.4156 13.2417 53.2325 13.331 53.0727 13.4529C52.9129 13.5749 52.7795 13.7271 52.6805 13.9006C52.5815 14.074 52.5189 14.2653 52.4963 14.4629H51.249C51.2704 14.1041 51.3668 13.7535 51.5321 13.4329C51.6973 13.1122 51.9279 12.8285 52.2096 12.5993C52.4912 12.3701 52.8178 12.2004 53.169 12.1007C53.5203 12.001 53.8886 11.9734 54.2511 12.0198C55.924 12.0198 57.1018 12.9406 57.1018 14.266C57.1057 14.7101 56.9546 15.142 56.6737 15.4897C56.3928 15.8375 55.9991 16.0799 55.5583 16.1767V16.2751C56.0809 16.2979 56.573 16.5232 56.9271 16.9017C57.2812 17.2802 57.4685 17.7812 57.448 18.2951C57.4094 18.6646 57.2961 19.0227 57.1148 19.3486C56.9335 19.6744 56.6879 19.9614 56.3924 20.1927C56.0968 20.424 55.7573 20.595 55.3937 20.6956C55.0301 20.7962 54.6497 20.8244 54.2748 20.7786C53.8992 20.829 53.5171 20.8044 53.1513 20.7065C52.7855 20.6086 52.4435 20.4392 52.1457 20.2085C51.8479 19.9779 51.6003 19.6906 51.4178 19.3639C51.2354 19.0371 51.1217 18.6776 51.0835 18.3068H52.3503C52.4268 19.1059 53.1735 19.6214 54.2748 19.6214C55.3761 19.6214 56.095 19.0424 56.095 18.2261C56.095 17.3983 55.4178 16.8884 54.2345 16.8884H53.0623V15.7542Z" fill="white"/>
<path d="M58.8873 18.7941C58.8873 17.6594 59.748 17.0052 61.2721 16.9122L63.0089 16.8138V16.2697C63.0089 15.6038 62.5625 15.2279 61.6962 15.2279C60.9898 15.2279 60.5017 15.4828 60.3599 15.9285H59.1348C59.2641 14.8457 60.3015 14.1512 61.756 14.1512C63.3635 14.1512 64.2701 14.938 64.2701 16.2697V20.577H63.0506V19.691H62.9505C62.7472 20.0088 62.4619 20.2679 62.1235 20.4418C61.7852 20.6157 61.4059 20.6982 61.0246 20.6808C60.7554 20.7084 60.4834 20.6801 60.226 20.5979C59.9686 20.5158 59.7316 20.3815 59.5302 20.2037C59.3288 20.026 59.1676 19.8087 59.0568 19.5659C58.9461 19.3231 58.8884 19.0602 58.8873 18.7941ZM63.0089 18.2555V17.7284L61.4431 17.8269C60.5601 17.885 60.1596 18.1803 60.1596 18.736C60.1596 19.3034 60.6602 19.6336 61.3485 19.6336C61.5502 19.6537 61.754 19.6337 61.9477 19.5747C62.1413 19.5158 62.3209 19.4192 62.4759 19.2906C62.6308 19.162 62.7578 19.0041 62.8493 18.8263C62.9409 18.6485 62.9952 18.4543 63.0089 18.2555Z" fill="white"/>
<path d="M67.6282 15.3197V20.5765H66.3628V14.2724H70.5845V15.3196L67.6282 15.3197Z" fill="white"/>
<path d="M78.2541 17.4218C78.2541 19.4247 77.2237 20.6805 75.6051 20.6805C75.2077 20.7072 74.8109 20.6217 74.4614 20.4341C74.1118 20.2465 73.824 19.9646 73.6319 19.6216H73.5318V22.6725H72.2664V14.2725H73.4845V15.3144H73.5791C73.7746 14.9594 74.0661 14.6644 74.4215 14.4621C74.7768 14.2598 75.1821 14.158 75.5926 14.168C77.2237 14.1679 78.2541 15.4182 78.2541 17.4218ZM76.9525 17.4218C76.9525 16.0902 76.3115 15.2856 75.2394 15.2856C74.1743 15.2856 73.5081 16.1073 73.5081 17.4273C73.5081 18.7412 74.1742 19.5635 75.2338 19.5635C76.3115 19.5635 76.9525 18.7589 76.9525 17.4218Z" fill="white"/>
<path d="M79.9384 22.8344V21.7632C80.0753 21.7803 80.2133 21.7881 80.3513 21.7864C80.6209 21.8061 80.8884 21.7271 81.1024 21.5648C81.3165 21.4024 81.462 21.168 81.511 20.9066L81.6056 20.5997L79.2848 14.2724H80.6628L82.2703 19.2797H82.3705L83.9724 14.2724H85.3142L82.9239 20.8369C82.376 22.3709 81.7698 22.8631 80.4627 22.8631C80.357 22.8631 80.0566 22.8515 79.9384 22.8344Z" fill="white"/>
<path d="M86.3005 18.7878H87.5603C87.6841 19.3436 88.2139 19.6334 88.955 19.6334C89.7977 19.6334 90.315 19.2683 90.315 18.701C90.315 18.0932 89.8506 17.8034 88.955 17.8034H87.9956V16.8368H88.9383C89.7031 16.8368 90.0925 16.5477 90.0925 16.0206C90.0925 15.5578 89.7157 15.2044 88.9383 15.2044C88.2306 15.2044 87.7133 15.4997 87.6312 15.9974H86.4117C86.5029 15.4255 86.8187 14.9117 87.2912 14.5664C87.7637 14.2211 88.3551 14.072 88.9383 14.151C90.4624 14.151 91.3343 14.8284 91.3343 15.8935C91.3414 16.1901 91.2447 16.4801 91.0605 16.715C90.8762 16.9499 90.6155 17.1155 90.3219 17.1841V17.2825C90.6714 17.3269 90.9922 17.4958 91.2234 17.7573C91.4546 18.0187 91.5802 18.3545 91.5762 18.701C91.5762 19.8994 90.5389 20.6923 88.955 20.6923C87.5548 20.6922 86.4173 20.0613 86.3005 18.7878Z" fill="white"/>
<path d="M93.3986 20.5765V14.2724H94.6528V18.6084H94.7529L97.7078 14.2724H98.9621V20.5765H97.7078V16.2172H97.6133L94.6528 20.5765L93.3986 20.5765Z" fill="white"/>
<path d="M105.872 15.3196H103.853V20.5764H102.586V15.3196H100.567V14.2724H105.872V15.3196Z" fill="white"/>
<path d="M112.688 18.8744C112.516 19.4505 112.143 19.9488 111.635 20.2821C111.127 20.6155 110.516 20.7628 109.909 20.6982C109.486 20.7092 109.066 20.6296 108.678 20.4651C108.29 20.3006 107.943 20.055 107.662 19.7454C107.38 19.4358 107.17 19.0696 107.046 18.6722C106.923 18.2749 106.889 17.8559 106.947 17.4443C106.891 17.0315 106.925 16.6116 107.048 16.213C107.171 15.8145 107.38 15.4466 107.661 15.1343C107.941 14.822 108.286 14.5726 108.673 14.4029C109.06 14.2332 109.479 14.1472 109.903 14.1508C111.687 14.1508 112.765 15.3492 112.765 17.3288V17.7629H108.237V17.8326C108.217 18.064 108.247 18.297 108.324 18.5165C108.401 18.7361 108.523 18.9374 108.684 19.1075C108.845 19.2775 109.04 19.4127 109.257 19.5041C109.474 19.5956 109.709 19.6414 109.945 19.6386C110.247 19.6742 110.554 19.6205 110.825 19.4844C111.096 19.3483 111.321 19.136 111.469 18.8744L112.688 18.8744ZM108.237 16.8428H111.474C111.49 16.6313 111.461 16.4189 111.389 16.2192C111.316 16.0194 111.202 15.8368 111.054 15.683C110.905 15.5292 110.726 15.4077 110.526 15.3262C110.327 15.2446 110.113 15.205 109.897 15.2097C109.679 15.2068 109.461 15.247 109.258 15.328C109.056 15.4091 108.871 15.5293 108.717 15.6815C108.562 15.8338 108.44 16.015 108.357 16.2144C108.275 16.4139 108.234 16.6275 108.237 16.8428Z" fill="white"/>
<path d="M118.054 14.2724H120.944C122.199 14.2724 122.934 14.8972 122.934 15.8754C122.936 16.1858 122.83 16.4874 122.633 16.7298C122.435 16.9722 122.16 17.1407 121.851 17.207V17.3054C122.226 17.3287 122.577 17.4925 122.832 17.763C123.087 18.0334 123.227 18.3899 123.222 18.7588C123.222 19.8587 122.381 20.5764 120.974 20.5764H118.054V14.2724ZM119.308 15.2274V16.8598H120.562C121.327 16.8598 121.693 16.5706 121.693 16.0374C121.693 15.5459 121.374 15.2274 120.703 15.2274L119.308 15.2274ZM119.308 17.7744V19.6215H120.808C121.556 19.6215 121.957 19.2968 121.957 18.7007C121.957 18.0698 121.504 17.7744 120.65 17.7744L119.308 17.7744Z" fill="white"/>
</svg>
