<svg width="50" height="50" viewBox="0 0 50 50" fill="none" xmlns="http://www.w3.org/2000/svg">
<path d="M38.4499 21.94L32.9399 16.04L33.4099 15.75L38.5899 21L39.9499 22.8L38.4499 21.94Z" fill="#113C70"/>
<path d="M25.4499 35.2994C28.7599 36.1994 29.7199 40.8194 29.3999 42.5894L22.5499 38.8694C22.5499 38.8694 22.1499 34.3994 25.4499 35.2994Z" fill="#082A4C"/>
<path d="M1.57987 26.1705C1.98987 26.6305 2.10987 26.7505 2.10987 26.7505C2.10987 26.7505 1.99987 21.9405 5.79987 24.0305C9.59987 26.1205 8.99987 30.8705 8.99987 30.8705L22.5799 38.8705C22.5799 38.8705 22.1699 34.4105 25.4799 35.3105C28.7899 36.2105 29.7499 40.8305 29.4299 42.6005C31.0074 43.1098 32.6929 43.1857 34.3099 42.8205C37.3899 41.9405 44.7099 39.1605 46.7999 34.8205C47.2199 33.9505 47.0899 30.8205 46.1599 29.0705C44.8556 27.0934 43.3029 25.292 41.5399 23.7105C41.5399 23.7105 35.9199 17.2605 33.8999 15.5005C31.9166 13.7819 29.6449 12.4277 27.1899 11.5005C24.5499 10.5005 15.3999 10.2705 14.4699 10.2405C13.5399 10.2105 5.21987 13.0305 2.58987 15.2405C2.34061 15.7393 2.28365 16.3124 2.42987 16.8505C3.09987 17.6005 7.60987 17.4105 9.96987 18.2705C12.9624 19.3702 15.7968 20.8597 18.3999 22.7005C20.5199 24.3905 23.6999 29.9205 23.6999 29.9205C23.9499 30.3405 23.3599 30.7905 23.1199 30.6905C22.8799 30.5905 9.69987 23.1905 8.84987 22.3705C7.99987 21.5505 7.47987 20.4405 6.84987 19.8205C5.75151 18.2831 4.75921 16.6728 3.87987 15.0005C2.95482 15.993 2.17385 17.1106 1.55987 18.3205C1.4447 19.5912 1.4447 20.8697 1.55987 22.1405C1.43861 22.1213 1.31452 22.1473 1.21125 22.2137C1.10797 22.2801 1.03274 22.3822 0.999874 22.5005C0.931945 23.751 1.12961 25.0018 1.57987 26.1705ZM20.9399 22.7705C26.5299 19.8805 33.4099 15.7705 33.4099 15.7705C33.4099 15.7705 40.4899 23.3805 40.9699 23.9705C41.4499 24.5605 41.3799 25.6705 35.6199 29.1705C29.8599 32.6705 27.3899 32.2905 26.7599 31.8505C26.1299 31.4105 22.5799 25.2805 20.9399 22.7805V22.7705Z" fill="#DCDFE5"/>
<path d="M31.3699 39.8493C31.2696 39.4437 31.0819 39.0648 30.8199 38.7393C31.1991 38.7775 31.553 38.9473 31.8199 39.2193C31.9552 39.3346 32.0624 39.4791 32.1334 39.642C32.2044 39.8049 32.2374 39.9818 32.2299 40.1593V41.5993C32.2299 41.9393 33.1499 42.4193 33.3599 42.4193C34.6309 42.1123 35.8723 41.6941 37.0699 41.1693V39.8993C37.0699 39.3893 38.4399 37.6793 40.4899 36.5793C42.5399 35.4793 43.6899 35.1393 44.4099 35.4493C44.7499 35.7593 44.6299 36.6093 44.6299 36.6093C45.5915 35.8241 46.3957 34.8638 46.9999 33.7793C46.9929 34.1455 46.9218 34.5076 46.7899 34.8493C44.6999 39.1493 37.3799 41.9293 34.2999 42.8493C32.6829 43.2146 30.9975 43.1386 29.4199 42.6293C30.1331 42.4409 30.8093 42.1333 31.4199 41.7193L31.3699 39.8493Z" fill="#15243E"/>
<path d="M0.999855 22.5008C1.02831 22.3826 1.09882 22.2789 1.19821 22.209C1.29759 22.139 1.41904 22.1077 1.53985 22.1208C1.42468 20.8501 1.42468 19.5715 1.53985 18.3008C1.67907 17.8799 1.96708 17.5244 2.34985 17.3008C3.42586 18.2995 4.59446 19.1935 5.83985 19.9708C6.60985 20.5508 7.56985 22.4708 8.37985 22.9708C9.18985 23.4708 19.6799 29.5208 22.1199 30.9708C23.8118 31.9601 25.4415 33.0522 26.9999 34.2408L30.7899 38.7408C31.0518 39.0663 31.2395 39.4452 31.3399 39.8508V41.6808C30.7293 42.0947 30.0531 42.4024 29.3399 42.5908C29.6599 40.8208 28.6999 36.2008 25.3899 35.3008C22.0799 34.4008 22.4899 38.8608 22.4899 38.8608L8.99986 30.8708C8.99986 30.8708 9.64985 26.1308 5.81985 24.0308C1.98985 21.9308 2.13985 26.7508 2.13985 26.7508C2.13985 26.7508 2.01985 26.6308 1.60985 26.1708C1.14937 25.0043 0.941465 23.7535 0.999855 22.5008Z" fill="#B3B7C4"/>
<path d="M1.46985 20.2405C1.46985 20.2405 21.5599 31.6005 22.6899 32.4405C23.4689 33.1928 24.0053 34.161 24.2299 35.2205C22.2299 35.6105 22.5499 38.8605 22.5499 38.8605L8.99986 30.8705C8.99986 30.8705 9.64985 26.1305 5.81985 24.0305C1.98985 21.9305 2.13985 26.7505 2.13985 26.7505C2.13985 26.7505 2.01985 26.6305 1.60985 26.1705C1.14937 25.004 0.941465 23.7532 0.999855 22.5005C1.02831 22.3823 1.09882 22.2786 1.19821 22.2087C1.29759 22.1387 1.41904 22.1074 1.53985 22.1205C1.53985 22.1205 1.46985 21.1905 1.44985 20.2305L1.46985 20.2405Z" fill="#999FB0"/>
<path d="M9 29.1504L22.68 37.2104C22.581 37.7544 22.5508 38.3088 22.59 38.8604L9 30.8704C9.06181 30.2987 9.06181 29.7221 9 29.1504Z" fill="#082A4C"/>
<path d="M9 29.1504L19.28 35.2104L20.66 37.7304L9 30.8704C9.06181 30.2987 9.06181 29.7221 9 29.1504Z" fill="#15243E"/>
<path d="M35.6298 29.1506C41.3798 25.6406 41.4598 24.5406 40.9798 23.9506C41.2384 23.9123 41.5012 23.9123 41.7598 23.9506C42.9947 25.1192 44.1506 26.3687 45.2198 27.6906C45.9398 31.4206 37.6598 35.8306 33.7998 35.8306C29.9398 35.8306 26.7998 31.8306 26.7998 31.8306C27.3998 32.2706 29.7498 32.7306 35.6298 29.1506Z" fill="#F0F1F3"/>
<path d="M46.1798 29.2093C45.9798 30.9593 45.3198 30.4393 45.3198 30.4393C45.3198 30.4393 45.3198 29.8893 45.3198 29.4393C44.9998 29.4893 45.7199 29.0893 45.7899 28.5293C45.9099 28.7193 46.0298 28.9093 46.1198 29.0893L46.1798 29.2093Z" fill="white"/>
<path d="M35.5601 36.3092C38.7918 35.3291 41.7779 33.6724 44.3201 31.4492C44.3201 31.8792 44.3201 32.4492 44.3201 32.4492C41.9476 34.6185 39.0972 36.1979 36.0001 37.0592C35.8709 36.7993 35.7239 36.5487 35.5601 36.3092Z" fill="#113C70"/>
<path d="M44.3298 31.9292C41.8726 34.119 38.974 35.7558 35.8298 36.7292C35.6998 36.5092 35.5498 36.3092 35.5498 36.3092C38.7815 35.3291 41.7677 33.6724 44.3098 31.4492C44.3298 31.5992 44.3298 31.7692 44.3298 31.9292Z" fill="#082A4C"/>
<path d="M32.3299 37.5909C33.5738 37.6119 34.8129 37.4329 35.9999 37.0609C39.0909 36.1938 41.9342 34.6111 44.2999 32.4409C45.2471 31.589 45.8986 30.4578 46.1599 29.2109C46.2763 29.4507 46.3765 29.6979 46.4599 29.9509C46.4599 29.9509 46.4599 31.3009 44.6899 32.8909C42.1651 34.9689 39.3265 36.6329 36.2799 37.8209C35.2733 38.2419 34.1905 38.4503 33.0995 38.4331C32.0085 38.4159 30.9328 38.1734 29.9399 37.7209C29.6499 37.5709 28.5999 36.6509 28.7499 36.3009C29.8671 36.9186 31.0756 37.3541 32.3299 37.5909Z" fill="#B3B7C4"/>
<path d="M16.7001 19.5995C14.1001 18.3995 4.58008 14.2695 4.58008 14.2695C7.2137 12.3058 10.2442 10.9407 13.4601 10.2695C14.3901 10.2695 24.5501 10.5495 27.1801 11.5795C29.5222 12.4588 31.6994 13.7265 33.6201 15.3295C33.5922 15.4958 33.5196 15.6513 33.4101 15.7795C33.4101 15.7795 26.5201 19.9195 20.9401 22.7795C19.7535 21.4468 18.3117 20.3655 16.7001 19.5995Z" fill="#DCDFE5"/>
<path d="M28.7599 25.9295C28.7599 25.9295 29.6599 26.3795 30.2999 26.7595C32.6399 25.2195 38.4399 21.9395 38.4399 21.9395L39.9399 22.8095C40.4899 23.4095 40.8699 23.8095 40.9399 23.9495C41.4199 24.5395 41.3499 25.6495 35.5899 29.1495C29.8299 32.6495 27.3599 32.2695 26.7299 31.8295C25.8557 30.7555 25.0762 29.6079 24.3999 28.3995C25.8077 27.4983 27.2632 26.6737 28.7599 25.9295Z" fill="#495D8F"/>
<path d="M30.6 17.4102L38.44 21.9402C38.44 21.9402 36.95 22.7802 35.18 23.8102C33.4575 23.039 31.5969 22.624 29.71 22.5902C29.7175 21.0804 29.6408 19.5714 29.48 18.0702L30.6 17.4102Z" fill="#15243E"/>
<path d="M29.48 18.0605C29.6408 19.5618 29.7176 21.0708 29.71 22.5805L23.17 26.3405L23 21.7105C25.25 20.5005 27.59 19.1505 29.48 18.0605Z" fill="#083356"/>
<path d="M28.9998 31.2991C30.2498 31.0591 36.6598 27.5391 38.6298 26.1991C40.5998 24.8591 40.6298 23.6191 40.6298 23.6191L40.9198 23.9491C41.3998 24.5391 41.3298 25.6491 35.5698 29.1491C29.8098 32.6491 27.3398 32.2691 26.7098 31.8291C26.5459 31.6813 26.4014 31.5133 26.2798 31.3291C27.177 31.525 28.1071 31.5148 28.9998 31.2991Z" fill="#15243E"/>
<path d="M30.2999 26.7598C29.6599 26.3698 28.7599 25.9298 28.7599 25.9298C28.7599 25.9298 27.5299 26.5598 26.3399 27.2298L23.1699 26.3498L29.7099 22.5898C31.5968 22.6237 33.4575 23.0386 35.1799 23.8098C33.4599 24.8198 31.4599 25.9998 30.2999 26.7598Z" fill="#082A4C"/>
<path d="M23.1702 26.3493C22.3302 24.9793 21.5202 23.6593 20.9502 22.7793L21.9502 22.2793H22.0102L22.9502 21.7793H23.0102L23.1702 26.3493Z" fill="#113C70"/>
<path d="M24.4399 28.4096L24.7199 28.8696C24.2299 28.0796 23.7199 27.2096 23.1699 26.3496L26.3399 27.2296C25.6843 27.5858 25.0499 27.9798 24.4399 28.4096Z" fill="#113C70"/>
<path d="M29.09 19.4299C27.8307 19.8676 26.6689 20.547 25.67 21.4299C25.6405 21.4827 25.6234 21.5414 25.6198 21.6017C25.6163 21.6619 25.6264 21.7223 25.6495 21.7781C25.6726 21.8339 25.7081 21.8837 25.7532 21.9239C25.7983 21.964 25.8519 21.9935 25.91 22.0099C27.0337 21.5059 28.0998 20.8823 29.09 20.1499C29.34 19.7899 29.26 19.3799 29.09 19.4299Z" fill="#495D8F"/>
<path d="M31.9999 19.8591C32.2799 19.7591 32.8999 20.2391 32.9299 20.6091C32.9599 20.9791 32.4199 21.1091 31.9999 20.8791C31.9229 20.8183 31.8607 20.7408 31.8179 20.6524C31.7752 20.5641 31.7529 20.4673 31.7529 20.3691C31.7529 20.271 31.7752 20.1741 31.8179 20.0858C31.8607 19.9975 31.9229 19.92 31.9999 19.8591Z" fill="#15243E"/>
<path d="M23.11 30.7206C22.88 30.6306 10.64 23.7206 9 22.4806L10.21 18.3906C13.1156 19.4783 15.8684 20.9371 18.4 22.7306C20.52 24.4206 23.7 29.9506 23.7 29.9506C23.93 30.3706 23.35 30.8206 23.11 30.7206Z" fill="#495D8F"/>
<path d="M9.46002 18.1191L9.97002 18.2991L10.6 18.5391L10.21 18.3891L9.00002 22.4991L8.86002 22.3791C8.64811 22.1697 8.45098 21.9458 8.27002 21.7091L9.46002 18.1191Z" fill="#15243E"/>
<path d="M2.50987 24.6201C2.23581 25.2963 2.09981 26.0205 2.10987 26.7501C2.10987 26.7501 1.98987 26.6301 1.57987 26.1701C1.12961 25.0014 0.931945 23.7507 0.999874 22.5001C1.02833 22.382 1.09884 22.2782 1.19822 22.2083C1.29761 22.1383 1.41906 22.107 1.53987 22.1201C1.54368 22.6043 1.5973 23.0869 1.69987 23.5601C1.86475 23.9826 2.14551 24.35 2.50987 24.6201Z" fill="#15243E"/>
<path d="M9.46014 18.1191L8.27014 21.6991C7.82746 21.0364 7.33964 20.4049 6.81014 19.8091C6.14014 19.1791 4.89014 17.9891 4.89014 17.9891L5.43014 15.8691C6.57964 16.9231 7.95973 17.6937 9.46014 18.1191Z" fill="#083356"/>
<path d="M38.4302 20.2406C38.586 19.8545 38.8502 19.5216 39.1908 19.2821C39.5315 19.0426 39.9341 18.9066 40.3502 18.8906C40.9002 19.3406 40.5702 20.2406 40.5702 20.2406C40.3766 20.7548 40.0269 21.1954 39.5702 21.5006C39.1302 21.0806 38.4302 20.2406 38.4302 20.2406Z" fill="#DCDFE5"/>
<path d="M40.5701 20.2404C40.3765 20.7545 40.0268 21.1951 39.5701 21.5004L39.1001 20.9904C39.4009 20.764 39.67 20.4983 39.9001 20.2004C40.2216 19.8451 40.3935 19.3794 40.3801 18.9004C40.9001 19.3404 40.5701 20.2404 40.5701 20.2404Z" fill="#113C70"/>
<path d="M29.43 42.4108C28.7205 42.8778 27.8774 43.0991 27.03 43.0408C27.3118 43.0174 27.585 42.932 27.83 42.7908C29.1 42.0508 29.27 39.9608 28.2 38.1108C27.7097 37.2035 26.9375 36.4804 26 36.0508L26.63 35.8008C28.9 37.2608 29.63 40.7808 29.43 42.4108Z" fill="#15243E"/>
<path d="M5.80019 24.0302C9.00019 25.7902 9.07019 29.4202 9.00019 30.5002C8.60561 30.8379 8.14003 31.0826 7.638 31.2159C7.13597 31.3492 6.61037 31.3677 6.10019 31.2702L2.74019 26.7502H2.11019C2.11019 26.7502 2.00019 21.9402 5.80019 24.0302Z" fill="#15243E"/>
<path d="M23.5877 40.7717C23.8418 41.2119 24.153 41.6133 24.5035 41.9531C24.854 42.2929 25.237 42.5644 25.6306 42.7521C26.0242 42.9398 26.4207 43.0401 26.7975 43.0471C27.1742 43.0542 27.5238 42.9679 27.8263 42.7933C28.1288 42.6186 28.3783 42.359 28.5606 42.0292C28.7428 41.6994 28.8543 41.3059 28.8885 40.8712C28.9227 40.4365 28.8791 39.969 28.7601 39.4956C28.6411 39.0221 28.4491 38.5519 28.195 38.1117C27.9409 37.6716 27.6296 37.2702 27.2791 36.9304C26.9286 36.5906 26.5456 36.3191 26.152 36.1314C25.7584 35.9437 25.3619 35.8434 24.9852 35.8363C24.6084 35.8293 24.2588 35.9155 23.9563 36.0902C23.6538 36.2648 23.4043 36.5245 23.222 36.8543C23.0398 37.1841 22.9284 37.5776 22.8941 38.0123C22.8599 38.447 22.9035 38.9144 23.0225 39.3879C23.1415 39.8614 23.3336 40.3316 23.5877 40.7717Z" fill="#2D313F"/>
<path d="M24.137 40.465C24.3162 40.7754 24.5372 41.0578 24.7872 41.2959C25.0373 41.534 25.3115 41.7232 25.5942 41.8526C25.877 41.9821 26.1628 42.0493 26.4352 42.0505C26.7076 42.0516 26.9614 41.9866 27.1821 41.8592C27.4027 41.7318 27.5859 41.5446 27.7211 41.3081C27.8563 41.0716 27.941 40.7905 27.9703 40.4809C27.9995 40.1712 27.9728 39.8392 27.8916 39.5036C27.8105 39.168 27.6764 38.8354 27.4972 38.525C27.3179 38.2145 27.0969 37.9321 26.8469 37.694C26.5969 37.4559 26.3226 37.2668 26.0399 37.1373C25.7571 37.0078 25.4713 36.9406 25.1989 36.9395C24.9265 36.9383 24.6727 37.0033 24.4521 37.1307C24.2314 37.2581 24.0483 37.4454 23.913 37.6819C23.7778 37.9184 23.6931 38.1995 23.6638 38.5091C23.6346 38.8187 23.6613 39.1508 23.7425 39.4864C23.8237 39.822 23.9577 40.1545 24.137 40.465Z" fill="#2D313F"/>
<path d="M24.0498 40.5003C23.2698 39.1503 23.4298 37.6003 24.3998 37.0303C24.6587 36.8937 24.9471 36.8223 25.2398 36.8223C25.5326 36.8223 25.8209 36.8937 26.0798 37.0303C26.7095 37.3497 27.2333 37.8444 27.5881 38.4547C27.943 39.0651 28.1138 39.7651 28.0798 40.4703C28.0679 40.762 27.9852 41.0464 27.8388 41.299C27.6925 41.5516 27.4869 41.7648 27.2398 41.9203C27.002 42.0545 26.7329 42.1235 26.4598 42.1203C25.9538 42.0763 25.4673 41.9047 25.0458 41.6213C24.6242 41.338 24.2816 40.9522 24.0498 40.5003ZM24.4998 37.2003C23.6198 37.7103 23.4998 39.1503 24.2198 40.4003C24.9398 41.6503 26.2198 42.2703 27.1298 41.7603C27.3492 41.6196 27.5311 41.4279 27.66 41.2014C27.7889 40.975 27.8609 40.7207 27.8698 40.4603C27.9014 39.7978 27.742 39.1402 27.4104 38.5658C27.0789 37.9913 26.5893 37.5243 25.9998 37.2203C25.7461 37.1009 25.4702 37.0361 25.1898 37.0303C24.948 37.0283 24.7099 37.0904 24.4998 37.2103V37.2003Z" fill="#B3B7C4"/>
<path d="M27.9998 40.2109L26.4498 39.8809L27.5498 41.5609C27.4496 41.6759 27.3314 41.7738 27.1998 41.8509C26.9923 41.9693 26.7587 42.0346 26.5198 42.0409L25.7598 40.1209L24.8098 41.3009C24.5539 41.0537 24.335 40.7707 24.1598 40.4609L25.3098 39.4609L23.8198 38.0009C23.9367 37.6586 24.1703 37.3683 24.4798 37.1809L25.4798 38.4709V36.9609C25.7667 37.0131 26.0414 37.1182 26.2898 37.2709L26.3498 39.0809L27.7298 39.0209C27.893 39.3974 27.9846 39.8009 27.9998 40.2109Z" fill="#CCCCCC"/>
<path d="M27.91 39.5898H26L27.15 41.8498L26.98 41.9298L25.82 39.6398L24.42 40.9198L24.3 40.7598L25.75 39.4998L24 37.4998L24.12 37.3498L25.77 39.2098V37.0098L25.96 37.0798V39.3698H27.85L27.91 39.5898Z" fill="#3D4154"/>
<path d="M25.4401 39.7C25.356 39.59 25.3173 39.4518 25.3322 39.3141C25.3471 39.1763 25.4144 39.0496 25.5201 38.96C25.5757 38.9311 25.6374 38.916 25.7001 38.916C25.7628 38.916 25.8245 38.9311 25.8801 38.96C26.0161 39.028 26.1293 39.1343 26.2056 39.2658C26.282 39.3973 26.3183 39.5482 26.3101 39.7C26.3071 39.7623 26.2891 39.823 26.2578 39.8769C26.2265 39.9309 26.1827 39.9765 26.1301 40.01C26.0744 40.0249 26.0158 40.0249 25.9601 40.01C25.8546 40.0053 25.7519 39.9745 25.6611 39.9204C25.5704 39.8663 25.4945 39.7906 25.4401 39.7Z" fill="#2D313F"/>
<path d="M25.63 39.5891C25.5836 39.5406 25.5576 39.4761 25.5576 39.4091C25.5576 39.342 25.5836 39.2775 25.63 39.2291C25.6564 39.2159 25.6855 39.209 25.715 39.209C25.7445 39.209 25.7736 39.2159 25.8 39.2291C25.8628 39.2628 25.9149 39.3135 25.9502 39.3754C25.9856 39.4372 26.0028 39.5078 26 39.5791C25.9981 39.6094 25.989 39.6389 25.9733 39.665C25.9576 39.6911 25.9359 39.7131 25.91 39.7291H25.83C25.7889 39.7205 25.75 39.7036 25.7156 39.6796C25.6813 39.6555 25.6521 39.6247 25.63 39.5891Z" fill="#111F33"/>
<path d="M3.06178 29.0335C3.31589 29.4736 3.6271 29.875 3.97763 30.2148C4.32817 30.5546 4.71117 30.8261 5.10476 31.0138C5.49836 31.2015 5.89484 31.3018 6.27158 31.3088C6.64831 31.3159 6.99792 31.2297 7.30044 31.055C7.60296 30.8803 7.85247 30.6207 8.03471 30.2909C8.21696 29.9611 8.32838 29.5676 8.36262 29.1329C8.39685 28.6982 8.35322 28.2307 8.23422 27.7573C8.11523 27.2838 7.92319 26.8136 7.66908 26.3735C7.41497 25.9333 7.10377 25.5319 6.75323 25.1921C6.4027 24.8523 6.0197 24.5808 5.6261 24.3931C5.23251 24.2054 4.83602 24.1051 4.45929 24.0981C4.08255 24.091 3.73294 24.1772 3.43042 24.3519C3.1279 24.5266 2.8784 24.7862 2.69615 25.116C2.5139 25.4458 2.40248 25.8393 2.36825 26.274C2.33402 26.7087 2.37764 27.1762 2.49664 27.6496C2.61564 28.1231 2.80767 28.5933 3.06178 29.0335Z" fill="#2D313F"/>
<path d="M3.6062 28.7189C3.96822 29.3459 4.49242 29.8451 5.06349 30.1065C5.63456 30.368 6.20571 30.3704 6.6513 30.1131C7.09689 29.8559 7.38042 29.3601 7.43951 28.7348C7.4986 28.1095 7.32842 27.4059 6.9664 26.7789C6.60438 26.1518 6.08017 25.6527 5.50911 25.3912C4.93804 25.1297 4.36689 25.1273 3.9213 25.3846C3.47571 25.6419 3.19218 26.1377 3.13309 26.763C3.07399 27.3883 3.24418 28.0918 3.6062 28.7189Z" fill="#2D313F"/>
<path d="M3.5298 28.7698C2.7498 27.4198 2.9098 25.8698 3.8798 25.2998C4.13872 25.1632 4.42705 25.0918 4.7198 25.0918C5.01255 25.0918 5.30088 25.1632 5.5598 25.2998C6.19491 25.611 6.71869 26.1103 7.0598 26.7298C7.42292 27.3311 7.59387 28.0288 7.5498 28.7298C7.54001 29.0259 7.45731 29.3149 7.30904 29.5713C7.16076 29.8278 6.9515 30.0436 6.6998 30.1998C6.46196 30.334 6.19288 30.403 5.9198 30.3998C5.41632 30.3516 4.9332 30.1769 4.51535 29.8919C4.09749 29.607 3.75847 29.221 3.5298 28.7698ZM3.9998 25.4998C3.1198 26.0098 2.9998 27.4498 3.7198 28.6998C4.4398 29.9498 5.7198 30.5698 6.6298 30.0598C6.84913 29.9192 7.03105 29.7274 7.15995 29.501C7.28884 29.2745 7.36085 29.0202 7.3698 28.7598C7.41509 28.0943 7.25449 27.4309 6.9098 26.8598C6.58562 26.2692 6.08591 25.794 5.4798 25.4998C5.22611 25.3804 4.95014 25.3157 4.6698 25.3098C4.43383 25.3144 4.20304 25.3798 3.9998 25.4998Z" fill="#B3B7C4"/>
<path d="M7.45977 28.5005L5.90977 28.1705L6.99977 29.8205C6.89955 29.9354 6.78135 30.0334 6.64977 30.1105C6.44222 30.2289 6.20862 30.2941 5.96977 30.3005L5.20977 28.3805L4.25977 29.5605C4.00383 29.3132 3.78491 29.0303 3.60977 28.7205L4.75977 27.7205L3.25977 26.2205C3.37662 25.8781 3.61028 25.5878 3.91977 25.4005L4.91977 26.6905V25.2305C5.20666 25.2827 5.48134 25.3878 5.72977 25.5405L5.78977 27.3505L7.16977 27.2905C7.34228 27.6718 7.4407 28.0824 7.45977 28.5005Z" fill="#CCCCCC"/>
<path d="M7.38998 27.8608H5.51998L6.66998 30.1208L6.49998 30.2008L5.32998 27.9108L3.92998 29.2008L3.80998 29.0408L5.21998 27.7508L3.47998 25.7508L3.59998 25.6008L5.25998 27.5008V25.3008L5.44998 25.3708V27.6608H7.33998L7.38998 27.8608Z" fill="#3D4154"/>
<path d="M4.90986 27.9696C4.82687 27.8583 4.78993 27.7193 4.80669 27.5816C4.82344 27.4438 4.89262 27.3177 4.99986 27.2296C5.05545 27.2006 5.11719 27.1855 5.17986 27.1855C5.24252 27.1855 5.30427 27.2006 5.35986 27.2296C5.49586 27.2976 5.60902 27.4039 5.68542 27.5353C5.76181 27.6668 5.79812 27.8177 5.78986 27.9696C5.78683 28.0319 5.7689 28.0925 5.73758 28.1465C5.70626 28.2004 5.66246 28.2461 5.60986 28.2796C5.55416 28.2944 5.49555 28.2944 5.43986 28.2796C5.33261 28.2765 5.22787 28.2464 5.13525 28.1923C5.04264 28.1381 4.96513 28.0615 4.90986 27.9696Z" fill="#3D4154"/>
<path d="M5.10998 27.8605C5.06353 27.8121 5.0376 27.7476 5.0376 27.6805C5.0376 27.6135 5.06353 27.549 5.10998 27.5005C5.13637 27.4873 5.16547 27.4805 5.19498 27.4805C5.22449 27.4805 5.25359 27.4873 5.27998 27.5005C5.34279 27.5343 5.39485 27.5849 5.43022 27.6468C5.46558 27.7087 5.48283 27.7793 5.47998 27.8505C5.47809 27.8809 5.46893 27.9104 5.45327 27.9365C5.43761 27.9626 5.4159 27.9846 5.38998 28.0005H5.30998C5.2689 27.992 5.23 27.9751 5.19562 27.9511C5.16124 27.927 5.13211 27.8962 5.10998 27.8605Z" fill="#111F33"/>
<path d="M32.56 36.3102C32.7307 36.5491 32.8844 36.7998 33.02 37.0602C33.02 37.0602 33.02 37.5002 32.33 37.5902C31.6801 37.637 31.0277 37.5473 30.4146 37.3269C29.8015 37.1064 29.2413 36.7601 28.77 36.3102L27 34.2402C28.2657 34.8388 29.4976 35.5065 30.69 36.2402C31.2874 36.4749 31.9468 36.4996 32.56 36.3102Z" fill="white"/>
<path d="M38.4501 21.9402L37.8001 22.3002L29.8701 17.8302L30.6001 17.4102L38.4501 21.9402Z" fill="#113C70"/>
<path d="M36.0001 21.2995C35.2917 21.9248 34.3848 22.279 33.4401 22.2995C32.3001 22.1095 29.6201 20.0195 29.6201 20.0195L29.6801 21.0195C29.6801 21.0195 31.1201 22.1295 32.2401 22.8195C33.1401 23.0295 33.7301 23.1995 33.9601 23.2795C34.9492 22.8951 35.8555 22.3249 36.6301 21.5995L36.0001 21.2995Z" fill="#495D8F"/>
<path d="M13.4498 27.0703C13.4531 27.1653 13.4772 27.2584 13.5204 27.3431C13.5636 27.4277 13.6248 27.5019 13.6998 27.5603C14.0623 27.818 14.4434 28.0486 14.8398 28.2503C15.0343 28.2513 15.2284 28.2346 15.4198 28.2003V28.5903C15.1946 28.6666 14.9536 28.6838 14.7198 28.6403C14.252 28.4284 13.812 28.1597 13.4098 27.8403C13.3524 27.5848 13.3662 27.3185 13.4498 27.0703Z" fill="#113C70"/>
<path d="M14.8402 28.2503C14.4438 28.0486 14.0627 27.818 13.7002 27.5603C13.5799 27.4702 13.4978 27.3381 13.4702 27.1903V27.0703L15.4702 28.2003C15.2624 28.2377 15.0513 28.2544 14.8402 28.2503Z" fill="#DCDFE5"/>
<path d="M9 22.4808L9.65 22.3008L10.13 20.7008L9.64 20.3008L9 22.4808Z" fill="#082A4C"/>
<path d="M26.9998 26.8705C26.4845 26.5896 25.8936 26.4789 25.3116 26.5543C24.7296 26.6298 24.1864 26.8875 23.7598 27.2905L24.0898 27.8305C24.3998 27.5712 24.7625 27.3823 25.1527 27.277C25.5429 27.1717 25.9514 27.1524 26.3498 27.2205L26.9998 26.8705Z" fill="#495D8F"/>
<path d="M6.55008 12.8404C14.1403 14.7483 22.0923 14.6829 29.6501 12.6504C31.0773 13.3791 32.4189 14.2646 33.6501 15.2904C33.6222 15.4567 33.5496 15.6122 33.4401 15.7404C33.4401 15.7404 26.5501 19.8804 20.9701 22.7404C19.7709 21.4189 18.319 20.3512 16.7001 19.6004C14.1001 18.4004 4.58008 14.2704 4.58008 14.2704C5.20791 13.7552 5.86573 13.2777 6.55008 12.8404Z" fill="#F0F1F3"/>
<path d="M9.8999 19.4297L10.2099 18.4297C13.1155 19.5174 15.8683 20.9762 18.3999 22.7697C20.3999 24.3897 23.3999 29.5297 23.6799 29.9597C14.3899 24.5897 9.8999 19.4297 9.8999 19.4297Z" fill="#082A4C"/>
<path d="M23.1698 29.0703C22.6426 28.836 22.0561 28.7696 21.4898 28.8803C21.1328 28.9461 20.7935 29.0861 20.4938 29.291C20.1941 29.496 19.9407 29.7614 19.7498 30.0703C19.6198 30.4603 20.0698 30.6903 20.2298 30.7703C20.3898 30.8503 23.0998 30.7103 23.0998 30.7103C23.3155 30.4958 23.4425 30.2079 23.4554 29.904C23.4684 29.6 23.3664 29.3024 23.1698 29.0703Z" fill="#B3B7C4"/>
<path d="M19.7302 30.1803C20.8602 30.0803 23.4002 29.8203 23.4302 29.8203C23.4482 29.9856 23.4278 30.1528 23.3706 30.3089C23.3133 30.465 23.2208 30.6058 23.1002 30.7203C23.1002 30.7203 20.3902 30.8603 20.2302 30.7803C20.0702 30.7003 19.7002 30.5003 19.7302 30.1803Z" fill="#113C70"/>
<path d="M29.46 36.7602C29.2191 36.6277 28.9884 36.4772 28.77 36.3102L27 34.2402C27 34.2402 28.6 35.2902 29.84 35.9102C29.6746 36.1746 29.5467 36.4607 29.46 36.7602Z" fill="#FF0000"/>
</svg>
