<svg width="190" height="56" viewBox="0 0 190 56" fill="none" xmlns="http://www.w3.org/2000/svg">
<rect x="0.5" y="0.5" width="188.28" height="55" rx="11.5" fill="#15243E" stroke="white"/>
<path d="M14.6722 10.5559C14.263 10.9871 14.0211 11.6563 14.0211 12.5229V43.4853C14.0211 44.3533 14.263 45.0211 14.6722 45.4523L14.7763 45.5531L32.1971 28.2085V28.0041V27.7997L14.7763 10.4537L14.6722 10.5559Z" fill="url(#paint0_linear)"/>
<path d="M38.0036 33.9904L32.1975 28.207V28.0026V27.7982L38.005 22.0162L38.1357 22.0904L45.0161 25.9824C46.9805 27.094 46.9805 28.9126 45.0161 30.0256L38.1357 33.9176L38.0036 33.9904Z" fill="url(#paint1_linear)"/>
<path d="M38.1368 33.9152L32.1972 28.0016L14.6737 45.4498C15.3205 46.133 16.3906 46.217 17.5957 45.5366L38.1368 33.9152Z" fill="url(#paint2_linear)"/>
<path d="M38.1368 22.0887L17.5957 10.4687C16.3906 9.78687 15.3205 9.87227 14.6737 10.5555L32.1986 28.0037L38.1368 22.0887Z" fill="url(#paint3_linear)"/>
<path opacity="0.2" d="M38.0042 33.7864L17.5938 45.3336C16.452 45.979 15.4311 45.9356 14.7759 45.349L14.6718 45.4526L14.7759 45.5534C15.4311 46.1414 16.452 46.1848 17.5938 45.538L38.135 33.918L38.0042 33.7864Z" fill="black"/>
<path opacity="0.12" d="M14.6716 45.2467C14.2624 44.8155 14.0205 44.1463 14.0205 43.2797V43.4841C14.0205 44.3507 14.2624 45.0199 14.6716 45.4511L14.7756 45.3475L14.6716 45.2467Z" fill="black"/>
<path opacity="0.12" d="M45.0147 29.8198L38.0036 33.786L38.1344 33.9162L45.0147 30.0242C45.9976 29.4684 46.4884 28.7362 46.4884 28.004C46.4054 28.6662 45.9048 29.3144 45.0147 29.8198Z" fill="black"/>
<path opacity="0.25" d="M17.5942 10.6752L45.0157 26.1872C45.9072 26.6912 46.4064 27.3408 46.4894 28.0044C46.4894 27.2722 45.9986 26.5386 45.0157 25.9828L17.5942 10.4708C15.6284 9.35925 14.0212 10.2832 14.0212 12.5232V12.7276C14.0212 10.4876 15.6284 9.56365 17.5942 10.6752Z" fill="white"/>
<path d="M95.8093 30.4518C92.502 30.4518 89.8064 32.9564 89.8064 36.406C89.8064 39.8346 92.502 42.3602 95.8093 42.3602C99.118 42.3602 101.814 39.8346 101.814 36.406C101.812 32.9564 99.1166 30.4518 95.8093 30.4518ZM95.8093 40.0166C93.9968 40.0166 92.4345 38.5284 92.4345 36.4074C92.4345 34.264 93.9982 32.7982 95.8093 32.7982C97.6218 32.7982 99.1841 34.264 99.1841 36.4074C99.1841 38.527 97.6218 40.0166 95.8093 40.0166ZM82.7123 30.4518C79.4051 30.4518 76.7095 32.9564 76.7095 36.406C76.7095 39.8346 79.4051 42.3602 82.7123 42.3602C86.021 42.3602 88.7166 39.8346 88.7166 36.406C88.7166 32.9564 86.021 30.4518 82.7123 30.4518ZM82.7123 40.0166C80.8998 40.0166 79.3376 38.5284 79.3376 36.4074C79.3376 34.264 80.9012 32.7982 82.7123 32.7982C84.5249 32.7982 86.0871 34.264 86.0871 36.4074C86.0885 38.527 84.5249 40.0166 82.7123 40.0166ZM67.1349 34.8058H73.2067C73.0253 36.2268 72.55 37.2642 71.8245 37.9852C70.9414 38.8644 69.5591 39.8346 67.1349 39.8346C63.3974 39.8346 60.4754 36.8344 60.4754 33.1132C60.4754 29.392 63.3974 26.3918 67.1349 26.3918C69.1514 26.3918 70.6236 27.1814 71.7106 28.1964L73.5006 26.4142C71.982 24.9708 69.9669 23.8662 67.1349 23.8662C62.0151 23.8662 57.7109 28.0158 57.7109 33.1132C57.7109 38.2106 62.0151 42.3602 67.1349 42.3602C69.898 42.3602 71.9834 41.4572 73.6131 39.766C75.2892 38.0972 75.8109 35.7508 75.8109 33.8566C75.8109 33.2714 75.7659 32.7296 75.6745 32.2788H67.1349V34.8058ZM130.845 34.2416C130.347 32.9116 128.829 30.4518 125.725 30.4518C122.644 30.4518 120.084 32.8654 120.084 36.406C120.084 39.7436 122.622 42.3602 126.019 42.3602C128.76 42.3602 130.346 40.6914 131.004 39.7212L128.965 38.3674C128.286 39.36 127.356 40.0138 126.019 40.0138C124.683 40.0138 123.731 39.4048 123.12 38.2092L131.117 34.9164L130.845 34.2416ZM122.689 36.2268C122.622 33.9252 124.479 32.7534 125.817 32.7534C126.859 32.7534 127.742 33.2728 128.037 34.0162L122.689 36.2268ZM116.189 42.0004H118.815V24.499H116.189V42.0004ZM111.793 31.7832C111.204 31.0832 110.071 30.4518 108.645 30.4518C105.654 30.4518 102.913 33.0684 102.913 36.4298C102.913 39.7674 105.654 42.3616 108.645 42.3616C110.072 42.3616 111.204 41.7302 111.793 41.0092H111.883V41.866C111.883 44.1438 110.66 45.3618 108.69 45.3618C107.081 45.3618 106.084 44.2124 105.676 43.2422L103.388 44.19C104.045 45.7678 105.789 47.7082 108.69 47.7082C111.771 47.7082 114.376 45.9036 114.376 41.5048V30.8144H111.885V31.7832H111.793ZM108.871 40.0166C107.059 40.0166 105.541 38.5046 105.541 36.4298C105.541 34.3312 107.059 32.7982 108.871 32.7982C110.66 32.7982 112.064 34.3312 112.064 36.4298C112.064 38.5046 110.66 40.0166 108.871 40.0166ZM143.155 24.499H136.868V42.0004H139.49V35.37H143.153C146.061 35.37 148.921 33.2742 148.921 29.9352C148.921 26.5962 146.063 24.499 143.155 24.499ZM143.222 32.934H139.49V26.935H143.222C145.184 26.935 146.297 28.552 146.297 29.9352C146.297 31.2904 145.184 32.934 143.222 32.934ZM159.438 30.421C157.538 30.421 155.571 31.254 154.757 33.1006L157.085 34.068C157.583 33.1006 158.511 32.7842 159.483 32.7842C160.84 32.7842 162.219 33.5948 162.242 35.0354V35.216C161.767 34.9458 160.748 34.5412 159.505 34.5412C156.995 34.5412 154.439 35.9146 154.439 38.4808C154.439 40.823 156.498 42.3308 158.804 42.3308C160.567 42.3308 161.54 41.5426 162.15 40.6186H162.24V41.9696H164.774V35.2594C164.776 32.1542 162.444 30.421 159.438 30.421ZM159.12 40.0124C158.262 40.0124 157.063 39.584 157.063 38.5256C157.063 37.1746 158.556 36.6566 159.846 36.6566C160.997 36.6566 161.542 36.9044 162.242 37.2418C162.038 38.8644 160.636 40.0124 159.12 40.0124ZM174.002 30.8032L170.994 38.3912H170.904L167.782 30.8032H164.956L169.637 41.4082L166.968 47.3078H169.704L176.919 30.8032H174.002ZM150.37 42.0004H152.992V24.499H150.37V42.0004Z" fill="white"/>
<path d="M58.1803 19.9834V17.168H59.0057C59.7369 16.5422 60.0927 15.4712 60.0786 13.9536V9.80121H65.7117V17.1694H66.6538V19.9848H65.6175V18.2012H59.218V19.9834H58.1803ZM61.1613 13.955C61.1782 15.2836 60.9096 16.356 60.3612 17.1694H64.6261V10.8344H61.1613V13.955Z" fill="white"/>
<path d="M75.1079 17.1169C74.2782 17.9653 73.2475 18.3895 72.0143 18.3895C70.7811 18.3895 69.7504 17.9653 68.9222 17.1169C68.0925 16.2685 67.6791 15.2297 67.6791 14.0019C67.6791 12.7741 68.0925 11.7353 68.9222 10.8869C69.7504 10.0385 70.7811 9.61292 72.0143 9.61292C73.2405 9.61292 74.2698 10.0399 75.1022 10.8925C75.9347 11.7451 76.3509 12.7811 76.3509 14.0019C76.3495 15.2297 75.9347 16.2685 75.1079 17.1169ZM69.7209 16.4127C70.3452 17.0427 71.1087 17.3563 72.0129 17.3563C72.9171 17.3563 73.682 17.0413 74.3049 16.4127C74.9293 15.7827 75.2428 14.9791 75.2428 14.0019C75.2428 13.0247 74.9293 12.2211 74.3049 11.5911C73.682 10.9611 72.9171 10.6475 72.0129 10.6475C71.1087 10.6475 70.3452 10.9625 69.7209 11.5911C69.0979 12.2211 68.7844 13.0247 68.7844 14.0019C68.7844 14.9791 69.0979 15.7827 69.7209 16.4127Z" fill="white"/>
<path d="M81.8066 18.3891C80.565 18.3891 79.5244 17.9705 78.6835 17.1347C77.8426 16.2975 77.4236 15.2531 77.4236 14.0015C77.4236 12.7499 77.8426 11.7055 78.6835 10.8697C79.5244 10.0325 80.565 9.61394 81.8066 9.61394C83.0778 9.61394 84.1127 10.0717 84.9058 10.9859L84.1507 11.7139C83.5784 11.0013 82.7951 10.6457 81.8066 10.6457C80.887 10.6457 80.1108 10.9551 79.4794 11.5725C78.8466 12.1899 78.5302 13.0005 78.5302 14.0001C78.5302 14.9997 78.8466 15.8103 79.4794 16.4277C80.1108 17.0451 80.887 17.3545 81.8066 17.3545C82.8204 17.3545 83.6838 16.9485 84.3995 16.1351L85.1532 16.8855C84.768 17.3475 84.2856 17.7129 83.7035 17.9817C83.1228 18.2547 82.49 18.3891 81.8066 18.3891Z" fill="white"/>
<path d="M89.5368 18.2023H88.4527V10.8341H86.096V9.80225H91.8935V10.8341H89.5368V18.2023Z" fill="white"/>
<path d="M99.3377 9.80225L96.1443 16.8891C95.7042 17.8901 95.0489 18.3899 94.1771 18.3899C93.9169 18.3899 93.6385 18.3283 93.339 18.2023L93.6216 17.2055C93.803 17.3077 93.9915 17.3581 94.1869 17.3581C94.4386 17.3581 94.6327 17.3091 94.7705 17.2125C94.9083 17.1159 95.0348 16.9367 95.1529 16.6791L95.4595 16.0099L92.6233 9.80225H93.8958L95.9812 14.6239H96.0276L98.0651 9.80225H99.3377Z" fill="white"/>
<path d="M100.566 18.2023V9.80225H106.671V18.2023H105.586V10.8341H101.649V18.2023H100.566Z" fill="white"/>
<path d="M108.602 18.2023V9.80225H109.687V13.4031H113.905V9.80225H114.989V18.2023H113.905V14.4125H109.687V18.2023H108.602Z" fill="white"/>
<path d="M123.823 17.1169C122.993 17.9653 121.962 18.3895 120.729 18.3895C119.496 18.3895 118.465 17.9653 117.637 17.1169C116.807 16.2685 116.394 15.2297 116.394 14.0019C116.394 12.7741 116.807 11.7353 117.637 10.8869C118.465 10.0385 119.496 9.61292 120.729 9.61292C121.955 9.61292 122.984 10.0399 123.817 10.8925C124.649 11.7451 125.066 12.7811 125.066 14.0019C125.064 15.2297 124.649 16.2685 123.823 17.1169ZM118.437 16.4127C119.061 17.0427 119.825 17.3563 120.729 17.3563C121.633 17.3563 122.398 17.0413 123.021 16.4127C123.645 15.7827 123.959 14.9791 123.959 14.0019C123.959 13.0247 123.645 12.2211 123.021 11.5911C122.398 10.9611 121.633 10.6475 120.729 10.6475C119.825 10.6475 119.061 10.9625 118.437 11.5911C117.814 12.2211 117.5 13.0247 117.5 14.0019C117.5 14.9791 117.813 15.7827 118.437 16.4127Z" fill="white"/>
<path d="M129.496 18.2023V9.80225H132.548C133.209 9.80225 133.78 10.0193 134.263 10.4533C134.747 10.8887 134.989 11.4333 134.989 12.0899C134.989 12.4889 134.885 12.8417 134.675 13.1455C134.469 13.4507 134.19 13.6817 133.844 13.8385V13.8847C134.26 14.0261 134.602 14.2683 134.869 14.6127C135.135 14.9571 135.27 15.3561 135.27 15.8097C135.27 16.4985 135.016 17.0683 134.509 17.5219C134.003 17.9755 133.404 18.2023 132.712 18.2023H129.496ZM132.546 13.4031C132.955 13.4031 133.283 13.2687 133.531 12.9985C133.778 12.7297 133.902 12.4343 133.902 12.1137C133.902 11.7931 133.782 11.4991 133.542 11.2345C133.303 10.9685 132.986 10.8355 132.594 10.8355H130.578V13.4031H132.546ZM130.579 17.1705H132.76C133.176 17.1705 133.514 17.0249 133.774 16.7351C134.034 16.4467 134.162 16.1289 134.162 15.7845C134.162 15.4401 134.028 15.1265 133.761 14.8409C133.495 14.5553 133.145 14.4125 132.712 14.4125H130.579V17.1705Z" fill="white"/>
<path d="M95.8093 30.4518C92.502 30.4518 89.8064 32.9564 89.8064 36.406C89.8064 39.8346 92.502 42.3602 95.8093 42.3602C99.118 42.3602 101.814 39.8346 101.814 36.406C101.812 32.9564 99.1166 30.4518 95.8093 30.4518ZM95.8093 40.0166C93.9968 40.0166 92.4345 38.5284 92.4345 36.4074C92.4345 34.264 93.9982 32.7982 95.8093 32.7982C97.6218 32.7982 99.1841 34.264 99.1841 36.4074C99.1841 38.527 97.6218 40.0166 95.8093 40.0166ZM82.7123 30.4518C79.4051 30.4518 76.7095 32.9564 76.7095 36.406C76.7095 39.8346 79.4051 42.3602 82.7123 42.3602C86.021 42.3602 88.7166 39.8346 88.7166 36.406C88.7166 32.9564 86.021 30.4518 82.7123 30.4518ZM82.7123 40.0166C80.8998 40.0166 79.3376 38.5284 79.3376 36.4074C79.3376 34.264 80.9012 32.7982 82.7123 32.7982C84.5249 32.7982 86.0871 34.264 86.0871 36.4074C86.0885 38.527 84.5249 40.0166 82.7123 40.0166ZM67.1349 34.8058H73.2067C73.0253 36.2268 72.55 37.2642 71.8245 37.9852C70.9414 38.8644 69.5591 39.8346 67.1349 39.8346C63.3974 39.8346 60.4754 36.8344 60.4754 33.1132C60.4754 29.392 63.3974 26.3918 67.1349 26.3918C69.1514 26.3918 70.6236 27.1814 71.7106 28.1964L73.5006 26.4142C71.982 24.9708 69.9669 23.8662 67.1349 23.8662C62.0151 23.8662 57.7109 28.0158 57.7109 33.1132C57.7109 38.2106 62.0151 42.3602 67.1349 42.3602C69.898 42.3602 71.9834 41.4572 73.6131 39.766C75.2892 38.0972 75.8109 35.7508 75.8109 33.8566C75.8109 33.2714 75.7659 32.7296 75.6745 32.2788H67.1349V34.8058ZM130.845 34.2416C130.347 32.9116 128.829 30.4518 125.725 30.4518C122.644 30.4518 120.084 32.8654 120.084 36.406C120.084 39.7436 122.622 42.3602 126.019 42.3602C128.76 42.3602 130.346 40.6914 131.004 39.7212L128.965 38.3674C128.286 39.36 127.356 40.0138 126.019 40.0138C124.683 40.0138 123.731 39.4048 123.12 38.2092L131.117 34.9164L130.845 34.2416ZM122.689 36.2268C122.622 33.9252 124.479 32.7534 125.817 32.7534C126.859 32.7534 127.742 33.2728 128.037 34.0162L122.689 36.2268ZM116.189 42.0004H118.815V24.499H116.189V42.0004ZM111.793 31.7832C111.204 31.0832 110.071 30.4518 108.645 30.4518C105.654 30.4518 102.913 33.0684 102.913 36.4298C102.913 39.7674 105.654 42.3616 108.645 42.3616C110.072 42.3616 111.204 41.7302 111.793 41.0092H111.883V41.866C111.883 44.1438 110.66 45.3618 108.69 45.3618C107.081 45.3618 106.084 44.2124 105.676 43.2422L103.388 44.19C104.045 45.7678 105.789 47.7082 108.69 47.7082C111.771 47.7082 114.376 45.9036 114.376 41.5048V30.8144H111.885V31.7832H111.793ZM108.871 40.0166C107.059 40.0166 105.541 38.5046 105.541 36.4298C105.541 34.3312 107.059 32.7982 108.871 32.7982C110.66 32.7982 112.064 34.3312 112.064 36.4298C112.064 38.5046 110.66 40.0166 108.871 40.0166ZM143.155 24.499H136.868V42.0004H139.49V35.37H143.153C146.061 35.37 148.921 33.2742 148.921 29.9352C148.921 26.5962 146.063 24.499 143.155 24.499ZM143.222 32.934H139.49V26.935H143.222C145.184 26.935 146.297 28.552 146.297 29.9352C146.297 31.2904 145.184 32.934 143.222 32.934ZM159.438 30.421C157.538 30.421 155.571 31.254 154.757 33.1006L157.085 34.068C157.583 33.1006 158.511 32.7842 159.483 32.7842C160.84 32.7842 162.219 33.5948 162.242 35.0354V35.216C161.767 34.9458 160.748 34.5412 159.505 34.5412C156.995 34.5412 154.439 35.9146 154.439 38.4808C154.439 40.823 156.498 42.3308 158.804 42.3308C160.567 42.3308 161.54 41.5426 162.15 40.6186H162.24V41.9696H164.774V35.2594C164.776 32.1542 162.444 30.421 159.438 30.421ZM159.12 40.0124C158.262 40.0124 157.063 39.584 157.063 38.5256C157.063 37.1746 158.556 36.6566 159.846 36.6566C160.997 36.6566 161.542 36.9044 162.242 37.2418C162.038 38.8644 160.636 40.0124 159.12 40.0124ZM174.002 30.8032L170.994 38.3912H170.904L167.782 30.8032H164.956L169.637 41.4082L166.968 47.3078H169.704L176.919 30.8032H174.002ZM150.37 42.0004H152.992V24.499H150.37V42.0004Z" stroke="white" stroke-width="0.2" stroke-miterlimit="10"/>
<path d="M58.1803 19.9834V17.168H59.0057C59.7369 16.5422 60.0927 15.4712 60.0786 13.9536V9.80121H65.7117V17.1694H66.6538V19.9848H65.6175V18.2012H59.218V19.9834H58.1803ZM61.1613 13.955C61.1782 15.2836 60.9096 16.356 60.3612 17.1694H64.6261V10.8344H61.1613V13.955Z" stroke="white" stroke-width="0.2" stroke-miterlimit="10"/>
<path d="M75.1079 17.1169C74.2782 17.9653 73.2475 18.3895 72.0143 18.3895C70.7811 18.3895 69.7504 17.9653 68.9222 17.1169C68.0925 16.2685 67.6791 15.2297 67.6791 14.0019C67.6791 12.7741 68.0925 11.7353 68.9222 10.8869C69.7504 10.0385 70.7811 9.61292 72.0143 9.61292C73.2405 9.61292 74.2698 10.0399 75.1022 10.8925C75.9347 11.7451 76.3509 12.7811 76.3509 14.0019C76.3495 15.2297 75.9347 16.2685 75.1079 17.1169ZM69.7209 16.4127C70.3452 17.0427 71.1087 17.3563 72.0129 17.3563C72.9171 17.3563 73.682 17.0413 74.3049 16.4127C74.9293 15.7827 75.2428 14.9791 75.2428 14.0019C75.2428 13.0247 74.9293 12.2211 74.3049 11.5911C73.682 10.9611 72.9171 10.6475 72.0129 10.6475C71.1087 10.6475 70.3452 10.9625 69.7209 11.5911C69.0979 12.2211 68.7844 13.0247 68.7844 14.0019C68.7844 14.9791 69.0979 15.7827 69.7209 16.4127Z" stroke="white" stroke-width="0.2" stroke-miterlimit="10"/>
<path d="M81.8066 18.3891C80.565 18.3891 79.5244 17.9705 78.6835 17.1347C77.8426 16.2975 77.4236 15.2531 77.4236 14.0015C77.4236 12.7499 77.8426 11.7055 78.6835 10.8697C79.5244 10.0325 80.565 9.61394 81.8066 9.61394C83.0778 9.61394 84.1127 10.0717 84.9058 10.9859L84.1507 11.7139C83.5784 11.0013 82.7951 10.6457 81.8066 10.6457C80.887 10.6457 80.1108 10.9551 79.4794 11.5725C78.8466 12.1899 78.5302 13.0005 78.5302 14.0001C78.5302 14.9997 78.8466 15.8103 79.4794 16.4277C80.1108 17.0451 80.887 17.3545 81.8066 17.3545C82.8204 17.3545 83.6838 16.9485 84.3995 16.1351L85.1532 16.8855C84.768 17.3475 84.2856 17.7129 83.7035 17.9817C83.1228 18.2547 82.49 18.3891 81.8066 18.3891Z" stroke="white" stroke-width="0.2" stroke-miterlimit="10"/>
<path d="M89.5368 18.2023H88.4527V10.8341H86.096V9.80225H91.8935V10.8341H89.5368V18.2023Z" stroke="white" stroke-width="0.2" stroke-miterlimit="10"/>
<path d="M99.3377 9.80225L96.1443 16.8891C95.7042 17.8901 95.0489 18.3899 94.1771 18.3899C93.9169 18.3899 93.6385 18.3283 93.339 18.2023L93.6216 17.2055C93.803 17.3077 93.9915 17.3581 94.1869 17.3581C94.4386 17.3581 94.6327 17.3091 94.7705 17.2125C94.9083 17.1159 95.0348 16.9367 95.1529 16.6791L95.4595 16.0099L92.6233 9.80225H93.8958L95.9812 14.6239H96.0276L98.0651 9.80225H99.3377Z" stroke="white" stroke-width="0.2" stroke-miterlimit="10"/>
<path d="M100.566 18.2023V9.80225H106.671V18.2023H105.586V10.8341H101.649V18.2023H100.566Z" stroke="white" stroke-width="0.2" stroke-miterlimit="10"/>
<path d="M108.602 18.2023V9.80225H109.687V13.4031H113.905V9.80225H114.989V18.2023H113.905V14.4125H109.687V18.2023H108.602Z" stroke="white" stroke-width="0.2" stroke-miterlimit="10"/>
<path d="M123.823 17.1169C122.993 17.9653 121.962 18.3895 120.729 18.3895C119.496 18.3895 118.465 17.9653 117.637 17.1169C116.807 16.2685 116.394 15.2297 116.394 14.0019C116.394 12.7741 116.807 11.7353 117.637 10.8869C118.465 10.0385 119.496 9.61292 120.729 9.61292C121.955 9.61292 122.984 10.0399 123.817 10.8925C124.649 11.7451 125.066 12.7811 125.066 14.0019C125.064 15.2297 124.649 16.2685 123.823 17.1169ZM118.437 16.4127C119.061 17.0427 119.825 17.3563 120.729 17.3563C121.633 17.3563 122.398 17.0413 123.021 16.4127C123.645 15.7827 123.959 14.9791 123.959 14.0019C123.959 13.0247 123.645 12.2211 123.021 11.5911C122.398 10.9611 121.633 10.6475 120.729 10.6475C119.825 10.6475 119.061 10.9625 118.437 11.5911C117.814 12.2211 117.5 13.0247 117.5 14.0019C117.5 14.9791 117.813 15.7827 118.437 16.4127Z" stroke="white" stroke-width="0.2" stroke-miterlimit="10"/>
<path d="M129.496 18.2023V9.80225H132.548C133.209 9.80225 133.78 10.0193 134.263 10.4533C134.747 10.8887 134.989 11.4333 134.989 12.0899C134.989 12.4889 134.885 12.8417 134.675 13.1455C134.469 13.4507 134.19 13.6817 133.844 13.8385V13.8847C134.26 14.0261 134.602 14.2683 134.869 14.6127C135.135 14.9571 135.27 15.3561 135.27 15.8097C135.27 16.4985 135.016 17.0683 134.509 17.5219C134.003 17.9755 133.404 18.2023 132.712 18.2023H129.496ZM132.546 13.4031C132.955 13.4031 133.283 13.2687 133.531 12.9985C133.778 12.7297 133.902 12.4343 133.902 12.1137C133.902 11.7931 133.782 11.4991 133.542 11.2345C133.303 10.9685 132.986 10.8355 132.594 10.8355H130.578V13.4031H132.546ZM130.579 17.1705H132.76C133.176 17.1705 133.514 17.0249 133.774 16.7351C134.034 16.4467 134.162 16.1289 134.162 15.7845C134.162 15.4401 134.028 15.1265 133.761 14.8409C133.495 14.5553 133.145 14.4125 132.712 14.4125H130.579V17.1705Z" stroke="white" stroke-width="0.2" stroke-miterlimit="10"/>
<defs>
<linearGradient id="paint0_linear" x1="30.6529" y1="12.1953" x2="7.15834" y2="35.7932" gradientUnits="userSpaceOnUse">
<stop stop-color="#00A0FF"/>
<stop offset="0.0066" stop-color="#00A1FF"/>
<stop offset="0.2601" stop-color="#00BEFF"/>
<stop offset="0.5122" stop-color="#00D2FF"/>
<stop offset="0.7604" stop-color="#00DFFF"/>
<stop offset="1" stop-color="#00E3FF"/>
</linearGradient>
<linearGradient id="paint1_linear" x1="47.5732" y1="28.0026" x2="13.5499" y2="28.0026" gradientUnits="userSpaceOnUse">
<stop stop-color="#FFE000"/>
<stop offset="0.4087" stop-color="#FFBD00"/>
<stop offset="0.7754" stop-color="#FFA500"/>
<stop offset="1" stop-color="#FF9C00"/>
</linearGradient>
<linearGradient id="paint2_linear" x1="34.9112" y1="31.213" x2="3.04966" y2="63.2148" gradientUnits="userSpaceOnUse">
<stop stop-color="#FF3A44"/>
<stop offset="1" stop-color="#C31162"/>
</linearGradient>
<linearGradient id="paint3_linear" x1="10.2603" y1="0.248391" x2="24.4874" y2="14.5381" gradientUnits="userSpaceOnUse">
<stop stop-color="#32A071"/>
<stop offset="0.0685" stop-color="#2DA771"/>
<stop offset="0.4762" stop-color="#15CF74"/>
<stop offset="0.8009" stop-color="#06E775"/>
<stop offset="1" stop-color="#00F076"/>
</linearGradient>
</defs>
</svg>
