<svg width="50" height="50" viewBox="0 0 50 50" fill="none" xmlns="http://www.w3.org/2000/svg">
<path d="M15.5298 9.00069C16.2835 8.01966 17.3502 7.326 18.5526 7.03495C19.755 6.74389 21.0208 6.87295 22.1398 7.40069C25.9998 9.00069 29.0798 23.4307 30.9998 24.0007C40.9998 27.0007 42.9998 27.0007 44.9998 30.0007C45.9998 31.0007 46.9998 34.0007 45.9998 35.0007C45.281 35.783 44.3764 36.3712 43.3698 36.7107C43.3698 36.7107 37.6098 29.4407 34.6698 29.0207C31.7298 28.6007 26.1098 30.7307 23.4598 28.4507C20.8098 26.1707 15.5298 9.00069 15.5298 9.00069Z" fill="#DCDFE5"/>
<path d="M5.6499 10.8309C5.6499 10.8309 18.9999 7.52088 20.3999 8.54088C21.7999 9.56088 26.6399 22.1409 27.9999 25.0009C29.3599 27.8609 34.9999 28.0009 38.9999 29.0009C42.4699 29.8709 42.4199 30.6309 43.7199 33.0009C44.1499 33.7809 45.2799 35.6109 44.0999 36.7509C42.0999 38.6809 36.8699 42.1309 34.0999 42.7509C32.5599 43.0809 18.6999 40.1609 15.7699 37.2209C12.8399 34.2809 5.6499 10.8309 5.6499 10.8309Z" fill="#495D8F"/>
<path d="M31 38C31 38 16.55 36.69 15.37 35.88C14.19 35.07 9 14 9 14C9 14 17 24 21 22C22.81 21.1 25.22 19.11 25 17C26.27 20.67 28 26 29 27C31 29 33 28 37.34 28.53C37.9052 28.6412 38.4604 28.7984 39 29C36.6172 29.8804 34.2808 30.8817 32 32C28.85 33.58 31 38 31 38Z" fill="#E4E4E5"/>
<path d="M12 20.0009L22 25.0009L23.99 14.3809L25.83 18.7209L23.52 26.4309L22 27.0009L13 24.0009L12 20.0009Z" fill="#294059"/>
<path d="M25.6099 27.9102L34.7999 29.6402L31.7999 31.8102L23.8999 29.4502L25.6099 27.9102Z" fill="#294059"/>
<path d="M17.64 24.76L14 24L11 18L14 20L19 24L17.64 24.76Z" fill="#294059"/>
<path d="M24.1798 12.9395L24.8298 20.7195L24.8598 21.0195L23.4098 18.7295L23.0898 13.4195L24.1798 12.9395Z" fill="#294059"/>
<path d="M2 11.0007C2 10.0007 7.15 8.87067 8 10.0007C11 14.0007 15.44 31.3707 17 33.0007C18.35 34.4107 27.21 35.0007 31 35.0007C36 35.0007 38 38.0007 38 41.0007C38 42.8807 33.94 43.7907 32.39 43.9307C30.84 44.0707 15.47 41.4207 12.39 39.3607C8.09 36.5507 2 12.6107 2 11.0007Z" fill="#F0F1F3"/>
<path d="M21.02 25.4006L24.25 23.6406L25.21 25.0606L22.05 27.2106L21.02 25.4006Z" fill="#294059"/>
<path d="M22.0699 28.0009C22.6299 27.9509 25.6499 26.2309 25.9499 25.4609C26.0899 25.1009 26.0799 24.4609 24.7599 23.0809C24.6376 22.9436 24.4745 22.8491 24.2945 22.8113C24.1145 22.7735 23.9272 22.7944 23.7599 22.8709C19.8699 24.5909 19.8999 24.9709 19.9399 25.3609C19.9799 25.7509 21.2299 27.9009 21.8899 28.0009H22.0699ZM24.9999 25.0909C24.1164 25.8315 23.1377 26.4503 22.0899 26.9309C21.6611 26.4709 21.2947 25.9565 20.9999 25.4009C21.9797 24.7964 23.0063 24.2714 24.0699 23.8309C24.4507 24.1938 24.7654 24.6201 24.9999 25.0909Z" fill="#15243E"/>
<path d="M25.1999 24C24.8463 23.8255 24.4689 23.7042 24.0799 23.64C22.9368 24.1023 21.8499 24.6927 20.8399 25.4C21.0805 26.2141 21.3882 27.0069 21.7599 27.77C21.7599 27.77 20.1799 26 20.2099 25.27C20.2399 24.54 23.8099 22.87 24.2799 22.95C24.7499 23.03 25.2799 23.89 25.3499 24.14C25.4199 24.39 25.1999 24 25.1999 24Z" fill="#15243E"/>
<path d="M6.99976 10.0009C10.6398 13.9009 15.5098 30.3009 16.9998 32.0009C18.4898 33.7009 26.9998 35.0009 29.9998 35.0009C32.2398 35.0009 37.9998 37.0009 37.7198 41.1409C37.5998 43.0009 34.9998 44.0009 32.3898 43.9309C30.9787 43.8373 29.5735 43.6704 28.1798 43.4309H28.3198C30.0798 43.1109 35.8398 42.0009 34.9998 40.0009C34.1598 38.0009 30.9998 37.0009 26.9998 36.0009C24.3798 35.3509 16.6198 34.9209 14.9998 33.0009C13.3798 31.0809 7.70976 12.4209 5.99976 12.0009C4.66976 11.6809 1.99976 13.0009 1.99976 13.0009C1.88354 12.3393 1.88354 11.6625 1.99976 11.0009C2.99976 9.75086 6.99976 10.0009 6.99976 10.0009Z" fill="#DCDFE5"/>
<path d="M21.1401 7.39026C24.0001 7.92026 26.2301 22.8803 29.0001 24.0003C31.7701 25.1203 41.0001 26.0003 43.0001 28.0003C44.5228 29.6266 45.5346 31.6642 45.9101 33.8603C46.0119 34.1253 46.0562 34.4089 46.04 34.6924C46.0237 34.9758 45.9473 35.2526 45.8158 35.5042C45.6843 35.7558 45.5008 35.9766 45.2774 36.1518C45.0539 36.327 44.7958 36.4526 44.5201 36.5203C45.0001 35.0003 45.0001 34.0003 43.4601 31.3303C42.2701 29.2603 41.0001 27.0003 34.0001 26.0003C31.0001 25.5803 29.1201 26.3903 28.0001 25.0003C26.8801 23.6103 22.8001 9.34026 21.0001 8.47026C20.7437 8.32786 20.4583 8.24574 20.1655 8.23014C19.8726 8.21455 19.5801 8.26589 19.3101 8.38026L15.3101 8.75026C16.2601 7.37026 19.0001 7.00026 21.1401 7.39026Z" fill="#F0F1F3"/>
<path d="M2.69021 12.7102C2.74979 13.0005 2.86957 13.2751 3.04181 13.5162C3.21405 13.7574 3.43494 13.9597 3.69021 14.1102C4.50021 14.4902 5.18021 14.5502 5.32021 14.8802C5.46021 15.2102 11.4502 32.8802 12.5002 34.7602C13.5502 36.6402 21.9402 36.8702 24.6002 37.8802C25.6002 38.2502 28.8602 43.3402 28.8602 43.3402L30.3502 43.7802C29.6694 43.9805 28.9566 44.0484 28.2502 43.9802C27.1202 43.8602 12.7302 41.2902 11.1502 39.7202C9.57021 38.1502 2.21021 13.7202 2.15021 13.1202C2.09021 12.5202 2.69021 12.7102 2.69021 12.7102Z" fill="#F0F1F3"/>
<path d="M7.00023 15.0003C7.14023 15.3303 14.1502 33.1603 15.0002 34.0003C15.8502 34.8403 29.0602 37.4003 30.0002 38.0003C30.5102 38.3203 31.0502 40.9203 32.0002 42.0003C32.5525 42.7723 33.2282 43.448 34.0002 44.0003C33.8402 44.0003 28.4302 44.0003 28.2602 44.0003C27.1302 43.8803 12.7402 41.3103 11.1602 39.7403C9.77023 38.3203 3.94023 19.3503 2.49023 14.3203C3.07023 14.5003 7.00023 15.0003 7.00023 15.0003Z" fill="#212F42"/>
<path d="M37.8698 29.8691L34.5898 31.9991C35.8348 33.8148 37.1698 35.5669 38.5898 37.2491C38.9298 37.3291 41.4398 35.3791 41.4398 35.3791L37.8698 29.8691Z" fill="#15243E"/>
<path d="M35.27 32.0696L37.69 30.3496C37.69 30.3496 40.55 32.4896 41.34 33.9096C42.13 35.3296 42.19 37.2796 43.52 38.5296C43.9162 38.8964 44.404 39.1494 44.932 39.262C45.46 39.3747 46.0087 39.3427 46.52 39.1696L44.62 41.7596C44.0401 41.8588 43.4442 41.7996 42.8951 41.5884C42.346 41.3772 41.864 41.0218 41.5 40.5596C40.25 38.9496 39.76 37.1596 38.94 35.5596C38.12 33.9596 35.27 32.0696 35.27 32.0696Z" fill="#294059"/>
<path d="M35.27 32.0696L37.69 30.3496C37.69 30.3496 38.41 30.8896 39.23 31.6096C38.8955 31.5626 38.5548 31.5864 38.23 31.6796C37.8904 31.8151 37.5909 32.035 37.36 32.3185C37.129 32.6019 36.9741 32.9396 36.91 33.2996C36.3864 32.8598 35.8389 32.4492 35.27 32.0696Z" fill="#294059"/>
</svg>
