<svg width="50" height="48" viewBox="0 0 50 48" fill="none" xmlns="http://www.w3.org/2000/svg">
<path d="M27.5899 44.7598L6.70989 32.7098C6.4318 32.5479 6.20105 32.3158 6.04068 32.0368C5.8803 31.7578 5.7959 31.4417 5.7959 31.1199C5.7959 30.798 5.8803 30.4819 6.04068 30.2029C6.20105 29.9239 6.4318 29.6918 6.70989 29.5299L9.99989 27.6298C12.1899 26.3698 14.8899 25.3698 17.0799 26.6298L35.8699 37.4999C37.6699 38.4999 36.6699 42.1399 34.8699 43.1798L32.0999 44.7798C31.4445 45.2585 30.6532 45.5149 29.8416 45.5113C29.03 45.5077 28.241 45.2443 27.5899 44.7598Z" fill="#DCDFE5"/>
<path d="M34.4301 31.3699C34.4301 31.9799 34.3701 32.5799 34.3401 33.1899C34.3101 33.7999 34.4101 34.1899 34.3401 34.7399C34.2701 35.2899 34.2601 35.9199 34.2601 36.5099C34.298 36.9264 34.4503 37.3244 34.7001 37.6599C34.9401 37.9799 35.3701 37.9899 35.7001 38.2399C35.8646 38.3672 35.9914 38.5367 36.0671 38.7304C36.1428 38.9241 36.1646 39.1348 36.1301 39.3399C36.0575 39.5357 35.9401 39.7118 35.7873 39.8541C35.6345 39.9965 35.4506 40.1012 35.2501 40.1599C35.0882 40.2285 34.9157 40.2691 34.7401 40.2799C34.5323 40.2751 34.3265 40.238 34.1301 40.1699C33.5856 40.0624 33.1006 39.7558 32.7701 39.3099C32.4301 38.8199 32.6201 38.3099 32.5201 37.7499C32.4501 37.3899 32.3401 37.0299 32.2801 36.6599L32.0001 34.7799C32.0001 34.7799 31.6701 28.0599 31.6001 27.1399C31.5301 26.2199 31.2001 24.4999 31.2001 24.4999C31.2001 24.4999 29.5101 21.7099 30.8501 20.0199C32.1901 18.3299 32.7401 16.2099 33.5801 17.7999C34.4201 19.3899 36.2001 23.0699 36.0001 25.1699C35.8001 27.2699 34.4701 30.6399 34.4301 31.3699Z" fill="#B3B7C4"/>
<path d="M35.8601 39.5704C35.4401 39.5704 35.0101 39.4904 34.5901 39.5704C34.1701 39.6504 33.9001 39.7504 33.5901 39.5704C33.4681 39.4865 33.3663 39.3767 33.2919 39.2487C33.2176 39.1207 33.1725 38.9778 33.1601 38.8304C33.1439 38.5342 33.0763 38.2432 32.9601 37.9704C32.8801 37.8204 32.7501 37.7004 32.6701 37.5404C32.5753 37.299 32.5443 37.0372 32.5801 36.7804C32.6788 35.9843 32.6989 35.1804 32.6401 34.3804C32.6582 33.7094 32.6012 33.0386 32.4701 32.3804C32.4476 32.3004 32.4095 32.2256 32.3581 32.1604C32.3066 32.0952 32.2427 32.0408 32.1701 32.0004C32.0662 31.966 31.954 31.966 31.8501 32.0004C31.9301 33.5104 31.9901 34.7704 31.9901 34.7704L32.2701 36.6604C32.3301 37.0304 32.4401 37.3904 32.5101 37.7504C32.6201 38.3104 32.4301 38.8204 32.7601 39.3104C33.0906 39.7563 33.5755 40.0629 34.1201 40.1704C34.3165 40.2385 34.5223 40.2756 34.7301 40.2804C34.9057 40.2696 35.0781 40.229 35.2401 40.1604C35.5619 40.0345 35.8303 39.8013 36.0001 39.5004L35.8601 39.5704Z" fill="#999FB0"/>
<path d="M34.5901 36.0495C33.7202 36.2397 32.8121 36.145 32.0001 35.7795C31.4501 33.8895 31.3601 28.5595 31.0601 26.7795C30.7601 24.9995 29.9401 24.7795 30.1801 22.5195C30.4201 20.2595 31.6501 18.0995 33.1801 18.5195C34.7101 18.9395 36.2601 23.4395 36.2601 26.0195C36.2601 28.5995 34.2501 31.4495 34.5901 36.0495Z" fill="#113C70"/>
<path d="M16.1901 27.1C16.3285 27.7523 16.6804 28.34 17.1901 28.77C17.5501 29.06 17.9001 29.86 17.3401 30.23C17.0372 30.4223 16.6963 30.547 16.3407 30.5953C15.9852 30.6436 15.6234 30.6145 15.2801 30.51C14.2801 29.91 14.4601 27.98 14.5401 27.02C15.0801 21.02 14.7701 21.46 14.7701 21.46L16.4601 18.46L17.4601 13.61C17.4601 13.61 18.3301 10.48 19.3901 10.23C20.4501 9.98001 22.6501 11 23.5801 13.57C24.5101 16.14 25.0001 19.25 24.0801 19.73C23.1601 20.21 18.8501 21.79 18.4201 22.03C17.9901 22.27 16.5001 23.26 16.5001 23.26C16.2978 24.5301 16.1941 25.8139 16.1901 27.1Z" fill="#B3B7C4"/>
<path d="M17.3299 30.2401C17.473 30.1356 17.5733 29.9826 17.6119 29.8097C17.6506 29.6367 17.625 29.4556 17.5399 29.3001C17.198 29.5024 16.8317 29.6604 16.4499 29.7701C16.3683 29.7943 16.2815 29.7943 16.1999 29.7701C16.1134 29.7283 16.038 29.6666 15.9799 29.5901C15.8495 29.465 15.6877 29.3776 15.5116 29.3371C15.3356 29.2966 15.1518 29.3046 14.9799 29.3601C14.8753 27.8972 15.0938 26.4292 15.6199 25.0601C15.6799 24.9001 15.7099 24.6601 15.5499 24.6001C16.1439 23.5596 16.6748 22.4843 17.1399 21.3801C17.1743 21.0477 17.1743 20.7126 17.1399 20.3801C17.2496 19.8059 17.3165 19.2243 17.3399 18.6401C17.3387 18.5429 17.3166 18.4471 17.2752 18.3591C17.2338 18.2711 17.174 18.193 17.0999 18.1301C16.9465 18.0493 16.7708 18.0212 16.5999 18.0501H16.4899L16.3999 18.4901L14.7099 21.4901C14.7099 21.4901 15.0199 21.0101 14.4799 27.0501C14.3899 28.0501 14.1699 29.9501 15.2199 30.5401C15.5719 30.6494 15.9437 30.6792 16.3086 30.6273C16.6735 30.5754 17.0223 30.4432 17.3299 30.2401Z" fill="#999FB0"/>
<path d="M36.73 13.2691C36.58 13.2691 36 16.5091 33.73 15.8891C31.46 15.2691 30 14.8391 30 14.8391C30 14.8391 24.42 10.5591 22.42 10.1991C20.7177 9.77698 18.96 9.6218 17.21 9.7391C15.41 10.0591 12.56 10.9491 11.49 13.6291C11.04 14.7591 23.38 19.7591 23.88 20.0891C24.38 20.4191 27.15 23.2591 29.69 25.6991C32.23 28.1391 28.08 33.5891 31.49 32.4991C36.08 31.0591 35.93 29.1391 36.09 27.7391C36.25 26.3391 36.63 22.5491 37.4 22.0191C38.17 21.4891 39.13 19.0891 39.13 19.0891L36.73 13.2691Z" fill="#B3B7C4"/>
<path d="M15.0001 6.62054V6.68054C15.1581 7.25088 15.3484 7.81178 15.5701 8.36055C15.7201 8.76055 15.8701 9.45054 16.2301 9.73054C16.5901 10.0105 16.6901 9.92054 16.8101 9.65054C16.9767 9.03835 16.9767 8.39274 16.8101 7.78055C16.6613 6.98278 16.3879 6.21338 16.0001 5.50055C15.6799 4.6302 15.0397 3.91486 14.2101 3.50055C13.8659 3.44406 13.5129 3.50761 13.2101 3.68055C12.2101 4.10055 12.0801 4.84055 12.0801 5.80055C12.0673 6.58062 12.1822 7.35752 12.4201 8.10054C12.6385 8.8061 12.9513 9.47886 13.3501 10.1005C13.8001 10.7805 14.3501 11.9605 15.3501 11.8605C16.0901 11.7805 16.2401 10.9405 16.0801 10.3705C15.098 9.53653 14.3183 8.49017 13.8001 7.31054C13.609 6.86291 13.5567 6.36822 13.6501 5.89054C13.6811 5.78637 13.7423 5.69373 13.8259 5.62431C13.9096 5.5549 14.0119 5.51183 14.1201 5.50055C14.6801 5.41054 14.9201 6.18054 15.0001 6.62054Z" fill="#B3B7C4"/>
<path d="M34.8501 15.3309C35.3079 15.0882 35.8118 14.945 36.3287 14.9105C36.8457 14.876 37.3641 14.9511 37.8501 15.1309C39.2601 15.8009 39.3601 16.4209 39.3601 16.4209C39.3601 16.4209 39.2801 18.5209 38.6701 19.1109C38.0601 19.7009 36.3601 19.0109 36.3601 19.0109L34.8501 15.6109V15.3309Z" fill="#B3B7C4"/>
<path d="M34.6402 18.4292C34.6402 18.4292 35.5402 19.0092 35.6402 19.4892C35.7402 19.9692 35.0802 19.8992 35.0202 19.9592C34.5627 19.6585 34.1282 19.3242 33.7202 18.9592C33.7202 18.9592 33.8502 17.9992 34.6402 18.4292Z" fill="#B3B7C4"/>
<path d="M29.9498 16.0297C29.7998 16.0297 29.2198 19.2697 26.9498 18.6497C24.6798 18.0297 23.2998 17.5997 23.2998 17.5997C23.2998 17.5997 17.7198 13.3197 15.7198 12.9597C13.7198 12.5997 12.2598 12.6397 11.9098 13.9597C11.442 15.2837 11.2448 16.6881 11.3298 18.0897C11.5598 19.2797 16.6798 22.5497 17.1798 22.8797C17.6798 23.2097 20.4498 26.0497 22.9898 28.4897C25.5298 30.9297 25.3598 30.4897 28.4798 32.2497C31.5998 34.0097 33.0498 30.2997 33.2198 28.8997C33.3898 27.4997 33.2198 25.8997 33.9998 25.3597C34.7798 24.8197 35.7298 22.4297 35.7298 22.4297L29.9498 16.0297Z" fill="#B3B7C4"/>
<path d="M21.9501 23.0304C21.3001 22.7704 20.3001 22.6504 20.0601 21.9104C19.8988 21.1691 19.8988 20.4017 20.0601 19.6604C20.1978 18.5128 20.48 17.3872 20.9001 16.3104C21.3321 15.4893 21.565 14.5781 21.5801 13.6504C20.668 14.2392 19.889 15.0122 19.2932 15.9197C18.6973 16.8273 18.2978 17.8494 18.1201 18.9204C17.9539 18.6966 17.8348 18.4415 17.7701 18.1704C17.354 16.7148 16.4854 15.4294 15.2901 14.5004C14.9924 15.3538 14.87 16.2585 14.9301 17.1604C14.9301 18.4204 14.7501 19.6904 14.8101 20.9704C14.8101 21.0604 14.8101 21.1504 14.8101 21.2404C15.9201 22.0204 16.9101 22.6604 17.1201 22.8004C17.6201 23.1304 20.3901 25.9704 22.9301 28.4104C23.5269 29.0029 24.1544 29.5637 24.8101 30.0904C25.2941 29.4791 25.5708 28.7295 25.6001 27.9504C25.5126 27.3032 25.2651 26.688 24.8801 26.1604C24.6001 25.7104 24.3101 25.2604 24.0601 24.7904C23.9199 24.3756 23.7176 23.9845 23.4601 23.6304C22.9881 23.3591 22.4796 23.157 21.9501 23.0304Z" fill="#999FB0"/>
<path d="M25.64 11.7704C24.1212 11.5589 22.5804 11.9563 21.3534 12.876C20.1265 13.7958 19.3129 15.1633 19.09 16.6804C17.88 22.4004 19.95 26.0204 19.95 26.0204C19.95 26.0204 24.09 29.6804 25.67 30.7104C27.25 31.7404 29.27 33.4104 31.81 32.7104C34.35 32.0104 35.53 30.6204 35.96 29.4004C36.39 28.1804 36.32 23.7804 37.35 23.2604C38.01 22.9304 32.77 25.1704 30.86 20.9504C28.95 16.7304 30.86 14.2704 30.86 14.2704C30.86 14.2704 29.31 14.2004 25.64 11.7704Z" fill="#495D8F"/>
<path d="M21.2702 23.6998C20.5782 22.9962 19.9491 22.2332 19.3902 21.4198C19.1702 21.1298 18.9402 20.8598 18.7202 20.5898C18.729 22.4704 19.1668 24.3241 20.0002 26.0098C20.0002 26.0098 24.1402 29.6698 25.7202 30.6998C27.3002 31.7298 29.3202 33.3998 31.8602 32.6998C34.4002 31.9998 35.5802 30.6098 36.0102 29.3898C36.1365 28.9387 36.2202 28.4766 36.2602 28.0098L33.4002 28.9498C32.7799 29.1902 32.1248 29.3287 31.4602 29.3598C30.2646 29.27 29.1372 28.7681 28.2702 27.9398C27.4763 27.2943 26.5668 26.8056 25.5902 26.4998C23.9941 25.8328 22.5309 24.8844 21.2702 23.6998Z" fill="#113C70"/>
<path d="M27.7202 34.6909C27.7202 35.3009 27.6602 35.9009 27.6302 36.5109C27.6002 37.1209 27.7002 37.5109 27.6302 38.0609C27.5602 38.6109 27.5502 39.2409 27.5502 39.8309C27.591 40.2485 27.7468 40.6465 28.0002 40.9809C28.2402 41.3009 28.6702 41.3109 29.0002 41.5609C29.1646 41.6882 29.2914 41.8578 29.3672 42.0515C29.4429 42.2452 29.4647 42.4558 29.4302 42.6609C29.3575 42.8567 29.2401 43.0328 29.0873 43.1752C28.9346 43.3176 28.7506 43.4222 28.5502 43.4809C28.3882 43.5495 28.2157 43.5901 28.0402 43.6009C27.8324 43.5962 27.6266 43.559 27.4302 43.4909C26.8856 43.3835 26.4007 43.0768 26.0702 42.6309C25.7302 42.1409 25.9202 41.6309 25.8202 41.0709C25.7502 40.7109 25.6402 40.3509 25.5802 39.9809L25.3002 38.0909C25.3002 38.0909 25.0002 31.3809 24.9002 30.5009C24.8002 29.6209 24.4902 27.8809 24.4902 27.8809C24.4902 27.8809 22.8002 25.0909 24.1402 23.4009C25.4802 21.7109 26.0002 19.5009 26.8702 21.1409C27.7402 22.7809 29.4902 26.4009 29.3002 28.5009C29.1102 30.6009 27.7602 33.9609 27.7202 34.6909Z" fill="#999FB0"/>
<path d="M27.33 42.9493C27.1649 42.9317 27.0068 42.8733 26.87 42.7793C26.49 42.4793 26.64 41.8893 26.58 41.3993C26.5274 41.1437 26.4538 40.8928 26.36 40.6493C26.1705 39.7723 26.13 38.8697 26.24 37.9793C26.24 37.3293 26.01 36.2993 26.51 35.7893C26.71 35.5893 26.99 35.4693 27.16 35.2293C27.3224 34.9227 27.372 34.5687 27.3 34.2293L27.12 32.0293C27.1184 31.8031 27.0636 31.5804 26.96 31.3793C26.67 30.9093 25.96 30.9393 25.44 31.0693L24.96 31.2193C25.07 33.2193 25.31 38.0693 25.31 38.0693L25.59 39.9593C25.65 40.3293 25.76 40.6893 25.83 41.0493C25.94 41.6093 25.75 42.1193 26.08 42.6093C26.4105 43.0552 26.8954 43.3619 27.44 43.4693C27.6363 43.5374 27.8421 43.5746 28.05 43.5793C28.2255 43.5685 28.398 43.528 28.56 43.4593C28.7604 43.4006 28.9443 43.296 29.0971 43.1536C29.2499 43.0112 29.3673 42.8351 29.44 42.6393C29.487 42.4198 29.4588 42.1908 29.36 41.9893C29.2603 42.1728 29.1395 42.344 29 42.4993C28.7803 42.7062 28.5128 42.8555 28.2215 42.934C27.9301 43.0126 27.6238 43.0178 27.33 42.9493Z" fill="#B3B7C4"/>
<path d="M27.8299 38.0202C26.9727 38.2016 26.0801 38.1071 25.2799 37.7502C24.7299 35.8602 24.6399 30.5302 24.3399 28.7502C24.0399 26.9702 23.2199 26.7502 23.4599 24.4902C23.6999 22.2302 24.9399 20.0702 26.4599 20.4902C27.9799 20.9102 29.5399 25.4102 29.5399 27.9902C29.5399 30.5702 27.4799 33.4202 27.8299 38.0202Z" fill="#495D8F"/>
<path d="M25.62 34.9201C25.4186 33.9336 25.3447 32.9254 25.4 31.9201C25.4909 30.918 25.4404 29.9081 25.25 28.9201C25.1893 28.519 25.1058 28.1217 25 27.7301C24.8277 27.1436 24.6173 26.5691 24.37 26.0101C24.2559 25.7687 24.1912 25.5069 24.18 25.2401C24.2155 24.9512 24.3 24.6706 24.43 24.4101C24.76 23.5801 24.86 22.6801 25.22 21.8601C25.3534 21.4822 25.5458 21.1279 25.79 20.8101C26.0229 20.6576 26.2852 20.5554 26.56 20.5101L26.42 20.4501C24.89 20.0501 23.65 22.2301 23.42 24.4501C23.19 26.6701 24 26.9001 24.3 28.7101C24.6 30.5201 24.69 35.8501 25.24 37.7101C25.5258 37.8325 25.8243 37.923 26.13 37.9801C25.8979 36.9714 25.7276 35.9495 25.62 34.9201Z" fill="#113C70"/>
<path d="M23.9298 14.2003C23.6009 15.2382 23.6009 16.3524 23.9298 17.3903C24.5098 18.8603 25.1698 20.6003 27.1098 21.3903C29.0498 22.1803 30.8498 22.9603 30.8598 22.9603C31.1709 23.1359 31.4714 23.3296 31.7598 23.5403C32.0281 23.6617 32.2857 23.8055 32.5298 23.9703C32.7298 24.1503 32.6598 24.3803 33.0198 24.4303C34.5459 24.6526 36.1038 24.434 37.5098 23.8003C37.7008 23.7384 37.8638 23.6109 37.9698 23.4403C38.0212 23.2606 38.0212 23.0701 37.9698 22.8903C37.91 22.4255 37.9406 21.9535 38.0598 21.5003C38.1698 21.0503 38.3698 20.6203 38.4498 20.1603C38.5035 19.9331 38.5016 19.6962 38.4441 19.4699C38.3867 19.2435 38.2754 19.0344 38.1198 18.8603C37.9366 18.7062 37.7264 18.5875 37.4998 18.5103C35.6398 17.7637 33.7664 17.0537 31.8798 16.3803C31.5198 16.2503 31.2898 15.9803 30.8798 15.8403C30.4698 15.7003 31.6698 13.2203 31.3498 13.1103C30.1899 12.748 28.9704 12.6156 27.7598 12.7203C26.9398 12.7603 24.5298 12.7603 23.9298 14.2003Z" fill="#113C70"/>
<path d="M35.1602 13.5001C35.1602 13.5001 29.9202 13.0501 27.4802 13.0001C25.0402 12.9501 24.1102 13.8301 24.2902 14.7201C24.4702 15.6101 24.9502 19.0101 26.8002 19.9801C28.6502 20.9501 33.4102 19.8701 33.4102 19.8701L35.1602 13.5001Z" fill="#082A4C"/>
<path d="M9.27009 21.97C9.85048 21.2639 10.2181 20.4072 10.3301 19.5C10.4861 18.4433 10.5763 17.3779 10.6001 16.31C10.6601 14.7 11.4901 13.08 12.8401 12.76C13.9001 12.5 15.8401 13.76 16.7601 16.36C17.3723 17.8716 17.7109 19.4799 17.7601 21.11C17.7987 21.3721 17.7672 21.6396 17.6688 21.8855C17.5704 22.1314 17.4087 22.3469 17.2001 22.51C16.5701 22.93 15.8701 23.24 15.2001 23.64C14.4108 24.1257 13.5401 24.4645 12.6301 24.64C11.4001 24.9 9.76009 25.2 9.63009 26.64C9.38033 27.6941 9.31269 28.7831 9.43009 29.86C9.75946 30.5821 10.2909 31.1934 10.9601 31.62C11.1101 31.71 11.2601 32.62 11.1101 32.57C10.9601 32.52 7.24009 35.83 7.78009 29.79C8.32009 23.75 8.00009 24.23 8.00009 24.23C8.37443 23.4502 8.79864 22.6953 9.27009 21.97Z" fill="#B3B7C4"/>
<path d="M12.2302 13.0098C11.7183 13.3931 11.304 13.8916 11.0208 14.465C10.7376 15.0383 10.5935 15.6703 10.6002 16.3098C10.5763 17.3777 10.4862 18.4431 10.3302 19.4998C10.2182 20.407 9.85055 21.2636 9.27016 21.9698C8.94237 22.4275 8.65464 22.9126 8.41016 23.4198C8.78991 23.1961 9.12821 22.9085 9.41016 22.5698C9.82016 21.9798 10.2302 21.3498 10.6302 20.7498C10.9739 20.1204 11.1268 19.4046 11.0702 18.6898C11.0604 18.5199 11.0604 18.3496 11.0702 18.1798C11.2102 17.2798 11.3402 15.5798 12.0102 14.9098C11.7068 15.2148 11.3716 15.4864 11.0102 15.7198C11.1902 14.8998 11.8802 14.3498 12.0802 13.5898C12.1518 13.4027 12.2022 13.2081 12.2302 13.0098Z" fill="#999FB0"/>
<path d="M11.1402 32.5991V32.5191C11.1028 32.2082 11.0185 31.9047 10.8902 31.6191C10.5387 31.9694 10.1057 32.2271 9.63017 32.3691C9.3414 32.4361 9.03982 32.4231 8.75789 32.3314C8.47597 32.2398 8.22436 32.073 8.03016 31.8491C7.91757 31.6053 7.86937 31.3368 7.89016 31.0691C7.89016 30.5424 7.89016 30.0124 7.89016 29.4791C8.01272 28.9224 8.01272 28.3457 7.89016 27.7891C7.89016 28.3591 7.79016 29.0191 7.72016 29.7891C7.63016 30.7891 7.41016 32.7191 8.48016 33.2991C8.8083 33.4142 9.15792 33.4551 9.50377 33.4188C9.84963 33.3825 10.1831 33.2699 10.4802 33.0891C10.7451 32.9971 10.9755 32.8261 11.1402 32.5991Z" fill="#999FB0"/>
<path d="M38.0002 12.9809C37.8838 12.2989 37.9533 11.5982 38.2014 10.9523C38.4495 10.3065 38.8671 9.73949 39.4102 9.31089C39.8783 8.9777 40.3289 8.62056 40.7602 8.24089C40.8348 8.16739 40.9274 8.1147 41.0287 8.08807C41.13 8.06144 41.2365 8.0618 41.3376 8.0891C41.4388 8.11641 41.531 8.16971 41.6051 8.2437C41.6792 8.3177 41.7327 8.40982 41.7602 8.51089C42.0856 9.48312 42.2971 10.4899 42.3902 11.5109C42.3002 13.2009 41.3902 15.8509 40.8302 15.9409C40.2702 16.0309 38.4802 13.3209 38.0002 12.9809Z" fill="#999FB0"/>
<path d="M37.5199 12.6699C39.9999 13.0099 42.0199 15.7899 41.1799 18.2299C40.914 18.7081 40.7123 19.2191 40.5799 19.7499C40.4699 20.8399 41.1299 22.3699 40.0799 23.1799C39.2092 23.62 38.2303 23.8005 37.2599 23.6999C36.5346 23.5909 35.8681 23.2382 35.3699 22.6999C34.7134 22.5374 34.0444 22.4303 33.3699 22.3799C31.7899 21.9199 30.9999 20.4299 30.3699 19.0099C29.7399 17.5899 30.8399 15.2499 31.9299 14.1999C32.6914 13.5489 33.5874 13.0741 34.5537 12.8096C35.5201 12.5451 36.533 12.4974 37.5199 12.6699Z" fill="#B3B7C4"/>
<path d="M35.1502 22.6599L34.9002 22.4999C34.5602 22.2199 34.5802 21.9799 34.1302 21.7899C33.3302 21.4499 32.4302 21.3699 31.8302 20.6699C30.9402 19.6699 30.9602 17.6699 30.9002 16.4399C30.869 16.2983 30.869 16.1516 30.9002 16.0099C31.0902 15.5399 31.5302 15.3699 31.9002 15.1499C32.2702 14.9299 32.6802 14.2899 33.0802 14.0099C33.6868 13.6471 34.3741 13.4409 35.0802 13.4099C36.3229 13.2186 37.5875 13.2186 38.8302 13.4099C39.0002 13.4099 39.1602 13.4099 39.3202 13.4699C38.7724 13.0756 38.138 12.8184 37.4702 12.7199C36.4803 12.5528 35.4657 12.6069 34.4992 12.8783C33.5327 13.1498 32.6383 13.6318 31.8802 14.2899C30.7802 15.2899 29.7102 17.6599 30.3202 19.0999C30.9302 20.5399 31.7102 22.0099 33.3202 22.4699C33.5802 22.4999 34.6702 22.4999 35.1502 22.6599Z" fill="#999FB0"/>
<path d="M34.8108 20.1553C34.6179 20.1466 34.4287 20.0999 34.2539 20.0181C34.079 19.9362 33.922 19.8207 33.7919 19.6782C33.6617 19.5357 33.5608 19.3689 33.4951 19.1874C33.4293 19.0059 33.4 18.8132 33.4087 18.6203C33.4175 18.4275 33.4641 18.2383 33.5459 18.0634C33.6278 17.8886 33.7433 17.7316 33.8858 17.6014C34.0284 17.4712 34.1951 17.3704 34.3767 17.3047C34.5582 17.2389 34.7508 17.2096 34.9437 17.2183C35.1365 17.227 35.3258 17.2736 35.5006 17.3555C35.6754 17.4374 35.8324 17.5529 35.9626 17.6954C36.0928 17.8379 36.1936 18.0047 36.2594 18.1862C36.3251 18.3677 36.3545 18.5604 36.3457 18.7532C36.337 18.9461 36.2904 19.1353 36.2085 19.3102C36.1267 19.485 36.0112 19.642 35.8686 19.7722C35.7261 19.9024 35.5593 20.0032 35.3778 20.0689C35.1963 20.1347 35.0036 20.164 34.8108 20.1553Z" fill="#F0F1F3"/>
<path d="M40.2684 19.2601C40.5545 19.273 40.836 19.1307 41.0508 18.8645C41.2656 18.5983 41.3961 18.2299 41.4137 17.8404C41.4314 17.4509 41.3346 17.0723 41.1447 16.7877C40.9549 16.5032 40.6874 16.336 40.4013 16.3231C40.2596 16.3167 40.1176 16.3483 39.9834 16.4162C39.8491 16.484 39.7253 16.5868 39.6189 16.7187C39.5126 16.8505 39.4258 17.0088 39.3635 17.1845C39.3012 17.3602 39.2647 17.5499 39.256 17.7427C39.2472 17.9356 39.2665 18.1278 39.3126 18.3084C39.3588 18.4891 39.431 18.6545 39.525 18.7954C39.619 18.9363 39.733 19.0499 39.8606 19.1296C39.9881 19.2093 40.1267 19.2537 40.2684 19.2601Z" fill="#F0F1F3"/>
<path d="M40.15 21.8498C40.1148 21.9371 40.0713 22.0208 40.02 22.0998C39.9722 22.1795 39.9151 22.2534 39.85 22.3198C39.6747 22.4287 39.4749 22.4922 39.2689 22.5044C39.0628 22.5166 38.857 22.4772 38.67 22.3898L38.56 22.2998C38.452 22.1846 38.358 22.057 38.28 21.9198C38.1208 21.6662 38.0247 21.3781 38 21.0798C38 20.4598 38.48 20.4598 39.39 20.2598C39.6879 20.3767 39.9475 20.574 40.14 20.8298C40.233 20.9832 40.2831 21.1589 40.2848 21.3384C40.2866 21.5179 40.24 21.6945 40.15 21.8498Z" fill="#2D313F"/>
<path d="M36.2802 18.7295C36.1967 18.5734 36.0808 18.437 35.9402 18.3295C35.7102 18.1635 35.4338 18.0742 35.1502 18.0742C34.8666 18.0742 34.5902 18.1635 34.3602 18.3295C34.0802 18.4995 33.7402 18.9495 34.0402 19.2495C34.2067 19.4149 34.408 19.5411 34.6294 19.6189C34.8508 19.6967 35.0868 19.7243 35.3202 19.6995C35.7102 19.6795 36.5102 19.2495 36.2802 18.7295Z" fill="#082A4C"/>
<path d="M41.1999 17.3897C41.043 17.3661 40.883 17.3753 40.7298 17.4166C40.5766 17.4579 40.4337 17.5305 40.3099 17.6297C40.1199 17.8197 39.8399 18.1997 39.9399 18.4797C40.0074 18.6219 40.1157 18.7406 40.2512 18.8208C40.3866 18.901 40.5428 18.9389 40.6999 18.9297C41.1499 18.9297 41.3299 18.3097 41.3299 18.3097C41.3299 18.3097 41.6399 17.4997 41.1999 17.3897Z" fill="#2D313F"/>
<path d="M33.1502 14.3894C33.2037 13.8911 33.1503 13.3871 32.9933 12.9111C32.8364 12.4351 32.5796 11.9982 32.2402 11.6294C31.4855 10.9489 30.5644 10.4797 29.5702 10.2694C29.4848 10.2471 29.3955 10.244 29.3088 10.2602C29.222 10.2764 29.1399 10.3115 29.0682 10.3631C28.9966 10.4147 28.9372 10.4814 28.8944 10.5585C28.8515 10.6357 28.8262 10.7213 28.8202 10.8094C28.7502 11.7094 28.6402 13.2194 28.6002 13.4994C28.46 14.4666 28.511 15.4519 28.7502 16.3994C29.117 17.1102 29.6279 17.7369 30.2502 18.2394C30.7002 18.5194 31.1202 16.3194 31.5202 15.6694C31.9712 15.1367 32.5257 14.7012 33.1502 14.3894Z" fill="#B3B7C4"/>
<path d="M32.6398 13.8994C32.4125 12.9755 31.8718 12.1591 31.1098 11.5894L30.2398 11.1494C29.8798 10.9694 29.3698 11.1494 29.3798 11.5794C29.4398 13.1394 29.0898 15.1694 29.2998 15.7094C29.8198 17.0694 30.5898 17.1094 30.5898 17.1094C30.5898 17.1094 31.3098 15.4994 31.9998 15.3494C32.6898 15.1994 32.8398 14.6494 32.6398 13.8994Z" fill="#DCDFE5"/>
<path d="M41.43 9.73955C41.4135 9.63194 41.368 9.53085 41.2985 9.44711C41.2289 9.36336 41.1379 9.30012 41.0351 9.26415C40.9324 9.22819 40.8218 9.22086 40.7152 9.24295C40.6086 9.26504 40.51 9.31572 40.43 9.38955C40.045 9.72851 39.7085 10.1188 39.43 10.5496C39.0024 11.3097 38.8109 12.1801 38.88 13.0496C38.9941 13.2938 39.1699 13.504 39.39 13.6596C39.69 13.8296 40.39 13.8196 40.69 14.6596C41.2129 13.8599 41.5543 12.9553 41.69 12.0096C41.6679 11.2469 41.581 10.4875 41.43 9.73955Z" fill="#F0F1F3"/>
<path d="M39.27 22.0798C39.1913 22.1856 39.0818 22.2644 38.9565 22.3056C38.8312 22.3468 38.6962 22.3482 38.57 22.3098C38.462 22.1946 38.368 22.0671 38.29 21.9298C38.3356 21.9505 38.385 21.9612 38.435 21.9612C38.4851 21.9612 38.5345 21.9505 38.58 21.9298C38.6549 21.8826 38.7116 21.8114 38.7407 21.7278C38.7697 21.6442 38.7695 21.5532 38.74 21.4698C38.74 21.4198 38.69 21.3598 38.74 21.3098C38.79 21.2598 38.85 21.2298 38.92 21.2298C39.0491 21.208 39.1815 21.2366 39.29 21.3098C39.45 21.4498 39.39 21.8898 39.27 22.0798Z" fill="#2D313F"/>
<path d="M40.1501 21.8493C40.1149 21.9366 40.0714 22.0203 40.0201 22.0993L39.8301 22.0293C39.695 21.997 39.5771 21.9149 39.5001 21.7993C39.4772 21.7074 39.4772 21.6112 39.5001 21.5193C39.4892 21.371 39.5358 21.2242 39.6301 21.1093C39.6793 21.0681 39.7386 21.0408 39.8019 21.0303C39.8652 21.0197 39.9302 21.0263 39.9901 21.0493C40.0434 21.0617 40.0914 21.0906 40.1273 21.1319C40.1632 21.1732 40.1852 21.2248 40.1901 21.2793C40.1901 21.4693 39.8901 21.4993 39.9801 21.6993C40.0045 21.75 40.0475 21.7893 40.1001 21.8093L40.1501 21.8493Z" fill="#2D313F"/>
<path d="M35.0698 18.7609C35.0698 18.8616 35.1151 18.9583 35.1958 19.0296C35.2764 19.1008 35.3858 19.1409 35.4998 19.1409C35.6139 19.1409 35.7232 19.1008 35.8039 19.0296C35.8845 18.9583 35.9298 18.8616 35.9298 18.7609C35.9298 18.6601 35.8845 18.5634 35.8039 18.4922C35.7232 18.4209 35.6139 18.3809 35.4998 18.3809C35.3858 18.3809 35.2764 18.4209 35.1958 18.4922C35.1151 18.5634 35.0698 18.6601 35.0698 18.7609Z" fill="#495D8F"/>
<path d="M40.5698 17.9405C40.5698 18.0413 40.6151 18.138 40.6958 18.2092C40.7764 18.2805 40.8858 18.3205 40.9998 18.3205C41.1139 18.3205 41.2232 18.2805 41.3039 18.2092C41.3845 18.138 41.4298 18.0413 41.4298 17.9405C41.4298 17.8398 41.3845 17.7431 41.3039 17.6718C41.2232 17.6006 41.1139 17.5605 40.9998 17.5605C40.8858 17.5605 40.7764 17.6006 40.6958 17.6718C40.6151 17.7431 40.5698 17.8398 40.5698 17.9405Z" fill="#495D8F"/>
<path d="M14.8302 13.8301C14.7702 14.3201 15.0102 14.7401 14.9902 15.2201C14.9556 15.869 14.8137 16.5076 14.5702 17.1101C14.5463 17.16 14.5339 17.2147 14.5339 17.2701C14.5339 17.3255 14.5463 17.3801 14.5702 17.4301C14.9044 17.2059 15.1901 16.9169 15.4102 16.5801C15.5061 17.9566 15.2443 19.3346 14.6502 20.5801C15.0616 20.2501 15.434 19.8744 15.7602 19.4601C15.6402 20.8901 14.5302 22.0201 13.9902 23.3501C14.2563 23.3624 14.5193 23.2888 14.7402 23.1401C15.1589 22.8876 15.548 22.5891 15.9002 22.2501C16.1702 22.0101 16.5302 21.9101 16.6602 21.5401C17.0196 20.2736 17.0677 18.9391 16.8002 17.6501C16.651 16.9124 16.4265 16.1919 16.1302 15.5001C15.821 14.857 15.3778 14.2876 14.8302 13.8301Z" fill="#F0F1F3"/>
</svg>
