<svg width="50" height="50" viewBox="0 0 50 50" fill="none" xmlns="http://www.w3.org/2000/svg">
<path d="M38.52 21.5494L37.52 20.5494C37.6451 20.3102 37.8381 20.1133 38.0747 19.9835C38.3114 19.8536 38.5811 19.7965 38.85 19.8194C39.66 19.8394 39.07 21.0794 38.52 21.5494Z" fill="#B3B7C4"/>
<path d="M39.0499 19.8398C39.5499 20.0498 39.0499 21.1198 38.5199 21.5498L38.1099 21.1198C38.4798 20.7378 38.7961 20.3072 39.0499 19.8398Z" fill="#495D8F"/>
<path d="M4.43992 26.17L8.10992 29.96C8.7667 29.9523 9.41308 29.795 9.99992 29.5C11.2599 28.93 9.53992 23.38 9.53992 23.38L5.42992 21.5L3.99992 22.38L3.41992 23.98L4.43992 26.17Z" fill="#2D313F"/>
<path d="M1.18991 22.8494C1.36991 23.8494 3.36991 25.3994 4.43991 26.1694C4.43991 26.0794 4.43991 25.9794 4.38991 25.8694C4.17991 24.5594 5.03991 21.6394 7.80991 23.7294C10.2899 25.5894 10.0999 28.7894 9.99991 29.4994C15.9999 32.9494 25.5499 38.4094 26.7099 39.0594C26.3299 36.6194 27.3099 35.4394 28.5899 35.8194C32.4399 36.9794 32.2299 42.2994 32.2299 42.2994C33.7799 43.4894 38.3099 43.2994 39.6099 42.6794C45.3499 39.9194 48.4499 37.7794 48.7799 36.5094C49.164 34.0567 48.8161 31.5453 47.7799 29.2894C46.6999 26.9994 40.4399 23.2894 39.4699 22.4094C39.4699 22.4094 35.8999 18.9394 33.6499 17.0094C31.3999 15.0794 23.2399 11.3994 21.0999 11.0094C18.9599 10.6194 16.3099 10.7794 15.6599 10.6094C15.0099 10.4394 13.9099 10.0094 12.7399 9.60938C7.66991 10.3394 1.80991 15.4294 1.57991 16.0794C1.40446 17.4053 1.3676 18.7458 1.46991 20.0794C1.30536 20.1992 1.15146 20.3331 1.00991 20.4794C0.886142 21.2727 0.947751 22.0839 1.18991 22.8494ZM26.6299 30.3794C26.6299 30.3794 24.1199 25.6194 22.9199 23.9794C24.1599 23.5294 31.6899 19.9294 33.7399 17.6494C35.8799 19.6494 39.2799 23.0394 39.2799 23.0394C39.2799 23.0394 40.1499 26.1494 34.1899 28.9194C28.2299 31.6894 26.6299 30.3794 26.6299 30.3794ZM8.62991 18.8094C12.8199 17.8794 17.5399 20.3494 20.5699 23.0394C22.5599 25.0085 24.0424 27.4312 24.8899 30.0994L8.91991 20.3494C8.78127 19.8426 8.67109 19.3285 8.58991 18.8094H8.62991Z" fill="#DCDFE5"/>
<path d="M1.18991 22.8494C1.36991 23.8494 3.36991 25.3994 4.43991 26.1694C4.43991 26.0794 4.43991 25.9794 4.38991 25.8694C4.17991 24.5594 5.03991 21.6394 7.80991 23.7294C10.2899 25.5894 10.0999 28.7894 9.99991 29.4994C15.9999 32.9494 25.5499 38.4094 26.7099 39.0594C26.3299 36.6194 27.3099 35.4394 28.5899 35.8194C32.4399 36.9794 32.2299 42.2994 32.2299 42.2994C33.7799 43.4894 38.3099 43.2994 39.6099 42.6794C45.3499 39.9194 48.4499 37.7794 48.7799 36.5094C49.164 34.0567 48.8161 31.5453 47.7799 29.2894C46.6999 26.9994 40.4399 23.2894 39.4699 22.4094C39.4699 22.4094 35.8999 18.9394 33.6499 17.0094C31.3999 15.0794 23.2399 11.3994 21.0999 11.0094C18.9599 10.6194 16.3099 10.7794 15.6599 10.6094C15.0099 10.4394 13.9099 10.0094 12.7399 9.60938C7.66991 10.3394 1.80991 15.4294 1.57991 16.0794C1.40446 17.4053 1.3676 18.7458 1.46991 20.0794C1.30536 20.1992 1.15146 20.3331 1.00991 20.4794C0.886142 21.2727 0.947751 22.0839 1.18991 22.8494ZM26.6299 30.3794C26.6299 30.3794 24.1199 25.6194 22.9199 23.9794C24.1599 23.5294 31.6899 19.9294 33.7399 17.6494C35.8799 19.6494 39.2799 23.0394 39.2799 23.0394C39.2799 23.0394 40.1499 26.1494 34.1899 28.9194C28.2299 31.6894 26.6299 30.3794 26.6299 30.3794ZM8.62991 18.8094C12.8199 17.8794 17.5399 20.3494 20.5699 23.0394C22.5599 25.0085 24.0424 27.4312 24.8899 30.0994L8.91991 20.3494C8.78127 19.8426 8.67109 19.3285 8.58991 18.8094H8.62991Z" fill="#DCDFE5"/>
<path d="M26.63 34.3691C26.76 34.3691 29.63 35.4391 29.63 35.4391L30.54 36.7391C31.2344 37.4624 31.754 38.335 32.059 39.29C32.3641 40.2451 32.4465 41.2573 32.3 42.2491C31.5485 42.5867 30.7339 42.7605 29.91 42.7591C30.1535 42.7705 30.3964 42.726 30.62 42.6291C31.79 42.1191 32.14 40.3391 31.41 38.6291C31.161 38.0438 30.7893 37.5187 30.32 37.0891L26.78 38.9991L26.29 38.5691L25.29 35.5691C25.7091 35.1393 26.1568 34.7384 26.63 34.3691Z" fill="#2D313F"/>
<path d="M27.1401 40.4998C27.8701 42.1998 29.4101 43.1598 30.5801 42.6598C31.7501 42.1598 32.1001 40.3698 31.3701 38.6598C30.6401 36.9498 29.1001 35.9798 27.9301 36.4998C26.7601 37.0198 26.4001 38.7698 27.1401 40.4998Z" fill="#2D313F"/>
<path d="M27.6414 40.2422C27.7639 40.5272 27.9253 40.7923 28.1162 41.0222C28.3072 41.2521 28.524 41.4424 28.7542 41.5822C28.9844 41.722 29.2235 41.8086 29.4579 41.8369C29.6923 41.8652 29.9173 41.8348 30.1201 41.7473C30.3229 41.6599 30.4995 41.5171 30.6397 41.3272C30.78 41.1373 30.8812 40.904 30.9375 40.6406C30.9939 40.3772 31.0042 40.089 30.9681 39.7923C30.9319 39.4956 30.8499 39.1963 30.7267 38.9116C30.6042 38.6266 30.4428 38.3616 30.2519 38.1316C30.0609 37.9017 29.8441 37.7114 29.6139 37.5716C29.3837 37.4318 29.1445 37.3452 28.9102 37.3169C28.6758 37.2886 28.4508 37.319 28.248 37.4065C28.0452 37.4939 27.8686 37.6367 27.7284 37.8266C27.5881 38.0165 27.4869 38.2498 27.4306 38.5132C27.3742 38.7766 27.3638 39.0648 27.4 39.3615C27.4362 39.6582 27.5182 39.9575 27.6414 40.2422Z" fill="#082A4C"/>
<path d="M27.5699 40.2808C27.0299 39.0408 27.3199 37.7208 28.2199 37.3408C28.4556 37.2496 28.7101 37.2174 28.961 37.247C29.212 37.2766 29.452 37.3672 29.6599 37.5108C30.1586 37.8551 30.5493 38.3339 30.7866 38.8915C31.0238 39.4492 31.0978 40.0627 30.9999 40.6608C30.962 40.9122 30.8628 41.1504 30.7111 41.3545C30.5594 41.5585 30.3598 41.7221 30.1299 41.8308C29.9113 41.919 29.6746 41.9533 29.4399 41.9308C29.0146 41.8354 28.6202 41.6341 28.2933 41.3457C27.9664 41.0572 27.7176 40.691 27.5699 40.2808ZM28.2799 37.5008C27.4699 37.8508 27.2199 39.0708 27.7199 40.2308C28.2199 41.3908 29.2799 42.0408 30.0899 41.6908C30.2867 41.5947 30.4586 41.4545 30.5921 41.281C30.7257 41.1076 30.8174 40.9055 30.8599 40.6908C30.9577 40.1196 30.8878 39.5323 30.6589 38.9999C30.43 38.4675 30.0518 38.0128 29.5699 37.6908C29.3689 37.5585 29.1392 37.4763 28.8999 37.4508C28.6926 37.4112 28.4783 37.4285 28.2799 37.5008Z" fill="#B3B7C4"/>
<path d="M31.0001 40.4209L29.7101 39.9809L30.4601 41.5009C30.3583 41.588 30.2436 41.6588 30.1201 41.7109C29.9281 41.7939 29.7186 41.8283 29.5101 41.8109L29.0501 40.0809L28.1201 40.9909C27.9211 40.757 27.7592 40.4939 27.6401 40.2109L28.7301 39.5009L27.6001 38.1009C27.7291 37.8172 27.9565 37.5899 28.2401 37.4609L29.0001 38.6309L29.1501 37.3809C29.3894 37.452 29.6132 37.5673 29.8101 37.7209L29.6801 39.2809L30.8701 39.3709C30.9815 39.709 31.0256 40.0657 31.0001 40.4209Z" fill="#E6E6E6"/>
<path d="M31 39.89L29.39 39.69L30.15 41.75L30 41.81L29.23 39.72L27.9 40.72L27.79 40.5L29.13 39.5L27.83 37.65L28 37.6L29.24 39.36L29.41 37.5L29.57 37.58L29.34 39.58L30.96 39.78C30.9714 39.8173 30.9848 39.8541 31 39.89Z" fill="#3D4154"/>
<path d="M28.8402 39.7306C28.7806 39.6252 28.764 39.5008 28.7938 39.3835C28.8236 39.2661 28.8975 39.1648 29.0002 39.1006C29.0477 39.0743 29.101 39.0605 29.1552 39.0605C29.2094 39.0605 29.2628 39.0743 29.3102 39.1006C29.4179 39.1705 29.5016 39.2717 29.5502 39.3906C29.5929 39.5137 29.5929 39.6475 29.5502 39.7706C29.5427 39.8251 29.5213 39.8767 29.488 39.9205C29.4547 39.9643 29.4107 39.9988 29.3602 40.0206C29.3148 40.0358 29.2656 40.0358 29.2202 40.0206C29.1399 40.002 29.0645 39.9666 28.999 39.9166C28.9334 39.8666 28.8793 39.8032 28.8402 39.7306Z" fill="#E6E6E6"/>
<path d="M28.9999 39.6495C28.9837 39.6255 28.9726 39.5985 28.9674 39.57C28.9621 39.5416 28.9628 39.5124 28.9694 39.4842C28.9759 39.456 28.9883 39.4295 29.0055 39.4063C29.0228 39.3832 29.0447 39.3638 29.0699 39.3495C29.0932 39.338 29.1189 39.332 29.1449 39.332C29.1709 39.332 29.1965 39.338 29.2199 39.3495C29.2694 39.3844 29.3077 39.4331 29.3299 39.4895C29.3483 39.5481 29.3483 39.6109 29.3299 39.6695C29.3238 39.6945 29.3127 39.7181 29.2972 39.7387C29.2817 39.7594 29.2622 39.7766 29.2399 39.7895C29.2141 39.7995 29.1856 39.7995 29.1599 39.7895C29.1242 39.78 29.0913 39.7624 29.0635 39.7382C29.0358 39.7139 29.014 39.6835 28.9999 39.6495Z" fill="#3D4154"/>
<path d="M5.07799 27.6866C5.25221 28.0905 5.4796 28.4669 5.74715 28.7941C6.01471 29.1214 6.31721 29.3931 6.63737 29.5938C6.95753 29.7945 7.28908 29.9202 7.6131 29.9638C7.93712 30.0074 8.24727 29.968 8.52582 29.8479C8.80437 29.7278 9.04588 29.5292 9.23656 29.2637C9.42724 28.9981 9.56335 28.6706 9.63712 28.3001C9.7109 27.9295 9.72089 27.523 9.66653 27.1038C9.61217 26.6846 9.49451 26.2609 9.32029 25.857C8.96844 25.0411 8.40751 24.3551 7.76092 23.9498C7.11433 23.5444 6.43503 23.453 5.87247 23.6956C5.3099 23.9383 4.91015 24.495 4.76116 25.2435C4.61217 25.9919 4.72614 26.8707 5.07799 27.6866Z" fill="#082A4C"/>
<path d="M5.59008 27.5004C6.11008 28.6904 7.22008 29.3704 8.07008 29.0004C8.92008 28.6304 9.20008 27.3604 8.68008 26.1604C8.16008 24.9604 7.05008 24.2904 6.20008 24.6604C5.35008 25.0304 5.08008 26.2704 5.59008 27.5004Z" fill="#082A4C"/>
<path d="M5.52014 27.5005C4.98014 26.2605 5.27014 24.9405 6.17014 24.5505C6.40674 24.4643 6.66027 24.4347 6.91036 24.4642C7.16045 24.4938 7.40013 24.5815 7.61014 24.7205C8.12127 25.0569 8.52141 25.5371 8.76014 26.1005C9.02004 26.6554 9.1038 27.2766 9.00014 27.8805C8.96056 28.1314 8.86072 28.3689 8.70919 28.5726C8.55766 28.7764 8.35896 28.9404 8.13014 29.0505C7.91208 29.1408 7.67405 29.1718 7.44014 29.1405C7.00602 29.0555 6.6012 28.8599 6.26484 28.5726C5.92848 28.2853 5.67197 27.916 5.52014 27.5005ZM6.23014 24.7105C5.43014 25.0605 5.17014 26.2805 5.67014 27.4305C6.17014 28.5805 7.23014 29.2405 8.00014 28.8905C8.19877 28.7971 8.37224 28.6576 8.50616 28.4837C8.64007 28.3098 8.73057 28.1064 8.77014 27.8905C8.87719 27.3223 8.80376 26.7349 8.56014 26.2105C8.34853 25.6728 7.96998 25.2171 7.48014 24.9105C7.27748 24.7798 7.0489 24.6945 6.81014 24.6605C6.61552 24.6328 6.41714 24.6499 6.23014 24.7105Z" fill="#B3B7C4"/>
<path d="M8.9198 27.6398L7.6298 27.1998L8.4098 28.7498C8.31092 28.8434 8.19568 28.918 8.06981 28.9698C7.88035 29.0491 7.67417 29.08 7.4698 29.0598L6.9998 27.3298L6.0698 28.2498C5.88089 28.0196 5.71978 27.7678 5.5898 27.4998L6.6798 26.7298L5.5498 25.2698C5.68447 24.9902 5.91013 24.7645 6.1898 24.6298L6.9998 25.8498L7.1498 24.5898C7.388 24.6684 7.61116 24.7867 7.8098 24.9398L7.6398 26.4998L8.8398 26.5798C8.92936 26.9256 8.95645 27.2846 8.9198 27.6398Z" fill="#E6E6E6"/>
<path d="M8.93 27.0992L7.32 26.9092L8.08 28.9692L7.93 29.0192L7.16 26.9392L5.83 27.9392C5.83 27.9392 5.78 27.8492 5.75 27.7992L7.09 26.7992L5.79 24.9392L5.91 24.8292L7.15 26.5892L7.37 24.6992L7.53 24.7792L7.3 26.7792L8.92 26.9792C8.92 26.9892 8.92 27.0492 8.93 27.0992Z" fill="#3D4154"/>
<path d="M6.78996 26.9494C6.67996 26.6794 6.78996 26.3994 6.92996 26.3194C6.97816 26.2956 7.0312 26.2832 7.08496 26.2832C7.13872 26.2832 7.19176 26.2956 7.23996 26.3194C7.34794 26.3934 7.43148 26.4978 7.47996 26.6194C7.52342 26.7423 7.52342 26.8765 7.47996 26.9994C7.47155 27.0536 7.44977 27.1048 7.4166 27.1484C7.38343 27.1921 7.3399 27.2268 7.28996 27.2494C7.24454 27.2646 7.19538 27.2646 7.14996 27.2494C7.07184 27.2284 6.99921 27.1907 6.93707 27.1389C6.87492 27.0871 6.82473 27.0224 6.78996 26.9494Z" fill="#B3B7C4"/>
<path d="M6.99985 26.8706C6.97235 26.8208 6.96428 26.7626 6.97721 26.7072C6.99014 26.6518 7.02314 26.6031 7.06985 26.5706C7.09228 26.5564 7.11829 26.5488 7.14485 26.5488C7.17141 26.5488 7.19743 26.5564 7.21985 26.5706C7.27185 26.6029 7.31081 26.6525 7.32985 26.7106C7.34894 26.7691 7.34894 26.8321 7.32985 26.8906C7.32378 26.9157 7.31267 26.9392 7.2972 26.9599C7.28172 26.9805 7.26221 26.9978 7.23985 27.0106H7.16985C7.133 27.0011 7.09867 26.9837 7.0693 26.9595C7.03992 26.9353 7.01622 26.905 6.99985 26.8706Z" fill="#3D4154"/>
<path d="M4.44011 26.1708C3.37011 25.4008 1.37011 23.8608 1.19011 22.8508C0.969921 22.0695 0.935674 21.2476 1.09011 20.4508C1.23165 20.3045 1.38556 20.1706 1.55011 20.0508C1.48249 19.0519 1.48249 18.0496 1.55011 17.0508C1.55011 17.0508 18.8901 28.3608 22.9501 30.8508C27.0101 33.3408 31.9501 36.4208 32.9501 37.1008C33.1577 37.8433 33.5341 38.5278 34.0501 39.1008C34.6901 39.5308 36.8001 39.7208 38.8801 39.3608C42.2501 38.5608 47.8801 34.6108 48.2801 33.7508C48.5408 32.8552 48.6089 31.9146 48.4801 30.9908C49.0168 32.7769 49.1298 34.6634 48.8101 36.5008C48.4801 37.7708 45.3801 39.9108 39.6401 42.6708C38.3401 43.3008 33.8101 43.4808 32.2601 42.2908C32.2601 42.2908 32.4701 36.9708 28.6201 35.8108C27.3401 35.4308 26.3601 36.6108 26.7401 39.0508C25.5801 38.3608 16.0501 32.9008 10.0001 29.5008C10.0701 28.8408 10.2601 25.6408 7.78011 23.7808C5.01011 21.6908 4.15011 24.6108 4.36011 25.9208C4.41011 25.9808 4.43011 26.0808 4.44011 26.1708Z" fill="#B3B7C4"/>
<path d="M34.1899 28.9191C40.1899 26.1491 39.2799 23.0391 39.2799 23.0391C39.2799 23.0391 46.0599 27.9691 46.9599 32.8591C45.9099 33.7091 42.0699 36.4391 39.3299 37.2391C39.3299 37.2391 27.3299 31.7491 26.6299 30.3791C26.6299 30.3791 28.2399 31.6891 34.1899 28.9191Z" fill="#F0F1F3"/>
<path d="M47.3599 33.6394C44.3599 36.5094 39.3599 38.4994 39.3599 38.4994V37.2394C42.0999 36.4394 45.9399 33.7094 46.9899 32.8594L47.3599 33.6394Z" fill="#083356"/>
<path d="M33.64 38.6191C33.367 38.1415 33.1393 37.6393 32.96 37.1191C35.13 37.8991 39.33 37.2391 39.33 37.2391V38.4991C37.4715 39.0028 35.518 39.044 33.64 38.6191Z" fill="#495D8F"/>
<path d="M47 32.8591C47.4153 32.3892 47.717 31.83 47.8818 31.2249C48.0465 30.6197 48.0698 29.9848 47.95 29.3691C48.161 29.8358 48.3381 30.3171 48.48 30.8091C48.531 31.3322 48.46 31.86 48.2726 32.3511C48.0852 32.8421 47.7865 33.283 47.4 33.6391L47 32.8591Z" fill="#495D8F"/>
<path d="M49.0002 33.5C48.9515 34.1371 48.7378 34.7506 48.3802 35.28C47.7602 36.28 41.2602 40.17 39.5302 40.67C37.8002 41.17 33.8802 40.52 33.6102 40.67C33.3402 40.82 32.9602 41.27 33.1302 41.42C35.2564 41.8498 37.4388 41.9275 39.5902 41.65C42.7005 40.3905 45.6005 38.664 48.1902 36.53C48.8249 35.6546 49.1134 34.5754 49.0002 33.5Z" fill="#495D8F"/>
<path d="M48.54 34.9299C48.7473 34.5371 48.8828 34.1104 48.94 33.6699C48.9968 34.4404 48.8521 35.2124 48.52 35.9099L48.54 34.9299Z" fill="#F0F1F3"/>
<path d="M33.5601 40.6995C33.7201 40.6095 35.1501 40.7995 36.6501 40.8695L37.0801 41.8695C35.7359 41.9035 34.3925 41.7725 33.0801 41.4795C32.9101 41.2995 33.2801 40.8495 33.5601 40.6995Z" fill="#F0F1F3"/>
<path d="M47.84 35.8203L48.14 36.5603C45.5503 38.6943 42.6503 40.4208 39.54 41.6803L39.48 40.6803C42.449 39.3965 45.2552 37.7651 47.84 35.8203Z" fill="#083356"/>
<path d="M7.62978 22.9498C8.67971 23.5505 9.52624 24.4511 10.0608 25.5362C10.5953 26.6213 10.7934 27.8413 10.6298 29.0398L26.1698 38.0398C26.2998 36.6898 26.7498 34.4898 29.0198 35.3298C30.0312 35.7282 30.9095 36.4043 31.5534 37.28C32.1974 38.1558 32.5809 39.1956 32.6598 40.2798C32.8398 41.3498 33.1098 41.4998 33.1098 41.4998C35.236 41.9297 37.4184 42.0074 39.5698 41.7298C42.6801 40.4703 45.5801 38.7438 48.1698 36.6098C48.5671 36.0926 48.8284 35.4841 48.9298 34.8398H49.0298C49.0163 35.3994 48.9425 35.956 48.8098 36.4998C48.4798 37.7698 45.3798 39.9098 39.6398 42.6698C38.3398 43.2998 33.8098 43.4798 32.2598 42.2898C32.2598 42.2898 32.4698 36.9698 28.6198 35.8098C27.3398 35.4298 26.3598 36.6098 26.7398 39.0498C25.5798 38.3598 16.0498 32.8998 9.99978 29.4998C10.0698 28.8398 10.2598 25.6398 7.77978 23.7798C5.00978 21.6898 4.14978 24.6098 4.35978 25.9198C4.35978 26.0298 4.35978 26.1298 4.40978 26.2198L3.99978 25.8398C3.88978 22.1798 6.26978 22.1298 7.62978 22.9498Z" fill="#999FB0"/>
<path d="M26.1401 37.9902L10.6001 28.9902C10.6369 28.7419 10.657 28.4913 10.6601 28.2402L26.2501 37.2402C26.2001 37.5002 26.1701 37.7602 26.1401 37.9902Z" fill="#DCDFE5"/>
<path d="M1.51021 19.3403C1.46665 18.5843 1.46665 17.8264 1.51021 17.0703C1.95665 17.9085 2.26398 18.8136 2.42021 19.7503C2.25021 19.8003 1.87021 19.5903 1.51021 19.3403Z" fill="#FF0000"/>
<path d="M33.73 16.96L34.02 17.21L33.74 17.65L33.36 18.04C30.88 20.32 24.09 23.55 22.92 23.98C22.92 23.98 20.52 19.44 10.21 16.64C17.3 11.51 21.21 11 21.21 11C23.32 11.35 31.49 15.04 33.73 16.96Z" fill="#F0F1F3"/>
<path d="M5.29004 16.2996C8.45901 13.8727 11.9839 11.9501 15.74 10.5996C16.39 10.7696 19.03 10.6496 21.18 10.9996C21.18 10.9996 17.3 11.5096 10.18 16.6396C9.41004 17.0496 6.00004 16.4996 5.29004 16.2996Z" fill="#15243E"/>
<path d="M12.8199 9.55078C13.9899 10.0008 15.0899 10.4308 15.7399 10.5508C11.9807 11.9167 8.45559 13.8563 5.28988 16.3008C4.37657 15.9129 3.4882 15.4687 2.62988 14.9708C4.53988 13.2608 8.90988 10.1108 12.8199 9.55078Z" fill="#F0F1F3"/>
<path d="M37.15 37.7891C36.6773 37.8242 36.2027 37.8242 35.73 37.7891V38.5391C36.2541 38.4001 36.7398 38.1437 37.15 37.7891Z" fill="#F0F1F3"/>
<path d="M35.45 37.7897L34 37.6797V38.4297C34.5363 38.3656 35.0412 38.1428 35.45 37.7897Z" fill="#F0F1F3"/>
<path d="M39.33 37.2402V38.5002C38.8193 38.648 38.2977 38.755 37.77 38.8202L39.33 37.2402Z" fill="#113C70"/>
<path d="M47.36 33.6394L46.96 32.8594H47.96C47.7861 33.1385 47.5851 33.3997 47.36 33.6394Z" fill="#113C70"/>
<path d="M48.0799 30.8398C48.0448 31.1805 47.971 31.516 47.8599 31.8398C48.0245 31.7434 48.1758 31.6257 48.3099 31.4898L48.0799 30.8398Z" fill="#F0F1F3"/>
<path d="M31.2401 26.5794C33.1736 26.1351 34.9819 25.26 36.5301 24.0194C37.2505 23.5016 37.8677 22.8539 38.3501 22.1094L39.2801 23.0394C39.2801 23.0394 40.1501 26.1494 34.1901 28.9194C28.2301 31.6894 26.6301 30.3794 26.6301 30.3794L26.3701 29.8794C26.9071 29.0204 27.6178 28.2831 28.4564 27.7148C29.2951 27.1465 30.2432 26.7598 31.2401 26.5794Z" fill="#495D8F"/>
<path d="M30.1201 20.3103C30.9019 19.853 31.6596 19.3557 32.3901 18.8203L38.3901 22.1103C37.9077 22.8548 37.2905 23.5026 36.5701 24.0203C36.0271 24.4501 35.4521 24.8379 34.8501 25.1803C33.8001 24.4503 31.7501 23.8103 30.5601 24.2403C30.8199 22.9162 30.6663 21.5442 30.1201 20.3103Z" fill="#495D8F"/>
<path d="M30.1202 20.3105C30.6529 21.5487 30.7926 22.9205 30.5202 24.2405L27.2702 26.0005C26.746 25.6253 26.1148 25.429 25.4702 25.4405C25.4702 24.7605 25.3302 23.8105 25.2402 22.9305C26.6602 22.2405 28.4802 21.2905 30.1202 20.3105Z" fill="#083356"/>
<path d="M34.81 25.1807C33.701 25.832 32.4962 26.3045 31.24 26.5807C30.5978 26.7182 29.9736 26.9296 29.38 27.2107L27.27 26.0007L30.52 24.2407C31.71 23.8107 33.76 24.5007 34.81 25.1807Z" fill="#082A4C"/>
<path d="M31.7402 19.2803C31.9702 19.1303 32.1802 18.9703 32.3902 18.8203L38.3902 22.1103C38.18 22.4507 37.9318 22.7661 37.6502 23.0503C37.6502 23.0503 36.7702 22.1903 31.7802 19.2803H31.7402Z" fill="#113C70"/>
<path d="M24.0002 25.6502L25.4602 25.2402C25.4602 25.3102 25.4602 25.3802 25.4602 25.4402C26.1048 25.4286 26.736 25.625 27.2602 26.0002L29.3702 27.2102C28.496 27.607 27.7079 28.1709 27.0502 28.8702L25.2302 27.8202C24.8302 27.1102 24.4002 26.3402 23.9902 25.6502H24.0002Z" fill="#15243E"/>
<path d="M29.3802 27.2098C28.506 27.6066 27.7179 28.1705 27.0602 28.8698L25.2402 27.8198L27.8602 26.3398L29.3802 27.2098Z" fill="#113C70"/>
<path d="M25.21 27.7695V27.8195L27.03 28.8695C26.7453 29.1684 26.5031 29.5048 26.31 29.8695C26.12 29.4295 25.7 28.6395 25.21 27.7695Z" fill="#082A4C"/>
<path d="M24.0001 25.6497V25.6997C23.6592 25.1081 23.2887 24.5341 22.8901 23.9797C23.2501 23.8497 24.1101 23.4697 25.2101 22.9297C25.3001 23.8097 25.3901 24.7597 25.4401 25.4397C25.4401 25.3797 25.4401 25.3097 25.4401 25.2397L24.0001 25.6497Z" fill="#495D8F"/>
<path d="M21.8999 28.2906L23.7299 27.3906C24.1772 28.2616 24.5518 29.168 24.8499 30.1006L21.8999 28.2906Z" fill="#082A4C"/>
<path d="M18.8398 23.0405L18.9998 21.8105C19.5398 22.2105 20.0598 22.6205 20.5298 23.0405C21.8522 24.2838 22.9367 25.758 23.7298 27.3905L21.8998 28.2905L17.5898 25.6505L18.0698 23.5005C18.3116 23.3236 18.5694 23.1696 18.8398 23.0405Z" fill="#082A4C"/>
<path d="M19.37 22.0905L19 21.8105L19.37 22.0905Z" fill="#495D8F"/>
<path d="M18.84 23.0395C18.568 23.1813 18.3102 23.3487 18.07 23.5395L18.02 23.7895L18.54 21.4895L18.22 21.2695L19 21.8095L18.84 23.0395Z" fill="#495D8F"/>
<path d="M17.8499 21.0403L16.9199 25.2403L10.9199 21.5503L12.5399 20.5003V18.8203C14.4277 19.2393 16.2257 19.991 17.8499 21.0403Z" fill="#082A4C"/>
<path d="M12.5401 18.8308V20.5008L10.8901 21.5508L8.89006 20.3508C8.75141 19.8441 8.64124 19.3299 8.56006 18.8108C9.87291 18.533 11.2301 18.5399 12.5401 18.8308Z" fill="#495D8F"/>
<path d="M30.59 22C30.59 22 33.11 23.79 33.98 23C34.85 22.21 36.9 23.66 36.91 23.67L36.53 23.98C35.987 24.4098 35.412 24.7976 34.81 25.14C33.76 24.41 31.71 23.77 30.52 24.2C30.6413 23.4731 30.6648 22.7332 30.59 22Z" fill="#113C70"/>
<path d="M12.0802 18.7402C12.2302 18.7402 12.3902 18.7902 12.5402 18.8302L10.8902 21.5502L10.4902 21.3102L12.0802 18.7402Z" fill="#15243E"/>
<path d="M31.54 20.8496C31.54 20.8496 32.32 21.2196 32.32 21.8496C32.32 22.4796 31.54 21.7296 31.54 21.7296V20.8496Z" fill="#495D8F"/>
<path d="M33.7401 17.6504C35.4201 19.1804 37.8901 21.6504 38.8601 22.6504L38.3501 22.9604L33.3501 18.0504C33.4891 17.9261 33.6194 17.7925 33.7401 17.6504Z" fill="#495D8F"/>
<path d="M17.59 25.6496L16.48 24.9696L17.54 20.8496C17.88 21.0496 18.21 21.2696 18.54 21.4896L17.59 25.6496Z" fill="#15243E"/>
<path d="M28.4101 27.7396C28.2601 27.8396 28.1101 27.9396 27.9701 28.0496C27.5691 27.9608 27.1506 27.9977 26.7713 28.1552C26.392 28.3126 26.0704 28.583 25.8501 28.9296L25.6001 28.4996C25.8723 28.0265 26.321 27.6807 26.8479 27.5382C27.3747 27.3958 27.9366 27.4682 28.4101 27.7396Z" fill="#495D8F"/>
<path d="M30.0002 21.0991C29.0266 21.4339 28.1268 21.9534 27.3502 22.6291C27.3273 22.6703 27.314 22.7161 27.3115 22.7631C27.3089 22.8101 27.3171 22.8571 27.3354 22.9004C27.3538 22.9438 27.3817 22.9824 27.4172 23.0134C27.4526 23.0444 27.4947 23.0668 27.5402 23.0791C28.4068 22.6837 29.2311 22.2012 30.0002 21.6391C30.1902 21.3791 30.1302 21.0591 30.0002 21.0991Z" fill="#495D8F"/>
<path d="M18.2299 28.3801C17.8199 28.1601 17.3699 27.9101 16.8899 27.6301C16.6299 27.4801 16.6199 27.8601 16.7999 28.0201C17.2189 28.3276 17.6718 28.586 18.1499 28.7901C18.3799 28.8501 18.3999 28.5001 18.2299 28.3801Z" fill="#495D8F"/>
<path d="M10.2698 23.2693C9.86982 23.0293 9.43982 22.7593 8.96982 22.4493C8.71982 22.2893 8.68982 22.6593 8.86982 22.8393C9.27434 23.1666 9.71366 23.4483 10.1798 23.6793C10.3998 23.7393 10.4398 23.3593 10.2698 23.2693Z" fill="#495D8F"/>
<path d="M24.2002 29.3494C24.2002 29.3494 24.2602 28.0094 23.2502 28.0894C22.8593 28.1512 22.4887 28.3049 22.1688 28.5378C21.8489 28.7708 21.5889 29.0763 21.4102 29.4294C21.3602 29.6894 21.7002 29.9294 22.0902 29.9494C22.8357 29.9499 23.5665 29.7421 24.2002 29.3494Z" fill="#F0F1F3"/>
<path d="M24.1502 28.8398C24.1866 29.0073 24.2033 29.1785 24.2002 29.3498C23.5665 29.7426 22.8357 29.9504 22.0902 29.9498C21.7002 29.9498 21.3602 29.6898 21.4102 29.4298C22.3617 29.5071 23.3148 29.3019 24.1502 28.8398Z" fill="#495D8F"/>
</svg>
