<svg width="50" height="50" viewBox="0 0 50 50" fill="none" xmlns="http://www.w3.org/2000/svg">
<path d="M41.0002 38.5005C41.845 36.9493 42.3008 35.2163 42.3287 33.4502C42.3566 31.6841 41.9556 29.9376 41.1602 28.3605L33.0002 14.3705C30.9402 10.8105 27.8702 11.1305 25.8102 14.6405C23.7502 18.1505 23.4702 23.5605 25.5402 27.1405L33.7002 41.2205C35.3702 44.1105 37.9002 43.8205 39.5602 40.9505L41.0002 38.5005Z" fill="#15243E"/>
<path d="M41.8399 41.8796L43.2999 39.3396C45.2499 35.9696 45.4599 30.8596 43.7699 27.9396L34.9999 12.6896C32.9999 9.15962 29.4099 9.59962 27.0499 13.6896C24.6999 17.7596 24.4399 23.9296 26.4799 27.4496L35.2599 42.6996C36.9399 45.6196 39.8899 45.2496 41.8399 41.8796Z" fill="#082A4C"/>
<path d="M31.6199 10.3105H33.6399L40.2599 44.6705H38.0599L27.9199 23.9405L31.6199 10.3105Z" fill="#082A4C"/>
<path d="M43.92 41.8796L45.38 39.3396C47.33 35.9696 47.54 30.8596 45.85 27.9396L37.06 12.6896C35.06 9.15962 31.47 9.59962 29.11 13.6896C26.76 17.7596 26.5 23.9296 28.54 27.4496L37.34 42.6996C39 45.6196 42 45.2496 43.92 41.8796Z" fill="#082A4C"/>
<path d="M42.0002 44.0298C40.4802 44.7798 38.8802 44.2698 37.8002 42.3998L29.0002 27.1398C27.0002 23.6098 27.2202 17.4498 29.5702 13.3798C30.1319 12.3459 30.9178 11.4507 31.8702 10.7598C30.676 11.4475 29.7016 12.4601 29.0602 13.6798C26.7102 17.7498 26.4502 23.9198 28.4902 27.4398L37.3402 42.6998C38.5502 44.7798 40.3902 45.1798 42.0002 44.0298Z" fill="#495D8F"/>
<path d="M45.3299 38.5007C46.1747 36.9495 46.6305 35.2165 46.6584 33.4504C46.6863 31.6843 46.2853 29.9378 45.4899 28.3607L37.4099 14.3607C35.3499 10.8007 32.2799 11.1207 30.2199 14.6307C28.1599 18.1407 27.8799 23.5507 29.9499 27.1307L38.0799 41.2107C39.7499 44.1007 42.2799 43.8107 43.9399 40.9407L45.3299 38.5007Z" fill="#113C70"/>
<path d="M38.4101 27.3294C38.3959 27.7363 38.489 28.1398 38.6801 28.4994L39.4301 29.7994C39.5095 29.9617 39.6314 30.0995 39.7828 30.1981C39.9342 30.2967 40.1095 30.3524 40.2901 30.3594C40.5048 30.336 40.7097 30.2573 40.885 30.1312C41.0602 30.005 41.1998 29.8355 41.2901 29.6394L42.6101 27.3494C42.8642 26.901 42.9985 26.3947 43.0001 25.8794C43.0126 25.4758 42.9195 25.076 42.7301 24.7194L42.0001 23.4194C41.9207 23.257 41.7989 23.1192 41.6474 23.0206C41.496 22.922 41.3207 22.8663 41.1401 22.8594C40.9254 22.8828 40.7205 22.9614 40.5452 23.0876C40.37 23.2138 40.2304 23.3832 40.1401 23.5794L38.8201 25.8694C38.5607 26.3129 38.4195 26.8156 38.4101 27.3294Z" fill="#495D8F"/>
<path d="M35.2902 32.7395C35.2777 33.1431 35.3708 33.5429 35.5602 33.8995L36.3102 35.1995C36.3895 35.3619 36.5114 35.4997 36.6629 35.5983C36.8143 35.6969 36.9896 35.7526 37.1702 35.7595C37.3848 35.7361 37.5898 35.6575 37.7651 35.5313C37.9403 35.4051 38.0799 35.2357 38.1702 35.0395L39.4902 32.7495C39.7357 32.3022 39.863 31.7997 39.8602 31.2895C39.8726 30.886 39.7796 30.4861 39.5902 30.1295L38.8402 28.8295C38.7608 28.6672 38.6389 28.5294 38.4875 28.4308C38.3361 28.3322 38.1607 28.2765 37.9802 28.2695C37.7655 28.2929 37.5605 28.3716 37.3853 28.4977C37.21 28.6239 37.0705 28.7934 36.9802 28.9895L35.6602 31.2795C35.4147 31.7268 35.2873 32.2293 35.2902 32.7395Z" fill="#495D8F"/>
<path d="M38.3699 37.2505C38.3449 37.657 38.4029 38.0644 38.5405 38.4478C38.678 38.8312 38.8922 39.1825 39.1699 39.4805L39.4299 39.7205C39.7019 39.9961 40.0337 40.2053 40.3997 40.3319C40.7656 40.4585 41.1558 40.4991 41.5399 40.4505C42.0271 40.3381 42.4829 40.1181 42.8739 39.8066C43.265 39.4952 43.5814 39.1001 43.7999 38.6505L44.7199 37.0505C45.4067 35.7625 45.751 34.3197 45.7199 32.8605C45.7227 31.9193 45.588 30.9827 45.3199 30.0805L45.1799 29.6305C44.9299 28.8105 44.4299 28.2705 43.8399 28.2105C43.5667 28.1978 43.2958 28.2672 43.0624 28.4098C42.8289 28.5523 42.6434 28.7616 42.5299 29.0105L38.7899 35.5005C38.5002 36.0374 38.3555 36.6405 38.3699 37.2505Z" fill="#082A4C"/>
<path d="M32.9002 28.3593C33.8002 29.9093 35.9002 28.8293 37.5502 25.9393C39.2002 23.0493 39.8502 19.4393 38.9502 17.8893C38.0502 16.3393 35.9502 17.4193 34.3002 20.3093C32.6502 23.1993 32.0002 26.7993 32.9002 28.3593Z" fill="#082A4C"/>
<path d="M29.8601 22.0098C29.8601 22.2751 29.9654 22.5294 30.153 22.7169C30.3405 22.9045 30.5949 23.0098 30.8601 23.0098C31.1253 23.0098 31.3796 22.9045 31.5672 22.7169C31.7547 22.5294 31.8601 22.2751 31.8601 22.0098C32.1289 21.4799 32.269 20.8941 32.269 20.2998C32.269 19.7056 32.1289 19.1198 31.8601 18.5898C31.8601 18.3246 31.7547 18.0703 31.5672 17.8827C31.3796 17.6952 31.1253 17.5898 30.8601 17.5898C30.5949 17.5898 30.3405 17.6952 30.153 17.8827C29.9654 18.0703 29.8601 18.3246 29.8601 18.5898C29.5913 19.1198 29.4512 19.7056 29.4512 20.2998C29.4512 20.8941 29.5913 21.4799 29.8601 22.0098Z" fill="#15243E"/>
<path d="M40.8399 29.4992L42.1599 27.2092C42.3517 26.8625 42.4597 26.4758 42.4753 26.0799C42.491 25.684 42.4137 25.2899 42.2499 24.9292L41.4999 23.6292C41.1599 23.0392 40.5699 23.1192 40.1799 23.7892L38.8599 26.0792C38.6681 26.4259 38.5601 26.8126 38.5445 27.2085C38.5288 27.6044 38.606 27.9985 38.7699 28.3592L39.5199 29.6592C39.8599 30.2192 40.4499 30.1392 40.8399 29.4992Z" fill="#15243E"/>
<path d="M39.5399 27.3298C39.5289 27.6033 39.5874 27.8751 39.7099 28.1198L40.4599 29.4198C40.4599 29.4798 40.5799 29.6098 40.6799 29.6098C40.7799 29.6098 40.9299 29.4998 41.0699 29.2498L42.3899 26.9598C42.571 26.6253 42.6639 26.2502 42.6599 25.8698C42.6709 25.5964 42.6124 25.3246 42.4899 25.0798L41.7399 23.7798C41.7399 23.7198 41.6199 23.5898 41.5199 23.5898C41.4199 23.5898 41.2699 23.6998 41.1299 23.9498L39.8099 26.2398C39.6288 26.5744 39.5359 26.9495 39.5399 27.3298Z" fill="#082A4C"/>
<path d="M40.8798 27.2892L40.9598 27.4292C41.2198 27.7992 41.4098 27.9192 41.6598 27.6492C41.7927 27.4729 41.8789 27.2659 41.9104 27.0474C41.9419 26.8288 41.9176 26.6059 41.8398 26.3992L41.6798 26.5692C41.7365 26.7066 41.7562 26.8565 41.7369 27.0039C41.7176 27.1513 41.66 27.2911 41.5698 27.4092C41.3998 27.5892 41.2698 27.4692 41.0898 27.1992L40.9998 27.0592L41.7498 25.7592L41.3398 25.0592C41.3223 25.011 41.2904 24.9693 41.2483 24.9398C41.2063 24.9103 41.1562 24.8945 41.1048 24.8945C41.0535 24.8945 41.0034 24.9103 40.9613 24.9398C40.9193 24.9693 40.8873 25.011 40.8698 25.0592L40.3798 25.8992C40.3157 26.0264 40.2822 26.1668 40.2822 26.3092C40.2822 26.4517 40.3157 26.5921 40.3798 26.7192L40.7898 27.4192L40.8798 27.2892Z" fill="#082A4C"/>
<path d="M37.7102 34.8703L39.0002 32.5803C39.192 32.2336 39.3 31.8469 39.3157 31.451C39.3313 31.0551 39.2541 30.661 39.0902 30.3003L38.3402 29.0003C38.0002 28.4103 37.4102 28.4903 37.0202 29.1603L35.7002 31.4503C35.5084 31.797 35.4004 32.1837 35.3848 32.5796C35.3692 32.9755 35.4464 33.3696 35.6102 33.7303L36.3602 35.0303C36.7302 35.6203 37.3202 35.5003 37.7102 34.8703Z" fill="#15243E"/>
<path d="M36.4198 32.74C36.4088 33.0135 36.4673 33.2853 36.5898 33.53L37.3398 34.83C37.3398 34.89 37.4598 35.02 37.5598 35.02C37.6598 35.02 37.8098 34.91 37.9498 34.66L39.2698 32.37C39.4509 32.0355 39.5438 31.6604 39.5398 31.28C39.5507 31.0065 39.4922 30.7347 39.3698 30.49L38.6198 29.19C38.6198 29.13 38.4998 29 38.3998 29C38.2998 29 38.1498 29.11 38.0098 29.36L36.6898 31.65C36.5087 31.9845 36.4158 32.3596 36.4198 32.74Z" fill="#082A4C"/>
<path d="M37.7502 33.0595C38.0402 33.4395 38.3702 33.4395 38.5602 33.0595C38.663 32.8387 38.7163 32.598 38.7163 32.3545C38.7163 32.1109 38.663 31.8703 38.5602 31.6495L38.6502 31.4995L38.2402 30.7995C38.2227 30.7512 38.1907 30.7095 38.1487 30.68C38.1067 30.6506 38.0566 30.6348 38.0052 30.6348C37.9539 30.6348 37.9038 30.6506 37.8617 30.68C37.8197 30.7095 37.7877 30.7512 37.7702 30.7995L37.2802 31.6395C37.216 31.7666 37.1826 31.9071 37.1826 32.0495C37.1826 32.1919 37.216 32.3323 37.2802 32.4595L37.6902 33.1595L37.7502 33.0595ZM38.4502 32.9095C38.3202 33.1395 38.1002 33.1195 37.8802 32.8395L38.4002 31.9295C38.4797 32.0792 38.5253 32.2446 38.5339 32.4139C38.5426 32.5832 38.514 32.7524 38.4502 32.9095Z" fill="#082A4C"/>
<path d="M43.3199 38.4991L44.2399 36.8991C45.2944 34.8218 45.5023 32.4165 44.8199 30.1891L44.6799 29.7391C44.2699 28.4091 43.2399 28.1291 42.6799 29.1891L38.9199 35.7091C38.6241 36.2684 38.4969 36.9014 38.5537 37.5315C38.6105 38.1616 38.8489 38.7618 39.2399 39.2591L39.4999 39.4991C40.7299 40.6491 42.2999 40.2491 43.3199 38.4991Z" fill="#495D8F"/>
<path d="M39.4999 37.2492C39.463 37.8635 39.6635 38.4685 40.0599 38.9392L40.3199 39.1792C40.5132 39.3792 40.75 39.5319 41.0119 39.6255C41.2737 39.7192 41.5537 39.7512 41.8299 39.7192C42.2081 39.6222 42.5602 39.4428 42.861 39.1938C43.1618 38.9449 43.4039 38.6326 43.5699 38.2792L44.4899 36.6792C45.1104 35.5029 45.4234 34.1889 45.3999 32.8592C45.393 31.9876 45.2583 31.1217 44.9999 30.2892L44.8599 29.8392C44.6699 29.2092 44.3499 28.9592 44.1399 28.9292C43.9299 28.8992 43.7299 29.0692 43.5499 29.3692L39.7899 35.8892C39.5792 36.3105 39.4794 36.7786 39.4999 37.2492Z" fill="#082A4C"/>
<path d="M42.1602 37.9895C42.3002 38.0595 42.4502 37.9895 42.5602 37.8095L42.6702 37.6095C42.6937 37.8622 42.6937 38.1167 42.6702 38.3695C42.6702 38.5195 42.5402 38.5495 42.5402 38.5495V38.8295C42.5402 38.8295 42.7102 38.8295 42.7902 38.4995C42.8315 38.1206 42.8315 37.7383 42.7902 37.3595L43.2502 37.5195C43.3802 37.5195 43.5202 37.5195 43.6202 37.3295L44.1702 36.3295C44.2945 36.0985 44.363 35.8416 44.3702 35.5795L44.4202 34.4795V34.4095L44.6102 33.9295C44.6708 33.7907 44.7021 33.6409 44.7021 33.4895C44.7021 33.338 44.6708 33.1882 44.6102 33.0495L44.5602 32.9595C44.4902 32.8495 44.3902 32.8495 44.3202 32.9595L44.1502 33.2595C44.1318 33.2065 44.0974 33.1606 44.0517 33.1281C44.006 33.0956 43.9513 33.0782 43.8952 33.0782C43.8392 33.0782 43.7845 33.0956 43.7388 33.1281C43.6931 33.1606 43.6587 33.2065 43.6402 33.2595C43.5715 33.3977 43.5358 33.55 43.5358 33.7045C43.5358 33.8589 43.5715 34.0112 43.6402 34.1495L42.6102 35.9995C42.5918 35.9465 42.5574 35.9006 42.5117 35.8681C42.466 35.8356 42.4113 35.8182 42.3552 35.8182C42.2992 35.8182 42.2445 35.8356 42.1988 35.8681C42.1531 35.9006 42.1187 35.9465 42.1002 35.9995C42.0315 36.1377 41.9958 36.29 41.9958 36.4445C41.9958 36.5989 42.0315 36.7512 42.1002 36.8895L41.9002 37.2295C41.8701 37.2918 41.8545 37.3602 41.8545 37.4295C41.8545 37.4987 41.8701 37.5671 41.9002 37.6295L41.9702 37.7695C42.0099 37.8577 42.0764 37.9312 42.1602 37.9795V37.9895ZM44.1602 35.5495C44.1534 35.8117 44.0849 36.0686 43.9602 36.2995L43.6002 36.9195C43.5502 37.0095 43.4702 37.0495 43.4002 37.0295L43.0402 36.8995L44.1502 34.9695L44.1602 35.5495Z" fill="#082A4C"/>
<path d="M43.8902 32.2095L43.6402 31.7795L43.3502 32.2795L43.6002 32.7095L43.4902 32.8995L42.9102 31.8995L43.0202 31.7095L43.2502 32.1095L43.5402 31.6095L43.3102 31.2095L43.4202 31.0195L44.0002 32.0195L43.8902 32.2095Z" fill="#082A4C"/>
<path d="M42.33 33.9103C42.2533 33.7548 42.2134 33.5837 42.2134 33.4103C42.2134 33.2369 42.2533 33.0658 42.33 32.9103C42.51 32.6103 42.77 32.5903 42.93 32.9103C43.0075 33.0656 43.0478 33.2368 43.0478 33.4103C43.0478 33.5838 43.0075 33.755 42.93 33.9103C42.75 34.1803 42.49 34.2003 42.33 33.9103ZM42.84 33.0303C42.73 32.8403 42.56 32.8503 42.45 33.0303C42.3973 33.1341 42.3699 33.2489 42.3699 33.3653C42.3699 33.4817 42.3973 33.5965 42.45 33.7003C42.56 33.8903 42.73 33.8803 42.84 33.7003C42.8912 33.5957 42.9169 33.4805 42.9152 33.3641C42.9135 33.2477 42.8843 33.1333 42.83 33.0303H42.84Z" fill="#082A4C"/>
<path d="M42.2499 35.0298L41.7699 34.2098L41.5199 34.6398L41.4199 34.4698L41.7799 33.8398L42.3599 34.8398L42.2499 35.0298Z" fill="#082A4C"/>
<path d="M40.93 36.3299C40.8502 36.1753 40.8086 36.0039 40.8086 35.8299C40.8086 35.656 40.8502 35.4845 40.93 35.3299L41.17 34.9199L41.75 35.9199L41.51 36.3399C41.34 36.6099 41.1 36.6199 40.93 36.3299ZM41.04 36.1299C41.15 36.3299 41.31 36.3199 41.42 36.1299L41.55 35.9099L41.17 35.2499L41 35.4999C40.95 35.5974 40.9239 35.7054 40.9239 35.8149C40.9239 35.9245 40.95 36.0325 41 36.1299H41.04Z" fill="#082A4C"/>
<path d="M29.8202 21.5996C29.8746 21.7538 29.9755 21.8872 30.1089 21.9817C30.2423 22.0761 30.4018 22.1268 30.5652 22.1268C30.7287 22.1268 30.8881 22.0761 31.0216 21.9817C31.155 21.8872 31.2559 21.7538 31.3102 21.5996C31.514 21.1983 31.6202 20.7546 31.6202 20.3046C31.6202 19.8546 31.514 19.4109 31.3102 19.0096C31.2559 18.8555 31.155 18.722 31.0216 18.6275C30.8881 18.5331 30.7287 18.4824 30.5652 18.4824C30.4018 18.4824 30.2423 18.5331 30.1089 18.6275C29.9755 18.722 29.8746 18.8555 29.8202 19.0096C29.6165 19.4109 29.5103 19.8546 29.5103 20.3046C29.5103 20.7546 29.6165 21.1983 29.8202 21.5996Z" fill="#082A4C"/>
<path d="M33.07 27.1096C33.68 28.1696 35.21 27.2396 36.48 25.0296C37.75 22.8196 38.29 20.1796 37.68 19.1196C37.07 18.0596 35.54 18.9896 34.27 21.1996C33 23.4096 32.46 26.0596 33.07 27.1096Z" fill="#495D8F"/>
<path d="M33.7901 26.7896C34.3401 27.7896 35.7201 26.8996 36.8601 24.9196C38.0001 22.9396 38.5001 20.4996 38.0001 19.5996C37.5001 18.6996 36.0001 19.4996 34.8801 21.4996C33.7601 23.4996 33.2401 25.8396 33.7901 26.7896Z" fill="#15243E"/>
<path d="M36.8199 22.3401L37.0999 21.8601L36.6599 21.0801L36.3699 21.5701L35.4699 21.5601L35.3599 21.7401L36.7199 24.0901L36.8299 23.9101L36.8199 22.3401Z" fill="#15243E"/>
<path d="M36.08 25.1508V24.9408C35.8877 24.9615 35.6939 24.919 35.5279 24.8198C35.3619 24.7206 35.2327 24.57 35.16 24.3908C34.9032 23.9024 34.7921 23.3505 34.84 22.8008H34.72C34.6879 23.3928 34.823 23.9819 35.11 24.5008C35.1832 24.6971 35.3162 24.8654 35.4902 24.9821C35.6643 25.0987 35.8706 25.1577 36.08 25.1508Z" fill="#15243E"/>
<path d="M35.3201 24.1692C35.5401 24.5592 35.8601 24.7092 36.1501 24.6092V24.3792C35.8801 24.4892 35.5901 24.3792 35.3901 24.0192C35.1816 23.6127 35.108 23.1504 35.1801 22.6992H35.0401C34.9771 23.2065 35.0751 23.7206 35.3201 24.1692Z" fill="#15243E"/>
<path d="M36.2499 24.09V23.9C36.0299 23.99 35.7899 23.9 35.6199 23.6C35.4559 23.258 35.4068 22.8722 35.4799 22.5H35.3699C35.3197 22.9023 35.3929 23.3103 35.5799 23.67C35.7599 24.04 35.9999 24.16 36.2499 24.09Z" fill="#15243E"/>
<path d="M18.7398 6.49955C17.8408 6.27098 16.8988 6.27098 15.9998 6.49955C15.567 6.54826 15.1545 6.70964 14.8036 6.96758C14.4526 7.22553 14.1755 7.57101 13.9998 7.96955C12.2923 11.1406 11.1262 14.5745 10.5498 18.1296C10.5498 19.3796 12.5498 22.7196 12.5498 22.7196C12.5498 22.7196 14.4798 26.2396 15.1998 26.2396C15.9198 26.2396 17.5598 26.5596 17.8898 26.2396C20.5798 23.6896 24.1998 16.9296 24.1998 16.9296C23.9998 16.1396 20.8998 9.27955 20.8998 9.27955C20.1811 8.90473 19.4953 8.46985 18.8498 7.97955C18.8498 7.97955 19.8098 6.84955 18.7398 6.49955ZM16.6598 9.30955C17.0398 9.12955 17.7598 9.84955 18.3098 10.5196C18.8716 11.2204 19.3235 12.0027 19.6498 12.8396C20.0807 13.7334 20.3192 14.7077 20.3498 15.6996C20.1898 16.6996 19.6898 17.1696 19.3498 16.2796C19.1398 15.7096 18.6398 14.6396 18.3498 13.9496C18.1598 13.5446 17.9356 13.1565 17.6798 12.7896C17.2798 12.2296 16.6798 11.3596 16.3298 10.9996C16.2205 10.8744 16.1413 10.7259 16.0982 10.5655C16.0551 10.405 16.0492 10.2368 16.0811 10.0738C16.1129 9.9107 16.1816 9.75708 16.2819 9.62463C16.3822 9.49218 16.5115 9.38441 16.6598 9.30955Z" fill="#082A4C"/>
<path d="M13.2699 18.1094C13.2699 18.1094 18.6899 21.6294 18.9699 25.0394C18.6726 25.465 18.3379 25.8632 17.9699 26.2294C17.6299 26.5494 15.9699 26.2294 15.2799 26.2294C14.5899 26.2294 12.6299 22.7094 12.6299 22.7094C12.6299 22.7094 10.6299 19.3694 10.6299 18.1194C11.4994 18.3148 12.4019 18.3114 13.2699 18.1094Z" fill="#082A4C"/>
<path d="M15.8698 26.2301C15.1498 26.2301 13.2198 22.7101 13.2198 22.7101C13.2198 22.7101 11.2198 19.3701 11.2198 18.1201C11.7826 14.5639 12.9351 11.1267 14.6298 7.95009C14.8056 7.55931 15.0794 7.22053 15.4245 6.96651C15.7696 6.71249 16.1744 6.55184 16.5998 6.50009C16.7898 6.50009 17.2698 6.36009 17.8698 6.32009C17.2416 6.30708 16.614 6.36749 15.9998 6.50009C15.567 6.54879 15.1545 6.71017 14.8036 6.96812C14.4526 7.22606 14.1755 7.57155 13.9998 7.97009C12.2923 11.1411 11.1262 14.575 10.5498 18.1301C10.5498 19.3801 12.5498 22.7201 12.5498 22.7201C12.5498 22.7201 14.4798 26.2401 15.1998 26.2401C15.7498 26.2401 16.8398 26.4201 17.4698 26.3701C16.9398 26.3201 16.2698 26.2301 15.8698 26.2301Z" fill="#082A4C"/>
<path d="M13.15 21.4495C13.15 21.4495 5 40.1395 5.21 40.4995H4.52L3.19 40.1595L3 37.8295L12.46 21.4395L13.15 21.4495Z" fill="#B3B7C4"/>
<path d="M16.72 7.94939C15.0123 11.1203 13.8463 14.5542 13.27 18.1094C13.27 19.3594 15.27 22.6994 15.27 22.6994C15.27 22.6994 17.2 26.2194 17.92 26.2194C18.64 26.2194 21.86 23.5794 23.79 20.2194C25.72 16.8594 23.79 11.8694 23.79 11.8694C23.4951 11.1094 23.1613 10.3651 22.79 9.63939C22.398 9.04486 21.9671 8.47694 21.5 7.93939C21.5 7.93939 18.64 4.61939 16.72 7.94939ZM18 8.10939C18.38 7.92939 20.49 9.84939 21 10.5194C21.6278 11.2509 22.1465 12.0694 22.54 12.9494C23.0868 14.2586 23.4437 15.6392 23.6 17.0494C23.44 18.0494 22.94 18.5194 22.6 17.6294C22.39 17.0594 21.33 14.6294 21 13.9394C20.81 13.5344 20.5858 13.1464 20.33 12.7794C19.93 12.2194 17.92 10.1594 17.59 9.77939C17.4873 9.64922 17.4156 9.49733 17.3805 9.33528C17.3453 9.17323 17.3476 9.00529 17.3871 8.84425C17.4266 8.6832 17.5024 8.53331 17.6086 8.40596C17.7148 8.27862 17.8487 8.17719 18 8.10939Z" fill="#113C70"/>
<path d="M22.5602 12.3308C22.1613 11.4461 21.6358 10.6241 21.0002 9.89079C20.4702 9.23079 18.3602 7.30079 18.0002 7.50079C17.7746 7.61572 17.595 7.80433 17.4914 8.03533C17.3877 8.26633 17.3661 8.52583 17.4302 8.77079C17.4741 8.62719 17.5475 8.49434 17.6456 8.3807C17.7438 8.26706 17.8645 8.17513 18.0002 8.11079C18.3802 7.93079 20.4902 9.85079 21.0002 10.5208C21.628 11.2523 22.1467 12.0708 22.5402 12.9508C22.9887 14.1329 23.3235 15.3551 23.5402 16.6008C23.5402 16.5408 23.5402 16.4808 23.5402 16.4208C23.4085 15.018 23.0786 13.6409 22.5602 12.3308Z" fill="#495D8F"/>
<path d="M23.8198 20.2491C24.4156 19.1343 24.7087 17.8826 24.6698 16.6191C24.6281 17.6698 24.344 18.6965 23.8398 19.6191C21.9198 22.9491 18.6998 25.6191 17.9698 25.6191C17.2398 25.6191 15.3198 22.0991 15.3198 22.0991C15.3198 22.0991 13.4798 19.0991 13.3198 17.6991C13.3114 17.8423 13.3114 17.9859 13.3198 18.1291C13.3198 19.3791 15.3198 22.7191 15.3198 22.7191C15.3198 22.7191 17.2498 26.2391 17.9698 26.2391C18.6898 26.2391 21.8998 23.5891 23.8198 20.2491Z" fill="#495D8F"/>
<path d="M14.3199 23.6007L14.6399 24.1507L5.20994 40.5007L3.87994 40.1607L3.68994 37.8607L13.1499 21.4707C13.6799 22.5007 14.3199 23.6007 14.3199 23.6007Z" fill="#DCDFE5"/>
<path d="M13.43 23.9309L3.88002 40.1309L3.77002 38.7709L13.12 23.1309L13.43 23.9309Z" fill="#F0F1F3"/>
<path d="M17.6399 11.8998C18.3821 12.5165 19.0351 13.2333 19.5799 14.0298C19.8676 14.4225 20.1124 14.8449 20.3099 15.2898C20.8198 16.3707 21.2315 17.4952 21.5399 18.6498C21.6999 19.3998 18.3699 23.4298 17.6899 23.4298C17.3599 23.4298 16.1699 21.1998 16.1699 21.1998C15.63 20.3779 15.1965 19.4908 14.8799 18.5598C14.8799 17.3898 17.2099 11.6298 17.6399 11.8998Z" fill="#495D8F"/>
<path d="M17.4002 12.499C18.0619 13.0494 18.6441 13.6888 19.1302 14.399C19.3867 14.7513 19.6046 15.1302 19.7802 15.529C20.236 16.4941 20.6041 17.4981 20.8802 18.529C21.0202 19.199 18.0502 22.799 17.4402 22.799C17.1402 22.799 16.0802 20.799 16.0802 20.799C15.6031 20.0829 15.2168 19.3104 14.9302 18.499C14.9302 17.429 17.0002 12.279 17.4002 12.499Z" fill="#082A4C"/>
<path d="M15.7599 16.8307C15.7483 16.483 15.8276 16.1384 15.9899 15.8307L16.6399 14.7007C16.7084 14.5613 16.8134 14.4431 16.9437 14.3586C17.074 14.2741 17.2247 14.2264 17.3799 14.2207C17.5697 14.2364 17.7521 14.302 17.9084 14.4109C18.0647 14.5198 18.1894 14.668 18.2699 14.8407L19.4099 16.8407C19.6224 17.2265 19.7325 17.6603 19.7299 18.1007C19.7415 18.4484 19.6622 18.793 19.4999 19.1007L18.8499 20.2307C18.7814 20.3701 18.6764 20.4883 18.5461 20.5728C18.4158 20.6573 18.2651 20.705 18.1099 20.7107C17.9201 20.695 17.7377 20.6294 17.5814 20.5205C17.4251 20.4116 17.3004 20.2634 17.2199 20.0907L16.0799 18.0907C15.8674 17.7049 15.7573 17.2711 15.7599 16.8307Z" fill="#15243E"/>
<path d="M17.8598 14.9898L18.9998 16.9898C19.1711 17.2928 19.2678 17.6323 19.2817 17.9801C19.2956 18.328 19.2264 18.6741 19.0798 18.9898L18.4298 20.1198C18.1398 20.6298 17.6298 20.5598 17.2898 19.9798L16.1498 17.9798C15.9785 17.6768 15.8819 17.3373 15.868 16.9895C15.854 16.6417 15.9232 16.2955 16.0698 15.9798L16.7198 14.8498C16.9998 14.3398 17.5198 14.3998 17.8598 14.9898Z" fill="#15243E"/>
<path d="M16.4798 16.8296C16.4718 16.5939 16.5234 16.36 16.6298 16.1496L17.2798 15.0196C17.2798 15.0196 17.3798 14.8496 17.4698 14.8496C17.5598 14.8496 17.6898 14.9496 17.8098 15.1596L18.9498 17.1596C19.1051 17.4483 19.1842 17.7718 19.1798 18.0996C19.1879 18.3353 19.1363 18.5692 19.0298 18.7796L18.3798 19.9096C18.3798 19.9096 18.2798 20.0796 18.1898 20.0796C18.0998 20.0796 17.9698 19.9896 17.8498 19.7696L16.7098 17.7696C16.5546 17.4809 16.4754 17.1574 16.4798 16.8296Z" fill="#15243E"/>
<path d="M17.1399 16.8906L16.9199 16.5006L17.2699 15.8906L17.4999 16.2806L18.2099 16.2706L18.2899 16.4106L17.2199 18.2606L17.1399 18.1206V16.8906Z" fill="#15243E"/>
<path d="M17.7202 19.09V18.93C17.8706 18.9457 18.022 18.9123 18.1517 18.8348C18.2815 18.7572 18.3827 18.6398 18.4402 18.5C18.6418 18.116 18.7286 17.682 18.6902 17.25H18.7802C18.8126 17.7108 18.7156 18.1714 18.5002 18.58C18.4411 18.7367 18.3336 18.8706 18.1934 18.9623C18.0532 19.0539 17.8875 19.0987 17.7202 19.09Z" fill="#15243E"/>
<path d="M18.3199 18.3192C18.1399 18.6292 17.8999 18.7392 17.6699 18.6692V18.4892C17.8799 18.5792 18.1099 18.4892 18.2699 18.1992C18.4242 17.8901 18.4801 17.5411 18.4299 17.1992H18.5399C18.5825 17.5862 18.5057 17.977 18.3199 18.3192Z" fill="#15243E"/>
<path d="M17.5898 18.2593V18.1093C17.7598 18.1793 17.9498 18.1093 18.0798 17.8793C18.216 17.6182 18.2651 17.3203 18.2198 17.0293H18.3098C18.3511 17.3451 18.2953 17.666 18.1498 17.9493C17.9998 18.2193 17.7798 18.3193 17.5898 18.2593Z" fill="#15243E"/>
<path d="M23.9999 11.1504H23.5499C22.9587 11.1801 22.3815 11.3406 21.8599 11.6204C21.4379 11.8514 21.0909 12.1984 20.8599 12.6204C20.7615 12.7833 20.6843 12.958 20.6299 13.1404C20.7899 13.4004 20.9299 13.6604 21.0799 13.9604L21.2499 14.3204C21.1697 13.8617 21.2472 13.3894 21.4699 12.9804C21.6535 12.669 21.9248 12.4186 22.2499 12.2604C22.7437 12.0035 23.2934 11.873 23.8499 11.8804H23.9999C25.476 11.9632 26.9119 12.393 28.1907 13.1349C29.4695 13.8769 30.5553 14.91 31.3599 16.1504C31.7048 16.6935 31.9014 17.3176 31.9299 17.9604C31.9354 18.3098 31.8492 18.6546 31.6799 18.9604C31.6176 19.0736 31.5402 19.1779 31.4499 19.2704C30.9457 19.7682 30.2683 20.0513 29.5599 20.0604C29.531 20.2995 29.531 20.5413 29.5599 20.7804C30.3031 20.7517 31.0206 20.5009 31.6199 20.0604C31.8862 19.8593 32.1104 19.6079 32.2799 19.3204C32.5454 18.7625 32.6567 18.1436 32.6022 17.5281C32.5477 16.9126 32.3294 16.323 31.9699 15.8204C31.1026 14.4698 29.9287 13.3429 28.5438 12.5315C27.159 11.72 25.6021 11.2468 23.9999 11.1504Z" fill="#F0F1F3"/>
</svg>
