<svg width="50" height="48" viewBox="0 0 50 48" fill="none" xmlns="http://www.w3.org/2000/svg">
<path d="M32.52 8.95L12.11 7.5L11.5 28.6L33.32 31.25L32.52 8.95Z" fill="#082A4C"/>
<path d="M32.5199 8.94922L27.6899 9.55922L28.7799 10.6392L28.3999 33.0092L33.3199 31.2492L32.5199 8.94922Z" fill="#113C70"/>
<path d="M27.6899 9.56055L28.3999 33.0105L28.7799 10.6405L27.6899 9.56055Z" fill="#495D8F"/>
<path d="M12.1101 7.5L12.8401 8.29L11.6401 28.62L12.1101 7.5Z" fill="#495D8F"/>
<path d="M12.8398 8.28906L8.76977 8.94906L7.75977 30.6091L11.6398 28.6191L12.8398 8.28906Z" fill="#495D8F"/>
<path d="M28.7798 10.6392L8.76977 8.94922L7.75977 30.6092L28.3998 33.0092L28.7798 10.6392Z" fill="#113C70"/>
<path d="M28.4001 33.0106L28.7801 10.6406C28.7801 10.6406 28.3101 17.9606 28.3101 24.9206C28.3101 32.7706 28.4001 33.0106 28.4001 33.0106Z" fill="#15243E"/>
<path d="M28.7799 10.6406L30.4499 30.6106L28.3999 33.0106L28.7799 10.6406Z" fill="#15243E"/>
<path d="M33.3199 31.2494L28.3999 33.0094L30.4499 30.6094L33.3199 31.2494Z" fill="#495D8F"/>
<path d="M25.5 20C25.5 20 25.5 14 29.5 14C34.5 14 33.5 21 33.5 21" stroke="#495D8F" stroke-width="0.5" stroke-linecap="round"/>
<path d="M42.3601 20.3791L21.2201 19.1191L20.5801 37.4091L43.2001 39.6991L42.3601 20.3791Z" fill="#999FB0"/>
<path d="M42.3599 20.3809L37.3599 20.9109L38.4899 21.8409L38.0899 41.2309L43.1999 39.7009L42.3599 20.3809Z" fill="#B3B7C4"/>
<path d="M37.3599 20.9102L38.0899 41.2302L38.4899 21.8402L37.3599 20.9102Z" fill="#F0F1F3"/>
<path d="M21.22 19.1191L21.97 19.7991L20.73 37.4291L21.22 19.1191Z" fill="#F0F1F3"/>
<path d="M21.97 19.8008L17.75 20.3808L16.71 39.1508L20.73 37.4308L21.97 19.8008Z" fill="#999FB0"/>
<path d="M38.49 21.8409L17.75 20.3809L16.71 39.1509L38.09 41.2309L38.49 21.8409Z" fill="#F0F1F3"/>
<path d="M38.09 41.2298L38.48 21.8398C38.48 21.8398 38 28.1798 38 34.2198C38 41.0198 38.09 41.2298 38.09 41.2298Z" fill="#DCDFE5"/>
<path d="M38.4898 21.8398L40.2198 39.1498L38.0898 41.2298L38.4898 21.8398Z" fill="#999FB0"/>
<path d="M43.1998 39.7004L38.0898 41.2304L40.2198 39.1504L43.1998 39.7004Z" fill="#F0F1F3"/>
<path d="M22.2168 13.4078C22.1624 13.3704 22.116 13.3225 22.0802 13.267C22.0444 13.2114 22.02 13.1494 22.0083 13.0843C21.9967 13.0193 21.998 12.9526 22.0123 12.8882C22.0265 12.8237 22.0534 12.7626 22.0914 12.7086C22.1294 12.6545 22.1777 12.6086 22.2336 12.5733C22.2894 12.538 22.3517 12.5142 22.4168 12.5031C22.482 12.4921 22.5486 12.4941 22.613 12.5089C22.6774 12.5238 22.7381 12.5512 22.7918 12.5897C22.8462 12.6272 22.8926 12.6751 22.9284 12.7306C22.9642 12.7861 22.9886 12.8482 23.0003 12.9132C23.0119 12.9782 23.0106 13.0449 22.9963 13.1094C22.9821 13.1739 22.9552 13.2349 22.9172 13.289C22.8792 13.343 22.8309 13.389 22.7751 13.4243C22.7192 13.4595 22.6569 13.4834 22.5918 13.4944C22.5267 13.5055 22.46 13.5035 22.3956 13.4886C22.3313 13.4738 22.2705 13.4463 22.2168 13.4078Z" fill="white"/>
<path d="M16.209 12.4117C16.1546 12.3743 16.1082 12.3264 16.0724 12.2709C16.0366 12.2153 16.0122 12.1533 16.0005 12.0883C15.9889 12.0232 15.9902 11.9566 16.0045 11.8921C16.0187 11.8276 16.0456 11.7665 16.0836 11.7125C16.1216 11.6584 16.1699 11.6125 16.2258 11.5772C16.2816 11.5419 16.3439 11.5181 16.409 11.507C16.4742 11.496 16.5408 11.498 16.6052 11.5128C16.6695 11.5277 16.7303 11.5552 16.784 11.5936C16.8384 11.6311 16.8848 11.679 16.9206 11.7345C16.9564 11.79 16.9808 11.8521 16.9925 11.9171C17.0041 11.9821 17.0028 12.0488 16.9885 12.1133C16.9743 12.1778 16.9474 12.2388 16.9094 12.2929C16.8714 12.3469 16.8231 12.3929 16.7672 12.4282C16.7114 12.4634 16.6491 12.4873 16.584 12.4983C16.5188 12.5094 16.4522 12.5074 16.3878 12.4926C16.3235 12.4777 16.2627 12.4502 16.209 12.4117Z" fill="white"/>
<path d="M16.5 12C16.5 12 13.57 21.5 17.78 22.5C21.99 23.5 22.5 17 22.5 13" stroke="#495D8F" stroke-width="0.5" stroke-linecap="round"/>
<path d="M32.2869 24.4501C32.2274 24.422 32.174 24.3824 32.1298 24.3335C32.0856 24.2847 32.0515 24.2276 32.0294 24.1656C32.0073 24.1035 31.9977 24.0377 32.0012 23.9719C32.0046 23.9062 32.021 23.8417 32.0494 23.7823C32.0779 23.7229 32.1177 23.6697 32.1668 23.6257C32.2158 23.5817 32.2731 23.5479 32.3352 23.5261C32.3974 23.5044 32.4633 23.4951 32.529 23.4989C32.5948 23.5026 32.6591 23.5193 32.7184 23.548C32.778 23.5762 32.8314 23.6158 32.8756 23.6646C32.9198 23.7135 32.9539 23.7706 32.9759 23.8326C32.998 23.8947 33.0076 23.9605 33.0042 24.0262C33.0007 24.092 32.9843 24.1565 32.9559 24.2159C32.9275 24.2753 32.8876 24.3285 32.8386 24.3725C32.7895 24.4164 32.7323 24.4503 32.6701 24.472C32.6079 24.4938 32.5421 24.5031 32.4763 24.4993C32.4106 24.4956 32.3462 24.4788 32.2869 24.4501Z" fill="#082A4C"/>
<path d="M25.2845 23.454C25.2249 23.4259 25.1715 23.3863 25.1273 23.3375C25.0831 23.2886 25.049 23.2315 25.0269 23.1695C25.0049 23.1074 24.9953 23.0416 24.9987 22.9758C25.0022 22.9101 25.0186 22.8456 25.047 22.7862C25.0754 22.7268 25.1153 22.6736 25.1643 22.6296C25.2134 22.5856 25.2706 22.5518 25.3328 22.53C25.395 22.5083 25.4608 22.499 25.5266 22.5028C25.5923 22.5065 25.6567 22.5232 25.716 22.5519C25.7755 22.5801 25.8289 22.6197 25.8731 22.6685C25.9173 22.7174 25.9514 22.7745 25.9735 22.8365C25.9956 22.8986 26.0052 22.9644 26.0017 23.0302C25.9983 23.0959 25.9819 23.1604 25.9535 23.2198C25.925 23.2792 25.8852 23.3324 25.8361 23.3764C25.7871 23.4203 25.7298 23.4542 25.6676 23.4759C25.6055 23.4977 25.5396 23.507 25.4739 23.5032C25.4081 23.4995 25.3438 23.4828 25.2845 23.454Z" fill="#082A4C"/>
<path d="M25.4998 23C25.4998 23 24.3998 15 29.4998 15C34.5998 15 32.4998 24 32.4998 24" stroke="#495D8F" stroke-width="0.5" stroke-linecap="round"/>
</svg>
