<svg width="50" height="48" viewBox="0 0 50 48" fill="none" xmlns="http://www.w3.org/2000/svg">
<path d="M17.0802 20.5494L16.0802 21.6994L14.4202 20.2894C14.3653 20.2333 14.3345 20.158 14.3345 20.0795C14.3345 20.001 14.3653 19.9255 14.4202 19.8694L15.0102 19.1795C15.0663 19.1245 15.1417 19.0938 15.2202 19.0938C15.2988 19.0938 15.3742 19.1245 15.4302 19.1795L17.0802 20.5494Z" fill="#495D8F"/>
<path d="M17.0002 20.6491L16.0002 21.7991L14.3402 20.3891C14.2852 20.333 14.2544 20.2576 14.2544 20.1791C14.2544 20.1006 14.2852 20.0252 14.3402 19.9691L14.9302 19.2791C14.9862 19.2241 15.0616 19.1934 15.1402 19.1934C15.2187 19.1934 15.2941 19.2241 15.3502 19.2791L17.0002 20.6491Z" fill="#DCDFE5"/>
<path d="M7.57994 19.2992C7.49669 18.8474 7.51832 18.3825 7.64315 17.9404C7.76799 17.4983 7.99269 17.0907 8.29994 16.7492C8.84974 16.1288 9.61004 15.7343 10.4338 15.642C11.2576 15.5496 12.0864 15.766 12.7599 16.2492C12.8334 16.2876 12.8977 16.3416 12.9482 16.4074C12.9987 16.4731 13.0342 16.5491 13.0523 16.6301C13.0704 16.711 13.0706 16.7949 13.0529 16.8759C13.0352 16.957 13.0001 17.0332 12.9499 17.0992L12.5799 17.5392C12.4199 17.7292 11.9799 17.9492 11.7699 17.7692C11.0999 17.2392 10.3899 16.9892 9.66994 17.9092C9.5201 18.0898 9.40904 18.2993 9.34367 18.5247C9.27829 18.75 9.26 18.9865 9.28994 19.2192C9.35636 19.7203 9.61003 20.1776 9.99994 20.4992C10.507 20.895 11.0961 21.1722 11.7243 21.3106C12.3524 21.4491 13.0035 21.4452 13.6299 21.2992C14.5299 21.0592 14.9399 20.2992 15.4899 19.5892C15.631 19.4739 15.8077 19.4108 15.9899 19.4108C16.1722 19.4108 16.3488 19.4739 16.4899 19.5892L21.3699 23.7392C21.4266 23.7824 21.4742 23.8363 21.51 23.898C21.5457 23.9596 21.5689 24.0277 21.5782 24.0984C21.5875 24.169 21.5827 24.2408 21.5641 24.3096C21.5455 24.3784 21.5135 24.4428 21.4699 24.4992L20.5999 25.4992C20.4829 25.6197 20.3296 25.6986 20.1635 25.7239C19.9974 25.7492 19.8276 25.7194 19.6799 25.6392L17.1199 23.2092C16.7944 22.9199 16.3989 22.7207 15.9727 22.6312C15.5465 22.5417 15.1043 22.5652 14.6899 22.6992C13.7367 23.0087 12.7221 23.0793 11.7352 22.905C10.7483 22.7306 9.81938 22.3166 9.02994 21.6992C8.26505 21.1073 7.74811 20.2516 7.57994 19.2992Z" fill="#113C70"/>
<path d="M17.6001 20.3604L16.1401 22.0704C16.0526 22.1738 15.9276 22.2383 15.7926 22.2495C15.6575 22.2608 15.5236 22.2179 15.4201 22.1304C15.3167 22.0429 15.2523 21.9179 15.241 21.7828C15.2298 21.6478 15.2726 21.5138 15.3601 21.4104L16.8201 19.7004C16.9077 19.597 17.0327 19.5325 17.1677 19.5213C17.3027 19.51 17.4367 19.5529 17.5401 19.6404C17.6436 19.7279 17.708 19.853 17.7193 19.988C17.7305 20.123 17.6877 20.257 17.6001 20.3604Z" fill="#15243E"/>
<path d="M16.0002 21.9191C15.935 21.9733 15.8527 22.0027 15.7679 22.0022C15.6831 22.0016 15.6013 21.9712 15.5367 21.9162C15.4722 21.8612 15.4291 21.7852 15.4151 21.7016C15.4011 21.618 15.4171 21.5321 15.4602 21.4591L16.9202 19.7491C16.9854 19.6949 17.0677 19.6655 17.1524 19.666C17.2372 19.6665 17.3191 19.697 17.3837 19.752C17.4482 19.807 17.4913 19.883 17.5053 19.9666C17.5193 20.0502 17.5033 20.1361 17.4602 20.2091L16.0002 21.9191Z" fill="#15243E" fill-opacity="0.19"/>
<path d="M7.30981 19.3793C7.22259 18.9298 7.23942 18.4662 7.35902 18.0242C7.47863 17.5822 7.69782 17.1735 7.99981 16.8293C8.54962 16.2089 9.30992 15.8144 10.1337 15.722C10.9575 15.6297 11.7863 15.846 12.4598 16.3293C12.5333 16.3677 12.5976 16.4216 12.6481 16.4874C12.6986 16.5532 12.7341 16.6292 12.7522 16.7102C12.7703 16.7911 12.7705 16.875 12.7528 16.956C12.7351 17.037 12.7 17.1132 12.6498 17.1793L12.2798 17.6193C12.1928 17.7115 12.0766 17.7709 11.9509 17.7873C11.8251 17.8037 11.6976 17.7761 11.5898 17.7093C11.2536 17.4626 10.8352 17.3551 10.4217 17.4091C10.0081 17.4631 9.63139 17.6745 9.36981 17.9993C9.22304 18.1795 9.11453 18.3877 9.05092 18.6112C8.9873 18.8347 8.96991 19.0688 8.99981 19.2993C9.08382 19.8006 9.35557 20.2511 9.75981 20.5593C10.2668 20.955 10.856 21.2323 11.4841 21.3707C12.1123 21.5091 12.7634 21.5052 13.3898 21.3593C14.2226 21.0336 14.9253 20.4433 15.3898 19.6793C15.4449 19.6221 15.5109 19.5766 15.5839 19.5456C15.6569 19.5145 15.7355 19.4985 15.8148 19.4985C15.8942 19.4985 15.9727 19.5145 16.0457 19.5456C16.1188 19.5766 16.1848 19.6221 16.2398 19.6793L21.1198 23.8293C21.1765 23.8724 21.2241 23.9264 21.2598 23.9881C21.2956 24.0497 21.3188 24.1178 21.3281 24.1885C21.3373 24.2591 21.3326 24.3309 21.314 24.3997C21.2954 24.4685 21.2634 24.5329 21.2198 24.5893L20.2998 25.6693C20.1987 25.7694 20.0621 25.8256 19.9198 25.8256C19.7775 25.8256 19.6409 25.7694 19.5398 25.6693L16.8298 23.3593C16.5043 23.07 16.1088 22.8707 15.6826 22.7813C15.2564 22.6918 14.8142 22.7153 14.3998 22.8493C13.4466 23.1588 12.432 23.2294 11.4451 23.0551C10.4582 22.8807 9.52925 22.4666 8.73981 21.8493C7.96741 21.2369 7.45631 20.3541 7.30981 19.3793Z" fill="#DCDFE5"/>
<path d="M7.71011 19.4998C7.8665 20.4703 8.38456 21.3457 9.16011 21.9498C9.65751 22.3425 10.2146 22.6531 10.8101 22.8698C10.0631 22.6536 9.36396 22.2973 8.75011 21.8198C7.97456 21.2157 7.4565 20.3403 7.30011 19.3698C7.21581 18.9211 7.23505 18.459 7.35636 18.0188C7.47766 17.5787 7.69784 17.172 8.00011 16.8298C8.44577 16.3 9.05166 15.9296 9.72633 15.7745C10.401 15.6194 11.1078 15.6879 11.7401 15.9698C11.1482 15.7913 10.5168 15.7909 9.92464 15.9687C9.3325 16.1465 8.80577 16.4947 8.41011 16.9698C8.1093 17.3109 7.88997 17.7159 7.7687 18.1542C7.64743 18.5925 7.6274 19.0526 7.71011 19.4998Z" fill="#495D8F" fill-opacity="0.19"/>
<path d="M15.7402 22.7792C15.3008 22.6658 14.8375 22.6867 14.4102 22.8392C13.1081 23.2829 11.691 23.251 10.4102 22.7492C11.5789 23.1367 12.8414 23.1367 14.0102 22.7492C14.5698 22.5398 15.1881 22.5506 15.7402 22.7792Z" fill="#15243E" fill-opacity="0.17"/>
<path d="M16.2299 19.6198H15.9799C15.8994 19.6198 15.8199 19.6377 15.7473 19.6723C15.6746 19.7069 15.6106 19.7573 15.5599 19.8198C15.0953 20.5839 14.3927 21.1741 13.5599 21.4998C12.8473 21.6719 12.1018 21.6512 11.3999 21.4398C12.1774 21.6906 13.0108 21.7115 13.7999 21.4998C14.6327 21.1741 15.3353 20.5839 15.7999 19.8198C15.8505 19.7698 15.9187 19.7417 15.9899 19.7417C16.0611 19.7417 16.1293 19.7698 16.1799 19.8198L20.7299 23.6898C20.7866 23.733 20.8342 23.787 20.8699 23.8486C20.9057 23.9103 20.9288 23.9784 20.9381 24.049C20.9474 24.1197 20.9427 24.1915 20.9241 24.2603C20.9055 24.329 20.8735 24.3935 20.8299 24.4498L19.9199 25.4998C19.8825 25.5365 19.8323 25.557 19.7799 25.557C19.7276 25.557 19.6773 25.5365 19.6399 25.4998L17.2499 23.4998C16.932 23.2278 16.5555 23.0327 16.1499 22.9298C16.4034 23.0375 16.6393 23.1824 16.8499 23.3598L19.5599 25.6698C19.6531 25.749 19.7682 25.7979 19.8899 25.8098C19.9652 25.8142 20.0404 25.8011 20.1098 25.7716C20.1792 25.7421 20.2408 25.697 20.2899 25.6398L21.2399 24.4998C21.2835 24.4435 21.3155 24.379 21.3341 24.3103C21.3527 24.2415 21.3574 24.1697 21.3481 24.099C21.3388 24.0284 21.3157 23.9603 21.2799 23.8986C21.2442 23.837 21.1966 23.783 21.1399 23.7398L16.2599 19.5898L16.2299 19.6198Z" fill="#15243E" fill-opacity="0.17"/>
<path d="M23.1198 27.0799C22.6341 27.5927 21.9655 27.8929 21.2595 27.9154C20.5535 27.9379 19.8672 27.6807 19.3498 27.1999L18.7098 26.6499C18.5218 26.4886 18.4003 26.2633 18.3689 26.0176C18.3375 25.7719 18.3984 25.5233 18.5398 25.3199L20.6598 22.8299C20.8436 22.6641 21.0823 22.5723 21.3298 22.5723C21.5774 22.5723 21.8161 22.6641 21.9998 22.8299L22.6398 23.3799C23.1849 23.8134 23.5398 24.442 23.6294 25.1327C23.719 25.8233 23.5363 26.5217 23.1198 27.0799ZM19.1198 25.8199C19.0819 25.8606 19.0608 25.9142 19.0608 25.9699C19.0608 26.0256 19.0819 26.0792 19.1198 26.1199L19.7598 26.6699C19.9378 26.861 20.1541 27.0123 20.3947 27.1139C20.6353 27.2154 20.8946 27.2648 21.1557 27.2589C21.4167 27.2531 21.6736 27.192 21.9094 27.0797C22.1451 26.9674 22.3544 26.8065 22.5236 26.6076C22.6927 26.4086 22.8178 26.1761 22.8906 25.9253C22.9634 25.6746 22.9823 25.4112 22.9461 25.1526C22.9098 24.894 22.8192 24.646 22.6803 24.4249C22.5413 24.2039 22.3571 24.0147 22.1398 23.8699L21.4998 23.3199C21.4586 23.279 21.4029 23.256 21.3448 23.256C21.2868 23.256 21.2311 23.279 21.1898 23.3199L19.1198 25.8199Z" fill="#DCDFE5"/>
<path d="M22.9999 26.9806C22.5412 27.4625 21.9105 27.7434 21.2455 27.7622C20.5804 27.7809 19.935 27.5359 19.4499 27.0806L18.8099 26.5006C18.643 26.3735 18.5327 26.1859 18.5028 25.9783C18.4729 25.7707 18.5257 25.5596 18.6499 25.3906L20.7699 22.9006C20.9194 22.754 21.1205 22.6719 21.3299 22.6719C21.5393 22.6719 21.7403 22.754 21.8899 22.9006L22.5299 23.4506C23.0599 23.8566 23.4071 24.4565 23.4952 25.1183C23.5833 25.7802 23.4052 26.4499 22.9999 26.9806ZM18.9999 25.7206C18.9383 25.7991 18.91 25.8987 18.9213 25.9979C18.9325 26.097 18.9823 26.1878 19.0599 26.2506L19.6999 26.8006C19.8888 27.0146 20.1213 27.1857 20.3818 27.3024C20.6424 27.4191 20.9248 27.4786 21.2103 27.4771C21.4958 27.4755 21.7776 27.4128 22.0368 27.2933C22.296 27.1738 22.5267 27.0001 22.7132 26.7841C22.8998 26.568 23.0379 26.3145 23.1183 26.0406C23.1988 25.7667 23.2196 25.4787 23.1795 25.1961C23.1394 24.9135 23.0393 24.6427 22.8858 24.402C22.7324 24.1613 22.5292 23.9562 22.2899 23.8006L21.6499 23.2506C21.5789 23.1815 21.4839 23.1429 21.3849 23.1429C21.2859 23.1429 21.1908 23.1815 21.1199 23.2506L18.9999 25.7206Z" fill="#DCDFE5" fill-opacity="0.19"/>
<path d="M20.42 23.0206L18.71 25.0206C18.6224 25.124 18.4974 25.1884 18.3624 25.1997C18.2274 25.2109 18.0934 25.1681 17.99 25.0806C17.8865 24.993 17.8221 24.868 17.8108 24.733C17.7996 24.598 17.8424 24.464 17.93 24.3606L19.64 22.3606C19.7275 22.2571 19.8525 22.1927 19.9875 22.1815C20.1226 22.1702 20.2565 22.213 20.36 22.3006C20.4634 22.3881 20.5278 22.5131 20.5391 22.6481C20.5503 22.7832 20.5075 22.9171 20.42 23.0206Z" fill="#113C70"/>
<path d="M18.4699 24.9396C18.4047 24.9937 18.3224 25.0232 18.2376 25.0226C18.1529 25.0221 18.071 24.9917 18.0064 24.9367C17.9419 24.8817 17.8988 24.8057 17.8848 24.7221C17.8708 24.6384 17.8868 24.5526 17.9299 24.4796L19.6399 22.4796C19.7051 22.4254 19.7874 22.396 19.8722 22.3965C19.957 22.397 20.0388 22.4275 20.1034 22.4824C20.1679 22.5374 20.211 22.6134 20.225 22.697C20.239 22.7807 20.223 22.8666 20.1799 22.9396L18.4699 24.9396Z" fill="#113C70" fill-opacity="0.19"/>
<path d="M19.4701 17.7395L20.4701 16.5895L18.8101 15.1795C18.754 15.1245 18.6786 15.0938 18.6001 15.0938C18.5216 15.0938 18.4462 15.1245 18.3901 15.1795L17.8001 15.8695C17.7451 15.9256 17.7144 16.001 17.7144 16.0795C17.7144 16.158 17.7451 16.2334 17.8001 16.2895L19.4701 17.7395Z" fill="#495D8F"/>
<path d="M19.56 17.6399L20.56 16.4899L18.9 15.0799C18.8439 15.0249 18.7685 14.9941 18.69 14.9941C18.6114 14.9941 18.536 15.0249 18.48 15.0799L17.89 15.7699C17.835 15.826 17.8042 15.9014 17.8042 15.9799C17.8042 16.0584 17.835 16.1338 17.89 16.1899L19.56 17.6399Z" fill="#DCDFE5"/>
<path d="M16.7101 8.57095C16.2511 8.56151 15.7959 8.65759 15.3798 8.85176C14.9637 9.04594 14.5978 9.33304 14.3101 9.69095C13.7864 10.3327 13.5191 11.1458 13.5597 11.9732C13.6003 12.8006 13.9461 13.5835 14.5301 14.1709C14.5799 14.2374 14.6436 14.2921 14.7167 14.3313C14.7898 14.3706 14.8707 14.3934 14.9535 14.3981C15.0364 14.4029 15.1193 14.3895 15.1964 14.3589C15.2735 14.3283 15.3431 14.2812 15.4001 14.2209L15.7701 13.7809C15.9301 13.5909 16.0801 13.1309 15.8701 12.9409C15.2401 12.3709 14.8701 11.7009 15.6801 10.8409C15.8337 10.6635 16.0221 10.5195 16.2337 10.418C16.4454 10.3165 16.6756 10.2596 16.9101 10.2509C17.4168 10.2554 17.9028 10.452 18.2701 10.8009C18.7411 11.2376 19.1085 11.774 19.3456 12.3709C19.5826 12.9678 19.6832 13.6101 19.6401 14.2509C19.5501 15.1709 18.8501 15.7109 18.2501 16.3609C18.1554 16.52 18.1196 16.7072 18.1488 16.89C18.1781 17.0727 18.2705 17.2394 18.4101 17.3609L23.2901 21.5009C23.3912 21.6011 23.5278 21.6573 23.6701 21.6573C23.8124 21.6573 23.949 21.6011 24.0501 21.5009L25.0001 20.4109C25.0968 20.2789 25.1489 20.1196 25.1489 19.9559C25.1489 19.7923 25.0968 19.6329 25.0001 19.5009L22.2001 17.3709C21.8606 17.0965 21.5989 16.7379 21.441 16.3309C21.2831 15.9239 21.2345 15.4826 21.3001 15.0509C21.451 14.061 21.3567 13.0492 21.0254 12.1042C20.6941 11.1592 20.1361 10.31 19.4001 9.63095C18.673 8.94513 17.7097 8.56555 16.7101 8.57095Z" fill="#113C70"/>
<path d="M19.3698 18.2795L20.8298 16.5695C20.9187 16.4594 20.9602 16.3186 20.9452 16.1779C20.9302 16.0373 20.8599 15.9084 20.7498 15.8195C20.6398 15.7307 20.4989 15.6892 20.3583 15.7042C20.2176 15.7192 20.0887 15.7894 19.9998 15.8995L18.5398 17.6095C18.4965 17.6607 18.4637 17.72 18.4432 17.7839C18.4228 17.8478 18.4151 17.9151 18.4207 17.9819C18.432 18.117 18.4964 18.242 18.5998 18.3295C18.7033 18.417 18.8372 18.4599 18.9723 18.4486C19.1073 18.4374 19.2323 18.3729 19.3198 18.2695L19.3698 18.2795Z" fill="#15243E"/>
<path d="M20.6501 16.4103C20.6932 16.3373 20.7092 16.2514 20.6952 16.1677C20.6812 16.0841 20.6381 16.0081 20.5736 15.9531C20.5091 15.8982 20.4272 15.8677 20.3424 15.8672C20.2576 15.8667 20.1753 15.8961 20.1101 15.9503L18.6501 17.6603C18.607 17.7333 18.591 17.8192 18.605 17.9028C18.619 17.9864 18.6621 18.0624 18.7267 18.1174C18.7912 18.1724 18.8731 18.2028 18.9579 18.2033C19.0426 18.2039 19.1249 18.1744 19.1901 18.1203L20.6501 16.4103Z" fill="#15243E" fill-opacity="0.19"/>
<path d="M16.7502 8.27993C16.2911 8.2705 15.836 8.36657 15.4199 8.56075C15.0038 8.75493 14.6378 9.04202 14.3502 9.39993C13.8265 10.0417 13.5591 10.8548 13.5997 11.6822C13.6404 12.5095 13.9861 13.2925 14.5702 13.8799C14.6199 13.9463 14.6836 14.0011 14.7568 14.0403C14.8299 14.0795 14.9107 14.1023 14.9935 14.1071C15.0764 14.1119 15.1593 14.0985 15.2364 14.0679C15.3136 14.0373 15.3831 13.9902 15.4402 13.9299L15.8102 13.4899C15.8914 13.3914 15.9359 13.2677 15.9359 13.1399C15.9359 13.0122 15.8914 12.8885 15.8102 12.7899C15.5121 12.4975 15.3384 12.1013 15.3253 11.684C15.3123 11.2666 15.4609 10.8604 15.7402 10.5499C15.8937 10.3724 16.0822 10.2285 16.2938 10.127C16.5054 10.0255 16.7356 9.9686 16.9702 9.95993C17.4768 9.96438 17.9629 10.1609 18.3302 10.5099C18.8011 10.9466 19.1686 11.483 19.4056 12.0799C19.6427 12.6768 19.7433 13.3191 19.7002 13.9599C19.5176 14.8391 19.0501 15.6335 18.3702 16.2199C18.3189 16.2815 18.2808 16.3528 18.258 16.4295C18.2352 16.5063 18.2282 16.5869 18.2376 16.6664C18.247 16.7459 18.2724 16.8227 18.3124 16.8921C18.3524 16.9615 18.406 17.022 18.4702 17.0699L23.3502 21.2199C23.4513 21.3201 23.5878 21.3763 23.7302 21.3763C23.8725 21.3763 24.0091 21.3201 24.1102 21.2199L25.0002 20.1199C25.0438 20.0636 25.0758 19.9991 25.0943 19.9303C25.1129 19.8615 25.1177 19.7898 25.1084 19.7191C25.0991 19.6485 25.0759 19.5804 25.0402 19.5187C25.0044 19.4571 24.9569 19.4031 24.9002 19.3599L22.1902 17.0499C21.8506 16.7755 21.5889 16.4169 21.431 16.0099C21.2731 15.6028 21.2245 15.1616 21.2902 14.7299C21.441 13.74 21.3467 12.7282 21.0155 11.7832C20.6842 10.8382 20.1261 9.98898 19.3902 9.30993C18.671 8.64687 17.7284 8.27912 16.7502 8.27993Z" fill="#DCDFE5"/>
<path d="M16.9499 8.65016C17.9275 8.63864 18.8736 8.99566 19.5999 9.65016C20.0662 10.078 20.4612 10.5777 20.7699 11.1302C20.4352 10.4289 19.9703 9.79774 19.3999 9.27016C18.6736 8.61566 17.7275 8.25864 16.7499 8.27016C16.2908 8.26073 15.8357 8.3568 15.4196 8.55098C15.0035 8.74516 14.6375 9.03226 14.3499 9.39016C13.8982 9.91495 13.6295 10.5724 13.5844 11.2634C13.5393 11.9543 13.7202 12.6411 14.0999 13.2202C13.8277 12.6645 13.7253 12.0409 13.8053 11.4274C13.8854 10.8139 14.1443 10.2375 14.5499 9.77016C14.8375 9.41226 15.2035 9.12516 15.6196 8.93098C16.0357 8.7368 16.4908 8.64073 16.9499 8.65016Z" fill="#495D8F" fill-opacity="0.19"/>
<path d="M21.4501 16.0608C21.2662 15.6466 21.2104 15.1869 21.2901 14.7408C21.5208 13.3824 21.2621 11.9863 20.5601 10.8008C21.1152 11.8995 21.3011 13.148 21.0901 14.3608C20.9895 14.9526 21.1182 15.5605 21.4501 16.0608Z" fill="#15243E" fill-opacity="0.17"/>
<path d="M18.4201 17.0501V16.9101C18.4066 16.8301 18.4113 16.7482 18.4338 16.6702C18.4563 16.5923 18.4961 16.5205 18.5501 16.4601C19.2301 15.8736 19.6976 15.0792 19.8801 14.2001C19.937 13.4705 19.799 12.7388 19.4801 12.0801C19.9341 12.8312 20.1437 13.7047 20.0801 14.5801C19.8976 15.4592 19.4301 16.2536 18.7501 16.8401C18.7001 16.8906 18.672 16.9589 18.672 17.0301C18.672 17.1012 18.7001 17.1695 18.7501 17.2201L23.3001 21.0901C23.4013 21.1902 23.5378 21.2464 23.6801 21.2464C23.8225 21.2464 23.959 21.1902 24.0601 21.0901L24.9801 20.0101C25.0168 19.9727 25.0373 19.9224 25.0373 19.8701C25.0373 19.8177 25.0168 19.7675 24.9801 19.7301L22.5901 17.7301C22.2695 17.4584 22.0162 17.1161 21.8501 16.7301C21.9982 16.9625 22.1802 17.1715 22.3901 17.3501L25.1001 19.6601C25.1923 19.7386 25.2585 19.8432 25.2901 19.9601C25.3067 20.0331 25.3062 20.1089 25.2889 20.1817C25.2716 20.2545 25.2378 20.3224 25.1901 20.3801L24.2701 21.4601C24.169 21.5602 24.0325 21.6164 23.8901 21.6164C23.7478 21.6164 23.6113 21.5602 23.5101 21.4601L18.6301 17.3101L18.4201 17.0501Z" fill="#15243E" fill-opacity="0.17"/>
<path d="M23.1199 22.78L22.4799 22.23C22.2918 22.0687 22.1703 21.8434 22.1389 21.5977C22.1075 21.352 22.1684 21.1034 22.3099 20.9L24.4299 18.41C24.6136 18.2441 24.8523 18.1523 25.0999 18.1523C25.3474 18.1523 25.5861 18.2441 25.7699 18.41L26.4099 18.96C26.9679 19.393 27.3325 20.0288 27.4242 20.7292C27.516 21.4295 27.3275 22.1378 26.8999 22.7C26.4083 23.2103 25.7347 23.5052 25.0264 23.5202C24.318 23.5351 23.6325 23.269 23.1199 22.78ZM22.8899 21.4C22.8519 21.4407 22.8308 21.4943 22.8308 21.55C22.8308 21.6057 22.8519 21.6593 22.8899 21.7L23.5299 22.25C23.7144 22.4122 23.929 22.5364 24.1615 22.6156C24.3941 22.6949 24.6399 22.7275 24.8851 22.7117C25.1302 22.696 25.3699 22.632 25.5903 22.5236C25.8107 22.4152 26.0077 22.2645 26.1699 22.08C26.332 21.8955 26.4563 21.6808 26.5355 21.4483C26.6148 21.2158 26.6474 20.9699 26.6316 20.7248C26.6158 20.4796 26.5519 20.24 26.4435 20.0195C26.3351 19.7991 26.1844 19.6022 25.9999 19.44L25.3599 18.89C25.3186 18.8491 25.2629 18.8261 25.2049 18.8261C25.1468 18.8261 25.0911 18.8491 25.0499 18.89L22.8899 21.4Z" fill="#DCDFE5"/>
<path d="M23.2199 22.6602L22.5799 22.1102C22.413 21.9831 22.3028 21.7955 22.2728 21.5879C22.2429 21.3803 22.2957 21.1692 22.4199 21.0002L24.5399 18.5002C24.6894 18.3536 24.8905 18.2715 25.0999 18.2715C25.3093 18.2715 25.5104 18.3536 25.6599 18.5002L26.2999 19.0502C26.827 19.456 27.1722 20.0539 27.2603 20.7133C27.3483 21.3727 27.1721 22.0402 26.7699 22.5702C26.3099 23.0507 25.6785 23.3299 25.0134 23.3467C24.3484 23.3636 23.7037 23.1168 23.2199 22.6602ZM22.7699 21.3002C22.7083 21.3787 22.6801 21.4783 22.6913 21.5775C22.7025 21.6766 22.7523 21.7674 22.8299 21.8302L23.4699 22.3802C23.6588 22.5942 23.8913 22.7653 24.1519 22.882C24.4124 22.9987 24.6949 23.0582 24.9803 23.0567C25.2658 23.0551 25.5476 22.9925 25.8068 22.8729C26.0661 22.7534 26.2967 22.5798 26.4832 22.3637C26.6698 22.1476 26.8079 21.8941 26.8884 21.6202C26.9688 21.3463 26.9896 21.0584 26.9495 20.7757C26.9094 20.4931 26.8093 20.2223 26.6558 19.9816C26.5024 19.7409 26.2992 19.5358 26.0599 19.3802L25.4199 18.8302C25.349 18.7611 25.2539 18.7225 25.1549 18.7225C25.0559 18.7225 24.9608 18.7611 24.8899 18.8302L22.7699 21.3002Z" fill="#DCDFE5" fill-opacity="0.19"/>
<path d="M22.4399 20.6299L24.1499 18.6299C24.2375 18.5265 24.2803 18.3925 24.2691 18.2575C24.2578 18.1225 24.1934 17.9975 24.0899 17.9099C23.9865 17.8224 23.8525 17.7796 23.7175 17.7908C23.5825 17.8021 23.4575 17.8665 23.3699 17.9699L21.6599 19.9699C21.6166 20.0212 21.5838 20.0804 21.5633 20.1443C21.5429 20.2082 21.5353 20.2755 21.5408 20.3424C21.5521 20.4774 21.6165 20.6024 21.7199 20.6899C21.8234 20.7775 21.9573 20.8203 22.0924 20.8091C22.2274 20.7978 22.3524 20.7334 22.4399 20.6299Z" fill="#083356"/>
<path d="M24.0002 18.4103C24.0433 18.3373 24.0593 18.2514 24.0453 18.1677C24.0313 18.0841 23.9882 18.0081 23.9237 17.9531C23.8591 17.8982 23.7773 17.8677 23.6925 17.8672C23.6077 17.8667 23.5254 17.8961 23.4602 17.9503L21.7502 19.9503C21.7071 20.0233 21.6911 20.1092 21.7051 20.1928C21.7191 20.2764 21.7622 20.3524 21.8267 20.4074C21.8913 20.4624 21.9732 20.4928 22.058 20.4933C22.1427 20.4939 22.225 20.4644 22.2902 20.4103L24.0002 18.4103Z" fill="#083356" fill-opacity="0.19"/>
<path d="M38.1699 35.7908C36.9399 37.3108 36.0799 37.9308 34.4899 37.3408C33.6099 37.0108 32.9999 35.9108 32.1499 34.3408C31.6333 33.3415 31.0275 32.391 30.3399 31.5008C29.3399 30.2908 25.1499 28.6808 22.7799 27.9608C22.5465 27.8892 22.3511 27.7278 22.2367 27.5121C22.1223 27.2964 22.0983 27.0442 22.1699 26.8108C22.2415 26.5774 22.4029 26.382 22.6186 26.2676C22.8342 26.1532 23.0865 26.1292 23.3199 26.2008C25.7227 26.9196 28.0424 27.8918 30.2399 29.1008C28.0299 26.9808 25.8299 24.4908 25.3099 23.1008C25.24 22.9857 25.1962 22.8566 25.1816 22.7228C25.167 22.5889 25.182 22.4534 25.2255 22.326C25.269 22.1985 25.3399 22.0822 25.4333 21.9852C25.5267 21.8881 25.6402 21.8128 25.7659 21.7644C25.8916 21.7161 26.0264 21.6959 26.1607 21.7054C26.295 21.7148 26.4257 21.7537 26.5434 21.8191C26.661 21.8846 26.7629 21.9751 26.8418 22.0842C26.9207 22.1934 26.9747 22.3185 26.9999 22.4508C27.3399 23.3708 29.3299 25.8508 32.3599 28.6108C34.1899 30.2808 34.8699 30.3208 35.8899 30.3908C36.3941 30.4146 36.8957 30.4781 37.3899 30.5808C37.8122 30.637 38.2115 30.8059 38.5458 31.0699C38.8802 31.3339 39.1372 31.6831 39.2899 32.0808C39.6799 33.0908 39.2599 34.4508 38.1699 35.7908ZM35.1699 35.6208C35.6799 35.8108 35.7899 35.8408 36.7599 34.6208C37.4599 33.7508 37.7599 32.9908 37.6099 32.6808C37.4599 32.3708 37.2299 32.4108 37.0499 32.3708C36.6444 32.2891 36.2331 32.2389 35.8199 32.2208C34.462 32.1889 33.1588 31.679 32.1399 30.7808C32.7381 31.6515 33.2792 32.5601 33.7599 33.5008C34.1288 34.265 34.5961 34.9777 35.1499 35.6208H35.1699Z" fill="#15243E"/>
<path d="M43 37.3409C42.865 37.507 42.6763 37.6209 42.4664 37.6628C42.2565 37.7048 42.0385 37.6723 41.85 37.5709C41.72 37.5009 39.45 36.2609 37.62 35.0809C38.81 36.2709 40.16 37.7609 40.91 38.5909C40.9908 38.6808 41.053 38.7858 41.0932 38.8998C41.1334 39.0138 41.1508 39.1346 41.1443 39.2554C41.1378 39.3761 41.1076 39.4943 41.0554 39.6034C41.0031 39.7124 40.93 39.8101 40.84 39.8909C40.7501 39.9716 40.6451 40.0339 40.5311 40.0741C40.4171 40.1143 40.2962 40.1316 40.1755 40.1251C40.0548 40.1186 39.9366 40.0884 39.8275 40.0362C39.7185 39.984 39.6208 39.9108 39.54 39.8209C38.0699 38.1035 36.4863 36.4865 34.8 34.9809C34.4698 34.923 34.1353 34.8929 33.8 34.8909C32.52 34.8909 30.59 34.7709 29.29 33.4809C27.38 31.5709 27.56 28.9809 28.42 27.9209C29.1852 27.1313 30.2307 26.675 31.33 26.6509C31.9986 26.6217 32.6654 26.739 33.2838 26.9947C33.9022 27.2503 34.4573 27.6381 34.91 28.1309C35.7395 29.0225 36.322 30.1152 36.6 31.3009C36.6598 31.6809 36.7958 32.0448 37 32.3709C38.8156 33.7119 40.7312 34.9121 42.73 35.9609C42.8366 36.0185 42.9307 36.0965 43.007 36.1906C43.0833 36.2847 43.1402 36.3929 43.1746 36.509C43.209 36.6251 43.2201 36.7469 43.2073 36.8674C43.1945 36.9878 43.158 37.1045 43.1 37.2109L43 37.3409ZM29.84 29.0909C29.6247 29.6202 29.5802 30.2036 29.7129 30.7595C29.8456 31.3154 30.1488 31.8158 30.58 32.1909C31.36 32.9709 32.74 33.0209 33.85 33.0609C34.3618 33.0535 34.8725 33.1106 35.37 33.2309C35.1248 32.7944 34.9398 32.3269 34.82 31.8409C34.6228 30.9415 34.1916 30.1102 33.57 29.4309C33.2992 29.1255 32.9642 28.8839 32.5891 28.7231C32.2139 28.5623 31.8079 28.4864 31.4 28.5009C30.8277 28.5123 30.2767 28.7207 29.84 29.0909Z" fill="#15243E"/>
<path d="M22.9998 26.5593C22.2798 26.4293 22.1498 26.8193 22.0698 26.9893C22.0755 27.0538 22.0994 27.1155 22.1389 27.1669C22.1784 27.2183 22.2318 27.2573 22.2928 27.2794C22.3537 27.3015 22.4197 27.3057 22.483 27.2915C22.5463 27.2773 22.6041 27.2453 22.6498 27.1993L22.9398 26.9293C23.1698 26.7793 23.1998 26.6093 22.9998 26.5593Z" fill="#495D8F"/>
<path d="M23.2401 27.5691L23.8501 27.0291C24.0501 26.8591 24.0801 26.6891 23.9201 26.6391C23.8054 26.6269 23.6894 26.6403 23.5804 26.6784C23.4715 26.7164 23.3723 26.7782 23.2901 26.8591L22.6901 27.3991C22.5101 27.5791 22.4801 27.7491 22.6201 27.7991C22.734 27.8079 22.8483 27.7918 22.9554 27.7521C23.0624 27.7124 23.1596 27.65 23.2401 27.5691Z" fill="#495D8F"/>
<path d="M23.9501 27.8002L24.0601 27.7002L24.3001 26.9102C24.1945 26.9501 24.0965 27.0075 24.0101 27.0802L23.4001 27.6102C23.2101 27.7802 23.1801 27.9602 23.3301 28.0002C23.4417 28.0128 23.5548 28.0015 23.6617 27.967C23.7686 27.9326 23.8669 27.8757 23.9501 27.8002Z" fill="#495D8F"/>
<path d="M24.6498 26.881C24.5394 26.8444 24.4202 26.8444 24.3098 26.881L24.0698 27.661L24.5698 27.241C24.7598 27.111 24.7998 26.941 24.6498 26.881Z" fill="#495D8F"/>
<path d="M24.6602 28.0408L25.2902 27.5208C25.4902 27.3608 25.5302 27.1808 25.3802 27.1308C25.2653 27.1145 25.1483 27.124 25.0376 27.1586C24.9269 27.1932 24.8253 27.252 24.7402 27.3308L24.1202 27.8508C23.9302 28.0208 23.8902 28.1908 24.0402 28.2408C24.1518 28.2535 24.2648 28.2422 24.3717 28.2077C24.4787 28.1732 24.577 28.1163 24.6602 28.0408Z" fill="#495D8F"/>
<path d="M25.3598 28.2899L25.4698 28.1999L25.7398 27.4199C25.6314 27.4557 25.5299 27.5099 25.4398 27.5799L24.8098 28.0899C24.6098 28.2499 24.5798 28.4299 24.7198 28.4799C24.8339 28.4969 24.9503 28.4887 25.0608 28.4558C25.1714 28.423 25.2734 28.3664 25.3598 28.2899Z" fill="#495D8F"/>
<path d="M26.09 27.4C25.9795 27.3641 25.8605 27.3641 25.75 27.4L25.48 28.17L26 27.76C26.2 27.63 26.24 27.5 26.09 27.4Z" fill="#495D8F"/>
<path d="M26.0601 28.56L26.7101 28.07C26.9201 27.92 26.9601 27.74 26.8101 27.68C26.6959 27.6581 26.5783 27.662 26.4659 27.6914C26.3534 27.7208 26.2489 27.775 26.1601 27.85L25.5201 28.35C25.3201 28.51 25.2801 28.68 25.4301 28.74C25.5419 28.7568 25.656 28.7494 25.7646 28.7184C25.8733 28.6873 25.9741 28.6333 26.0601 28.56Z" fill="#495D8F"/>
<path d="M26.7499 28.8305L26.8699 28.7405L27.1699 27.9805C27.0622 28.0132 26.9608 28.0639 26.8699 28.1305L26.2199 28.6205C26.0199 28.7805 25.9699 28.9505 26.1199 29.0105C26.2317 29.0273 26.3458 29.0199 26.4545 28.9889C26.5632 28.9578 26.6639 28.9038 26.7499 28.8305Z" fill="#495D8F"/>
<path d="M27.5199 27.9698C27.4093 27.9346 27.2905 27.9346 27.1799 27.9698L26.8799 28.7298L27.4099 28.3498C27.6199 28.2098 27.6699 28.0398 27.5199 27.9698Z" fill="#495D8F"/>
<path d="M27.44 29.1198L28.11 28.6598C28.33 28.5198 28.38 28.3498 28.23 28.2798C28.1166 28.2523 27.9983 28.2506 27.8841 28.2748C27.7699 28.299 27.6626 28.3486 27.57 28.4198L26.91 28.8898C26.7 29.0398 26.66 29.2098 26.8 29.2798C26.912 29.3002 27.0269 29.2965 27.1373 29.2689C27.2477 29.2413 27.3509 29.1905 27.44 29.1198Z" fill="#495D8F"/>
<path d="M28.1101 29.4391L28.2301 29.3591L28.5801 28.6191C28.4697 28.6435 28.3647 28.6875 28.2701 28.7491L27.5901 29.1991C27.3801 29.3491 27.3301 29.5191 27.4701 29.5791C27.5806 29.6023 27.6947 29.6018 27.805 29.5777C27.9153 29.5535 28.0193 29.5063 28.1101 29.4391Z" fill="#495D8F"/>
<path d="M28.9402 28.6291C28.8265 28.5924 28.704 28.5924 28.5902 28.6291L28.2402 29.3691L28.8002 29.0191C29.0002 28.8691 29.0902 28.6991 28.9402 28.6291Z" fill="#495D8F"/>
<path d="M28.77 29.771L29.48 29.371C29.71 29.251 29.79 29.091 29.64 29.001C29.528 28.9617 29.4086 28.9485 29.2908 28.9624C29.1729 28.9762 29.0598 29.0168 28.96 29.081L28.26 29.511C28.05 29.651 27.99 29.821 28.13 29.891C28.2392 29.9163 28.3524 29.9188 28.4626 29.8981C28.5728 29.8775 28.6774 29.8342 28.77 29.771Z" fill="#495D8F"/>
<path d="M29.4101 30.1294L29.5401 30.0594L29.9701 29.3594C29.8553 29.3678 29.7433 29.3983 29.6401 29.4494L28.9201 29.8394C28.7001 29.9694 28.6401 30.1394 28.7701 30.2094C28.8767 30.24 28.9883 30.2487 29.0983 30.2349C29.2083 30.2212 29.3144 30.1853 29.4101 30.1294Z" fill="#495D8F"/>
<path d="M30.33 29.4291C30.219 29.3729 30.0933 29.3519 29.97 29.3691L29.54 30.0591L30.14 29.7791C30.39 29.6791 30.48 29.4991 30.33 29.4291Z" fill="#495D8F"/>
<path d="M29.9998 30.4994C30.2527 30.3927 30.5135 30.3058 30.7798 30.2394C31.0398 30.1894 31.1498 30.0494 31.0098 29.9094C30.9023 29.8451 30.7816 29.8062 30.6568 29.7958C30.532 29.7854 30.4064 29.8037 30.2898 29.8494C30.0298 29.9494 29.7798 30.0694 29.5398 30.1794C29.2998 30.2894 29.2398 30.4594 29.3598 30.5394C29.5702 30.6101 29.7999 30.5958 29.9998 30.4994Z" fill="#495D8F"/>
<path d="M30.5202 30.9906H30.6702L31.2902 30.4606C31.168 30.4376 31.0425 30.4376 30.9202 30.4606C30.6498 30.5055 30.385 30.5793 30.1302 30.6806C29.8902 30.7706 29.8002 30.9306 29.9102 31.0106C29.9867 31.0525 30.0731 31.0732 30.1602 31.0706C30.2832 31.0598 30.4043 31.0329 30.5202 30.9906Z" fill="#495D8F"/>
<path d="M31.6199 30.5899C31.5307 30.4998 31.4151 30.4403 31.2899 30.4199L30.6699 30.9499C30.8899 30.9499 31.1099 30.8899 31.3299 30.8699C31.5499 30.8499 31.7299 30.7299 31.6199 30.5899Z" fill="#495D8F"/>
<path d="M31.0002 31.4999H31.8202C32.0802 31.4999 32.2202 31.3799 32.1302 31.2399C32.0435 31.1559 31.9396 31.0918 31.8256 31.0521C31.7116 31.0124 31.5903 30.998 31.4702 31.0099C31.1902 31.0099 30.9202 31.0599 30.6502 31.0999C30.5496 31.1099 30.455 31.152 30.3802 31.2199C30.3693 31.2302 30.3606 31.2426 30.3547 31.2564C30.3488 31.2701 30.3457 31.285 30.3457 31.2999C30.3457 31.3149 30.3488 31.3298 30.3547 31.3435C30.3606 31.3573 30.3693 31.3697 30.3802 31.3799C30.5642 31.4971 30.7858 31.54 31.0002 31.4999Z" fill="#495D8F"/>
<path d="M31.4002 32.1504H31.5502L32.2502 31.7104C32.1409 31.6719 32.0261 31.6517 31.9102 31.6504C31.6302 31.6504 31.3602 31.6504 31.0802 31.6504C30.8002 31.6504 30.6902 31.7904 30.7802 31.9104C30.8622 31.99 30.9593 32.0523 31.0658 32.0935C31.1723 32.1348 31.2861 32.1541 31.4002 32.1504Z" fill="#495D8F"/>
<path d="M32.5401 31.8992C32.4665 31.8041 32.3651 31.7342 32.2501 31.6992L31.5601 32.1292H32.2301C32.4801 32.1492 32.6301 32.0392 32.5401 31.8992Z" fill="#495D8F"/>
<path d="M31.7899 32.7697H32.6199C32.8799 32.7697 33.0299 32.6797 32.9499 32.5397C32.8702 32.4524 32.7727 32.3832 32.6641 32.3366C32.5554 32.2901 32.4381 32.2673 32.3199 32.2697H31.4899C31.2299 32.2697 31.0899 32.3797 31.1699 32.5097C31.2498 32.5934 31.3461 32.6597 31.4528 32.7044C31.5595 32.7492 31.6742 32.7714 31.7899 32.7697Z" fill="#495D8F"/>
<path d="M31.7998 32.9205C32.0198 33.0805 31.9198 33.0705 32.1898 33.0105C32.4598 32.9505 32.6398 33.1605 32.8498 33.1305C32.8498 33.1305 33.0298 32.9805 33.0698 33.0005C32.6611 32.8615 32.2227 32.8339 31.7998 32.9205Z" fill="#495D8F"/>
<path d="M33.3101 35.3696C33.5901 35.3696 33.86 35.3696 34.14 35.3696C34.42 35.3696 34.5301 35.2396 34.4501 35.1196C34.2807 34.967 34.0577 34.8878 33.8301 34.8996H33.0001C32.7401 34.8996 32.5901 34.9896 32.6801 35.1296C32.7624 35.2114 32.8611 35.2751 32.9696 35.3164C33.0781 35.3578 33.1941 35.3759 33.3101 35.3696Z" fill="#495D8F"/>
<path d="M33.7499 36.0309H33.8999L34.5499 35.5309C34.4402 35.5183 34.3295 35.5183 34.2199 35.5309C33.9499 35.5309 33.6699 35.5309 33.3999 35.5309C33.1299 35.5309 32.9999 35.6309 33.0899 35.7809C33.1747 35.8685 33.2779 35.9363 33.392 35.9795C33.506 36.0228 33.6282 36.0403 33.7499 36.0309Z" fill="#495D8F"/>
<path d="M34.8302 35.6205C34.8028 35.5919 34.7683 35.5712 34.7302 35.5605H34.5602L33.9102 36.0505C34.1295 36.0378 34.3471 36.0043 34.5602 35.9505C34.8002 35.8505 34.9102 35.7105 34.8302 35.6205Z" fill="#495D8F"/>
<path d="M34.3401 36.6493C34.4777 36.6169 34.6094 36.5629 34.7301 36.4893C34.8391 36.4132 34.9426 36.3297 35.0401 36.2393C35.2201 36.0693 35.2501 35.8893 35.1301 35.8493C35.0975 35.8393 35.0627 35.8393 35.0301 35.8493L35.0001 35.8993C34.9627 35.9302 34.9179 35.9509 34.8701 35.9593L34.7001 36.0193C34.4415 36.1054 34.1723 36.1559 33.9001 36.1693C33.6401 36.1693 33.5001 36.3093 33.6201 36.4493C33.7079 36.5379 33.8188 36.6003 33.9401 36.6293C34.0701 36.667 34.207 36.6739 34.3401 36.6493Z" fill="#495D8F"/>
<path d="M35.1699 37.0003L35.2799 36.8903L35.3999 36.0703L35.1799 36.2803C35.0896 36.3769 34.9927 36.4671 34.8899 36.5503L34.7299 36.6803L34.5399 36.7703C34.4099 36.8203 34.2999 36.8803 34.2799 36.9403C34.2599 37.0003 34.2799 37.0903 34.4299 37.1603H34.5399H34.6199H34.8099C34.9407 37.1356 35.0639 37.0808 35.1699 37.0003Z" fill="#495D8F"/>
<path d="M35.57 35.9395C35.57 35.9395 35.57 35.9395 35.51 35.9395L35.41 36.0295L35.29 36.8395C35.4426 36.6874 35.5588 36.5028 35.63 36.2995C35.69 36.1095 35.62 35.9395 35.57 35.9395Z" fill="#495D8F"/>
<path d="M36.1 36.9598C36.1638 36.6901 36.1638 36.4094 36.1 36.1398C36.1 35.8898 35.92 35.7698 35.84 35.8198C35.76 35.8698 35.75 36.0898 35.71 36.3198C35.6619 36.5886 35.5328 36.8363 35.34 37.0298C35.15 37.2298 35.12 37.4098 35.34 37.4398C35.4894 37.447 35.637 37.4049 35.76 37.3198C35.9151 37.2476 36.0368 37.1188 36.1 36.9598Z" fill="#495D8F"/>
<path d="M36.8298 36.5002V36.3502L36.2498 35.7402C36.2375 35.8465 36.2375 35.9539 36.2498 36.0602C36.2998 36.3313 36.2998 36.6092 36.2498 36.8802C36.2162 36.9808 36.2162 37.0896 36.2498 37.1902C36.2498 37.2502 36.3698 37.2702 36.4698 37.1902C36.5853 37.1221 36.6736 37.0161 36.7198 36.8902C36.7893 36.7718 36.8272 36.6375 36.8298 36.5002Z" fill="#495D8F"/>
<path d="M36.2999 35.4392C36.2408 35.5238 36.2125 35.6262 36.2199 35.7292L36.7899 36.3392C36.7454 36.1195 36.6887 35.9025 36.6199 35.6892C36.5499 35.4492 36.3999 35.3392 36.2999 35.4392Z" fill="#495D8F"/>
<path d="M37.3699 35.9391C37.2899 35.6691 37.1899 35.4091 37.0999 35.1591C37.0099 34.9091 36.8499 34.8191 36.7599 34.9291C36.7144 35.0314 36.6909 35.1421 36.6909 35.2541C36.6909 35.366 36.7144 35.4767 36.7599 35.5791C36.8481 35.8414 36.9216 36.1085 36.9799 36.3791C36.9799 36.6391 37.1699 36.7691 37.2999 36.6391C37.3679 36.537 37.4099 36.4198 37.4221 36.2978C37.4343 36.1757 37.4164 36.0526 37.3699 35.9391Z" fill="#495D8F"/>
<path d="M37.8499 35.3609L37.7999 35.2209L37.1299 34.7109C37.1418 34.8208 37.1687 34.9284 37.2099 35.0309C37.3099 35.2909 37.3999 35.5509 37.4899 35.8109C37.5799 36.0709 37.7199 36.1709 37.8299 36.0409C37.883 35.936 37.9123 35.8207 37.9158 35.7032C37.9192 35.5856 37.8967 35.4688 37.8499 35.3609Z" fill="#495D8F"/>
<path d="M37.1599 34.3994C37.1277 34.5002 37.1277 34.6086 37.1599 34.7094L37.8299 35.2094C37.7499 34.9994 37.6499 34.7894 37.5599 34.5994C37.4699 34.4094 37.2299 34.2894 37.1599 34.3994Z" fill="#495D8F"/>
<path d="M38.2801 34.7202C38.1562 34.4712 38.0159 34.2307 37.8601 34.0002C37.7101 33.7902 37.5401 33.7302 37.4801 33.8502C37.4519 33.9346 37.4519 34.0259 37.4801 34.1102C37.5051 34.2329 37.549 34.351 37.6101 34.4602C37.7405 34.707 37.8573 34.9607 37.9601 35.2202C38.0601 35.4602 38.2101 35.5702 38.3201 35.4202C38.3686 35.3085 38.3902 35.187 38.3832 35.0655C38.3763 34.9439 38.341 34.8257 38.2801 34.7202Z" fill="#495D8F"/>
<path d="M38.64 34.0103L38.55 33.8803L37.77 33.5703C37.8149 33.6682 37.8685 33.7619 37.93 33.8503C38.0978 34.0717 38.2482 34.3058 38.38 34.5503C38.51 34.7903 38.67 34.8703 38.76 34.7103C38.796 34.5924 38.804 34.4676 38.7831 34.3461C38.7623 34.2245 38.7133 34.1095 38.64 34.0103Z" fill="#495D8F"/>
<path d="M37.69 33.2997C37.6823 33.3969 37.7032 33.4942 37.7501 33.5797L38.53 33.8897C38.3995 33.7095 38.2522 33.5421 38.0901 33.3897C37.9001 33.2097 37.72 33.1997 37.69 33.2997Z" fill="#495D8F"/>
<path d="M38.8402 33.2193C38.6386 33.0272 38.4006 32.8776 38.1402 32.7793C37.9002 32.7093 37.7302 32.7793 37.7402 32.8393C37.7502 32.8993 37.7402 32.9393 37.8602 33.0093C37.9391 33.0972 38.0261 33.1775 38.1202 33.2492C38.3336 33.4292 38.525 33.6341 38.6902 33.8593C38.8502 34.0793 39.0302 34.1393 39.0902 33.9493C39.1291 33.8324 39.1291 33.7061 39.0902 33.5893C39.0413 33.4457 38.955 33.3181 38.8402 33.2193Z" fill="#495D8F"/>
<path d="M38.7498 32.3203H38.5998L37.8398 32.6403L38.1298 32.6903C38.2615 32.722 38.3891 32.769 38.5098 32.8303C38.6366 32.8998 38.757 32.9801 38.8698 33.0703C38.9467 33.1427 39.0449 33.1883 39.1498 33.2003C39.2198 33.2003 39.2798 33.1503 39.2698 33.0303C39.2634 32.8737 39.2105 32.7226 39.1179 32.5962C39.0253 32.4698 38.8972 32.3737 38.7498 32.3203Z" fill="#495D8F"/>
<path d="M37.6502 32.5604C37.6502 32.5604 37.7402 32.5604 37.8302 32.5604L38.5902 32.2404C38.4774 32.2245 38.363 32.2245 38.2502 32.2404C38.1474 32.226 38.043 32.226 37.9402 32.2404C37.7102 32.3704 37.6102 32.5004 37.6502 32.5604Z" fill="#495D8F"/>
<path d="M38.1699 31.5706C38.034 31.6083 37.9031 31.662 37.7799 31.7306C37.6638 31.7981 37.5534 31.875 37.4499 31.9606C37.2699 32.1206 37.2399 32.3006 37.3299 32.3406C37.4199 32.3806 37.6199 32.2906 37.8399 32.1906C37.9617 32.1409 38.0894 32.1073 38.2199 32.0906C38.3627 32.0723 38.5072 32.0723 38.6499 32.0906C38.7503 32.1257 38.8595 32.1257 38.9599 32.0906C39.0199 32.0906 39.0399 31.9606 38.9599 31.8506C38.8711 31.7306 38.7484 31.6398 38.6077 31.59C38.4669 31.5401 38.3145 31.5333 38.1699 31.5706Z" fill="#495D8F"/>
<path d="M37.3701 31.1994L37.2601 31.2994L37.0801 32.0994C37.1665 32.0446 37.247 31.9809 37.3201 31.9094C37.4153 31.8165 37.5191 31.7328 37.6301 31.6594C37.7488 31.596 37.8726 31.5424 38.0001 31.4994C38.2501 31.4094 38.3501 31.2494 38.1401 31.1294C38.0168 31.0783 37.8822 31.0611 37.7501 31.0794C37.6158 31.0891 37.4856 31.1302 37.3701 31.1994Z" fill="#495D8F"/>
<path d="M36.7801 32.1905C36.883 32.1971 36.9852 32.169 37.0701 32.1105L37.2501 31.3105C37.0954 31.4629 36.9485 31.6231 36.8101 31.7905C36.6501 31.9805 36.6401 32.1605 36.7801 32.1905Z" fill="#495D8F"/>
<path d="M37.2199 30.7507C37.0994 30.7456 36.9794 30.7692 36.8699 30.8196C36.7603 30.8701 36.6643 30.9458 36.5899 31.0407L36.4299 31.2407C36.4761 31.299 36.5013 31.3713 36.5013 31.4457C36.5013 31.5201 36.4761 31.5924 36.4299 31.6507L36.3599 31.7207C36.4356 31.758 36.4983 31.8172 36.5399 31.8907L36.6699 31.7607C36.8388 31.5478 37.0191 31.3442 37.2099 31.1507C37.2883 31.0863 37.3443 30.9988 37.3699 30.9007C37.3714 30.8806 37.3685 30.8604 37.3615 30.8416C37.3545 30.8227 37.3435 30.8055 37.3292 30.7913C37.315 30.7771 37.2979 30.7661 37.279 30.7591C37.2601 30.752 37.2399 30.7492 37.2199 30.7507Z" fill="#495D8F"/>
<path d="M34.3398 31.9695C34.4508 32.0023 34.5689 32.0023 34.6798 31.9695C34.5998 31.8595 34.8298 31.4495 34.8898 31.4295C34.8177 31.3917 34.7559 31.3367 34.7098 31.2695C34.6067 31.3925 34.4965 31.5093 34.3798 31.6195C34.1798 31.7395 34.1498 31.9195 34.3398 31.9695Z" fill="#495D8F"/>
<path d="M34.2998 31.4992C34.368 31.3614 34.4716 31.2441 34.5998 31.1592C34.5298 31.1592 34.4898 30.8092 34.4598 30.7392C34.4298 30.6692 33.9298 31.1592 33.7798 31.2592C33.6298 31.3592 33.4898 31.5592 33.6598 31.6392C33.8829 31.6658 34.1083 31.6164 34.2998 31.4992Z" fill="#495D8F"/>
<path d="M34.35 30.6103L34.2 30.5003C34.176 30.4772 34.1573 30.4491 34.1452 30.418C34.1331 30.3869 34.1279 30.3536 34.13 30.3203C34.0149 30.3539 33.9041 30.4009 33.8 30.4603C33.5685 30.6024 33.3279 30.7294 33.08 30.8403C32.84 30.9503 32.76 31.1003 32.91 31.2003C33.0248 31.2466 33.1488 31.2653 33.2721 31.2549C33.3955 31.2445 33.5146 31.2052 33.62 31.1403C33.8561 31.0065 34.0803 30.8526 34.29 30.6803L34.35 30.6103Z" fill="#495D8F"/>
<path d="M33.1898 30.0707L33.0598 30.1307L32.5898 30.8007C32.7065 30.7987 32.8218 30.775 32.9298 30.7307C33.1802 30.6255 33.424 30.5053 33.6598 30.3708C33.8798 30.2408 33.9398 30.0708 33.8198 30.0108C33.6102 29.9468 33.3837 29.9683 33.1898 30.0707Z" fill="#495D8F"/>
<path d="M32.24 30.7209C32.3458 30.7826 32.4679 30.8105 32.59 30.8009L33.06 30.1309L32.45 30.3709C32.19 30.5009 32.1 30.6209 32.24 30.7209Z" fill="#495D8F"/>
<path d="M32.6098 29.6297L31.8298 29.8897C31.5798 29.9597 31.4798 30.1097 31.6098 30.2197C31.7179 30.2699 31.8356 30.2958 31.9548 30.2958C32.074 30.2958 32.1917 30.2699 32.2998 30.2197C32.5598 30.1297 32.8198 30.0297 33.0598 29.9197C33.2998 29.8097 33.3798 29.6597 33.2598 29.5697C33.1528 29.5364 33.0404 29.5246 32.9288 29.5348C32.8173 29.5451 32.7088 29.5774 32.6098 29.6297Z" fill="#495D8F"/>
<path d="M32.0001 29.1608H31.8601L31.3101 29.7708C31.4226 29.7902 31.5376 29.7902 31.6501 29.7708L32.4301 29.5208C32.6701 29.4308 32.7701 29.2808 32.6501 29.1908C32.5492 29.1428 32.4397 29.1154 32.3281 29.1103C32.2165 29.1051 32.105 29.1223 32.0001 29.1608Z" fill="#495D8F"/>
<path d="M31.0001 29.6992C31.0959 29.7694 31.2113 29.8078 31.3301 29.8092L31.8701 29.1992L31.2301 29.3792C31.0001 29.4992 30.9001 29.5892 31.0001 29.6992Z" fill="#495D8F"/>
<path d="M31.4898 28.6596L30.6998 28.8696C30.4498 28.9296 30.3398 29.0696 30.4598 29.1896C30.5592 29.2503 30.6705 29.2888 30.7861 29.3027C30.9017 29.3165 31.019 29.3052 31.1298 29.2696L31.9198 29.0496C32.1698 28.9796 32.2698 28.8296 32.1498 28.7296C32.0505 28.6731 31.9407 28.6378 31.8271 28.6257C31.7136 28.6137 31.5987 28.6252 31.4898 28.6596Z" fill="#495D8F"/>
<path d="M30.94 28.1391H30.8L30.23 28.7291C30.3426 28.7474 30.4574 28.7474 30.57 28.7291L31.37 28.5291C31.62 28.4591 31.73 28.3191 31.61 28.2091C31.5096 28.1506 31.398 28.1142 31.2825 28.1021C31.167 28.09 31.0502 28.1026 30.94 28.1391Z" fill="#495D8F"/>
<path d="M29.9 28.6497C29.9939 28.7247 30.1099 28.7668 30.23 28.7697L30.8 28.1797L30.15 28.3397C29.9 28.3997 29.79 28.4997 29.9 28.6497Z" fill="#495D8F"/>
<path d="M30.4099 27.6193L29.6099 27.7993C29.3599 27.8493 29.2399 27.9893 29.3599 28.1093C29.4569 28.175 29.5671 28.2189 29.6828 28.2379C29.7985 28.2569 29.9169 28.2505 30.0299 28.2193L30.8299 28.0293C31.0799 27.9693 31.1899 27.8293 31.0799 27.7193C30.9818 27.6559 30.8712 27.6141 30.7557 27.5969C30.6401 27.5796 30.5222 27.5873 30.4099 27.6193Z" fill="#495D8F"/>
<path d="M29.8799 27.0905H29.7399L29.1499 27.6605C29.2625 27.6787 29.3773 27.6787 29.4899 27.6605L30.2899 27.4805C30.5399 27.4205 30.6499 27.2805 30.5399 27.1705C30.4416 27.1119 30.332 27.0744 30.2184 27.0606C30.1047 27.0469 29.9894 27.057 29.8799 27.0905Z" fill="#495D8F"/>
<path d="M28.8201 27.5591C28.9104 27.6351 29.0224 27.6806 29.1401 27.6891L29.7301 27.1191L29.0801 27.2491C28.8201 27.3091 28.7001 27.4391 28.8201 27.5591Z" fill="#495D8F"/>
<path d="M29.3599 26.5491L28.5499 26.6991C28.2899 26.6991 28.1699 26.8791 28.2899 26.9991C28.3854 27.0682 28.4948 27.1156 28.6105 27.1381C28.7262 27.1605 28.8455 27.1575 28.9599 27.1291L29.7699 26.9691C30.0199 26.9191 30.1399 26.7791 30.0299 26.6691C29.9333 26.6023 29.8235 26.557 29.7079 26.5363C29.5923 26.5156 29.4736 26.5199 29.3599 26.5491Z" fill="#495D8F"/>
<path d="M28.8498 25.9994H28.6998L28.0898 26.5494C28.2023 26.5688 28.3173 26.5688 28.4298 26.5494L29.2398 26.3994C29.4898 26.3994 29.6098 26.2194 29.4998 26.0994C29.404 26.0394 29.2969 25.9995 29.1852 25.9823C29.0734 25.9651 28.9593 25.9709 28.8498 25.9994Z" fill="#495D8F"/>
<path d="M27.7698 26.4293C27.8592 26.5083 27.9711 26.5573 28.0898 26.5693L28.6998 26.0293L28.0398 26.1393C27.7798 26.1793 27.6598 26.3093 27.7698 26.4293Z" fill="#495D8F"/>
<path d="M28.3499 25.4407L27.5299 25.5607C27.2699 25.5607 27.1499 25.7207 27.2499 25.8507C27.3424 25.9224 27.4491 25.9737 27.5628 26.0013C27.6766 26.0289 27.7949 26.0321 27.9099 26.0107L28.7199 25.8807C28.9699 25.8807 29.0899 25.7007 28.9899 25.5907C28.8991 25.5234 28.7955 25.4754 28.6854 25.4496C28.5754 25.4238 28.4612 25.4208 28.3499 25.4407Z" fill="#495D8F"/>
<path d="M27.8701 24.8696H27.7201L27.0801 25.3796C27.1927 25.3979 27.3075 25.3979 27.4201 25.3796L28.2401 25.2696C28.5001 25.2696 28.6201 25.0996 28.5201 24.9796C28.425 24.9179 28.3183 24.8763 28.2065 24.8573C28.0947 24.8384 27.9802 24.8426 27.8701 24.8696Z" fill="#495D8F"/>
<path d="M26.7701 25.2504C26.8537 25.3354 26.9623 25.3914 27.0801 25.4104L27.7201 24.9004L27.0601 24.9704C26.7901 25.0004 26.6601 25.1204 26.7701 25.2504Z" fill="#495D8F"/>
<path d="M27.4 24.301L26.58 24.371C26.32 24.371 26.18 24.501 26.28 24.641C26.3685 24.7208 26.4736 24.7802 26.5876 24.8147C26.7017 24.8493 26.822 24.8583 26.94 24.841L27.76 24.751C28.02 24.751 28.14 24.591 28.04 24.471C27.951 24.3997 27.8481 24.3478 27.7379 24.3185C27.6277 24.2892 27.5126 24.2833 27.4 24.301Z" fill="#495D8F"/>
<path d="M26.9999 23.6991H26.8499L26.1699 24.1591C26.2824 24.1785 26.3974 24.1785 26.5099 24.1591L27.3299 24.0991C27.5899 24.0991 27.7199 23.9491 27.6199 23.8291C27.4381 23.7065 27.2156 23.6599 26.9999 23.6991Z" fill="#495D8F"/>
<path d="M25.8198 23.9809C25.8965 24.0751 26.0018 24.1418 26.1198 24.1709L26.7998 23.7109H26.1298C25.8698 23.7309 25.7298 23.8409 25.8198 23.9809Z" fill="#495D8F"/>
<path d="M26.5601 23.0996C26.2838 23.1174 26.0065 23.1174 25.7301 23.0996C25.4601 23.0996 25.3101 23.1496 25.3901 23.3196C25.4657 23.4171 25.5628 23.4959 25.6738 23.5496C25.7848 23.6034 25.9068 23.6308 26.0301 23.6296H26.8601C27.1201 23.6296 27.2501 23.4996 27.1701 23.3796C27.0932 23.2935 26.9993 23.2242 26.8943 23.176C26.7894 23.1279 26.6756 23.1018 26.5601 23.0996Z" fill="#495D8F"/>
<path d="M26.0001 22.0994C25.3301 21.9894 25.0001 22.8594 25.8101 22.9494C26.0099 22.962 26.2103 22.962 26.4101 22.9494C26.8901 22.9494 26.5501 22.4594 26.4101 22.2694C26.2967 22.1678 26.1521 22.1079 26.0001 22.0994Z" fill="#495D8F"/>
<path d="M39.5799 39.6601C39.7916 39.7492 40.0205 39.7902 40.2499 39.7801C40.3501 39.7805 40.4484 39.7526 40.5333 39.6995C40.6183 39.6464 40.6865 39.5703 40.7299 39.4801C40.7299 39.4801 40.9099 39.2101 39.8599 39.3401C39.6099 39.3801 39.4699 39.5001 39.5799 39.6601Z" fill="#495D8F"/>
<path d="M40.1498 38.6607L39.3298 38.7907C39.0698 38.7907 38.9498 38.9707 39.0598 39.0907C39.1549 39.1609 39.2636 39.2106 39.379 39.2364C39.4944 39.2622 39.6139 39.2637 39.7298 39.2407L40.5498 39.1107C40.8098 39.1107 40.9298 38.9407 40.8198 38.8107C40.7247 38.7405 40.616 38.6909 40.5006 38.6651C40.3853 38.6392 40.2658 38.6378 40.1498 38.6607Z" fill="#495D8F"/>
<path d="M39.6199 38.0804H39.4699L38.8599 38.6304C38.9725 38.6481 39.0872 38.6481 39.1999 38.6304L39.9999 38.5004C40.2599 38.5004 40.3799 38.3304 40.2699 38.2004C40.175 38.138 40.0686 38.0953 39.957 38.0747C39.8454 38.0541 39.7307 38.056 39.6199 38.0804Z" fill="#495D8F"/>
<path d="M38.54 38.4998C38.6297 38.5783 38.7415 38.6272 38.86 38.6398L39.46 38.0898L38.8 38.1998C38.54 38.2598 38.43 38.3898 38.54 38.4998Z" fill="#495D8F"/>
<path d="M39.0902 37.5008L38.2702 37.6408C38.0102 37.6408 37.9002 37.8208 38.0102 37.9408C38.1058 38.0099 38.2148 38.058 38.3303 38.0821C38.4457 38.1063 38.5649 38.1058 38.6802 38.0808L39.5002 37.9408C39.7602 37.9408 39.8802 37.7608 39.7602 37.6408C39.6643 37.5723 39.5552 37.5245 39.4399 37.5004C39.3246 37.4763 39.2055 37.4764 39.0902 37.5008Z" fill="#495D8F"/>
<path d="M38.5498 36.9303H38.3998L37.7998 37.4903C37.9125 37.5079 38.0272 37.5079 38.1398 37.4903L38.9598 37.3503C39.2198 37.3503 39.3398 37.1703 39.2198 37.0503C39.1227 36.9847 39.0129 36.9401 38.8975 36.9194C38.7821 36.8987 38.6637 36.9025 38.5498 36.9303Z" fill="#495D8F"/>
<path d="M37.4799 37.3907C37.5712 37.465 37.6827 37.5103 37.7999 37.5207L38.3999 36.9707L37.7399 37.0907C37.4799 37.1307 37.3699 37.2707 37.4799 37.3907Z" fill="#495D8F"/>
<path d="M37.9998 36.3708L37.3498 36.4908C37.3557 36.5373 37.3516 36.5846 37.3378 36.6294C37.324 36.6743 37.3008 36.7156 37.2698 36.7508C37.2414 36.7883 37.2053 36.8194 37.1639 36.8418C37.1225 36.8642 37.0767 36.8775 37.0298 36.8808C37.2099 36.956 37.408 36.9768 37.5998 36.9408L38.4198 36.7908C38.6798 36.7908 38.7898 36.6108 38.6798 36.4908C38.5811 36.4243 38.4697 36.3793 38.3525 36.3586C38.2354 36.338 38.1152 36.3421 37.9998 36.3708Z" fill="#495D8F"/>
<path d="M36.7999 34.7006C36.6486 34.6649 36.4911 34.6649 36.3399 34.7006H36.1899L35.6299 35.3006C35.7426 35.3179 35.8572 35.3179 35.9699 35.3006L36.5699 35.1606C36.5699 35.1006 36.7499 34.7506 36.7899 34.7406C36.7915 34.7269 36.7948 34.7135 36.7999 34.7006Z" fill="#495D8F"/>
<path d="M35.3199 35.2302C35.4147 35.2938 35.5258 35.3285 35.6399 35.3302L36.1999 34.7402L35.5599 34.9102C35.2999 34.9802 35.1999 35.1302 35.3199 35.2302Z" fill="#495D8F"/>
<path d="M35.7401 34.1606L35.3501 34.2906C35.2237 34.3429 35.1057 34.4137 35.0001 34.5006C34.9289 34.5693 34.8771 34.6555 34.8501 34.7506C34.8501 34.8206 34.8501 34.8606 34.8501 34.8806C34.8501 34.9006 34.9201 34.8806 35.0401 34.8806C35.1628 34.8743 35.284 34.8507 35.4001 34.8106L36.2001 34.5906C36.4501 34.5306 36.5601 34.3906 36.4401 34.2706C36.3382 34.203 36.2229 34.1582 36.1021 34.1392C35.9813 34.1202 35.8578 34.1275 35.7401 34.1606Z" fill="#495D8F"/>
<path d="M34.8999 33.7407L34.7899 33.8507L34.6699 34.6707C34.7515 34.621 34.8285 34.5641 34.8999 34.5007C34.9836 34.3995 35.0853 34.3147 35.1999 34.2507C35.3239 34.1838 35.4547 34.1301 35.5899 34.0907C35.8399 34.0107 35.9399 33.8607 35.7799 33.7407C35.6462 33.6546 35.4888 33.6126 35.3299 33.6207C35.2471 33.6082 35.1628 33.6082 35.0799 33.6207C35.0149 33.6526 34.9544 33.6929 34.8999 33.7407Z" fill="#495D8F"/>
<path d="M34.3999 34.7696C34.503 34.7662 34.6019 34.7273 34.6799 34.6596L34.7999 33.8496C34.652 34.0138 34.5151 34.1875 34.3899 34.3696C34.2399 34.5796 34.2499 34.7596 34.3999 34.7696Z" fill="#495D8F"/>
<path d="M34.09 33.6505L33.63 34.3305C33.48 34.5405 33.5 34.7205 33.63 34.7305C33.7433 34.713 33.8512 34.6708 33.9463 34.6069C34.0414 34.5429 34.1212 34.4588 34.18 34.3605C34.3327 34.1334 34.4997 33.9163 34.68 33.7105C34.7529 33.6407 34.8018 33.5498 34.82 33.4505C34.82 33.3705 34.77 33.3205 34.67 33.3105C34.5536 33.3182 34.4405 33.3529 34.3398 33.4119C34.2391 33.4709 34.1536 33.5527 34.09 33.6505Z" fill="#495D8F"/>
<path d="M33.3202 33.6005L33.2402 33.7205V34.5505C33.3333 34.4847 33.4145 34.4036 33.4802 34.3105L33.9402 33.6305C34.0902 33.4205 34.0802 33.2405 33.9402 33.2305C33.8149 33.2384 33.6933 33.2762 33.5855 33.3405C33.4777 33.4048 33.3867 33.494 33.3202 33.6005Z" fill="#495D8F"/>
<path d="M32.8601 34.6802C32.9837 34.6796 33.1035 34.6373 33.2001 34.5602V33.7402L32.8101 34.2802C32.6901 34.5002 32.6901 34.6602 32.8601 34.6802Z" fill="#495D8F"/>
<path d="M32.5699 33.5004C32.4099 33.7204 32.2299 33.9304 32.0499 34.1304C31.8699 34.3304 31.8599 34.5004 32.0499 34.5304C32.171 34.5288 32.2901 34.4991 32.3977 34.4436C32.5053 34.388 32.5985 34.3082 32.6699 34.2104C32.8399 33.9904 32.9999 33.7704 33.1599 33.5504C33.3199 33.3304 33.2899 33.1604 33.1599 33.1504C33.0419 33.162 32.928 33.1994 32.826 33.2598C32.7241 33.3203 32.6367 33.4024 32.5699 33.5004Z" fill="#495D8F"/>
<path d="M31.8398 33.4209L31.7398 33.5309L31.5698 34.3409C31.6768 34.2949 31.775 34.2306 31.8598 34.1509C32.0498 33.9509 32.2298 33.7409 32.3998 33.5309C32.5698 33.3209 32.5498 33.1509 32.3998 33.1309C32.292 33.1398 32.1869 33.1701 32.0908 33.2199C31.9947 33.2696 31.9094 33.338 31.8398 33.4209Z" fill="#495D8F"/>
<path d="M31.19 34.3898C31.3128 34.4341 31.4472 34.4341 31.57 34.3898L31.74 33.5898C31.5865 33.7502 31.4228 33.9005 31.25 34.0398C31 34.1598 31 34.3298 31.19 34.3898Z" fill="#495D8F"/>
<path d="M31.1398 33.2192C30.9295 33.3955 30.7017 33.5496 30.4598 33.6792C30.2198 33.7992 30.1498 33.9692 30.3298 34.0592C30.4527 34.0998 30.5838 34.1092 30.7112 34.0865C30.8387 34.0638 30.9585 34.0098 31.0598 33.9292C31.2755 33.7601 31.4793 33.5763 31.6698 33.3792C31.8498 33.1892 31.8598 33.0092 31.6698 32.9792C31.4798 32.9492 31.3398 33.0692 31.1398 33.2192Z" fill="#495D8F"/>
<path d="M30.5102 32.9097L30.3802 32.9797L29.9302 33.6697C30.0506 33.673 30.1703 33.649 30.2802 33.5997C30.5273 33.4801 30.7618 33.336 30.9802 33.1697C31.1802 33.0097 31.2202 32.8397 31.0902 32.7897C31.0056 32.7628 30.9148 32.7628 30.8302 32.7897C30.7199 32.8192 30.6127 32.8594 30.5102 32.9097Z" fill="#495D8F"/>
<path d="M29.5302 33.5505C29.6465 33.6327 29.7881 33.6717 29.9302 33.6605L30.3702 32.9805C30.1694 33.0804 29.9581 33.1576 29.7402 33.2105C29.4802 33.2705 29.3702 33.4105 29.5302 33.5505Z" fill="#495D8F"/>
<path d="M29.9998 32.4996C29.7306 32.5638 29.4562 32.6039 29.1798 32.6196C28.9098 32.6196 28.7798 32.7496 28.8998 32.8996C28.9968 32.9852 29.1123 33.0469 29.2373 33.0799C29.3623 33.1129 29.4933 33.1162 29.6198 33.0896C29.8929 33.0408 30.1584 32.9567 30.4098 32.8396C30.6398 32.7296 30.7098 32.5596 30.6098 32.4996C30.5311 32.4793 30.4485 32.4793 30.3698 32.4996C30.2467 32.489 30.1229 32.489 29.9998 32.4996Z" fill="#495D8F"/>
<path d="M29.5199 31.929H29.3699L28.6699 32.359C28.7823 32.4127 28.9054 32.4401 29.0299 32.439C29.3085 32.4393 29.5865 32.4125 29.8599 32.359C30.1099 32.309 30.2199 32.169 30.1299 32.069C30.0605 32.0127 29.9779 31.9749 29.8899 31.959C29.7683 31.934 29.644 31.9239 29.5199 31.929Z" fill="#495D8F"/>
<path d="M28.35 32.1095C28.425 32.2291 28.5375 32.3205 28.67 32.3695L29.36 31.9395C29.1337 31.9591 28.9062 31.9591 28.68 31.9395C28.42 31.8495 28.26 31.9295 28.35 32.1095Z" fill="#495D8F"/>
<path d="M29.1899 31.3209L28.7799 31.2409L28.3799 31.1109C28.1199 31.0109 27.9499 31.0609 27.9999 31.2509C28.0544 31.372 28.1375 31.478 28.242 31.5599C28.3465 31.6417 28.4693 31.697 28.5999 31.7209C28.8731 31.7764 29.1512 31.8032 29.4299 31.8009C29.6899 31.8009 29.8199 31.6809 29.7499 31.5709C29.6943 31.5034 29.6219 31.4517 29.5399 31.4209C29.427 31.3758 29.3097 31.3423 29.1899 31.3209Z" fill="#495D8F"/>
<path d="M28.9998 30.6498L28.8598 30.5898L28.0298 30.6798C28.1151 30.7713 28.2169 30.8459 28.3298 30.8998C28.5864 31.015 28.8546 31.1021 29.1298 31.1598C29.3898 31.1598 29.5398 31.1598 29.4998 31.0098C29.4598 30.8598 29.2398 30.7498 28.9998 30.6498Z" fill="#495D8F"/>
<path d="M27.8501 30.3191C27.8717 30.4577 27.9344 30.5866 28.0301 30.6891L28.8501 30.5991C28.6413 30.5059 28.4406 30.3956 28.2501 30.2691C28.0001 30.1091 27.8501 30.1191 27.8501 30.3191Z" fill="#495D8F"/>
<path d="M28.48 29.9805C28.4412 29.9942 28.3988 29.9942 28.36 29.9805C28.2433 30.0201 28.1167 30.0201 28 29.9805L28.12 30.0905C28.3467 30.2604 28.5915 30.4046 28.85 30.5205C29.08 30.6205 29.26 30.5705 29.25 30.4505C29.254 30.424 29.254 30.397 29.25 30.3705L29.16 30.3105C29.1104 30.3902 29.033 30.4488 28.9428 30.4748C28.8526 30.5009 28.7559 30.4926 28.6714 30.4516C28.5869 30.4106 28.5206 30.3398 28.4853 30.2528C28.4499 30.1658 28.448 30.0688 28.48 29.9805Z" fill="#495D8F"/>
<path d="M28.8199 27.6797C28.7524 27.7929 28.7079 27.9183 28.689 28.0487C28.6701 28.1791 28.6772 28.312 28.7099 28.4397V28.5297C28.8059 28.5269 28.9 28.5572 28.9765 28.6154C29.0529 28.6737 29.107 28.7564 29.1299 28.8497C29.2255 28.838 29.322 28.863 29.3999 28.9197L29.3299 28.7597C29.2207 28.5065 29.1597 28.2352 29.1499 27.9597C29.1562 27.9065 29.1562 27.8528 29.1499 27.7997C29.0499 27.8497 28.9299 27.7397 28.8199 27.6797Z" fill="#495D8F"/>
<path d="M31.5001 26.7891C31.3515 26.8373 31.2149 26.9167 31.0994 27.0219C30.9838 27.1271 30.892 27.2556 30.8301 27.3991L31.2201 27.7691C31.2201 27.6691 31.3201 27.5691 31.3701 27.4691L31.5501 27.1891C31.7101 26.9791 31.7101 26.7991 31.5001 26.7891Z" fill="#495D8F"/>
<path d="M32.4498 26.9207C32.3189 26.9034 32.1858 26.9201 32.0632 26.9691C31.9406 27.0182 31.8327 27.0979 31.7498 27.2007C31.5803 27.4168 31.436 27.6517 31.3198 27.9007V28.0007C31.385 28.003 31.4488 28.0204 31.5061 28.0517C31.5634 28.0829 31.6126 28.1271 31.6498 28.1807C31.7338 28.1043 31.8107 28.0207 31.8798 27.9307C31.9608 27.8195 32.0475 27.7127 32.1398 27.6107C32.2346 27.5119 32.3348 27.4184 32.4398 27.3307C32.6098 27.1507 32.6498 26.9807 32.4498 26.9207Z" fill="#495D8F"/>
<path d="M32.5198 28.0905L32.6298 28.0005L32.9298 27.2305C32.8113 27.2537 32.6989 27.3014 32.5998 27.3705C32.3821 27.5374 32.1842 27.7287 32.0098 27.9405C31.8498 28.1405 31.8598 28.3205 32.0098 28.3405C32.1598 28.3605 32.3198 28.2405 32.5198 28.0905Z" fill="#495D8F"/>
<path d="M33.3399 27.2594C33.2076 27.2104 33.0622 27.2104 32.9299 27.2594L32.6299 28.0194C32.8071 27.8832 32.9982 27.7659 33.1999 27.6694C33.4399 27.4994 33.5099 27.3594 33.3399 27.2594Z" fill="#495D8F"/>
<path d="M33.1402 28.4007C33.3883 28.2801 33.6458 28.1798 33.9102 28.1007C34.1602 28.0407 34.2702 27.8907 34.1202 27.7607C34.0042 27.701 33.8756 27.6699 33.7452 27.6699C33.6147 27.6699 33.4862 27.701 33.3702 27.7607C33.1186 27.8699 32.8804 28.0074 32.6602 28.1707C32.4602 28.3307 32.4202 28.5007 32.5402 28.5507C32.7517 28.5749 32.9649 28.5216 33.1402 28.4007Z" fill="#495D8F"/>
<path d="M33.6998 28.8502H33.8398L34.4098 28.2702C34.2908 28.2485 34.1688 28.2485 34.0498 28.2702C33.7818 28.3307 33.5205 28.4178 33.2698 28.5302C33.0398 28.6302 32.9598 28.8002 33.0698 28.8702C33.2764 28.9317 33.4974 28.9246 33.6998 28.8502Z" fill="#495D8F"/>
<path d="M34.7698 28.3905C34.6713 28.2981 34.5444 28.2418 34.4098 28.2305L33.8398 28.8105C34.0569 28.7555 34.2774 28.7154 34.4998 28.6905C34.7698 28.6605 34.8998 28.5005 34.7698 28.3905Z" fill="#495D8F"/>
<path d="M34.1902 29.3796C34.4664 29.3582 34.7439 29.3582 35.0202 29.3796C35.2902 29.3796 35.4302 29.2896 35.3302 29.1196C35.243 29.026 35.1353 28.9539 35.0156 28.9088C34.8959 28.8637 34.7674 28.8468 34.6402 28.8596C34.3643 28.8854 34.0904 28.9288 33.8202 28.9896C33.5702 29.0596 33.4602 29.1996 33.5602 29.2896C33.7516 29.3972 33.9763 29.4293 34.1902 29.3796Z" fill="#495D8F"/>
<path d="M34.5999 29.9795H34.7499L35.4799 29.5895C35.3703 29.5351 35.2517 29.5012 35.1299 29.4895C34.8502 29.4696 34.5695 29.4696 34.2899 29.4895C34.0299 29.4895 33.8999 29.6395 33.9899 29.7495C34.1573 29.8997 34.3749 29.9818 34.5999 29.9795Z" fill="#495D8F"/>
<path d="M35.7698 29.8594C35.7024 29.7471 35.6008 29.6594 35.4798 29.6094L34.7598 29.9894C34.9845 30.0031 35.2082 30.0298 35.4298 30.0694C35.6898 30.1094 35.8498 30.0294 35.7698 29.8594Z" fill="#495D8F"/>
<path d="M34.9199 30.6409C35.1899 30.6409 35.4599 30.7509 35.7399 30.8209C36.0199 30.8909 36.1699 30.8209 36.0999 30.6509C36.0375 30.5436 35.9523 30.4513 35.8504 30.3805C35.7484 30.3096 35.6322 30.262 35.5099 30.2409C35.2358 30.1871 34.9586 30.1503 34.6799 30.1309C34.4199 30.1309 34.2699 30.2209 34.3399 30.3409C34.4889 30.5099 34.6959 30.617 34.9199 30.6409Z" fill="#495D8F"/>
<path d="M35.1699 31.3409H35.3199L36.1099 31.1109C36.012 31.044 35.904 30.9934 35.7899 30.9609C35.5199 30.8809 35.2399 30.8209 34.9799 30.7609C34.7199 30.7009 34.5699 30.7609 34.6199 30.9309C34.7419 31.1349 34.9396 31.2822 35.1699 31.3409Z" fill="#495D8F"/>
<path d="M36.3501 31.4106C36.3018 31.2998 36.2218 31.2059 36.1201 31.1406L35.3301 31.3706L35.9801 31.5606C36.2301 31.6306 36.4001 31.5706 36.3501 31.4106Z" fill="#495D8F"/>
<path d="M35.4098 32.0699C35.6782 32.1531 35.9522 32.2166 36.2298 32.2599C36.4798 32.2599 36.6398 32.1899 36.5898 32.0799C36.4507 31.9051 36.2571 31.7819 36.0398 31.7299L35.2298 31.4999C34.9798 31.4299 34.8098 31.4999 34.8598 31.6499C34.9183 31.7535 34.9973 31.8441 35.0918 31.9163C35.1863 31.9885 35.2945 32.0407 35.4098 32.0699Z" fill="#495D8F"/>
<path d="M35.7401 32.8491H35.9001L36.5999 32.4191C36.4967 32.4132 36.3933 32.4132 36.2901 32.4191C36.0125 32.3962 35.7378 32.3459 35.4701 32.2691C35.2101 32.1991 35.0401 32.2691 35.1101 32.4391C35.1772 32.5507 35.2688 32.6455 35.3779 32.7166C35.487 32.7876 35.6109 32.8329 35.7401 32.8491Z" fill="#495D8F"/>
<path d="M36.8302 32.4992C36.761 32.4678 36.6861 32.4508 36.6102 32.4492L35.9102 32.8792H36.2502C36.3556 32.8667 36.4595 32.8433 36.5602 32.8092C36.6517 32.7806 36.7343 32.7289 36.8002 32.6592C36.8109 32.6302 36.8109 32.5983 36.8002 32.5692C36.8125 32.5628 36.8222 32.5524 36.8277 32.5396C36.8332 32.5268 36.834 32.5126 36.8302 32.4992Z" fill="#495D8F"/>
<path d="M36.34 33.4992C36.61 33.4292 36.87 33.3292 37.12 33.2392C37.37 33.1492 37.45 32.9892 37.33 32.8992C37.2427 32.8469 37.1416 32.8225 37.04 32.8292C36.9148 32.8261 36.7899 32.843 36.67 32.8792C36.5422 32.9233 36.412 32.96 36.28 32.9892C36.1373 33.0074 35.9928 33.0074 35.85 32.9892C35.57 32.9892 35.42 33.0592 35.56 33.2692C35.6565 33.3845 35.7854 33.4681 35.93 33.5092C36.0659 33.5342 36.2055 33.5308 36.34 33.4992Z" fill="#495D8F"/>
<path d="M36.9998 34.0091L37.1398 33.9591L37.6098 33.2891C37.4969 33.2956 37.3856 33.3192 37.2798 33.3591L36.4998 33.6391C36.2498 33.7191 36.1498 33.8691 36.2898 33.9791C36.398 34.0377 36.5183 34.0709 36.6413 34.0761C36.7643 34.0813 36.8869 34.0584 36.9998 34.0091Z" fill="#495D8F"/>
<path d="M37.6399 33.6308C37.6262 33.592 37.6262 33.5496 37.6399 33.5108C37.6488 33.4381 37.669 33.3672 37.6999 33.3008H37.5999L37.1299 33.9608L37.4199 33.8408V33.7608C37.4614 33.7093 37.517 33.6711 37.5799 33.6508L37.6399 33.6308Z" fill="#495D8F"/>
<path d="M39.1902 34.6497L38.4502 34.9897C38.4964 35.048 38.5216 35.1202 38.5216 35.1947C38.5216 35.2691 38.4964 35.3413 38.4502 35.3997C38.6318 35.4186 38.8151 35.3875 38.9802 35.3097L39.7202 34.9597C39.9502 34.8497 40.0302 34.6797 39.8902 34.5997C39.7769 34.5564 39.6556 34.5384 39.5346 34.547C39.4137 34.5557 39.2961 34.5907 39.1902 34.6497Z" fill="#495D8F"/>
<path d="M39.62 35.7309L39.75 35.6609L40.17 34.9609C40.0553 34.9762 39.9438 35.01 39.84 35.0609L39.1 35.4209C38.86 35.5309 38.79 35.6909 38.93 35.7809C39.0418 35.8227 39.1613 35.8399 39.2804 35.8313C39.3995 35.8226 39.5153 35.7884 39.62 35.7309Z" fill="#495D8F"/>
<path d="M40.5198 35.0001C40.409 34.9661 40.2906 34.9661 40.1798 35.0001L39.7598 35.7001L40.3598 35.4101C40.5898 35.2501 40.6598 35.0901 40.5198 35.0001Z" fill="#495D8F"/>
<path d="M40.2901 36.1299L41.0301 35.7599C41.2601 35.6399 41.3301 35.4799 41.1901 35.3999C41.079 35.3611 40.9609 35.3464 40.8436 35.3567C40.7264 35.3671 40.6127 35.4022 40.5101 35.4599L39.7701 35.8199C39.5401 35.9299 39.4601 36.0999 39.6101 36.1799C39.7205 36.2202 39.8382 36.2365 39.9555 36.2279C40.0727 36.2193 40.1868 36.1859 40.2901 36.1299Z" fill="#495D8F"/>
<path d="M41.0001 36.5007L41.1301 36.4307L41.5401 35.7207C41.4288 35.737 41.3208 35.7708 41.2201 35.8207L40.4801 36.1907C40.2501 36.3107 40.1701 36.4707 40.3201 36.5607C40.4312 36.5995 40.5493 36.6142 40.6665 36.6038C40.7838 36.5935 40.8975 36.5583 41.0001 36.5007Z" fill="#495D8F"/>
<path d="M41.8501 35.7896C41.7394 35.755 41.6208 35.755 41.5101 35.7896L41.1001 36.4996L41.6901 36.1996C41.9201 36.0396 42.0001 35.8696 41.8501 35.7896Z" fill="#495D8F"/>
<path d="M41.6399 36.9292L42.3699 36.5492C42.5999 36.4292 42.6699 36.2592 42.5299 36.1792C42.4196 36.1434 42.3029 36.1311 42.1875 36.1432C42.0721 36.1552 41.9605 36.1913 41.8599 36.2492L41.1299 36.6292C40.8999 36.7492 40.8299 36.9092 40.9699 36.9992C41.0803 37.035 41.1969 37.0473 41.3123 37.0352C41.4277 37.0232 41.5393 36.987 41.6399 36.9292Z" fill="#495D8F"/>
<path d="M42.3899 37.2309L42.7399 37.0609C42.8193 37.0192 42.8828 36.9526 42.9208 36.8713C42.9587 36.79 42.9689 36.6986 42.9499 36.6109C42.9499 36.6109 42.8599 36.3809 42.5899 36.5509L41.8599 36.9309C41.6299 37.0509 41.5599 37.2109 41.6999 37.3009C41.8132 37.3397 41.9335 37.3535 42.0526 37.3414C42.1717 37.3293 42.2867 37.2916 42.3899 37.2309Z" fill="#495D8F"/>
<path d="M30.48 27.0105C30.6218 26.889 30.7844 26.7941 30.96 26.7305C31.12 26.7305 31.18 26.7305 31.02 26.8605C30.8973 26.9926 30.7837 27.133 30.68 27.2805L30.48 27.0105Z" fill="#495D8F"/>
<path d="M29.4801 28.6802C29.4127 28.5418 29.3688 28.3931 29.3501 28.2402C29.3501 28.2402 29.7401 28.3302 29.6801 28.4002L29.4801 28.6802Z" fill="#495D8F"/>
<path d="M35.7898 35.4996C35.7898 35.4096 36.2498 35.4296 36.2498 35.4296L36.0498 35.6796C36.0498 35.6796 35.7598 35.6796 35.7898 35.4996Z" fill="#495D8F"/>
<path d="M28.57 28.4391L28.27 28.1891C28.3668 28.0661 28.4814 27.9583 28.61 27.8691L28.57 28.4391Z" fill="#495D8F"/>
<path d="M32.1502 32.7405C32.1221 32.7751 32.0855 32.8018 32.044 32.8182C32.0026 32.8346 31.9576 32.8401 31.9134 32.834C31.8692 32.828 31.8273 32.8107 31.7917 32.7838C31.7561 32.7569 31.7281 32.7213 31.7102 32.6805C30.6509 31.4295 29.3985 30.356 28.0002 29.5005C26.2382 28.6065 24.4094 27.8509 22.5302 27.2405C22.4734 27.2132 22.4285 27.1662 22.4037 27.1082C22.379 27.0503 22.3761 26.9853 22.3957 26.9254C22.4152 26.8655 22.4559 26.8147 22.5101 26.7825C22.5642 26.7504 22.6283 26.739 22.6902 26.7505C24.609 27.3701 26.475 28.1426 28.2702 29.0605C29.7746 29.9601 31.1029 31.1257 32.1902 32.5005C32.2036 32.5407 32.207 32.5836 32.2 32.6254C32.1931 32.6673 32.176 32.7067 32.1502 32.7405Z" fill="#495D8F"/>
<path d="M32 30.0298C31.9516 30.0763 31.8871 30.1022 31.82 30.1022C31.7529 30.1022 31.6884 30.0763 31.64 30.0298C29.5071 28.4707 27.6656 26.548 26.2 24.3498C25.7674 23.7706 25.523 23.0725 25.5 22.3498C25.5 22.2809 25.5274 22.2148 25.5762 22.166C25.6249 22.1172 25.691 22.0898 25.76 22.0898C25.829 22.0898 25.8951 22.1172 25.9438 22.166C25.9926 22.2148 26.02 22.2809 26.02 22.3498C26.0627 22.9435 26.2744 23.5126 26.63 23.9898C28.0634 26.1882 29.8827 28.1091 32 29.6598C32.0464 29.7083 32.0724 29.7728 32.0724 29.8398C32.0724 29.9069 32.0464 29.9714 32 30.0198V30.0298Z" fill="#113C70"/>
<path d="M36.6002 33.4998C36.5518 33.5462 36.4873 33.5722 36.4202 33.5722C36.3531 33.5722 36.2886 33.5462 36.2402 33.4998C35.4979 32.7538 35.0565 31.7606 35.0002 30.7098C34.4602 28.8998 31.8002 28.0098 31.7702 28.0098C31.7338 28.003 31.6992 27.9886 31.6689 27.9674C31.6385 27.9462 31.613 27.9187 31.5941 27.8869C31.5752 27.8551 31.5633 27.8195 31.5592 27.7827C31.5551 27.7459 31.559 27.7086 31.5705 27.6734C31.582 27.6382 31.6008 27.6059 31.6259 27.5786C31.6509 27.5512 31.6814 27.5296 31.7155 27.515C31.7496 27.5005 31.7863 27.4934 31.8234 27.4942C31.8604 27.495 31.8968 27.5037 31.9302 27.5198C32.0502 27.5198 34.9302 28.5198 35.5002 30.5998C35.5025 30.6197 35.5025 30.6398 35.5002 30.6598C35.5223 31.5922 35.877 32.4859 36.5002 33.1798C36.5539 33.2214 36.5892 33.2823 36.5986 33.3496C36.6079 33.4169 36.5905 33.4851 36.5502 33.5398L36.6002 33.4998Z" fill="#113C70"/>
<path d="M32.1399 34.4203C32.1102 34.4564 32.0712 34.4838 32.0273 34.4997C31.9833 34.5155 31.9358 34.5192 31.8899 34.5103C31.2583 34.3774 30.6601 34.1185 30.1308 33.7491C29.6016 33.3797 29.1524 32.9074 28.8099 32.3603C28.4393 31.8549 28.2051 31.2625 28.1299 30.6403C28.1472 30.5792 28.1863 30.5265 28.2398 30.4922C28.2933 30.458 28.3576 30.4445 28.4203 30.4543C28.4831 30.4642 28.5401 30.4967 28.5806 30.5457C28.621 30.5947 28.6421 30.6568 28.6399 30.7203C28.8421 31.5252 29.263 32.2585 29.8559 32.8391C30.4489 33.4198 31.1909 33.8251 31.9999 34.0103C32.0439 34.0191 32.0849 34.0392 32.1189 34.0685C32.1529 34.0979 32.1787 34.1355 32.1938 34.1778C32.2089 34.2201 32.2128 34.2656 32.2051 34.3099C32.1974 34.3541 32.1784 34.3956 32.1499 34.4303L32.1399 34.4203Z" fill="#113C70"/>
<path d="M37.7302 35.6496C37.2181 36.3808 36.5015 36.9444 35.6702 37.2696C34.7302 37.4696 33.3702 35.8596 33.1102 35.5296C33.0723 35.4761 33.0561 35.4102 33.0648 35.3451C33.0735 35.2801 33.1064 35.2208 33.157 35.179C33.2076 35.1373 33.2722 35.1162 33.3377 35.12C33.4031 35.1239 33.4648 35.1523 33.5102 35.1996C34.0802 35.9096 35.1002 36.8596 35.5102 36.7596C36.2302 36.6096 37.2302 35.4496 37.6902 34.7596C37.7307 34.7079 37.7894 34.6735 37.8543 34.6633C37.9192 34.6531 37.9856 34.6679 38.0401 34.7046C38.0946 34.7413 38.1331 34.7974 38.148 34.8614C38.1628 34.9254 38.1529 34.9927 38.1202 35.0496C38.0702 35.2196 37.9102 35.4296 37.7302 35.6496Z" fill="#113C70"/>
<path d="M42.5098 37.2005C42.4809 37.2349 42.4437 37.2613 42.4016 37.2771C42.3596 37.2929 42.3141 37.2975 42.2698 37.2905C41.0702 36.7789 39.9245 36.1491 38.8498 35.4105C38.7914 35.3733 38.7502 35.3145 38.7352 35.247C38.7202 35.1795 38.7326 35.1088 38.7698 35.0505C38.8069 34.9921 38.8657 34.9509 38.9332 34.9359C39.0007 34.9209 39.0714 34.9333 39.1298 34.9705C40.1426 35.6728 41.2209 36.2756 42.3498 36.7705C42.3947 36.7778 42.4368 36.7969 42.4721 36.8256C42.5073 36.8544 42.5343 36.8919 42.5505 36.9345C42.5667 36.977 42.5715 37.023 42.5643 37.0679C42.5572 37.1128 42.5384 37.1551 42.5098 37.1905V37.2005Z" fill="#113C70"/>
<path d="M40.2498 39.6107C40.2014 39.6571 40.1369 39.6831 40.0698 39.6831C40.0027 39.6831 39.9382 39.6571 39.8898 39.6107C39.4298 39.2407 37.4698 37.0507 37.3898 36.9507C37.3434 36.899 37.3194 36.8309 37.3231 36.7615C37.3269 36.6922 37.358 36.6271 37.4098 36.5807C37.4615 36.5343 37.5295 36.5103 37.5989 36.5141C37.6683 36.5178 37.7334 36.549 37.7798 36.6007C38.3398 37.2307 39.8698 38.9107 40.2198 39.2007C40.2528 39.2226 40.2804 39.2518 40.3004 39.2861C40.3205 39.3204 40.3324 39.3588 40.3353 39.3983C40.3382 39.4379 40.332 39.4776 40.3172 39.5144C40.3023 39.5512 40.2793 39.5842 40.2498 39.6107Z" fill="#113C70"/>
</svg>
