<svg width="50" height="48" viewBox="0 0 50 48" fill="none" xmlns="http://www.w3.org/2000/svg">
<path d="M39.8102 22.6397C39.3891 22.0523 38.8291 21.5782 38.1802 21.2597C37.809 20.772 37.3054 20.4012 36.7295 20.1914C36.1535 19.9815 35.5294 19.9415 34.9314 20.0761C34.3334 20.2107 33.7867 20.5142 33.3562 20.9506C32.9257 21.3869 32.6295 21.9377 32.503 22.5375C32.3765 23.1372 32.4249 23.7607 32.6424 24.3338C32.86 24.9068 33.2375 25.4054 33.7302 25.7701C34.2229 26.1347 34.8099 26.3503 35.4215 26.391C36.0331 26.4317 36.6436 26.2959 37.1802 25.9997C37.6902 26.2897 37.6102 26.8697 38.0302 27.1097C38.4502 27.3497 38.8902 26.8597 38.6502 26.1097C38.5565 25.7687 38.3854 25.4539 38.1502 25.1897C38.282 25.0184 38.3959 24.8341 38.4902 24.6397C38.7702 24.8297 38.8602 25.0897 39.0202 25.7297C39.0173 25.8035 39.0305 25.8769 39.0587 25.9451C39.087 26.0133 39.1297 26.0745 39.184 26.1246C39.2382 26.1746 39.3026 26.2123 39.3728 26.235C39.443 26.2577 39.5173 26.2649 39.5906 26.2561C39.6639 26.2474 39.7344 26.2228 39.7972 26.1841C39.86 26.1454 39.9137 26.0935 39.9546 26.0321C39.9954 25.9706 40.0225 25.901 40.0338 25.8281C40.0451 25.7552 40.0405 25.6807 40.0202 25.6097C39.9719 25.1458 39.8574 24.6912 39.6802 24.2597C40.2702 24.1097 40.3402 23.4997 39.8102 22.6397Z" fill="#113C70"/>
<path d="M39.2999 23.9791C39.3488 24.0485 39.4112 24.1073 39.4833 24.152C39.5555 24.1967 39.636 24.2263 39.7199 24.2391C39.8191 24.2232 39.9116 24.1788 39.9862 24.1113C40.0607 24.0439 40.1141 23.9563 40.1399 23.8591C39.9299 23.9691 39.6599 23.8591 39.4799 23.5091C39.1651 23.0581 38.7512 22.6853 38.2699 22.4191C37.9234 22.2363 37.659 21.929 37.5299 21.5591C37.4975 21.6303 37.4707 21.7038 37.4499 21.7791C37.3493 21.9968 37.218 22.1989 37.0599 22.3791C36.5499 22.9691 36.6099 23.8791 37.6799 23.2391L37.5999 23.7691C37.3887 23.9069 37.2055 24.0833 37.0599 24.2891C37.0024 24.2589 36.9487 24.222 36.8999 24.1791C36.6299 24.6691 35.9599 24.2991 35.6299 23.6291C35.2999 22.9591 35.5499 22.6291 35.5499 22.6291C35.3278 22.3019 35.1812 21.9294 35.1207 21.5385C35.0601 21.1477 35.0872 20.7483 35.1999 20.3691L34.6499 20.1191C34.2241 20.2568 33.8319 20.4822 33.4986 20.7808C33.1654 21.0794 32.8984 21.4446 32.7151 21.8528C32.5317 22.2609 32.436 22.703 32.4341 23.1505C32.4322 23.598 32.5242 24.0409 32.7041 24.4506C32.884 24.8603 33.1479 25.2278 33.4786 25.5292C33.8093 25.8306 34.1996 26.0593 34.6242 26.2005C35.0488 26.3417 35.4983 26.3923 35.9437 26.349C36.3891 26.3057 36.8204 26.1695 37.2099 25.9491C37.7199 26.2391 37.6399 26.8191 38.0599 27.0591C38.1132 27.0908 38.1728 27.1102 38.2345 27.1161C38.2963 27.122 38.3585 27.1141 38.4168 27.0931C38.4751 27.0721 38.5281 27.0384 38.5718 26.9945C38.6156 26.9506 38.6491 26.8975 38.6699 26.8391C38.3299 26.8391 38.2999 26.4291 38.1099 26.0291C37.9199 25.6291 37.4299 25.4991 37.5799 25.1891C37.7299 24.8791 38.1699 25.1191 38.1699 25.1191C38.3016 24.9478 38.4155 24.7635 38.5099 24.5691C38.7899 24.7591 38.8799 25.0191 39.0399 25.6591C39.02 25.7917 39.0536 25.9268 39.1333 26.0347C39.213 26.1425 39.3323 26.2142 39.4649 26.2341C39.5975 26.254 39.7326 26.2204 39.8404 26.1407C39.9482 26.061 40.02 25.9417 40.0399 25.8091C39.5099 25.8691 39.4599 25.0791 39.2299 24.6091C38.9999 24.1391 39.2999 23.9791 39.2999 23.9791Z" fill="#B3B7C4"/>
<path d="M24.5098 19.0809C24.5098 18.6606 24.5925 18.2445 24.7534 17.8563C24.9142 17.468 25.1499 17.1153 25.447 16.8181C25.7442 16.521 26.0969 16.2853 26.4852 16.1244C26.8734 15.9636 27.2895 15.8809 27.7098 15.8809C28.13 15.8809 28.5461 15.9636 28.9344 16.1244C29.3226 16.2853 29.6754 16.521 29.9725 16.8181C30.2697 17.1153 30.5054 17.468 30.6662 17.8563C30.827 18.2445 30.9098 18.6606 30.9098 19.0809C30.9098 19.5011 30.827 19.9172 30.6662 20.3054C30.5054 20.6937 30.2697 21.0465 29.9725 21.3436C29.6754 21.6407 29.3226 21.8765 28.9344 22.0373C28.5461 22.1981 28.13 22.2809 27.7098 22.2809C27.2895 22.2809 26.8734 22.1981 26.4852 22.0373C26.0969 21.8765 25.7442 21.6407 25.447 21.3436C25.1499 21.0465 24.9142 20.6937 24.7534 20.3054C24.5925 19.9172 24.5098 19.5011 24.5098 19.0809Z" fill="#113C70"/>
<path d="M37.0602 20.3102L29.1902 16.2402C28.5396 16.3634 27.931 16.6502 27.4219 17.0736C26.9128 17.497 26.5199 18.043 26.2802 18.6602C25.9688 19.1579 25.8037 19.7332 25.8037 20.3202C25.8037 20.9073 25.9688 21.4825 26.2802 21.9802L33.6402 25.7302C33.6402 25.7302 32.5802 24.3502 33.7602 22.1002C34.0245 21.471 34.4956 20.9507 35.0956 20.6252C35.6955 20.2998 36.3885 20.1887 37.0602 20.3102Z" fill="#F0F1F3"/>
<path d="M34.2398 21.4405L28.9198 18.7305C29.041 18.3602 29.2386 18.0195 29.4998 17.7305L27.0098 18.7305L26.0698 21.6505C26.1318 21.8031 26.2124 21.9476 26.3098 22.0805L33.6698 25.8305C33.6698 25.8305 32.6098 24.4505 33.7898 22.2005C33.9133 21.9323 34.0641 21.6776 34.2398 21.4405Z" fill="#DCDFE5"/>
<path d="M30.2102 18.0103C29.4202 18.6103 33.9002 20.8003 34.6002 20.3103C35.3002 19.8203 30.9102 17.5003 30.2102 18.0103Z" fill="#F0F1F3"/>
<path d="M28.2699 16.5L29.9999 17.5C29.0824 17.919 28.3648 18.6797 27.9999 19.62C27.5973 20.659 27.5973 21.811 27.9999 22.85L26.4299 22.14L26.1499 18.79L28.2699 16.5Z" fill="#082A4C"/>
<path d="M28.7799 18.43L28.3299 18.15C28.5402 17.7144 28.6819 17.2489 28.7499 16.77L28.2699 16.5L26.1499 18.84L26.4299 22.19L27.9999 22.9C27.7073 22.1611 27.6262 21.3552 27.7657 20.5728C27.9053 19.7904 28.2599 19.0622 28.7899 18.47L28.7799 18.43Z" fill="#DCDFE5"/>
<path d="M19.1001 15.6809C19.1001 15.0505 19.2243 14.4263 19.4655 13.844C19.7067 13.2616 20.0603 12.7325 20.506 12.2867C20.9517 11.841 21.4809 11.4875 22.0632 11.2462C22.6456 11.005 23.2698 10.8809 23.9001 10.8809C24.5304 10.8809 25.1546 11.005 25.737 11.2462C26.3193 11.4875 26.8485 11.841 27.2942 12.2867C27.7399 12.7325 28.0935 13.2616 28.3347 13.844C28.5759 14.4263 28.7001 15.0505 28.7001 15.6809C28.7001 16.9539 28.1944 18.1748 27.2942 19.075C26.394 19.9751 25.1731 20.4809 23.9001 20.4809C22.6271 20.4809 21.4062 19.9751 20.506 19.075C19.6058 18.1748 19.1001 16.9539 19.1001 15.6809Z" fill="#113C70"/>
<path d="M14.7298 15.3302C12.5598 16.5602 10.2998 17.7502 11.0798 21.5202C11.5222 23.8439 12.083 26.1436 12.7598 28.4102C13.4098 30.5002 16.3798 32.5002 20.9998 30.2202C22.9609 29.1969 24.8517 28.0443 26.6598 26.7702C28.1498 25.7702 27.9698 23.6902 27.5198 21.1902C27.1898 19.3802 26.8198 17.5902 26.5198 16.1902C26.2198 14.7902 24.4098 11.5002 19.8498 12.7802L14.7298 15.3302Z" fill="#F0F1F3"/>
<path d="M19.3002 18.09C19.1402 18.54 20.9802 19.09 23.0702 18.95C24.4402 18.84 25.2902 20.3 25.5302 21.95C25.7702 23.6 25.9402 25.31 26.3502 25.15C26.7602 24.99 26.6402 23.26 26.3502 20.56C26.0602 17.86 25.5002 16.41 25.1702 16.5C24.8402 16.59 24.5302 17.23 23.4102 17.57C21.1102 18.22 19.5502 17.4 19.3002 18.09Z" fill="#DCDFE5"/>
<path d="M26.7099 25.9107C27.3699 25.3807 27.4799 24.5507 27.3699 23.1207C27.1071 20.7208 26.6489 18.3462 25.9999 16.0207C25.6446 14.964 24.9522 14.0531 24.029 13.428C23.1059 12.8029 22.003 12.4982 20.8899 12.5607C20.5522 12.6126 20.2182 12.6861 19.8899 12.7807L19.6999 12.8707C20.9214 12.5947 22.2015 12.7695 23.3042 13.3632C24.4069 13.9568 25.2578 14.9291 25.6999 16.1007C26.3073 18.439 26.7418 20.8187 26.9999 23.2207C27.1099 24.5207 26.9999 25.2807 26.3999 25.7707C24.8442 26.8923 23.2062 27.8951 21.4999 28.7707C20.3399 29.3307 20.0599 28.8407 19.9599 27.9107C19.8499 26.7907 19.3299 20.9107 18.2499 18.9107C17.7317 18.0589 16.9944 17.3618 16.1149 16.8922C15.2354 16.4225 14.246 16.1975 13.2499 16.2407L12.8799 16.4907C13.8911 16.4103 14.9049 16.6116 15.8087 17.0723C16.7125 17.533 17.4709 18.2351 17.9999 19.1007C19.1099 21.3607 19.5599 27.0207 19.6799 28.2507C19.7799 29.2507 20.0899 29.8107 21.3599 29.1907C23.2227 28.2327 25.0111 27.1363 26.7099 25.9107Z" fill="#495D8F"/>
<path d="M21.0499 30.1896C20.0499 30.2696 19.4099 29.8196 19.2399 28.4096C18.7099 24.0596 18.7099 20.2496 16.5299 18.2796C15.9565 17.7691 15.2809 17.3864 14.5481 17.1571C13.8153 16.9278 13.0421 16.857 12.2799 16.9496C11.2799 17.9496 10.6099 19.2496 11.0699 21.5196C11.5123 23.8434 12.0731 26.1431 12.7499 28.4096C13.4099 30.4996 16.3799 32.4996 20.9999 30.2196L21.0499 30.1896Z" fill="#F0F1F3"/>
<path d="M25.06 15.5006C25.5 14.5006 23.11 13.2906 20.48 12.6406L19.85 12.7906L14.72 15.3306L14.02 15.7306C15.5438 16.5096 17.1981 17.0012 18.9 17.1806C21.91 17.5006 24.37 17.1306 25.06 15.5006Z" fill="#113C70"/>
<path d="M19.9999 21.2096C19.8899 21.5796 20.1899 23.7096 20.4599 23.7296C20.7299 23.7496 21.6499 23.3396 21.7499 22.9496C21.8109 22.1164 21.688 21.28 21.3899 20.4996C21.1699 20.3496 20.1399 20.8596 19.9999 21.2096Z" fill="#082A4C"/>
<path d="M23.9998 18.929C23.8998 19.299 24.2398 21.419 24.4998 21.439C24.7598 21.459 25.6798 21.029 25.7798 20.639C25.8128 19.8066 25.6626 18.9771 25.3398 18.209C25.1098 18.049 24.0998 18.579 23.9998 18.929Z" fill="#082A4C"/>
<path d="M21.3899 20.5002C21.3253 20.4765 21.2544 20.4765 21.1899 20.5002C21.4268 21.2429 21.5317 22.0213 21.4999 22.8002C21.4099 23.1302 20.7199 23.4802 20.3599 23.5602C20.3599 23.6702 20.4499 23.7402 20.4999 23.7402C20.7699 23.7402 21.6899 23.3502 21.7899 22.9602C21.8396 22.1207 21.703 21.2807 21.3899 20.5002Z" fill="#082A4C"/>
<path d="M25.3401 18.2099C25.2757 18.1853 25.2045 18.1853 25.1401 18.2099C25.3929 18.9463 25.5147 19.7214 25.5001 20.4999C25.4201 20.8399 24.7301 21.1999 24.3701 21.2799C24.3701 21.3899 24.4701 21.4599 24.5101 21.4599C24.7801 21.4599 25.6901 21.0499 25.7901 20.6599C25.8229 19.82 25.6692 18.9833 25.3401 18.2099Z" fill="#082A4C"/>
<path d="M20.5499 2.50076C14.2899 0.660762 10.6599 5.80076 11.3799 10.9308C12.0999 16.0608 18.5999 17.7008 22.9999 16.6408C30.1499 14.9208 28.3099 4.82076 20.5499 2.50076Z" fill="#E5EAEF"/>
<path d="M18.7502 8.7C21.9002 8.7 24.5602 7.45 25.4202 5.7C25.2302 5.48 25.0402 5.26 24.8302 5.05C24.3802 6.82 21.8302 8.18 18.7502 8.18C15.6702 8.18 13.0702 6.79 12.6602 5C12.4748 5.2719 12.3077 5.55586 12.1602 5.85C13.1002 7.5 15.7002 8.7 18.7502 8.7Z" fill="#495D8F"/>
<path d="M22.3901 16.7698C17.2401 16.7698 13.5901 13.4798 13.8401 9.25978C14.0162 7.65974 14.6633 6.14797 15.6994 4.91604C16.7355 3.68412 18.114 2.78749 19.6601 2.33978C13.9601 1.21978 10.6601 6.09978 11.3801 10.9898C12.1001 15.8798 18.0001 17.4998 22.3901 16.7698Z" fill="#DCDFE5"/>
<path d="M24.8298 5.07031C24.8298 5.07031 23.6198 9.15031 16.3198 7.89031C16.3198 7.89031 20.1298 12.3203 17.2598 16.5903C19.1537 17.038 21.1259 17.038 23.0198 16.5903C28.5498 15.3003 28.6798 8.93031 24.8298 5.07031Z" fill="#15243E"/>
<path d="M17.5801 8.71977C17.5801 8.71977 22.9101 9.57977 25.0901 6.00977C25.8726 6.87598 26.434 7.91855 26.7265 9.0486C27.019 10.1787 27.034 11.3627 26.7701 12.4998C26.6167 11.9299 26.2712 11.4304 25.7919 11.086C25.3127 10.7416 24.7291 10.5734 24.1401 10.6098C21.0001 10.6098 18.9301 9.98977 17.5801 8.71977Z" fill="#495D8F"/>
<path d="M25.6398 15.3398C22.4998 16.9598 18.8198 15.9298 17.8098 15.5898C17.656 15.9386 17.4719 16.2732 17.2598 16.5898C19.1537 17.0375 21.1259 17.0375 23.0198 16.5898C23.9801 16.3875 24.8783 15.959 25.6398 15.3398Z" fill="#495D8F"/>
<path d="M20.6566 6.39861C20.9841 6.50832 21.3211 6.57894 21.6484 6.60643C21.9757 6.63392 22.2869 6.61776 22.5642 6.55885C22.8415 6.49995 23.0794 6.39946 23.2645 6.26312C23.4496 6.12679 23.5781 5.95727 23.6428 5.76426C23.7074 5.57125 23.7069 5.35852 23.6413 5.13822C23.5757 4.91792 23.4463 4.69436 23.2605 4.48031C23.0746 4.26626 22.836 4.0659 22.5581 3.89069C22.2803 3.71547 21.9688 3.56882 21.6413 3.45911C20.9799 3.23755 20.2937 3.17991 19.7337 3.29888C19.1736 3.41784 18.7857 3.70366 18.6551 4.09346C18.5245 4.48327 18.662 4.94512 19.0374 5.37742C19.4127 5.80972 19.9952 6.17705 20.6566 6.39861Z" fill="#F0F1F3"/>
<path d="M32.48 34.2796V46.4996L44.27 39.6696V27.3496L32.48 34.2796Z" fill="#999FB0"/>
<path d="M32.4898 34.2809V46.5009L21.2998 40.0309V27.7109L32.4898 34.2809Z" fill="#B3B7C4"/>
<path d="M21.2998 27.7103L32.4898 34.2803L44.2698 27.3503L33.0498 20.8203L21.2998 27.7103Z" fill="#F0F1F3"/>
<path d="M37.48 31.3895V34.6695L40.15 33.1395V29.7695L37.48 31.3895Z" fill="#495D8F"/>
<path d="M26.2998 24.8202L37.4898 31.3902L40.1498 29.7702L28.9298 23.2402L26.2998 24.8202Z" fill="#495D8F"/>
<path d="M34.72 38.7109L33.79 41.6009L34.39 41.2609V44.7009L35.05 44.3309V40.8809L35.66 40.5309L34.72 38.7109Z" fill="#083356"/>
<path d="M37.9201 39.2204L36.9901 37.4004L36.0601 40.2904L36.6601 39.9404V43.3904L37.3201 43.0104V39.5604L37.9201 39.2204Z" fill="#083356"/>
<path d="M23.13 32.0509C22.7317 31.9122 22.2983 31.9122 21.9 32.0509C21.4254 31.82 20.901 31.7101 20.3736 31.731C19.8462 31.7519 19.3322 31.9029 18.8773 32.1706C18.4225 32.4383 18.0409 32.8143 17.7665 33.2652C17.4922 33.7161 17.3336 34.2279 17.305 34.7549C17.2764 35.2819 17.3785 35.8079 17.6024 36.2858C17.8263 36.7638 18.1649 37.179 18.5881 37.4943C19.0113 37.8097 19.5059 38.0156 20.0279 38.0935C20.55 38.1714 21.0831 38.1189 21.58 37.9409C21.9355 38.098 22.3254 38.1612 22.7124 38.1245C23.0994 38.0877 23.4704 37.9522 23.79 37.7309C24.79 37.2209 24.35 36.7309 24.35 36.7309C24.4227 36.6697 24.4772 36.5897 24.5077 36.4997C24.5381 36.4097 24.5433 36.313 24.5227 36.2203C24.5021 36.1275 24.4565 36.0422 24.3907 35.9735C24.325 35.9049 24.2418 35.8555 24.15 35.8309C24.15 35.3009 23.94 35.1709 23.68 35.1809C23.7349 34.604 23.6312 34.0231 23.38 33.5009C23.38 33.4109 23.29 33.3209 23.23 33.2309C24.17 33.2409 23.85 32.3409 23.13 32.0509Z" fill="#113C70"/>
<path d="M24.3601 36.6896C24.4328 36.6284 24.4873 36.5485 24.5178 36.4584C24.5482 36.3684 24.5534 36.2718 24.5328 36.179C24.5122 36.0862 24.4666 36.0009 24.4009 35.9322C24.3351 35.8636 24.2519 35.8143 24.1601 35.7896C24.1696 35.7065 24.1696 35.6227 24.1601 35.5396C23.8224 35.7899 23.4371 35.9687 23.0278 36.065C22.6186 36.1613 22.194 36.1731 21.7801 36.0996C21.2215 35.8446 20.7364 35.4525 20.3701 34.9596C20.0004 34.6774 19.6924 34.3224 19.4654 33.9165C19.2383 33.5106 19.097 33.0624 19.0501 32.5996L17.3501 35.4996C17.4277 35.9604 17.6057 36.3985 17.8713 36.7829C18.1369 37.1673 18.4837 37.4887 18.8872 37.7243C19.2907 37.9599 19.741 38.104 20.2064 38.1464C20.6717 38.1888 21.1407 38.1284 21.5801 37.9696C21.9356 38.1268 22.3256 38.19 22.7125 38.1532C23.0995 38.1164 23.4705 37.9809 23.7901 37.7596C24.7801 37.1996 24.3601 36.6896 24.3601 36.6896Z" fill="#B3B7C4"/>
<path d="M22.4 32.7096C21.6 32.8496 21.54 32.3496 21.54 32.3496C21.08 33.7996 21.62 34.7696 22.1 34.4496C22.58 34.1296 22.43 33.1496 22.43 33.1496C22.6997 33.1006 22.9779 33.1319 23.23 33.2396C23.67 33.2396 23.83 33.0396 23.8 32.7996C23.48 33.0096 23 32.5996 22.4 32.7096Z" fill="#B3B7C4"/>
<path d="M9.00714 34.6101C8.82175 34.2318 8.71289 33.8206 8.68681 33.4001C8.66072 32.9796 8.71792 32.5581 8.85512 32.1598C8.99233 31.7615 9.20684 31.3941 9.48635 31.0789C9.76586 30.7637 10.1049 30.5068 10.4839 30.3229C10.8629 30.139 11.2746 30.0318 11.6952 30.0073C12.1157 29.9829 12.537 30.0418 12.9348 30.1806C13.3326 30.3193 13.699 30.5353 14.0132 30.8161C14.3273 31.0968 14.5829 31.4368 14.7652 31.8166C14.9506 32.1949 15.0595 32.6061 15.0856 33.0266C15.1117 33.4471 15.0545 33.8686 14.9173 34.2669C14.7801 34.6652 14.5655 35.0326 14.286 35.3478C14.0065 35.663 13.6675 35.9199 13.2885 36.1038C12.9094 36.2877 12.4978 36.3949 12.0772 36.4194C11.6566 36.4438 11.2354 36.3849 10.8376 36.2461C10.4398 36.1074 10.0733 35.8914 9.75923 35.6106C9.44512 35.3299 9.18953 34.9899 9.00714 34.6101Z" fill="#495D8F"/>
<path d="M9.00714 34.6101C8.82175 34.2318 8.71289 33.8206 8.68681 33.4001C8.66072 32.9796 8.71792 32.5581 8.85512 32.1598C8.99233 31.7615 9.20684 31.3941 9.48635 31.0789C9.76586 30.7637 10.1049 30.5068 10.4839 30.3229C10.8629 30.139 11.2746 30.0318 11.6952 30.0073C12.1157 29.9829 12.537 30.0418 12.9348 30.1806C13.3326 30.3193 13.699 30.5353 14.0132 30.8161C14.3273 31.0968 14.5829 31.4368 14.7652 31.8166C14.9506 32.1949 15.0595 32.6061 15.0856 33.0266C15.1117 33.4471 15.0545 33.8686 14.9173 34.2669C14.7801 34.6652 14.5655 35.0326 14.286 35.3478C14.0065 35.663 13.6675 35.9199 13.2885 36.1038C12.9094 36.2877 12.4978 36.3949 12.0772 36.4194C11.6566 36.4438 11.2354 36.3849 10.8376 36.2461C10.4398 36.1074 10.0733 35.8914 9.75923 35.6106C9.44512 35.3299 9.18953 34.9899 9.00714 34.6101Z" fill="#DCDFE5"/>
<path d="M20.5599 31.7295L11.9999 30.0195C11.4582 30.4141 11.0273 30.9416 10.7488 31.5512C10.4703 32.1607 10.3536 32.8317 10.4099 33.4995C10.3485 34.0894 10.456 34.6845 10.7198 35.2156C10.9836 35.7467 11.3928 36.192 11.8999 36.4995L19.8999 38.0995C19.3257 37.7828 18.8711 37.2868 18.6056 36.6872C18.3401 36.0876 18.2784 35.4175 18.4299 34.7795C18.7299 32.0995 20.5599 31.7295 20.5599 31.7295Z" fill="#DCDFE5"/>
<path d="M18.5599 33.9695L13.0799 32.9695C13.017 32.4532 13.1272 31.9306 13.3932 31.4836C13.6592 31.0366 14.066 30.6905 14.5499 30.4995L11.9999 30.0195C11.4582 30.4141 11.0273 30.9416 10.7488 31.5512C10.4703 32.1607 10.3536 32.8317 10.4099 33.4995C10.3485 34.0894 10.456 34.6845 10.7198 35.2156C10.9836 35.7467 11.3928 36.192 11.8999 36.4995L19.8999 38.0995C19.3257 37.7828 18.8711 37.2868 18.6056 36.6872C18.3401 36.0876 18.2784 35.4175 18.4299 34.7795C18.4513 34.5065 18.4948 34.2356 18.5599 33.9695Z" fill="#DCDFE5"/>
<path d="M13.8798 31.4C13.2498 32.4 17.9898 33.28 18.5298 32.52C19.0698 31.76 14.2898 30.74 13.8798 31.4Z" fill="#F0F1F3"/>
<path d="M8.16016 21.8898C8.16016 21.2595 8.28431 20.6353 8.52553 20.053C8.76676 19.4706 9.12032 18.9415 9.56604 18.4957C10.0118 18.05 10.5409 17.6964 11.1233 17.4552C11.7056 17.214 12.3298 17.0898 12.9602 17.0898C13.5905 17.0898 14.2147 17.214 14.797 17.4552C15.3794 17.6964 15.9085 18.05 16.3543 18.4957C16.8 18.9415 17.1536 19.4706 17.3948 20.053C17.636 20.6353 17.7602 21.2595 17.7602 21.8898C17.7602 23.1629 17.2544 24.3838 16.3543 25.284C15.4541 26.1841 14.2332 26.6898 12.9602 26.6898C11.6871 26.6898 10.4662 26.1841 9.56604 25.284C8.66587 24.3838 8.16016 23.1629 8.16016 21.8898Z" fill="#113C70"/>
<path d="M13.4199 17.1094H12.9699C11.6969 17.1094 10.476 17.6151 9.57581 18.5153C8.67563 19.4154 8.16992 20.6363 8.16992 21.9094C8.16992 23.1824 8.67563 24.4033 9.57581 25.3035C10.476 26.2037 11.6969 26.7094 12.9699 26.7094L12.7799 26.3094C12.1057 25.8503 11.5653 25.2206 11.2139 24.4845C10.8626 23.7484 10.7128 22.9323 10.7799 22.1194C10.9199 19.3194 12.1799 17.7694 13.4199 17.1094Z" fill="#DCDFE5"/>
<path d="M14.7698 30.57L15.1398 25.96C13.3775 26.3495 11.538 26.1889 9.8698 25.5L9.2998 31.84C10.5202 31.648 11.7661 31.6922 12.9698 31.97C13.0527 31.6431 13.2107 31.3401 13.4311 31.0849C13.6516 30.8298 13.9285 30.6295 14.2398 30.5L14.7698 30.57Z" fill="#113C70"/>
<path d="M12.8498 31.39L13.3798 26.13C12.1778 26.1797 10.9795 25.9646 9.8698 25.5L9.2998 31.84C10.5202 31.648 11.7661 31.6922 12.9698 31.97C13.0527 31.6431 13.2107 31.3401 13.4311 31.0849C13.6516 30.8298 13.9285 30.6295 14.2398 30.5L14.7698 30.57V30.26C13.4198 29.91 12.8498 31.39 12.8498 31.39Z" fill="#B3B7C4"/>
</svg>
