<svg width="50" height="50" viewBox="0 0 50 50" fill="none" xmlns="http://www.w3.org/2000/svg">
<path d="M38.4499 23.44L32.9399 17.54L33.4099 17.25L38.5899 22.5L39.9499 24.3L38.4499 23.44Z" fill="#113C70"/>
<path d="M25.4499 36.7994C28.7599 37.6994 29.7199 42.3194 29.3999 44.0894L22.5499 40.3694C22.5499 40.3694 22.1499 35.8994 25.4499 36.7994Z" fill="#082A4C"/>
<path d="M1.57987 27.6705C1.98987 28.1305 2.10987 28.2505 2.10987 28.2505C2.10987 28.2505 1.99987 23.4405 5.79987 25.5305C9.59987 27.6205 8.99987 32.3705 8.99987 32.3705L22.5799 40.3705C22.5799 40.3705 22.1699 35.9105 25.4799 36.8105C28.7899 37.7105 29.7499 42.3305 29.4299 44.1005C31.0074 44.6098 32.6929 44.6857 34.3099 44.3205C37.3899 43.4405 44.7099 40.6605 46.7999 36.3205C47.2199 35.4505 47.0899 32.3205 46.1599 30.5705C44.8556 28.5934 43.3029 26.792 41.5399 25.2105C41.5399 25.2105 35.9199 18.7605 33.8999 17.0005C31.9166 15.2819 29.6449 13.9277 27.1899 13.0005C24.5499 12.0005 15.3999 11.7705 14.4699 11.7405C13.5399 11.7105 5.21987 14.5305 2.58987 16.7405C2.34061 17.2393 2.28365 17.8124 2.42987 18.3505C3.09987 19.1005 7.60987 18.9105 9.96987 19.7705C12.9624 20.8702 15.7968 22.3597 18.3999 24.2005C20.5199 25.8905 23.6999 31.4205 23.6999 31.4205C23.9499 31.8405 23.3599 32.2905 23.1199 32.1905C22.8799 32.0905 9.69987 24.6905 8.84987 23.8705C7.99987 23.0505 7.47987 21.9405 6.84987 21.3205C5.75151 19.7831 4.75921 18.1728 3.87987 16.5005C2.95482 17.493 2.17385 18.6106 1.55987 19.8205C1.4447 21.0912 1.4447 22.3697 1.55987 23.6405C1.43861 23.6213 1.31452 23.6473 1.21125 23.7137C1.10797 23.7801 1.03274 23.8822 0.999874 24.0005C0.931945 25.251 1.12961 26.5018 1.57987 27.6705ZM20.9399 24.2705C26.5299 21.3805 33.4099 17.2705 33.4099 17.2705C33.4099 17.2705 40.4899 24.8805 40.9699 25.4705C41.4499 26.0605 41.3799 27.1705 35.6199 30.6705C29.8599 34.1705 27.3899 33.7905 26.7599 33.3505C26.1299 32.9105 22.5799 26.7805 20.9399 24.2805V24.2705Z" fill="#DCDFE5"/>
<path d="M31.3699 41.3493C31.2696 40.9437 31.0819 40.5648 30.8199 40.2393C31.1991 40.2775 31.553 40.4473 31.8199 40.7193C31.9552 40.8346 32.0624 40.9791 32.1334 41.142C32.2044 41.3049 32.2374 41.4818 32.2299 41.6593V43.0993C32.2299 43.4393 33.1499 43.9193 33.3599 43.9193C34.6309 43.6123 35.8723 43.1941 37.0699 42.6693V41.3993C37.0699 40.8893 38.4399 39.1793 40.4899 38.0793C42.5399 36.9793 43.6899 36.6393 44.4099 36.9493C44.7499 37.2593 44.6299 38.1093 44.6299 38.1093C45.5915 37.3241 46.3957 36.3638 46.9999 35.2793C46.9929 35.6455 46.9218 36.0076 46.7899 36.3493C44.6999 40.6493 37.3799 43.4293 34.2999 44.3493C32.6829 44.7146 30.9975 44.6386 29.4199 44.1293C30.1331 43.9409 30.8093 43.6333 31.4199 43.2193L31.3699 41.3493Z" fill="#15243E"/>
<path d="M0.999855 24.0008C1.02831 23.8826 1.09882 23.7789 1.19821 23.709C1.29759 23.639 1.41904 23.6077 1.53985 23.6208C1.42468 22.3501 1.42468 21.0715 1.53985 19.8008C1.67907 19.3799 1.96708 19.0244 2.34985 18.8008C3.42586 19.7995 4.59446 20.6935 5.83985 21.4708C6.60985 22.0508 7.56985 23.9708 8.37985 24.4708C9.18985 24.9708 19.6799 31.0208 22.1199 32.4708C23.8118 33.4601 25.4415 34.5522 26.9999 35.7408L30.7899 40.2408C31.0518 40.5663 31.2395 40.9452 31.3399 41.3508V43.1808C30.7293 43.5947 30.0531 43.9024 29.3399 44.0908C29.6599 42.3208 28.6999 37.7008 25.3899 36.8008C22.0799 35.9008 22.4899 40.3608 22.4899 40.3608L8.99986 32.3708C8.99986 32.3708 9.64985 27.6308 5.81985 25.5308C1.98985 23.4308 2.13985 28.2508 2.13985 28.2508C2.13985 28.2508 2.01985 28.1308 1.60985 27.6708C1.14937 26.5043 0.941465 25.2535 0.999855 24.0008Z" fill="#B3B7C4"/>
<path d="M1.46985 21.7405C1.46985 21.7405 21.5599 33.1005 22.6899 33.9405C23.4689 34.6928 24.0053 35.661 24.2299 36.7205C22.2299 37.1105 22.5499 40.3605 22.5499 40.3605L8.99986 32.3705C8.99986 32.3705 9.64985 27.6305 5.81985 25.5305C1.98985 23.4305 2.13985 28.2505 2.13985 28.2505C2.13985 28.2505 2.01985 28.1305 1.60985 27.6705C1.14937 26.504 0.941465 25.2532 0.999855 24.0005C1.02831 23.8823 1.09882 23.7786 1.19821 23.7087C1.29759 23.6387 1.41904 23.6074 1.53985 23.6205C1.53985 23.6205 1.46985 22.6905 1.44985 21.7305L1.46985 21.7405Z" fill="#999FB0"/>
<path d="M9 30.6504L22.68 38.7104C22.581 39.2544 22.5508 39.8088 22.59 40.3604L9 32.3704C9.06181 31.7987 9.06181 31.2221 9 30.6504Z" fill="#082A4C"/>
<path d="M9 30.6504L19.28 36.7104L20.66 39.2304L9 32.3704C9.06181 31.7987 9.06181 31.2221 9 30.6504Z" fill="#15243E"/>
<path d="M35.6298 30.6506C41.3798 27.1406 41.4598 26.0406 40.9798 25.4506C41.2384 25.4123 41.5012 25.4123 41.7598 25.4506C42.9947 26.6192 44.1506 27.8687 45.2198 29.1906C45.9398 32.9206 37.6598 37.3306 33.7998 37.3306C29.9398 37.3306 26.7998 33.3306 26.7998 33.3306C27.3998 33.7706 29.7498 34.2306 35.6298 30.6506Z" fill="#F0F1F3"/>
<path d="M46.1798 30.7093C45.9798 32.4593 45.3198 31.9393 45.3198 31.9393C45.3198 31.9393 45.3198 31.3893 45.3198 30.9393C44.9998 30.9893 45.7199 30.5893 45.7899 30.0293C45.9099 30.2193 46.0298 30.4093 46.1198 30.5893L46.1798 30.7093Z" fill="white"/>
<path d="M35.5601 37.8092C38.7918 36.8291 41.7779 35.1724 44.3201 32.9492C44.3201 33.3792 44.3201 33.9492 44.3201 33.9492C41.9476 36.1185 39.0972 37.6979 36.0001 38.5592C35.8709 38.2993 35.7239 38.0487 35.5601 37.8092Z" fill="#113C70"/>
<path d="M44.3298 33.4292C41.8726 35.619 38.974 37.2558 35.8298 38.2292C35.6998 38.0092 35.5498 37.8092 35.5498 37.8092C38.7815 36.8291 41.7677 35.1724 44.3098 32.9492C44.3298 33.0992 44.3298 33.2692 44.3298 33.4292Z" fill="#082A4C"/>
<path d="M32.3299 39.0909C33.5738 39.1119 34.8129 38.9329 35.9999 38.5609C39.0909 37.6938 41.9342 36.1111 44.2999 33.9409C45.2471 33.089 45.8986 31.9578 46.1599 30.7109C46.2763 30.9507 46.3765 31.1979 46.4599 31.4509C46.4599 31.4509 46.4599 32.8009 44.6899 34.3909C42.1651 36.4689 39.3265 38.1329 36.2799 39.3209C35.2733 39.7419 34.1905 39.9503 33.0995 39.9331C32.0085 39.9159 30.9328 39.6734 29.9399 39.2209C29.6499 39.0709 28.5999 38.1509 28.7499 37.8009C29.8671 38.4186 31.0756 38.8541 32.3299 39.0909Z" fill="#B3B7C4"/>
<path d="M16.7001 21.0995C14.1001 19.8995 4.58008 15.7695 4.58008 15.7695C7.2137 13.8058 10.2442 12.4407 13.4601 11.7695C14.3901 11.7695 24.5501 12.0495 27.1801 13.0795C29.5222 13.9588 31.6994 15.2265 33.6201 16.8295C33.5922 16.9958 33.5196 17.1513 33.4101 17.2795C33.4101 17.2795 26.5201 21.4195 20.9401 24.2795C19.7535 22.9468 18.3117 21.8655 16.7001 21.0995Z" fill="#DCDFE5"/>
<path d="M28.7599 27.4295C28.7599 27.4295 29.6599 27.8795 30.2999 28.2595C32.6399 26.7195 38.4399 23.4395 38.4399 23.4395L39.9399 24.3095C40.4899 24.9095 40.8699 25.3095 40.9399 25.4495C41.4199 26.0395 41.3499 27.1495 35.5899 30.6495C29.8299 34.1495 27.3599 33.7695 26.7299 33.3295C25.8557 32.2555 25.0762 31.1079 24.3999 29.8995C25.8077 28.9983 27.2632 28.1737 28.7599 27.4295Z" fill="#495D8F"/>
<path d="M30.6 18.9102L38.44 23.4402C38.44 23.4402 36.95 24.2802 35.18 25.3102C33.4575 24.539 31.5969 24.124 29.71 24.0902C29.7175 22.5804 29.6408 21.0714 29.48 19.5702L30.6 18.9102Z" fill="#15243E"/>
<path d="M29.48 19.5605C29.6408 21.0618 29.7176 22.5708 29.71 24.0805L23.17 27.8405L23 23.2105C25.25 22.0005 27.59 20.6505 29.48 19.5605Z" fill="#083356"/>
<path d="M28.9998 32.7991C30.2498 32.5591 36.6598 29.0391 38.6298 27.6991C40.5998 26.3591 40.6298 25.1191 40.6298 25.1191L40.9198 25.4491C41.3998 26.0391 41.3298 27.1491 35.5698 30.6491C29.8098 34.1491 27.3398 33.7691 26.7098 33.3291C26.5459 33.1813 26.4014 33.0133 26.2798 32.8291C27.177 33.025 28.1071 33.0148 28.9998 32.7991Z" fill="#15243E"/>
<path d="M30.2999 28.2598C29.6599 27.8698 28.7599 27.4298 28.7599 27.4298C28.7599 27.4298 27.5299 28.0598 26.3399 28.7298L23.1699 27.8498L29.7099 24.0898C31.5968 24.1237 33.4575 24.5386 35.1799 25.3098C33.4599 26.3198 31.4599 27.4998 30.2999 28.2598Z" fill="#082A4C"/>
<path d="M23.1702 27.8493C22.3302 26.4793 21.5202 25.1593 20.9502 24.2793L21.9502 23.7793H22.0102L22.9502 23.2793H23.0102L23.1702 27.8493Z" fill="#113C70"/>
<path d="M24.4399 29.9096L24.7199 30.3696C24.2299 29.5796 23.7199 28.7096 23.1699 27.8496L26.3399 28.7296C25.6843 29.0858 25.0499 29.4798 24.4399 29.9096Z" fill="#113C70"/>
<path d="M29.09 20.9299C27.8307 21.3676 26.6689 22.047 25.67 22.9299C25.6405 22.9827 25.6234 23.0414 25.6198 23.1017C25.6163 23.1619 25.6264 23.2223 25.6495 23.2781C25.6726 23.3339 25.7081 23.3837 25.7532 23.4239C25.7983 23.464 25.8519 23.4935 25.91 23.5099C27.0337 23.0059 28.0998 22.3823 29.09 21.6499C29.34 21.2899 29.26 20.8799 29.09 20.9299Z" fill="#495D8F"/>
<path d="M31.9999 21.3591C32.2799 21.2591 32.8999 21.7391 32.9299 22.1091C32.9599 22.4791 32.4199 22.6091 31.9999 22.3791C31.9229 22.3183 31.8607 22.2408 31.8179 22.1524C31.7752 22.0641 31.7529 21.9673 31.7529 21.8691C31.7529 21.771 31.7752 21.6741 31.8179 21.5858C31.8607 21.4975 31.9229 21.42 31.9999 21.3591Z" fill="#15243E"/>
<path d="M23.11 32.2206C22.88 32.1306 10.64 25.2206 9 23.9806L10.21 19.8906C13.1156 20.9783 15.8684 22.4371 18.4 24.2306C20.52 25.9206 23.7 31.4506 23.7 31.4506C23.93 31.8706 23.35 32.3206 23.11 32.2206Z" fill="#495D8F"/>
<path d="M9.46002 19.6191L9.97002 19.7991L10.6 20.0391L10.21 19.8891L9.00002 23.9991L8.86002 23.8791C8.64811 23.6697 8.45098 23.4458 8.27002 23.2091L9.46002 19.6191Z" fill="#15243E"/>
<path d="M2.50987 26.1201C2.23581 26.7963 2.09981 27.5205 2.10987 28.2501C2.10987 28.2501 1.98987 28.1301 1.57987 27.6701C1.12961 26.5014 0.931945 25.2507 0.999874 24.0001C1.02833 23.882 1.09884 23.7782 1.19822 23.7083C1.29761 23.6383 1.41906 23.607 1.53987 23.6201C1.54368 24.1043 1.5973 24.5869 1.69987 25.0601C1.86475 25.4826 2.14551 25.85 2.50987 26.1201Z" fill="#15243E"/>
<path d="M9.46014 19.6191L8.27014 23.1991C7.82746 22.5364 7.33964 21.9049 6.81014 21.3091C6.14014 20.6791 4.89014 19.4891 4.89014 19.4891L5.43014 17.3691C6.57964 18.4231 7.95973 19.1937 9.46014 19.6191Z" fill="#083356"/>
<path d="M38.4302 21.7406C38.586 21.3545 38.8502 21.0216 39.1908 20.7821C39.5315 20.5426 39.9341 20.4066 40.3502 20.3906C40.9002 20.8406 40.5702 21.7406 40.5702 21.7406C40.3766 22.2548 40.0269 22.6954 39.5702 23.0006C39.1302 22.5806 38.4302 21.7406 38.4302 21.7406Z" fill="#DCDFE5"/>
<path d="M40.5701 21.7404C40.3765 22.2545 40.0268 22.6951 39.5701 23.0004L39.1001 22.4904C39.4009 22.264 39.67 21.9983 39.9001 21.7004C40.2216 21.3451 40.3935 20.8794 40.3801 20.4004C40.9001 20.8404 40.5701 21.7404 40.5701 21.7404Z" fill="#113C70"/>
<path d="M29.43 43.9108C28.7205 44.3778 27.8774 44.5991 27.03 44.5408C27.3118 44.5174 27.585 44.432 27.83 44.2908C29.1 43.5508 29.27 41.4608 28.2 39.6108C27.7097 38.7035 26.9375 37.9804 26 37.5508L26.63 37.3008C28.9 38.7608 29.63 42.2808 29.43 43.9108Z" fill="#15243E"/>
<path d="M5.80019 25.5302C9.00019 27.2902 9.07019 30.9202 9.00019 32.0002C8.60561 32.3379 8.14003 32.5826 7.638 32.7159C7.13597 32.8492 6.61037 32.8677 6.10019 32.7702L2.74019 28.2502H2.11019C2.11019 28.2502 2.00019 23.4402 5.80019 25.5302Z" fill="#15243E"/>
<path d="M23.5877 42.2717C23.8418 42.7119 24.153 43.1133 24.5035 43.4531C24.854 43.7929 25.237 44.0644 25.6306 44.2521C26.0242 44.4398 26.4207 44.5401 26.7975 44.5471C27.1742 44.5542 27.5238 44.4679 27.8263 44.2933C28.1288 44.1186 28.3783 43.859 28.5606 43.5292C28.7428 43.1994 28.8543 42.8059 28.8885 42.3712C28.9227 41.9365 28.8791 41.469 28.7601 40.9956C28.6411 40.5221 28.4491 40.0519 28.195 39.6117C27.9409 39.1716 27.6296 38.7702 27.2791 38.4304C26.9286 38.0906 26.5456 37.8191 26.152 37.6314C25.7584 37.4437 25.3619 37.3434 24.9852 37.3363C24.6084 37.3293 24.2588 37.4155 23.9563 37.5902C23.6538 37.7648 23.4043 38.0245 23.222 38.3543C23.0398 38.6841 22.9284 39.0776 22.8941 39.5123C22.8599 39.947 22.9035 40.4144 23.0225 40.8879C23.1415 41.3614 23.3336 41.8316 23.5877 42.2717Z" fill="#2D313F"/>
<path d="M24.137 41.965C24.3162 42.2754 24.5372 42.5578 24.7872 42.7959C25.0373 43.034 25.3115 43.2232 25.5942 43.3526C25.877 43.4821 26.1628 43.5493 26.4352 43.5505C26.7076 43.5516 26.9614 43.4866 27.1821 43.3592C27.4027 43.2318 27.5859 43.0446 27.7211 42.8081C27.8563 42.5716 27.941 42.2905 27.9703 41.9809C27.9995 41.6712 27.9728 41.3392 27.8916 41.0036C27.8105 40.668 27.6764 40.3354 27.4972 40.025C27.3179 39.7145 27.0969 39.4321 26.8469 39.194C26.5969 38.9559 26.3226 38.7668 26.0399 38.6373C25.7571 38.5078 25.4713 38.4406 25.1989 38.4395C24.9265 38.4383 24.6727 38.5033 24.4521 38.6307C24.2314 38.7581 24.0483 38.9454 23.913 39.1819C23.7778 39.4184 23.6931 39.6995 23.6638 40.0091C23.6346 40.3187 23.6613 40.6508 23.7425 40.9864C23.8237 41.322 23.9577 41.6545 24.137 41.965Z" fill="#2D313F"/>
<path d="M24.0498 42.0003C23.2698 40.6503 23.4298 39.1003 24.3998 38.5303C24.6587 38.3937 24.9471 38.3223 25.2398 38.3223C25.5326 38.3223 25.8209 38.3937 26.0798 38.5303C26.7095 38.8497 27.2333 39.3444 27.5881 39.9547C27.943 40.5651 28.1138 41.2651 28.0798 41.9703C28.0679 42.262 27.9852 42.5464 27.8388 42.799C27.6925 43.0516 27.4869 43.2648 27.2398 43.4203C27.002 43.5545 26.7329 43.6235 26.4598 43.6203C25.9538 43.5763 25.4673 43.4047 25.0458 43.1213C24.6242 42.838 24.2816 42.4522 24.0498 42.0003ZM24.4998 38.7003C23.6198 39.2103 23.4998 40.6503 24.2198 41.9003C24.9398 43.1503 26.2198 43.7703 27.1298 43.2603C27.3492 43.1196 27.5311 42.9279 27.66 42.7014C27.7889 42.475 27.8609 42.2207 27.8698 41.9603C27.9014 41.2978 27.742 40.6402 27.4104 40.0658C27.0789 39.4913 26.5893 39.0243 25.9998 38.7203C25.7461 38.6009 25.4702 38.5361 25.1898 38.5303C24.948 38.5283 24.7099 38.5904 24.4998 38.7103V38.7003Z" fill="#B3B7C4"/>
<path d="M27.9998 41.7109L26.4498 41.3809L27.5498 43.0609C27.4496 43.1759 27.3314 43.2738 27.1998 43.3509C26.9923 43.4693 26.7587 43.5346 26.5198 43.5409L25.7598 41.6209L24.8098 42.8009C24.5539 42.5537 24.335 42.2707 24.1598 41.9609L25.3098 40.9609L23.8198 39.5009C23.9367 39.1586 24.1703 38.8683 24.4798 38.6809L25.4798 39.9709V38.4609C25.7667 38.5131 26.0414 38.6182 26.2898 38.7709L26.3498 40.5809L27.7298 40.5209C27.893 40.8974 27.9846 41.3009 27.9998 41.7109Z" fill="#CCCCCC"/>
<path d="M27.91 41.0898H26L27.15 43.3498L26.98 43.4298L25.82 41.1398L24.42 42.4198L24.3 42.2598L25.75 40.9998L24 38.9998L24.12 38.8498L25.77 40.7098V38.5098L25.96 38.5798V40.8698H27.85L27.91 41.0898Z" fill="#3D4154"/>
<path d="M25.4401 41.2C25.356 41.09 25.3173 40.9518 25.3322 40.8141C25.3471 40.6763 25.4144 40.5496 25.5201 40.46C25.5757 40.4311 25.6374 40.416 25.7001 40.416C25.7628 40.416 25.8245 40.4311 25.8801 40.46C26.0161 40.528 26.1293 40.6343 26.2056 40.7658C26.282 40.8973 26.3183 41.0482 26.3101 41.2C26.3071 41.2623 26.2891 41.323 26.2578 41.3769C26.2265 41.4309 26.1827 41.4765 26.1301 41.51C26.0744 41.5249 26.0158 41.5249 25.9601 41.51C25.8546 41.5053 25.7519 41.4745 25.6611 41.4204C25.5704 41.3663 25.4945 41.2906 25.4401 41.2Z" fill="#2D313F"/>
<path d="M25.63 41.0891C25.5836 41.0406 25.5576 40.9761 25.5576 40.9091C25.5576 40.842 25.5836 40.7775 25.63 40.7291C25.6564 40.7159 25.6855 40.709 25.715 40.709C25.7445 40.709 25.7736 40.7159 25.8 40.7291C25.8628 40.7628 25.9149 40.8135 25.9502 40.8754C25.9856 40.9372 26.0028 41.0078 26 41.0791C25.9981 41.1094 25.989 41.1389 25.9733 41.165C25.9576 41.1911 25.9359 41.2131 25.91 41.2291H25.83C25.7889 41.2205 25.75 41.2036 25.7156 41.1796C25.6813 41.1555 25.6521 41.1247 25.63 41.0891Z" fill="#111F33"/>
<path d="M3.06178 30.5335C3.31589 30.9736 3.6271 31.375 3.97763 31.7148C4.32817 32.0546 4.71117 32.3261 5.10476 32.5138C5.49836 32.7015 5.89484 32.8018 6.27158 32.8088C6.64831 32.8159 6.99792 32.7297 7.30044 32.555C7.60296 32.3803 7.85247 32.1207 8.03471 31.7909C8.21696 31.4611 8.32838 31.0676 8.36262 30.6329C8.39685 30.1982 8.35322 29.7307 8.23422 29.2573C8.11523 28.7838 7.92319 28.3136 7.66908 27.8735C7.41497 27.4333 7.10377 27.0319 6.75323 26.6921C6.4027 26.3523 6.0197 26.0808 5.6261 25.8931C5.23251 25.7054 4.83602 25.6051 4.45929 25.5981C4.08255 25.591 3.73294 25.6772 3.43042 25.8519C3.1279 26.0266 2.8784 26.2862 2.69615 26.616C2.5139 26.9458 2.40248 27.3393 2.36825 27.774C2.33402 28.2087 2.37764 28.6762 2.49664 29.1496C2.61564 29.6231 2.80767 30.0933 3.06178 30.5335Z" fill="#2D313F"/>
<path d="M3.6062 30.2189C3.96822 30.8459 4.49242 31.3451 5.06349 31.6065C5.63456 31.868 6.20571 31.8704 6.6513 31.6131C7.09689 31.3559 7.38042 30.8601 7.43951 30.2348C7.4986 29.6095 7.32842 28.9059 6.9664 28.2789C6.60438 27.6518 6.08017 27.1527 5.50911 26.8912C4.93804 26.6297 4.36689 26.6273 3.9213 26.8846C3.47571 27.1419 3.19218 27.6377 3.13309 28.263C3.07399 28.8883 3.24418 29.5918 3.6062 30.2189Z" fill="#2D313F"/>
<path d="M3.5298 30.2698C2.7498 28.9198 2.9098 27.3698 3.8798 26.7998C4.13872 26.6632 4.42705 26.5918 4.7198 26.5918C5.01255 26.5918 5.30088 26.6632 5.5598 26.7998C6.19491 27.111 6.71869 27.6103 7.0598 28.2298C7.42292 28.8311 7.59387 29.5288 7.5498 30.2298C7.54001 30.5259 7.45731 30.8149 7.30904 31.0713C7.16076 31.3278 6.9515 31.5436 6.6998 31.6998C6.46196 31.834 6.19288 31.903 5.9198 31.8998C5.41632 31.8516 4.9332 31.6769 4.51535 31.3919C4.09749 31.107 3.75847 30.721 3.5298 30.2698ZM3.9998 26.9998C3.1198 27.5098 2.9998 28.9498 3.7198 30.1998C4.4398 31.4498 5.7198 32.0698 6.6298 31.5598C6.84913 31.4192 7.03105 31.2274 7.15995 31.001C7.28884 30.7745 7.36085 30.5202 7.3698 30.2598C7.41509 29.5943 7.25449 28.9309 6.9098 28.3598C6.58562 27.7692 6.08591 27.294 5.4798 26.9998C5.22611 26.8804 4.95014 26.8157 4.6698 26.8098C4.43383 26.8144 4.20304 26.8798 3.9998 26.9998Z" fill="#B3B7C4"/>
<path d="M7.45977 30.0005L5.90977 29.6705L6.99977 31.3205C6.89955 31.4354 6.78135 31.5334 6.64977 31.6105C6.44222 31.7289 6.20862 31.7941 5.96977 31.8005L5.20977 29.8805L4.25977 31.0605C4.00383 30.8132 3.78491 30.5303 3.60977 30.2205L4.75977 29.2205L3.25977 27.7205C3.37662 27.3781 3.61028 27.0878 3.91977 26.9005L4.91977 28.1905V26.7305C5.20666 26.7827 5.48134 26.8878 5.72977 27.0405L5.78977 28.8505L7.16977 28.7905C7.34228 29.1718 7.4407 29.5824 7.45977 30.0005Z" fill="#CCCCCC"/>
<path d="M7.38998 29.3608H5.51998L6.66998 31.6208L6.49998 31.7008L5.32998 29.4108L3.92998 30.7008L3.80998 30.5408L5.21998 29.2508L3.47998 27.2508L3.59998 27.1008L5.25998 29.0008V26.8008L5.44998 26.8708V29.1608H7.33998L7.38998 29.3608Z" fill="#3D4154"/>
<path d="M4.90986 29.4696C4.82687 29.3583 4.78993 29.2193 4.80669 29.0816C4.82344 28.9438 4.89262 28.8177 4.99986 28.7296C5.05545 28.7006 5.11719 28.6855 5.17986 28.6855C5.24252 28.6855 5.30427 28.7006 5.35986 28.7296C5.49586 28.7976 5.60902 28.9039 5.68542 29.0353C5.76181 29.1668 5.79812 29.3177 5.78986 29.4696C5.78683 29.5319 5.7689 29.5925 5.73758 29.6465C5.70626 29.7004 5.66246 29.7461 5.60986 29.7796C5.55416 29.7944 5.49555 29.7944 5.43986 29.7796C5.33261 29.7765 5.22787 29.7464 5.13525 29.6923C5.04264 29.6381 4.96513 29.5615 4.90986 29.4696Z" fill="#3D4154"/>
<path d="M5.10998 29.3605C5.06353 29.3121 5.0376 29.2476 5.0376 29.1805C5.0376 29.1135 5.06353 29.049 5.10998 29.0005C5.13637 28.9873 5.16547 28.9805 5.19498 28.9805C5.22449 28.9805 5.25359 28.9873 5.27998 29.0005C5.34279 29.0343 5.39485 29.0849 5.43022 29.1468C5.46558 29.2087 5.48283 29.2793 5.47998 29.3505C5.47809 29.3809 5.46893 29.4104 5.45327 29.4365C5.43761 29.4626 5.4159 29.4846 5.38998 29.5005H5.30998C5.2689 29.492 5.23 29.4751 5.19562 29.4511C5.16124 29.427 5.13211 29.3962 5.10998 29.3605Z" fill="#111F33"/>
<path d="M32.56 37.8102C32.7307 38.0491 32.8844 38.2998 33.02 38.5602C33.02 38.5602 33.02 39.0002 32.33 39.0902C31.6801 39.137 31.0277 39.0473 30.4146 38.8269C29.8015 38.6064 29.2413 38.2601 28.77 37.8102L27 35.7402C28.2657 36.3388 29.4976 37.0065 30.69 37.7402C31.2874 37.9749 31.9468 37.9996 32.56 37.8102Z" fill="white"/>
<path d="M38.4501 23.4402L37.8001 23.8002L29.8701 19.3302L30.6001 18.9102L38.4501 23.4402Z" fill="#113C70"/>
<path d="M36.0001 22.7995C35.2917 23.4248 34.3848 23.779 33.4401 23.7995C32.3001 23.6095 29.6201 21.5195 29.6201 21.5195L29.6801 22.5195C29.6801 22.5195 31.1201 23.6295 32.2401 24.3195C33.1401 24.5295 33.7301 24.6995 33.9601 24.7795C34.9492 24.3951 35.8555 23.8249 36.6301 23.0995L36.0001 22.7995Z" fill="#495D8F"/>
<path d="M13.4498 28.5703C13.4531 28.6653 13.4772 28.7584 13.5204 28.8431C13.5636 28.9277 13.6248 29.0019 13.6998 29.0603C14.0623 29.318 14.4434 29.5486 14.8398 29.7503C15.0343 29.7513 15.2284 29.7346 15.4198 29.7003V30.0903C15.1946 30.1666 14.9536 30.1838 14.7198 30.1403C14.252 29.9284 13.812 29.6597 13.4098 29.3403C13.3524 29.0848 13.3662 28.8185 13.4498 28.5703Z" fill="#113C70"/>
<path d="M14.8402 29.7503C14.4438 29.5486 14.0627 29.318 13.7002 29.0603C13.5799 28.9702 13.4978 28.8381 13.4702 28.6903V28.5703L15.4702 29.7003C15.2624 29.7377 15.0513 29.7544 14.8402 29.7503Z" fill="#DCDFE5"/>
<path d="M9 23.9808L9.65 23.8008L10.13 22.2008L9.64 21.8008L9 23.9808Z" fill="#082A4C"/>
<path d="M26.9998 28.3705C26.4845 28.0896 25.8936 27.9789 25.3116 28.0543C24.7296 28.1298 24.1864 28.3875 23.7598 28.7905L24.0898 29.3305C24.3998 29.0712 24.7625 28.8823 25.1527 28.777C25.5429 28.6717 25.9514 28.6524 26.3498 28.7205L26.9998 28.3705Z" fill="#495D8F"/>
<path d="M6.55008 14.3404C14.1403 16.2483 22.0923 16.1829 29.6501 14.1504C31.0773 14.8791 32.4189 15.7646 33.6501 16.7904C33.6222 16.9567 33.5496 17.1122 33.4401 17.2404C33.4401 17.2404 26.5501 21.3804 20.9701 24.2404C19.7709 22.9189 18.319 21.8512 16.7001 21.1004C14.1001 19.9004 4.58008 15.7704 4.58008 15.7704C5.20791 15.2552 5.86573 14.7777 6.55008 14.3404Z" fill="#F0F1F3"/>
<path d="M9.8999 20.9297L10.2099 19.9297C13.1155 21.0174 15.8683 22.4762 18.3999 24.2697C20.3999 25.8897 23.3999 31.0297 23.6799 31.4597C14.3899 26.0897 9.8999 20.9297 9.8999 20.9297Z" fill="#082A4C"/>
<path d="M23.1698 30.5703C22.6426 30.336 22.0561 30.2696 21.4898 30.3803C21.1328 30.4461 20.7935 30.5861 20.4938 30.791C20.1941 30.996 19.9407 31.2614 19.7498 31.5703C19.6198 31.9603 20.0698 32.1903 20.2298 32.2703C20.3898 32.3503 23.0998 32.2103 23.0998 32.2103C23.3155 31.9958 23.4425 31.7079 23.4554 31.404C23.4684 31.1 23.3664 30.8024 23.1698 30.5703Z" fill="#B3B7C4"/>
<path d="M19.7302 31.6803C20.8602 31.5803 23.4002 31.3203 23.4302 31.3203C23.4482 31.4856 23.4278 31.6528 23.3706 31.8089C23.3133 31.965 23.2208 32.1058 23.1002 32.2203C23.1002 32.2203 20.3902 32.3603 20.2302 32.2803C20.0702 32.2003 19.7002 32.0003 19.7302 31.6803Z" fill="#113C70"/>
<path d="M29.46 38.2602C29.2191 38.1277 28.9884 37.9772 28.77 37.8102L27 35.7402C27 35.7402 28.6 36.7902 29.84 37.4102C29.6746 37.6746 29.5467 37.9607 29.46 38.2602Z" fill="#FF0000"/>
</svg>
