<svg width="50" height="48" viewBox="0 0 50 48" fill="none" xmlns="http://www.w3.org/2000/svg">
<path d="M45.7301 33.5002V34.9202C45.698 35.096 45.624 35.2614 45.5143 35.4024C45.4046 35.5434 45.2625 35.6559 45.1001 35.7302L28.6401 45.2602C28.1638 45.4995 27.6381 45.6241 27.1051 45.6241C26.5721 45.6241 26.0464 45.4995 25.5701 45.2602L2.2401 32.0402C2.06721 31.9658 1.917 31.8472 1.80463 31.6962C1.69226 31.5452 1.62171 31.3672 1.6001 31.1802V29.9902H2.0801L45.0801 33.4202L45.7301 33.5002Z" fill="#082A4C"/>
<path d="M45.7301 33.3406V33.9106C45.5885 34.1092 45.4039 34.2733 45.1901 34.3906L28.7201 43.9006C28.2183 44.1562 27.6632 44.2894 27.1001 44.2894C26.537 44.2894 25.9819 44.1562 25.4801 43.9006L2.1501 30.6806C1.93263 30.5646 1.74452 30.4004 1.6001 30.2006V29.6406H2.0801L45.0801 33.2506L45.7301 33.3406Z" fill="#15243E"/>
<path d="M45.0998 34.2402L30.0998 42.8701L28.5898 43.7402C28.1135 43.9794 27.5878 44.104 27.0548 44.104C26.5218 44.104 25.9961 43.9794 25.5198 43.7402L2.23979 30.5001C2.055 30.4401 1.89395 30.3231 1.77973 30.1659C1.66552 30.0087 1.604 29.8194 1.604 29.6251C1.604 29.4308 1.66552 29.2415 1.77973 29.0843C1.89395 28.9271 2.055 28.8101 2.23979 28.7501L18.6998 19.2701C19.1761 19.0308 19.7018 18.9062 20.2348 18.9062C20.7678 18.9062 21.2935 19.0308 21.7698 19.2701L37.7698 28.3202L45.0898 32.5001C45.2714 32.5613 45.4293 32.6778 45.5415 32.8331C45.6537 32.9884 45.7146 33.175 45.7157 33.3666C45.7168 33.5582 45.658 33.7454 45.5476 33.902C45.4372 34.0586 45.2806 34.1768 45.0998 34.2402Z" fill="#113C70"/>
<path d="M45.1002 34.2405L30.1002 42.8705H26.9102V28.3105H37.7302L45.0902 32.5005C45.2717 32.5618 45.4296 32.6782 45.5418 32.8336C45.654 32.9889 45.7149 33.1754 45.716 33.367C45.7171 33.5586 45.6584 33.7458 45.548 33.9024C45.4376 34.059 45.281 34.1772 45.1002 34.2405Z" fill="#495D8F"/>
<path d="M44.0901 16.8202V33.2002C44.0747 33.2635 44.0438 33.322 44.0001 33.3702C43.9266 33.4524 43.8384 33.5203 43.7401 33.5702L28.1301 42.5702C27.9173 42.683 27.6876 42.7606 27.4501 42.8002H27.2101H26.9101C26.4972 42.8099 26.0884 42.7171 25.7201 42.5302L3.78008 30.1602L3.59008 30.0602C3.46482 29.9945 3.35819 29.8982 3.28008 29.7802C3.26992 29.7409 3.26992 29.6996 3.28008 29.6602V13.9902H3.78008L6.09008 14.1502L7.96008 14.2802L9.68008 14.4002L11.0001 14.5002H11.1901L13.8501 14.6902L21.3801 15.2102H21.4901L23.1001 15.3202L28.3101 15.6802L33.0201 16.0102L36.0201 16.2202L39.9401 16.4902H40.2501L42.5401 16.6502L44.0901 16.8202Z" fill="#F0F1F3"/>
<path d="M44.09 16.8195V33.1995C44.0747 33.2628 44.0437 33.3213 44 33.3695C43.9265 33.4517 43.8383 33.5195 43.74 33.5695L28.13 42.5695C27.9172 42.6823 27.6876 42.7599 27.45 42.7995L27.21 42.5695L26.91 42.2695C24.81 40.1195 21.22 35.8495 17.46 31.2695C17.3715 31.1705 17.288 31.067 17.21 30.9595L17.13 30.8695C15.63 29.0295 14.13 27.1495 12.66 25.3295L11.26 23.5795L9.75 21.6795L7.24 18.4995L5.39 16.1195L5.1 15.7495L3.75 14.0195L6.06 14.1795L7.93 14.3095L9.65 14.4295L11 14.4995H11.19L13.85 14.6895L21.38 15.2095H21.49L23.1 15.3195L28.31 15.6795L33.02 16.0095L36.02 16.2195L39.94 16.4895H40.25L42.54 16.6495L44.09 16.8195Z" fill="#DCDFE5"/>
<path d="M45.7301 17.1198V18.4998C45.698 18.6756 45.624 18.841 45.5143 18.982C45.4046 19.123 45.2625 19.2355 45.1001 19.3098L28.6401 28.8598C28.1638 29.0991 27.6381 29.2237 27.1051 29.2237C26.5721 29.2237 26.0464 29.0991 25.5701 28.8598L2.2401 15.6398C2.06721 15.5655 1.917 15.4468 1.80463 15.2958C1.69226 15.1448 1.62171 14.9668 1.6001 14.7798V13.5898H2.0801L45.0801 17.0198L45.7301 17.1198Z" fill="#15243E"/>
<path d="M45.7301 16.9402V17.5002C45.5891 17.6993 45.4043 17.8635 45.1901 17.9802L28.7201 27.5002C28.2181 27.755 27.6631 27.8877 27.1001 27.8877C26.5371 27.8877 25.9821 27.755 25.4801 27.5002L2.1501 14.2802C1.93283 14.1639 1.74478 13.9998 1.6001 13.8002V13.2402H2.0801L45.0801 16.8502L45.7301 16.9402Z" fill="#113C70"/>
<path d="M45.0998 17.8409L35.9998 23.1209L35.6198 23.3409L31.7898 25.5009L28.6398 27.3209C28.1652 27.56 27.6412 27.6846 27.1098 27.6846C26.5784 27.6846 26.0544 27.56 25.5798 27.3209L2.23979 14.1309C2.055 14.0709 1.89395 13.9539 1.77973 13.7967C1.66552 13.6395 1.604 13.4502 1.604 13.2559C1.604 13.0616 1.66552 12.8723 1.77973 12.7151C1.89395 12.5579 2.055 12.4409 2.23979 12.3809L18.6998 2.87088C19.1759 2.63088 19.7016 2.50586 20.2348 2.50586C20.768 2.50586 21.2937 2.63088 21.7698 2.87088L37.8798 12.0009L45.0898 16.0909C45.2749 16.1498 45.4367 16.2659 45.5518 16.4224C45.6669 16.579 45.7295 16.7679 45.7306 16.9623C45.7317 17.1566 45.6713 17.3462 45.558 17.5041C45.4446 17.6619 45.2843 17.7798 45.0998 17.8409Z" fill="#113C70"/>
<path d="M45.1 17.84L36 23.12H31.79V22.5H21.5V12H37.88L45.09 16.09C45.2751 16.149 45.4369 16.265 45.552 16.4216C45.6671 16.5781 45.7297 16.7671 45.7308 16.9614C45.7319 17.1557 45.6715 17.3453 45.5582 17.5032C45.4449 17.661 45.2845 17.7789 45.1 17.84Z" fill="#495D8F"/>
<path d="M40.22 15.0291L37.67 13.5591L26.9 7.34911L22.65 4.89911C22.3006 4.72402 21.9194 4.62136 21.5293 4.5973C21.1392 4.57324 20.7483 4.62828 20.38 4.75911C20.2797 4.7939 20.1827 4.8374 20.09 4.88911L12.17 9.38911L10 8.93911V10.8591C10.0103 10.9528 10.0454 11.042 10.1016 11.1175C10.1579 11.1931 10.2333 11.2523 10.32 11.2891L14.32 13.5591C14.74 13.7991 14.74 14.1891 14.32 14.4291L13.7 14.7791L11 14.7091V16.5791C10.9973 16.6024 10.9973 16.6259 11 16.6491C11.0184 16.7309 11.0549 16.8074 11.1068 16.8732C11.1587 16.939 11.2248 16.9922 11.3 17.0291L20.54 22.3591C20.7775 22.4779 21.0394 22.5398 21.305 22.5398C21.5706 22.5398 21.8325 22.4779 22.07 22.3591L25.23 20.5691C25.4693 20.4502 25.7328 20.3883 26 20.3883C26.2672 20.3883 26.5307 20.4502 26.77 20.5691L30.92 22.9191C31.1593 23.038 31.4228 23.0999 31.69 23.0999C31.9572 23.0999 32.2207 23.038 32.46 22.9191L42 17.4991C42.146 17.4221 42.2752 17.3167 42.38 17.1891C42.4889 17.0577 42.5426 16.8893 42.53 16.7191V14.8791L40.22 15.0291Z" fill="#083356"/>
<path d="M42.3802 15.2404C42.2749 15.3674 42.1458 15.4727 42.0002 15.5504L32.4602 20.9704C32.221 21.0893 31.9574 21.1512 31.6902 21.1512C31.423 21.1512 31.1595 21.0893 30.9202 20.9704L26.7702 18.6204C26.531 18.5014 26.2674 18.4396 26.0002 18.4396C25.733 18.4396 25.4695 18.5014 25.2302 18.6204L22.0702 20.4104C21.8325 20.5284 21.5707 20.5898 21.3052 20.5898C21.0398 20.5898 20.778 20.5284 20.5402 20.4104L11.3002 15.0804C11.2204 15.0371 11.1492 14.9794 11.0902 14.9104C10.8902 14.6804 10.9702 14.3904 11.3002 14.2004L13.9202 12.7204L14.3602 12.4704C14.7802 12.2304 14.7802 11.8404 14.3602 11.6004L10.3602 9.33036C10.2696 9.29921 10.191 9.24054 10.1354 9.16256C10.0797 9.08458 10.0498 8.99116 10.0498 8.89536C10.0498 8.79956 10.0797 8.70614 10.1354 8.62816C10.191 8.55018 10.2696 8.49151 10.3602 8.46036L20.1102 2.92036C20.203 2.86892 20.3001 2.82543 20.4002 2.79036C20.7685 2.65953 21.1594 2.60449 21.5495 2.62855C21.9396 2.65261 22.3208 2.75526 22.6702 2.93036L26.9002 5.38036L37.6702 11.5904L42.0002 14.0904C42.5502 14.4004 42.6702 14.8604 42.3802 15.2404Z" fill="#113C70"/>
<path d="M31.69 20.9797C31.4536 20.9834 31.2199 20.9284 31.01 20.8197L26.86 18.4997C26.5946 18.3668 26.3018 18.2976 26.005 18.2976C25.7082 18.2976 25.4154 18.3668 25.15 18.4997L22 20.2597C21.7936 20.3684 21.5632 20.4234 21.33 20.4197C21.0901 20.4259 20.8526 20.3708 20.64 20.2597L11.4 14.9297C11.26 14.8497 11.17 14.7397 11.17 14.6397C11.17 14.5397 11.25 14.4397 11.4 14.3597L14.46 12.6297C14.5801 12.5847 14.6837 12.5041 14.7568 12.3986C14.8299 12.2932 14.8691 12.168 14.8691 12.0397C14.8691 11.9114 14.8299 11.7861 14.7568 11.6807C14.6837 11.5752 14.5801 11.4946 14.46 11.4497L10.46 9.17966C10.31 9.09966 10.23 8.98966 10.23 8.89965C10.23 8.80965 10.31 8.69966 10.46 8.61966L20.21 3.07966L20.47 2.95966C20.7648 2.85249 21.0763 2.79832 21.39 2.79966C21.8073 2.78879 22.2205 2.88519 22.59 3.07966L26.81 5.49966L41.92 14.2097C42.0217 14.2571 42.1124 14.3251 42.1865 14.4095C42.2605 14.4938 42.3162 14.5926 42.35 14.6997C42.3619 14.7688 42.3582 14.8396 42.3392 14.9071C42.3201 14.9746 42.2862 15.037 42.24 15.0897C42.1523 15.2 42.0435 15.2918 41.92 15.3597L32.38 20.7797C32.1707 20.904 31.9333 20.9728 31.69 20.9797Z" fill="#113C70"/>
<path d="M35.5799 23.3398L31.7899 25.5298H26.6299V23.3398H35.5799Z" fill="#495D8F"/>
<path d="M28.5198 23.4297V24.7297C28.5198 25.0897 27.7898 25.6097 26.6398 25.6097C25.4898 25.6097 24.7598 25.0897 24.7598 24.7297V23.4297H28.5198Z" fill="#15243E"/>
<path d="M28.5198 23.4297V23.7197C28.2746 23.9633 27.9796 24.1511 27.6552 24.2701C27.3307 24.3892 26.9843 24.4368 26.6398 24.4097C26.2951 24.4375 25.9486 24.3902 25.624 24.2711C25.2994 24.152 25.0046 23.9638 24.7598 23.7197V23.4297H28.5198Z" fill="#082A4C"/>
<path d="M28.5198 23.4305C28.4994 23.5337 28.4554 23.6307 28.3912 23.714C28.327 23.7973 28.2444 23.8646 28.1498 23.9105L28.0598 23.9705C27.6238 24.2048 27.1345 24.3219 26.6398 24.3105C25.4898 24.3105 24.7598 23.7905 24.7598 23.4405C24.7598 23.0905 25.4898 22.5705 26.6398 22.5705C27.0108 22.5664 27.3797 22.6274 27.7298 22.7505H27.8098C28.2598 22.9505 28.5198 23.2205 28.5198 23.4305Z" fill="#082A4C"/>
<path d="M28.5201 23.4298C28.4997 23.5329 28.4557 23.63 28.3915 23.7133C28.3273 23.7966 28.2447 23.8638 28.1501 23.9098H26.5801V22.7598H27.8101C28.2601 22.9498 28.5201 23.2198 28.5201 23.4298Z" fill="#495D8F"/>
<path d="M28.0602 21.4395V23.2495C28.0602 23.5195 27.5002 23.9095 26.6402 23.9095C25.7802 23.9095 25.2202 23.5195 25.2202 23.2495V21.4395H28.0602Z" fill="#15243E"/>
<path d="M28.0602 21.4395V21.6595C27.8746 21.8428 27.6518 21.9842 27.4068 22.0739C27.1618 22.1636 26.9003 22.1996 26.6402 22.1795C26.38 22.2003 26.1184 22.1646 25.8733 22.0749C25.6282 21.9851 25.4054 21.8434 25.2202 21.6595V21.4395H28.0602Z" fill="#083356"/>
<path d="M28.0602 21.4394C28.0602 21.5694 27.9402 21.7194 27.7102 21.8494C27.3777 22.0244 27.0057 22.1105 26.6302 22.0994C25.7602 22.0994 25.2002 21.7094 25.2002 21.4394C25.2002 21.1694 25.7602 20.7794 26.6302 20.7794C26.9129 20.777 27.1939 20.8244 27.4602 20.9194C27.8402 21.0594 28.0602 21.2694 28.0602 21.4394Z" fill="#082A4C"/>
<path d="M13.9199 12.7207L11.2999 14.2107C10.9599 14.4007 10.8899 14.6807 11.0899 14.9207H7.91992V12.7207H13.9199Z" fill="#495D8F"/>
<path d="M9.8098 12.8105V14.1105C9.8098 14.4705 9.0798 14.9905 7.9298 14.9905C6.7798 14.9905 6.0498 14.5005 6.0498 14.1105V12.8105H9.8098Z" fill="#082A4C"/>
<path d="M9.8098 12.8105V13.1005C9.56462 13.3441 9.26969 13.5319 8.94522 13.651C8.62075 13.7701 8.27437 13.8177 7.9298 13.7905C7.58524 13.8177 7.23887 13.7701 6.9144 13.651C6.58992 13.5319 6.295 13.3441 6.0498 13.1005V12.8105H9.8098Z" fill="#495D8F"/>
<path d="M9.8098 12.8095C9.78945 12.9127 9.74544 13.0097 9.68124 13.093C9.61704 13.1763 9.53439 13.2436 9.43981 13.2895L9.3498 13.3495C8.91292 13.5803 8.4237 13.694 7.9298 13.6795C6.7798 13.6795 6.0498 13.1595 6.0498 12.8095C6.0498 12.4595 6.7798 11.9395 7.9298 11.9395C8.2942 11.9372 8.65623 11.9981 8.9998 12.1195H9.0798C9.5498 12.3295 9.8098 12.5995 9.8098 12.8095Z" fill="#082A4C"/>
<path d="M9.81012 12.8104C9.78976 12.9136 9.74575 13.0106 9.68155 13.0939C9.61735 13.1772 9.53471 13.2444 9.44012 13.2904H7.87012V12.1504H9.10012C9.55012 12.3304 9.81012 12.6004 9.81012 12.8104Z" fill="#495D8F"/>
<path d="M9.34977 10.8301V12.6301C9.34977 12.9001 8.79977 13.2901 7.92977 13.2901C7.05977 13.2901 6.50977 12.9001 6.50977 12.6301V10.8301H9.34977Z" fill="#15243E"/>
<path d="M9.34977 10.8301V11.0501C9.16457 11.234 8.94178 11.3757 8.69667 11.4655C8.45157 11.5552 8.18995 11.5909 7.92977 11.5701C7.66958 11.5909 7.40796 11.5552 7.16286 11.4655C6.91775 11.3757 6.69496 11.234 6.50977 11.0501V10.8301H9.34977Z" fill="#113C70"/>
<path d="M9.34977 10.8298C9.34977 10.9598 9.22977 11.1098 9.00977 11.2398C8.67826 11.4183 8.30618 11.5079 7.92977 11.4998C7.05977 11.4998 6.50977 11.1098 6.50977 10.8398C6.50977 10.5698 7.05977 10.1798 7.92977 10.1798C8.21254 10.177 8.49356 10.2244 8.75977 10.3198C9.13977 10.4398 9.34977 10.6598 9.34977 10.8298Z" fill="#082A4C"/>
<path d="M37.7 15.0591C37.6734 15.2185 37.6085 15.3691 37.511 15.498C37.4135 15.6269 37.2862 15.7302 37.14 15.7991L37 15.8791C36.3332 16.2347 35.5853 16.4105 34.83 16.3891C33.08 16.3891 31.96 15.5991 31.96 15.0591C31.96 14.5191 33.08 13.7291 34.83 13.7291C35.3982 13.7204 35.9635 13.8117 36.5 13.9991H36.62C37.31 14.3191 37.7 14.7291 37.7 15.0591Z" fill="#082A4C"/>
<path d="M32.73 12.1994C32.7034 12.3588 32.6386 12.5094 32.541 12.6383C32.4435 12.7672 32.3162 12.8705 32.17 12.9394L32.03 13.0194C31.3631 13.3745 30.6153 13.5503 29.86 13.5294C28.12 13.4994 27 12.7394 27 12.1994C27 11.6594 28.12 10.8694 29.87 10.8694C30.4388 10.8637 31.0042 10.9584 31.54 11.1494H31.66C32.34 11.4994 32.73 11.8694 32.73 12.1994Z" fill="#082A4C"/>
<path d="M27.7698 9.34026C27.7432 9.49968 27.6784 9.65028 27.5808 9.77916C27.4833 9.90803 27.356 10.0114 27.2098 10.0803L27.0698 10.1603C26.4029 10.5154 25.6551 10.6912 24.8998 10.6703C23.1498 10.6703 22.0298 9.88026 22.0298 9.34026C22.0298 8.80026 23.1498 8.00026 24.8998 8.00026C25.4686 7.99432 26.034 8.08911 26.5698 8.28026H26.6898C27.3698 8.60026 27.7698 9.01026 27.7698 9.34026Z" fill="#082A4C"/>
<path d="M22.8001 6.50047C22.7735 6.65989 22.7086 6.81048 22.6111 6.93936C22.5136 7.06824 22.3863 7.17156 22.2401 7.24047L22.1001 7.32047C21.4331 7.67563 20.6854 7.85137 19.9301 7.83047C18.1801 7.83047 17.0601 7.04047 17.0601 6.50047C17.0601 5.96047 18.1801 5.17047 19.9301 5.17047C20.4982 5.16194 21.0635 5.25333 21.6001 5.44047H21.7201C22.4001 5.74047 22.8001 6.15047 22.8001 6.50047Z" fill="#082A4C"/>
<path d="M12.9802 23.3105L17.9802 26.2005L15.7102 29.1405L17.8602 30.9005L12.9802 34.7605L14.7902 30.8205L12.2402 29.3505L12.9802 23.3105Z" fill="#15243E"/>
</svg>
