<svg width="50" height="50" viewBox="0 0 50 50" fill="none" xmlns="http://www.w3.org/2000/svg">
<path d="M37.1401 17.81C37.262 17.506 37.4697 17.244 37.7377 17.0558C38.0058 16.8676 38.3228 16.7614 38.6501 16.75C39.0801 17.1 38.8301 17.81 38.8301 17.81C38.6726 18.2206 38.3891 18.5707 38.0201 18.81C37.6901 18.47 37.1401 17.81 37.1401 17.81Z" fill="#DCDFE5"/>
<path d="M38.8299 17.8093C38.6724 18.2199 38.3888 18.57 38.0199 18.8093L37.6499 18.4093C37.8833 18.2274 38.0918 18.0156 38.2699 17.7793C38.5221 17.5082 38.6584 17.1494 38.6499 16.7793C39.0799 17.0993 38.8299 17.8093 38.8299 17.8093Z" fill="#CCCCCC"/>
<path d="M8.0001 28.0501C8.78822 28.0559 9.56977 27.9064 10.3001 27.6101C10.0211 25.5918 9.4903 23.6164 8.7201 21.7301L5.3401 19.5801L3.8301 19.8601L3.6001 22.8601L4.1501 24.0001L8.0001 28.0501Z" fill="#15243E"/>
<path d="M30.4702 41C31.3486 40.9771 32.2077 40.7366 32.9702 40.3C33.1302 39.19 30.7902 34.14 30.7902 34.14L27.4302 32.75L25.4902 33.09L26.6202 37L30.4702 41Z" fill="#2D313F"/>
<path d="M4.85089 25.5382C5.07246 25.9837 5.345 26.3987 5.65289 26.7593C5.96077 27.1199 6.29795 27.419 6.64507 27.6395C6.99219 27.86 7.34243 27.9976 7.67569 28.0443C8.00895 28.091 8.31868 28.0459 8.58711 27.9117C8.85553 27.7775 9.07738 27.5567 9.23992 27.262C9.40246 26.9674 9.5025 26.6046 9.53429 26.1946C9.56608 25.7846 9.529 25.3354 9.42518 24.8727C9.32136 24.4101 9.15285 23.9431 8.92929 23.4986C8.70773 23.0531 8.43519 22.6381 8.1273 22.2775C7.81941 21.9169 7.48224 21.6178 7.13512 21.3973C6.788 21.1768 6.43776 21.0392 6.1045 20.9925C5.77124 20.9458 5.46151 20.9908 5.19308 21.1251C4.92465 21.2593 4.7028 21.4801 4.54026 21.7748C4.37772 22.0694 4.27769 22.4322 4.2459 22.8422C4.2141 23.2522 4.25118 23.7014 4.355 24.164C4.45882 24.6267 4.62734 25.0937 4.85089 25.5382Z" fill="#2D313F"/>
<path d="M5.26123 25.3301C5.43289 25.6757 5.6442 25.9976 5.88302 26.2774C6.12184 26.5571 6.38347 26.7891 6.65289 26.9602C6.9223 27.1312 7.1942 27.2379 7.45296 27.274C7.71173 27.3101 7.95226 27.2751 8.16075 27.1708C8.36925 27.0665 8.54159 26.8951 8.66789 26.6664C8.79419 26.4377 8.87196 26.1562 8.89673 25.838C8.9215 25.5198 8.89278 25.1713 8.81223 24.8124C8.73167 24.4536 8.60087 24.0914 8.42733 23.7467C8.25567 23.4011 8.04436 23.0792 7.80554 22.7995C7.56671 22.5198 7.30508 22.2877 7.03567 22.1167C6.76625 21.9457 6.49435 21.839 6.23559 21.8029C5.97682 21.7667 5.73629 21.8018 5.5278 21.906C5.31931 22.0103 5.14696 22.1817 5.02066 22.4105C4.89436 22.6392 4.8166 22.9207 4.79183 23.2389C4.76706 23.557 4.79577 23.9055 4.87633 24.2644C4.95688 24.6233 5.08768 24.9855 5.26123 25.3301Z" fill="#E6E6E6"/>
<path d="M7.24023 25.3498L7.12023 26.8698C6.87285 26.7806 6.65486 26.6249 6.49023 26.4198C6.66023 26.1398 7.06023 25.5598 7.22023 25.3398L7.24023 25.3498Z" fill="#15243E"/>
<path d="M6.87016 24.9999L6.19016 26.1999C6.19016 26.1999 6.19016 26.1999 6.14016 26.1999C5.92456 25.9862 5.76042 25.7263 5.66016 25.4399L6.82016 24.9999C6.82016 24.9999 6.89016 24.9299 6.87016 24.9999Z" fill="#15243E"/>
<path d="M6.64984 24.4605L5.50984 25.0005C5.40552 24.7567 5.34786 24.4955 5.33984 24.2305L6.65984 24.4805C6.65984 24.4805 6.67984 24.4505 6.64984 24.4605Z" fill="#15243E"/>
<path d="M6.5599 24.0502L5.2299 23.7302C5.20917 23.5407 5.20917 23.3496 5.2299 23.1602C5.5699 23.3702 6.2899 23.8602 6.5499 24.0402L6.5599 24.0502Z" fill="#15243E"/>
<path d="M6.7702 23.7095L5.7702 22.2695C5.61023 22.3779 5.4962 22.5419 5.4502 22.7295C5.8802 23.0295 6.5402 23.5295 6.8102 23.7295C6.7502 23.7695 6.79019 23.7395 6.7702 23.7095Z" fill="#15243E"/>
<path d="M7.00006 23.6897L6.06006 22.2297V22.1797H6.54006C6.64006 22.4797 6.87006 23.2597 6.99006 23.6097C7.06006 23.6997 7.00006 23.7197 7.00006 23.6897Z" fill="#15243E"/>
<path d="M7.72 23.2101L7.5 24.0801L8.1 23.8101C8.00412 23.5875 7.86859 23.3842 7.7 23.2101C7.7 23.2101 7.73 23.1901 7.72 23.2101Z" fill="#15243E"/>
<path d="M8.31992 24.1201C8.44243 24.3778 8.51698 24.6557 8.53992 24.9401L7.66992 24.4201C7.66992 24.4201 7.66992 24.3701 7.66992 24.3601L8.31992 24.0801C8.31992 24.0801 8.30992 24.1101 8.31992 24.1201Z" fill="#15243E"/>
<path d="M8.0002 26.9402C7.81785 26.9672 7.63254 26.9672 7.4502 26.9402C7.4502 26.4002 7.5302 25.6102 7.5402 25.2402H7.6002L8.0002 26.9002C8.0002 26.9002 8.0002 26.9302 8.0002 26.9402Z" fill="#15243E"/>
<path d="M8.45016 26.2792C8.44575 26.3686 8.42202 26.4561 8.38059 26.5355C8.33916 26.6149 8.28101 26.6844 8.21016 26.7392C8.21016 26.7392 8.21016 26.7392 8.16016 26.7392C8.05016 26.3792 7.77016 25.5092 7.66016 25.1492C7.66016 25.1492 7.66016 25.0992 7.72016 25.1492L8.44016 26.2992L8.45016 26.2792Z" fill="#15243E"/>
<path d="M8.5998 25.2505C8.5998 25.3405 8.5998 25.7405 8.5398 25.9605L7.7998 24.8605V24.8105L8.5898 25.2005C8.5898 25.2005 8.5998 25.2405 8.5998 25.2505Z" fill="#15243E"/>
<path d="M6.9998 24.5403C7.0798 24.7003 7.2198 24.7903 7.3198 24.7403C7.4198 24.6903 7.4298 24.5203 7.3198 24.3603C7.2098 24.2003 7.0998 24.1103 6.9998 24.1603C6.8998 24.2103 6.8998 24.3803 6.9998 24.5403Z" fill="#E6E6E6"/>
<path d="M27.3599 38.4901C28.3599 40.3601 30.0699 41.4001 31.1999 40.8001C32.3299 40.2001 32.4499 38.2001 31.4599 36.3201C30.4699 34.4401 28.7499 33.4101 27.6199 34.0001C26.4899 34.5901 26.3699 36.6101 27.3599 38.4901Z" fill="#2D313F"/>
<path d="M27.7823 38.2647C27.9649 38.6114 28.1871 38.933 28.4361 39.2112C28.6852 39.4894 28.9561 39.7186 29.2336 39.8858C29.511 40.0529 29.7894 40.1547 30.0528 40.1854C30.3163 40.216 30.5596 40.1748 30.7689 40.0643C30.9782 39.9537 31.1493 39.7758 31.2725 39.5409C31.3957 39.306 31.4685 39.0187 31.4867 38.6953C31.5049 38.3719 31.4683 38.0189 31.3788 37.6564C31.2893 37.2939 31.1488 36.9291 30.9653 36.5829C30.7827 36.2361 30.5605 35.9145 30.3115 35.6363C30.0624 35.3581 29.7915 35.1289 29.514 34.9618C29.2366 34.7946 28.9582 34.6928 28.6948 34.6622C28.4313 34.6315 28.188 34.6727 27.9787 34.7833C27.7694 34.8939 27.5983 35.0717 27.4751 35.3066C27.3519 35.5415 27.2791 35.8289 27.2609 36.1522C27.2427 36.4756 27.2793 36.8287 27.3688 37.1911C27.4583 37.5536 27.5988 37.9184 27.7823 38.2647Z" fill="#E6E6E6"/>
<path d="M29.7898 38.2407L29.6998 39.7907C29.4502 39.6949 29.2273 39.5406 29.0498 39.3407C29.2098 39.0407 29.6098 38.4507 29.7698 38.2207L29.7898 38.2407Z" fill="#15243E"/>
<path d="M29.0698 36.9305L27.7098 36.6405C27.6859 36.4479 27.6859 36.2531 27.7098 36.0605C28.0598 36.2705 28.7998 36.7505 29.0698 36.9305Z" fill="#15243E"/>
<path d="M29.5 36.5591L28.5 35.0891V35.0391H28.99C29.11 35.3491 29.36 36.1291 29.49 36.4791L29.5 36.5591Z" fill="#15243E"/>
<path d="M29.4599 35.3391L29.7699 36.6391H29.8299L29.9399 35.6391C29.8899 35.6391 29.6999 35.4491 29.5199 35.3291C29.3399 35.2091 29.4499 35.3091 29.4599 35.3391Z" fill="#15243E"/>
<path d="M30.2298 36.0496L30.0298 36.9396L30.6298 36.6496C30.5279 36.4254 30.3855 36.222 30.2098 36.0496C30.2098 36.0496 30.2298 35.9996 30.2298 36.0496Z" fill="#15243E"/>
<path d="M30.8602 36.9992C30.9902 37.2589 31.0715 37.5402 31.1002 37.8292L30.2002 37.3092C30.2002 37.3092 30.2002 37.3092 30.2002 37.2592L30.8602 36.9492V36.9992Z" fill="#15243E"/>
<path d="M30.5502 39.8299C30.3693 39.8867 30.1796 39.9104 29.9902 39.8999C29.9902 39.3499 30.0402 38.5399 30.0502 38.1699H30.1102L30.6002 39.8299C30.6002 39.8299 30.5702 39.8299 30.5502 39.8299Z" fill="#15243E"/>
<path d="M31 39.1593C30.9946 39.2489 30.9715 39.3366 30.932 39.4173C30.8925 39.498 30.8375 39.57 30.77 39.6293C30.64 39.2593 30.34 38.3793 30.23 38.0293H30.28L31 39.1393V39.1593Z" fill="#15243E"/>
<path d="M31.1701 38.1005C31.1701 38.2005 31.1701 38.6005 31.1701 38.8305H31.1101C30.8401 38.4405 30.4801 37.9305 30.3301 37.7305L31.1501 38.1005H31.1701Z" fill="#15243E"/>
<path d="M29.5098 37.4194C29.5898 37.5794 29.7398 37.6694 29.8398 37.6194C29.9398 37.5694 29.9398 37.3894 29.8398 37.2294C29.7398 37.0694 29.6098 36.9794 29.5098 37.0294C29.4098 37.0794 29.4198 37.2594 29.5098 37.4194Z" fill="#E6E6E6"/>
<path d="M2.29991 22.4098C2.85756 23.0049 3.47782 23.538 4.14991 23.9998C3.69991 22.3198 4.23991 19.1398 7.03991 21.1098C9.48991 22.8298 9.80991 26.1798 9.83991 27.3498C14.4299 29.9998 21.3399 33.9998 26.6199 36.9998C26.3299 35.1798 27.1199 32.3598 29.8899 34.2998C32.0799 35.8498 32.3599 38.6298 32.3199 40.1898C33.2399 40.6898 33.8499 40.9998 34.0399 41.0698C35.5899 41.6298 39.5299 41.2498 42.0999 39.9898C44.6699 38.7298 48.9999 36.2298 48.9999 33.7198C49.1383 31.7262 48.9147 29.7239 48.3399 27.8098C47.3172 26.0304 45.8798 24.5243 44.1499 23.4198C40.4099 20.7298 39.8499 20.4198 38.7899 19.2998C37.2993 17.7156 35.6986 16.2386 33.9999 14.8798C30.3426 12.2119 26.182 10.3136 21.7699 9.29984C21.2118 9.1561 20.6435 9.0558 20.0699 8.99984C16.1682 10.407 12.4695 12.3236 9.06991 14.6998C7.77535 14.7281 6.48336 14.8282 5.19991 14.9998C12.1999 9.85984 15.9999 9.12984 15.9399 9.09984C14.9999 8.86984 12.2499 8.46984 11.1399 8.33984C10.3799 8.41984 3.04991 12.2798 1.68991 14.1498C0.999913 15.4598 1.17991 17.6098 0.999913 18.0698C0.949148 19.6195 1.4056 21.1433 2.29991 22.4098ZM23.3899 21.7298C31.6999 18.6998 33.9999 15.3598 33.9999 15.3598C34.4499 15.7398 38.7499 19.8098 39.4799 20.6898C40.2099 21.5698 38.9699 24.0498 36.1199 26.0498C33.2699 28.0498 27.4299 29.4098 26.9499 28.3698C26.4699 27.3298 24.4199 23.3898 23.3899 21.7298ZM10.0999 16.2498C14.5199 16.2498 17.7499 18.5998 20.6099 20.7698C23.4699 22.9398 25.4299 28.3498 25.4299 28.3498C25.4299 28.3498 10.1799 18.9998 9.38991 18.4898C8.59991 17.9798 5.67991 16.2698 10.0999 16.2498Z" fill="#DCDFE5"/>
<path d="M26.6199 36.9992C21.3399 33.9992 14.4299 29.9992 9.83991 27.3592C9.83991 26.1892 9.48991 22.8392 7.03991 21.1192C4.23991 19.1192 3.69991 22.3292 4.14991 24.0092C3.47732 23.5442 2.85704 23.0077 2.29991 22.4092C1.4056 21.1427 0.949148 19.6188 0.999913 18.0692C1.07074 17.6227 1.10751 17.1714 1.10991 16.7192C1.32036 16.7289 1.52995 16.6866 1.7201 16.5958C1.91024 16.5051 2.07505 16.3689 2.19991 16.1992C2.19991 16.1992 6.60991 18.4692 8.74991 19.7592C10.8899 21.0492 20.9199 27.1492 24.9999 29.5892C27.8828 31.2794 30.643 33.1708 33.2599 35.2492C33.8999 37.0092 34.7099 37.8292 38.6499 37.4892C42.5899 37.1492 46.9299 33.7892 48.0099 32.4892C48.4727 31.9428 48.7832 31.284 48.9099 30.5792C48.9899 31.4992 49.0099 32.5292 48.9999 33.6692C48.9999 36.1792 44.6799 38.6692 42.0999 39.9392C39.5199 41.2092 35.5899 41.6292 33.9999 41.0692C33.8099 40.9992 33.1999 40.6892 32.2799 40.1892C32.2799 38.6292 32.0399 35.8492 29.8499 34.2992C27.1199 32.3592 26.3299 35.1792 26.6199 36.9992Z" fill="#B3B7C4"/>
<path d="M3.99995 21.3503C4.19995 20.4903 4.87995 19.8103 6.34995 20.2603C10.0899 21.5003 10.4099 26.8803 10.4099 26.8803C10.4099 26.8803 25.2299 35.4203 26.27 36.0003C26.21 35.5703 26.27 32.5903 29.07 33.4003C31.8699 34.2103 32.71 37.4003 32.81 37.9903C33.29 38.4003 34.81 38.9903 37.88 38.7303C40.95 38.4703 44.1 36.6303 46.47 35.0403C47.4878 34.3625 48.3501 33.4763 49 32.4403V33.7203C49 36.2303 44.6799 38.7203 42.0999 39.9903C39.52 41.2603 35.59 41.6303 34 41.0703C33.81 41.0003 33.1999 40.6903 32.2799 40.1903C32.2799 38.6303 32.04 35.8503 29.85 34.3003C27.08 32.3603 26.2899 35.1803 26.58 37.0003C21.2999 34.0003 14.3899 30.0003 9.79995 27.3603C9.79995 26.1903 9.44995 22.8403 6.99995 21.1203C4.19995 19.1203 3.65995 22.3303 4.10995 24.0103C3.43735 23.5453 2.81707 23.0088 2.25995 22.4103C1.3798 21.1389 0.93751 19.6154 0.99995 18.0703C1.12995 19.7803 3.22995 20.8203 3.99995 21.3503Z" fill="#999FB0"/>
<path d="M12.4799 28.8903L12.3599 28.8203L12.4799 28.8903Z" fill="#DCDFE5"/>
<path d="M16.0001 30.9394L15.8701 30.8594L16.0001 30.9394Z" fill="#DCDFE5"/>
<path d="M15.09 30.3901L15 30.3301L15.09 30.3901Z" fill="#DCDFE5"/>
<path d="M10.3999 26.8805C10.3999 26.8805 11.2899 26.3505 11.8199 26.6305C12.3499 26.9105 22.5799 32.7405 24.2699 33.7205C25.2041 34.1961 25.9201 35.0122 26.2699 36.0005C25.2299 35.4205 10.3999 26.8805 10.3999 26.8805Z" fill="#DCDFE5"/>
<path d="M36.0898 26.0503C38.9398 24.0503 40.1798 21.5803 39.4498 20.6903L39.8798 20.3203C40.2098 20.5803 40.5998 20.8703 41.1298 21.2603C43.1298 23.5603 47.2198 28.3203 47.2198 30.0203C45.3198 33.0203 41.2198 34.3803 39.2198 34.9103C38.2198 33.7903 30.0598 29.9103 27.5898 28.7003C29.3598 28.9103 33.7398 27.6903 36.0898 26.0503Z" fill="#F0F1F3"/>
<path d="M39.2598 34.9102C38.2859 35.1893 37.2691 35.2876 36.2598 35.2002C34.5898 35.0402 33.6098 34.7802 33.2598 35.2002C33.5398 36.5302 35.2598 37.0202 36.3798 37.0202C37.6752 36.9529 38.953 36.69 40.1698 36.2402C39.8305 35.8225 39.5261 35.3777 39.2598 34.9102Z" fill="#B3B7C4"/>
<path d="M42.4398 36.3998L42.0698 36.5698C41.7678 36.7197 41.4268 36.7724 41.0937 36.7204C40.7606 36.6685 40.4518 36.5145 40.2098 36.2798C39.8682 35.8462 39.5638 35.3845 39.2998 34.8998C41.2298 34.3698 45.3598 33.0098 47.2998 30.0098C47.4766 30.7142 47.5838 31.4343 47.6198 32.1598C47.5963 32.5854 47.4655 32.9982 47.2398 33.3598C45.7861 34.5875 44.1711 35.6103 42.4398 36.3998Z" fill="#2D313F"/>
<path d="M47.2202 29.9998C47.6764 29.1748 47.978 28.2733 48.1102 27.3398C48.1986 27.4836 48.2755 27.6341 48.3402 27.7898C48.4871 28.183 48.6008 28.5877 48.6802 28.9998C48.6164 30.1541 48.2205 31.2653 47.5402 32.1998C47.5075 31.4576 47.4003 30.7206 47.2202 29.9998Z" fill="#F0F1F3"/>
<path d="M39.2598 40.9398C39.7498 40.4298 41.6898 37.7198 41.6898 37.7198C43.3657 36.9667 44.9662 36.0559 46.4698 34.9998C46.6698 34.8598 46.8598 34.7298 47.0298 34.5898C47.4872 34.8807 48.0025 35.0684 48.5398 35.1398C47.3598 37.1398 44.1798 38.9298 42.0998 39.9498C41.1953 40.3903 40.242 40.7226 39.2598 40.9398Z" fill="#15243E"/>
<path d="M37.88 38.7305C38.3983 38.6813 38.9127 38.5978 39.42 38.4805C39.42 38.4805 38.89 39.7405 38.09 40.0605C36.8585 40.3758 35.5758 40.4371 34.32 40.2405C34.05 40.0905 34.64 39.1305 34.93 38.7005C35.9098 38.8091 36.8981 38.8191 37.88 38.7305Z" fill="#15243E"/>
<path d="M48.9999 33.7195C48.9244 33.8751 48.8181 34.0139 48.6875 34.1273C48.5569 34.2407 48.4046 34.3265 48.2399 34.3795C48.1199 34.4005 47.9963 34.3804 47.8891 34.3223C47.782 34.2642 47.6977 34.1715 47.6499 34.0595C48.168 33.58 48.6218 33.0355 48.9999 32.4395V33.7195Z" fill="#15243E"/>
<path d="M39.7398 40.3596C45.6698 38.3596 48.1098 35.0996 48.1098 35.0996C48.2513 35.1353 48.3949 35.162 48.5398 35.1796C47.3598 37.1796 44.1798 38.9696 42.0998 39.9896C41.1935 40.4163 40.2403 40.7352 39.2598 40.9396C39.4301 40.755 39.5903 40.5614 39.7398 40.3596Z" fill="#DCDFE5"/>
<path d="M36.2498 35.2002C37.2591 35.2876 38.2759 35.1893 39.2498 34.9102C39.5138 35.3949 39.8182 35.8566 40.1598 36.2902C39.9998 36.3602 39.7998 36.4202 39.5798 36.4902C39.4875 36.274 39.3323 36.0907 39.1343 35.964C38.9363 35.8374 38.7048 35.7733 38.4698 35.7802C37.7398 35.7802 34.7598 35.7802 33.5698 35.0402C34.4663 34.976 35.3673 35.0298 36.2498 35.2002Z" fill="white"/>
<path d="M37.1398 36.9997C36.8866 37.0133 36.6329 37.0133 36.3798 36.9997C35.2298 36.9997 33.5398 36.5097 33.2598 35.1797C33.9081 35.6109 34.6249 35.9288 35.3798 36.1197C36.0252 36.2767 36.6269 36.5775 37.1398 36.9997Z" fill="#E6E6E6"/>
<path d="M48.34 27.8097C48.4859 28.1963 48.5996 28.5944 48.68 28.9997C48.6176 30.0705 48.2726 31.1056 47.68 31.9997C47.6318 31.1227 47.7751 30.2457 48.1 29.4297C48.2209 28.7685 48.2209 28.0909 48.1 27.4297C48.1888 27.5506 48.269 27.6776 48.34 27.8097Z" fill="#E6E6E6"/>
<path d="M1.14014 16.7205C1.17031 16.0755 1.2675 15.4354 1.43014 14.8105C1.69014 15.0605 1.98014 15.3305 2.15014 15.4605C2.25585 15.5501 2.32311 15.6768 2.338 15.8146C2.35289 15.9523 2.31427 16.0905 2.23014 16.2005C2.10527 16.3702 1.94046 16.5065 1.75032 16.5972C1.56018 16.6879 1.35058 16.7303 1.14014 16.7205Z" fill="#FF0000"/>
<path d="M11.1398 8.33984C12.2498 8.46984 14.9998 8.86984 15.9398 9.09984C16.0398 9.09984 12.1998 9.85984 5.19982 14.9598C5.19982 14.9598 3.46982 14.2098 2.06982 13.7198C4.06982 11.7498 10.4298 8.40984 11.1398 8.33984Z" fill="#F0F1F3"/>
<path d="M5.2002 14.9994C12.2002 9.85936 16.0002 9.12937 15.9402 9.09937C17.3102 8.93037 18.6936 8.89688 20.0702 8.99937C16.1685 10.4065 12.4698 12.3231 9.0702 14.6994C7.77563 14.7276 6.48364 14.8277 5.2002 14.9994Z" fill="#15243E"/>
<path d="M36.0901 26.0498C33.2401 28.0498 27.4001 29.4098 26.9201 28.3698C26.8401 28.1998 26.7201 27.9398 26.5601 27.6298C28.6901 24.5298 30.5601 24.4898 32.7601 24.0798C34.7601 23.6998 38.1801 20.9698 39.0501 20.2598C39.2301 20.4398 39.3601 20.5898 39.4501 20.6898C40.1801 21.5798 38.9401 24.0498 36.0901 26.0498Z" fill="#495D8F"/>
<path d="M30.74 21.3199C30.934 20.3195 30.8651 19.2858 30.54 18.3199C31.3196 17.8253 32.0616 17.2738 32.76 16.6699L39.05 20.2999C37.9197 21.2245 36.7342 22.0794 35.5 22.8599C34 21.3999 32.23 21.3699 30.74 21.3199Z" fill="#495D8F"/>
<path d="M38.4801 20.7109L32.1001 17.1709C32.3501 16.9809 32.5701 16.7909 32.7601 16.6309L39.0501 20.2609L38.4801 20.7109Z" fill="#113C70"/>
<path d="M35.5002 22.8207C34.0102 21.4007 32.2302 21.3707 30.7402 21.3207C30.8126 20.7906 30.8393 20.2553 30.8202 19.7207C31.6622 20.2644 32.5448 20.7425 33.4602 21.1507C33.7202 21.1507 34.6302 19.9107 35.2602 20.2307C35.7102 20.4607 36.8802 21.1007 37.5202 21.4507C36.9102 21.8907 36.2102 22.3807 35.5002 22.8207Z" fill="#113C70"/>
<path d="M26.2099 20.59C27.7295 19.927 29.1941 19.1446 30.5899 18.25H30.5399C30.865 19.2159 30.9339 20.2495 30.7399 21.25L27.3299 23.25C26.7217 22.8717 26.0659 22.5758 25.3799 22.37C25.3937 22.0332 25.4742 21.7024 25.6166 21.3969C25.7591 21.0914 25.9607 20.8171 26.2099 20.59Z" fill="#083356"/>
<path d="M32.7601 24.0791C31.7993 24.2062 30.8521 24.4205 29.9301 24.7191L27.3301 23.2891L30.7401 21.2891C32.2301 21.3391 34.0101 21.3691 35.5001 22.7891C34.6646 23.3681 33.7387 23.8041 32.7601 24.0791Z" fill="#082A4C"/>
<path d="M35.5 22.8202L35.76 22.6602L35.5 22.8202Z" fill="#082A4C"/>
<path d="M25.3802 22.4102C26.0662 22.616 26.722 22.9119 27.3302 23.2902L28.0402 23.6802L25.3202 25.2102C24.9502 24.5002 24.5602 23.7702 24.2002 23.1202L25.3802 22.4102Z" fill="#495D8F"/>
<path d="M27.4298 26.5097L25.3198 25.2097L27.9998 23.6797L29.8898 24.6797C28.9325 25.0792 28.0878 25.7076 27.4298 26.5097Z" fill="#113C70"/>
<path d="M36.0898 26.0495C33.2398 28.0495 27.3998 29.4095 26.9198 28.3695C26.8841 28.2841 26.844 28.2007 26.7998 28.1195C29.0598 28.5195 34.0798 27.1195 36.8498 24.9395C39.6198 22.7595 39.4498 20.6895 39.4498 20.6895C40.1798 21.5795 38.9398 24.0495 36.0898 26.0495Z" fill="#15243E"/>
<path d="M27.4298 26.5109C27.1197 26.8682 26.8292 27.2421 26.5598 27.6309C26.2498 27.0009 25.7998 26.1209 25.3198 25.2109L27.4298 26.5109Z" fill="#082A4C"/>
<path d="M24.2002 23.1202L25.3802 22.4102C25.8706 22.5358 26.3415 22.7275 26.7802 22.9802L24.7802 24.1102L24.2002 23.1202Z" fill="#15243E"/>
<path d="M25.4299 28.3507L21.8799 26.1707L23.8799 24.9707C24.4729 26.0608 24.9908 27.1901 25.4299 28.3507Z" fill="#111F33"/>
<path d="M18.4998 20.0807C18.4998 20.0807 18.4998 19.5407 18.4998 19.2207C19.2298 19.7307 19.9298 20.2207 20.6098 20.7707C21.965 21.9542 23.0758 23.3912 23.8798 25.0007L21.8798 26.2007L18.0498 23.8507C18.0498 23.2907 17.8398 21.2007 17.8398 20.9407C17.8398 20.6807 18.4798 20.1607 18.4998 20.0807Z" fill="#15243E"/>
<path d="M17.79 18.7497C17.48 20.0097 16.99 22.8097 16.93 23.1297L15.71 22.3897C16.03 21.2997 16.66 18.9397 16.86 18.1797C17.18 18.3597 17.49 18.5497 17.79 18.7497Z" fill="#2D313F"/>
<path d="M16.9302 23.13C16.9902 22.81 17.4802 20.01 17.7902 18.75L18.5002 19.22C18.5002 19.54 18.5002 20.03 18.5002 20.08C18.5002 20.13 17.8402 20.61 17.8402 20.91C17.8402 21.21 18.0102 23.26 18.0502 23.82L16.9302 23.13Z" fill="#172233"/>
<path d="M25.3801 22.4102L24.2001 23.1202C23.8901 22.5702 23.6001 22.0702 23.3701 21.6902C24.4501 21.2902 25.4301 20.8902 26.3201 20.4902L26.1901 20.5502C25.935 20.7883 25.7315 21.0763 25.5922 21.3962C25.4529 21.7162 25.3807 22.0613 25.3801 22.4102Z" fill="#495D8F"/>
<path d="M11.3399 17.5995C11.8699 17.3795 12.9099 17.0295 13.6799 16.7695C14.7896 17.1183 15.8564 17.5913 16.8599 18.1795C16.6599 18.9395 16.0299 21.2995 15.7099 22.3895L10.7099 19.2995C10.6599 18.8095 10.6799 17.8695 11.3399 17.5995Z" fill="#15243E"/>
<path d="M13.7998 16.8105L13.9698 16.8605L13.7998 16.8105Z" fill="#111F33"/>
<path d="M10.1001 16.2503C11.3129 16.2417 12.5199 16.4171 13.6801 16.7703C12.9101 17.0303 11.8701 17.3803 11.3401 17.6003C10.8101 17.8203 10.6601 18.8103 10.7001 19.3003L9.3901 18.4903C8.6101 18.0003 5.6801 16.2703 10.1001 16.2503Z" fill="#111F33"/>
<path d="M9.68994 18.6795L10.8899 16.2695H11.2399L10.0899 18.8995L9.68994 18.6795Z" fill="#2D313F"/>
<path d="M20.07 9C20.6433 9.05267 21.2117 9.14963 21.77 9.29C26.1418 10.2845 30.2676 12.1518 33.9 14.78L33.97 15.36C33.97 15.36 31.7 18.7 23.39 21.73C23.39 21.73 19.15 16.04 9.04 14.73H9C12.4197 12.3378 16.1423 10.4109 20.07 9Z" fill="#15243E"/>
<path d="M34.0001 15.3594C34.0001 15.3594 38.1401 19.2094 39.0801 20.2594L38.5101 20.7094L38.0001 20.4694C38.0001 20.4694 34.7601 16.9494 33.6001 15.7694L34.0001 15.3594Z" fill="#15243E"/>
<path d="M25.3502 28.4696C25.2002 28.3796 10.0902 19.1196 9.35018 18.6196L9.22018 18.5396C8.36018 17.9896 7.46018 17.3596 7.62018 16.7896C7.78018 16.2196 8.56018 16.0996 10.1402 16.0996H10.2102C14.7602 16.0996 18.0702 18.6196 20.7402 20.6496C23.6002 22.8196 25.5302 28.0696 25.6102 28.2896L25.7602 28.6996L25.3502 28.4696ZM10.1002 16.3996C8.21018 16.3996 7.92018 16.7296 7.87018 16.8696C7.76018 17.2796 8.87018 18.0096 9.35018 18.2796L9.48018 18.3696C10.1802 18.8196 22.7502 26.5296 25.1302 27.9796C24.6002 26.6796 22.8402 22.6596 20.5202 20.8896C17.8902 18.8896 14.6202 16.3996 10.1702 16.3996H10.1002Z" fill="white"/>
<path d="M17.0902 24.5703C17.0925 24.6447 17.1117 24.7175 17.1464 24.7834C17.181 24.8492 17.2302 24.9063 17.2902 24.9503C17.5728 25.1556 17.8703 25.3394 18.1802 25.5003C18.3333 25.5133 18.4872 25.5133 18.6402 25.5003V25.8003C18.4599 25.8469 18.2706 25.8469 18.0902 25.8003C17.7327 25.6275 17.397 25.4126 17.0902 25.1603C17.0389 24.967 17.0389 24.7636 17.0902 24.5703Z" fill="#999FB0"/>
<path d="M18.1799 25.5003C17.8699 25.3394 17.5724 25.1556 17.2899 24.9503C17.2408 24.9177 17.1993 24.875 17.1683 24.8249C17.1372 24.7749 17.1173 24.7187 17.1099 24.6603V24.5703L18.6599 25.4603C18.5014 25.4879 18.3407 25.5013 18.1799 25.5003Z" fill="#F0F1F3"/>
<path d="M8.72992 19.6309C8.73241 19.7041 8.75068 19.776 8.78346 19.8416C8.81625 19.9072 8.86279 19.9649 8.91992 20.0109C9.20566 20.2166 9.50651 20.4004 9.81992 20.5609C9.96965 20.5735 10.1202 20.5735 10.2699 20.5609V20.8609C10.0902 20.9123 9.89965 20.9123 9.71992 20.8609C9.36257 20.6916 9.02684 20.4801 8.71992 20.2309C8.66175 20.0346 8.66524 19.8251 8.72992 19.6309Z" fill="#999FB0"/>
<path d="M9.82023 20.5609C9.50683 20.4004 9.20598 20.2166 8.92023 20.0109C8.82601 19.9402 8.76177 19.8367 8.74023 19.7209V19.6309L10.2802 20.5209C10.1283 20.5474 9.97443 20.5608 9.82023 20.5609Z" fill="#F0F1F3"/>
<path d="M31.0001 19.2609C30.0096 19.5943 29.0953 20.1212 28.3101 20.8109C28.2872 20.8521 28.274 20.8979 28.2715 20.9449C28.2689 20.9919 28.2771 21.0389 28.2954 21.0822C28.3137 21.1256 28.3417 21.1643 28.3771 21.1952C28.4126 21.2262 28.4547 21.2486 28.5001 21.2609C29.3841 20.8667 30.2224 20.3771 31.0001 19.8009C31.1801 19.5409 31.1201 19.2109 31.0001 19.2609Z" fill="#15243E"/>
<path d="M23.8398 25.5801C23.4251 25.3977 22.9649 25.3454 22.5198 25.4301C22.2392 25.4807 21.9727 25.5908 21.7381 25.753C21.5036 25.9151 21.3064 26.1255 21.1598 26.3701C21.0598 26.6801 21.4098 26.8601 21.5398 26.9301C21.6698 27.0001 23.7998 26.8801 23.7998 26.8801C23.9604 26.7037 24.0527 26.4758 24.06 26.2375C24.0674 25.9991 23.9893 25.7659 23.8398 25.5801Z" fill="url(#paint0_linear)"/>
<path d="M21.1401 26.4499C22.0401 26.3799 24.0301 26.1699 24.0601 26.1699C24.0737 26.3003 24.0574 26.432 24.0123 26.555C23.9673 26.6781 23.8947 26.7892 23.8001 26.8799C23.8001 26.8799 21.6601 26.9899 21.5401 26.9299C21.4201 26.8699 21.1201 26.7099 21.1401 26.4499Z" fill="url(#paint1_radial)"/>
<path d="M32.8001 14C25.6293 14.4852 18.4277 14.2272 11.3101 13.23C14.0655 11.5018 17.0033 10.0832 20.0701 9C20.6434 9.05267 21.2117 9.14963 21.7701 9.29C25.7036 10.1731 29.4419 11.7694 32.8001 14Z" fill="#111F33"/>
<path d="M39.6299 35.5396C41.3611 35.0645 43.0075 34.3223 44.5099 33.3396C45.6759 32.6886 46.6515 31.744 47.3399 30.5996C47.3399 30.7296 47.3399 30.8896 47.4199 31.0796C46.6921 32.1014 45.7589 32.9597 44.6799 33.5996C43.1776 34.5806 41.5357 35.329 39.8099 35.8196L39.6299 35.5396Z" fill="#B3B7C4"/>
<path d="M40.1699 36.3004C41.8248 35.8014 43.3981 35.0636 44.8399 34.1104C45.8779 33.4746 46.7788 32.6383 47.4899 31.6504C47.4899 31.7904 47.4899 31.9504 47.4899 32.1204C46.7926 33.0053 45.9507 33.766 44.9999 34.3704C43.6025 35.3022 42.0809 36.0327 40.4799 36.5404C40.3669 36.4737 40.2628 36.3931 40.1699 36.3004Z" fill="#B3B7C4"/>
<path d="M28.2001 24.7209C28.9001 24.5509 29.2001 24.7209 29.3801 24.9709C29.1371 25.0903 28.9032 25.2273 28.6801 25.3809C28.5508 25.3984 28.4236 25.4286 28.3001 25.4709C27.4666 25.886 26.8203 26.6002 26.4901 27.4709L26.1401 26.7709C26.5353 25.8465 27.2738 25.1115 28.2001 24.7209Z" fill="#495D8F"/>
<defs>
<linearGradient id="paint0_linear" x1="21.1398" y1="26.1701" x2="24.0598" y2="26.1701" gradientUnits="userSpaceOnUse">
<stop stop-color="#B8BABC"/>
<stop offset="1" stop-color="#E4E4E5"/>
</linearGradient>
<radialGradient id="paint1_radial" cx="0" cy="0" r="1" gradientUnits="userSpaceOnUse" gradientTransform="translate(22.6001 26.5599) scale(1.07)">
<stop stop-color="#EBEBEC"/>
<stop offset="0.51" stop-color="#CED0D5"/>
<stop offset="0.99" stop-color="#9AA1AD"/>
</radialGradient>
</defs>
</svg>
