<svg width="50" height="50" viewBox="0 0 50 50" fill="none" xmlns="http://www.w3.org/2000/svg">
<path d="M2.53996 24.1105C2.58899 24.5212 2.73172 24.9151 2.95712 25.2618C3.18251 25.6086 3.48456 25.899 3.83996 26.1105C3.83996 25.6005 3.88996 22.1605 6.98996 23.7305C10.09 25.3005 9.90996 29.8005 9.90996 29.8005L24.77 38.5005C24.7046 37.6885 24.8207 36.8721 25.11 36.1105C25.78 35.0605 27.5 35.2205 29.16 37.1105C29.7266 37.761 30.1489 38.5243 30.3988 39.3499C30.6488 40.1756 30.7207 41.045 30.61 41.9005C31.1185 42.2803 31.6991 42.5524 32.3164 42.7003C32.9336 42.8482 33.5745 42.8686 34.2 42.7605C37.1751 42.2647 40.0351 41.2311 42.64 39.7105C44.4479 38.5939 46.1048 37.2495 47.57 35.7105C47.7448 35.5264 47.8739 35.3037 47.9468 35.0606C48.0198 34.8174 48.0346 34.5604 47.99 34.3105C47.8605 32.4588 47.3856 30.6476 46.59 28.9705C45.132 27.0302 43.5309 25.2018 41.8 23.5005C40.69 22.2605 35.35 16.6305 34.05 15.8305C29.7523 12.9936 25.1291 10.6837 20.28 8.9505C18.9113 8.43009 17.413 8.35658 16 8.7405C13.7777 9.44024 11.6814 10.4901 9.78996 11.8505C8.20996 13.0705 4.99996 15.6905 3.27996 17.2505C1.55996 18.8105 2.41996 22.9805 2.53996 24.1105ZM22.03 23.1105C24.33 22.7505 32.36 19.7505 34.03 16.2305C36.1 18.2305 41.19 23.5605 41.19 23.5605C41.19 23.5605 41.25 26.3605 37.33 28.5605C33.41 30.7605 30.11 31.1705 28.51 30.8905C27.52 30.4105 25 26.4105 22 23.1305L22.03 23.1105ZM8.89996 17.4205C11.4511 18.2241 13.8878 19.3534 16.15 20.7805C23.01 25.0605 24.27 28.3105 24.89 29.3705C25.51 30.4305 25.36 30.8605 24.61 30.6305C23.86 30.4005 19 27.5805 17 26.4105C14.8956 25.1771 12.8896 23.7829 11 22.2405C8.84996 20.4205 8.47996 17.5005 8.89996 17.4205Z" fill="#F0F1F3"/>
<path d="M2.53977 24.1095C2.58881 24.5201 2.73153 24.914 2.95693 25.2608C3.18233 25.6076 3.48438 25.8979 3.83977 26.1095C3.83977 25.5995 3.88977 22.1595 6.98977 23.7295C10.0898 25.2995 9.90977 29.7995 9.90977 29.7995L24.7698 38.4995C24.7044 37.6874 24.8205 36.871 25.1098 36.1095C25.7798 35.0595 27.4998 35.2195 29.1598 37.1095C29.7264 37.7599 30.1487 38.5232 30.3986 39.3489C30.6486 40.1746 30.7205 41.0439 30.6098 41.8995C31.1183 42.2792 31.6989 42.5514 32.3162 42.6992C32.9334 42.8471 33.5743 42.8676 34.1998 42.7595C37.1749 42.2636 40.0349 41.2301 42.6398 39.7095C44.4477 38.5928 46.1046 37.2485 47.5698 35.7095C47.7446 35.5253 47.8737 35.3027 47.9466 35.0595C48.0196 34.8163 48.0344 34.5594 47.9898 34.3095C47.8603 32.4577 47.3854 30.6465 46.5898 28.9695C46.3398 28.5995 46.0498 28.2095 45.7198 27.8095C45.839 28.592 45.7901 29.391 45.5763 30.1531C45.3625 30.9153 44.9887 31.6231 44.4798 32.2295C42.3604 34.4263 39.5569 35.8369 36.5298 36.2295C33.7598 36.5595 32.8098 35.9195 32.0498 35.2295C31.2898 34.5395 28.9998 31.4995 28.1198 30.5495C26.9098 29.4995 24.6698 26.0095 21.9998 23.1295C21.9998 23.1295 13.2998 17.3595 7.88977 15.8495C7.45618 16.3087 6.92394 16.6634 6.33322 16.8869C5.74251 17.1103 5.10875 17.1967 4.47977 17.1395C4.5373 16.6173 4.72655 16.1184 5.02977 15.6895C4.35977 16.2595 3.73977 16.7995 3.24977 17.2495C1.57977 18.7995 2.41977 22.9795 2.53977 24.1095ZM8.89977 17.4195C11.4509 18.223 13.8876 19.3524 16.1498 20.7795C23.0098 25.0595 24.2698 28.3095 24.8898 29.3695C25.5098 30.4295 25.3598 30.8595 24.6098 30.6295C23.8598 30.3995 18.9998 27.5795 16.9998 26.4095C14.8954 25.176 12.8894 23.7819 10.9998 22.2395C8.84977 20.4195 8.47977 17.4995 8.89977 17.4195Z" fill="#DCDFE5"/>
<path d="M8.66984 29.069L3.83984 26.129C3.83984 25.619 3.88984 22.179 6.98984 23.749C10.0898 25.319 9.90984 29.819 9.90984 29.819C9.18374 30.3672 8.27271 30.6111 7.36984 30.499L8.36984 29.709L8.66984 29.069Z" fill="#082A4C"/>
<path d="M25.1102 36.06C25.7802 35.01 27.5002 35.17 29.1602 37.06C29.872 37.8387 30.3503 38.8021 30.5402 39.84C30.5402 39.95 30.5402 40.07 30.5902 40.18C30.6255 40.4854 30.6422 40.7926 30.6402 41.1V41.36C30.6402 41.44 30.6402 41.52 30.6402 41.59V41.64C30.6402 41.7 30.6402 41.76 30.6402 41.82C30.7921 41.9413 30.9525 42.0516 31.1202 42.15C30.2393 42.6337 29.2245 42.8163 28.2302 42.67L29.7502 41.31L24.7702 38.5C24.6972 37.6714 24.8135 36.8371 25.1102 36.06Z" fill="#082A4C"/>
<path d="M25.6198 40.6997C26.5498 42.3097 28.2098 43.0997 29.3198 42.4597C30.4298 41.8197 30.5798 39.9897 29.6498 38.3697C28.7198 36.7497 27.0598 35.9697 25.9498 36.6197C24.8398 37.2697 24.6898 39.0797 25.6198 40.6997Z" fill="#2D313F"/>
<path d="M26.11 40.4191C26.76 41.5591 27.95 42.0991 28.76 41.6291C29.57 41.1591 29.69 39.8591 29.04 38.7291C28.39 37.5991 27.19 37.0391 26.38 37.4991C25.57 37.9591 25.45 39.2791 26.11 40.4191Z" fill="#2D313F"/>
<path d="M26 40.5003C25.32 39.3203 25.46 37.9703 26.31 37.5003C26.5351 37.3821 26.7856 37.3203 27.04 37.3203C27.2943 37.3203 27.5448 37.3821 27.77 37.5003C28.3217 37.7721 28.7783 38.2044 29.08 38.7403C29.4015 39.2683 29.5485 39.8841 29.5 40.5003C29.4924 40.7558 29.4218 41.0054 29.2945 41.227C29.1671 41.4486 28.9869 41.6353 28.77 41.7703C28.5622 41.8859 28.3276 41.9445 28.09 41.9403C27.6481 41.8971 27.2245 41.7422 26.859 41.4903C26.4934 41.2384 26.1978 40.8978 26 40.5003ZM26.39 37.6203C25.63 38.0703 25.52 39.3203 26.15 40.4203C26.78 41.5203 28 42.0003 28.72 41.5603C28.9126 41.4373 29.0724 41.2692 29.1857 41.0706C29.2989 40.872 29.3622 40.6488 29.37 40.4203C29.4183 39.8454 29.2892 39.2696 29 38.7703C28.7231 38.2583 28.293 37.8457 27.77 37.5903C27.5508 37.4875 27.3121 37.4329 27.07 37.4303C26.8437 37.4205 26.619 37.4724 26.42 37.5803L26.39 37.6203Z" fill="#B3B7C4"/>
<path d="M29.4601 40.1991L28.1101 39.9091L29.1101 41.3791C29.0233 41.4811 28.9182 41.5659 28.8001 41.6291C28.6211 41.7352 28.418 41.7937 28.2101 41.7991L27.5401 40.1191L26.7201 41.1191C26.4955 40.9049 26.3035 40.659 26.1501 40.3891L27.1501 39.4991L25.8501 38.2191C25.9524 37.9208 26.1581 37.6689 26.4301 37.5091L27.3301 38.6291V37.3691C27.5818 37.413 27.8229 37.5046 28.0401 37.6391L28.0001 39.2091L29.2101 39.1591C29.3585 39.4868 29.4434 39.8398 29.4601 40.1991Z" fill="#E6E6E6"/>
<path d="M29.4 39.6697H27.77L28.77 41.6697L28.63 41.7397L27.63 39.7397L26.41 40.8597C26.3711 40.8172 26.3375 40.7702 26.31 40.7197L27.53 39.5997L26 37.8597L26.1 37.7297L27.55 39.3497V37.4297L27.71 37.4997V39.4997H29.36C29.36 39.4997 29.39 39.6097 29.4 39.6697Z" fill="#3D4154"/>
<path d="M27.24 39.7597C27.1696 39.6617 27.1379 39.5412 27.1508 39.4213C27.1637 39.3013 27.2204 39.1904 27.31 39.1097C27.358 39.0851 27.4111 39.0723 27.465 39.0723C27.5189 39.0723 27.572 39.0851 27.62 39.1097C27.7364 39.1723 27.8332 39.2657 27.9 39.3797C27.9671 39.4946 27.9984 39.6269 27.99 39.7597C27.9898 39.8137 27.976 39.8667 27.9497 39.9139C27.9235 39.9612 27.8858 40.001 27.84 40.0297C27.7909 40.0433 27.7391 40.0433 27.69 40.0297C27.5989 40.024 27.5104 39.9965 27.4321 39.9495C27.3538 39.9025 27.2879 39.8374 27.24 39.7597Z" fill="#E6E6E6"/>
<path d="M27.4101 39.6594C27.3692 39.6182 27.3462 39.5625 27.3462 39.5044C27.3462 39.4463 27.3692 39.3906 27.4101 39.3494C27.4338 39.3392 27.4593 39.334 27.4851 39.334C27.5109 39.334 27.5364 39.3392 27.5601 39.3494C27.6148 39.3796 27.6599 39.4246 27.6901 39.4794C27.7085 39.538 27.7085 39.6008 27.6901 39.6594C27.6917 39.6855 27.686 39.7114 27.6736 39.7344C27.6612 39.7574 27.6427 39.7764 27.6201 39.7894H27.5501C27.4901 39.7631 27.4407 39.7173 27.4101 39.6594Z" fill="#082A4C"/>
<path d="M4.75998 28.5005C5.68998 30.1105 7.34998 30.9005 8.45998 30.2605C9.56998 29.6205 9.70998 27.7905 8.77998 26.1705C7.84998 24.5505 6.19998 23.7705 5.08998 24.4205C3.97998 25.0705 3.82998 26.8705 4.75998 28.5005Z" fill="#2D313F"/>
<path d="M5.24744 28.2055C5.40372 28.4761 5.59632 28.7223 5.81425 28.9299C6.03218 29.1375 6.27117 29.3025 6.51758 29.4154C6.76399 29.5284 7.01299 29.587 7.25037 29.5881C7.48774 29.5892 7.70884 29.5326 7.90105 29.4216C8.09325 29.3107 8.25279 29.1475 8.37056 28.9414C8.48833 28.7353 8.56202 28.4903 8.58742 28.2204C8.61283 27.9506 8.58945 27.6611 8.51863 27.3686C8.4478 27.076 8.33092 26.7861 8.17464 26.5155C7.85903 25.9688 7.40215 25.5336 6.9045 25.3055C6.40686 25.0774 5.90921 25.0752 5.52104 25.2993C5.13287 25.5234 4.88597 25.9555 4.83466 26.5005C4.78335 27.0455 4.93183 27.6588 5.24744 28.2055Z" fill="#2D313F"/>
<path d="M5.16988 28.2503C4.48988 27.0703 4.62988 25.7203 5.47988 25.2503C5.70504 25.1321 5.95556 25.0703 6.20988 25.0703C6.46421 25.0703 6.71472 25.1321 6.93988 25.2503C7.48813 25.5287 7.94358 25.9606 8.25075 26.4932C8.55792 27.0259 8.70354 27.6364 8.66988 28.2503C8.65743 28.502 8.5846 28.7469 8.45754 28.9645C8.33048 29.1821 8.15293 29.3659 7.93988 29.5003C7.73214 29.6159 7.49757 29.6745 7.25988 29.6703C6.81925 29.6318 6.39583 29.4811 6.02997 29.2325C5.66412 28.9839 5.36801 28.6458 5.16988 28.2503ZM5.55988 25.3703C4.78988 25.8203 4.67988 27.0703 5.30988 28.1703C5.93988 29.2703 7.08988 29.7903 7.85988 29.3503C8.05009 29.2255 8.2075 29.0568 8.31888 28.8584C8.43026 28.66 8.49234 28.4377 8.49988 28.2103C8.53987 27.6323 8.40016 27.0559 8.09988 26.5603C7.81734 26.0527 7.38883 25.6416 6.86988 25.3803C6.64754 25.2764 6.40533 25.2218 6.15988 25.2203C5.95043 25.2189 5.744 25.2705 5.55988 25.3703Z" fill="#B3B7C4"/>
<path d="M8.58998 27.9902L7.24998 27.7002L8.24998 29.1702C8.16055 29.2694 8.05591 29.3538 7.93998 29.4202C7.75689 29.525 7.55087 29.5834 7.33998 29.5902L6.67998 27.9102L5.84998 28.9102C5.6283 28.6933 5.43661 28.4478 5.27998 28.1802L6.27998 27.2802L4.97998 26.0102C5.07818 25.7125 5.2806 25.4604 5.54998 25.3002L6.45998 26.4202V25.1602C6.71172 25.204 6.95273 25.2956 7.16998 25.4302V27.0002L8.36998 26.9502C8.50812 27.2799 8.58276 27.6327 8.58998 27.9902Z" fill="#E6E6E6"/>
<path d="M8.52988 27.5007H6.89988L7.89988 29.5007H7.74988L6.74988 27.5007L5.51988 28.6207L5.41988 28.5007L6.64988 27.3807L5.12988 25.6507L5.23988 25.5007L6.67988 27.1207V25.2207L6.84988 25.2907V27.2907H8.48988C8.512 27.3587 8.52544 27.4293 8.52988 27.5007Z" fill="#3D4154"/>
<path d="M6.37981 27.5508C6.30601 27.4548 6.27118 27.3346 6.28231 27.214C6.29343 27.0935 6.34969 26.9816 6.43981 26.9008C6.48953 26.8761 6.54429 26.8633 6.59981 26.8633C6.65532 26.8633 6.71008 26.8761 6.75981 26.9008C6.87814 26.9606 6.97571 27.0547 7.03981 27.1708C7.10687 27.2857 7.1382 27.418 7.12981 27.5508C7.12765 27.6055 7.11189 27.6589 7.08396 27.706C7.05602 27.7532 7.01679 27.7926 6.96981 27.8208C6.92427 27.8353 6.87534 27.8353 6.82981 27.8208C6.73865 27.8151 6.6502 27.7876 6.57188 27.7407C6.49357 27.6937 6.4277 27.6286 6.37981 27.5508Z" fill="#E6E6E6"/>
<path d="M6.5498 27.4993C6.4798 27.3793 6.4898 27.2393 6.5498 27.1893C6.57349 27.1791 6.59901 27.1738 6.6248 27.1738C6.65059 27.1738 6.6761 27.1791 6.6998 27.1893C6.75762 27.2188 6.80609 27.2638 6.8398 27.3193C6.85822 27.3778 6.85822 27.4407 6.8398 27.4993C6.83866 27.5248 6.83177 27.5497 6.81965 27.5723C6.80753 27.5948 6.79049 27.6142 6.7698 27.6293H6.6898C6.62885 27.6044 6.57906 27.5582 6.5498 27.4993Z" fill="#082A4C"/>
<path d="M7.13977 15.1805C7.30537 15.4947 7.58419 15.7342 7.91977 15.8505C7.48617 16.3097 6.95393 16.6644 6.36321 16.8879C5.7725 17.1113 5.13874 17.1977 4.50977 17.1405C4.56729 16.6183 4.75654 16.1194 5.05977 15.6905C6.05977 14.8705 7.05977 13.9905 8.05977 13.2305C7.99977 13.2805 6.88977 14.6805 7.13977 15.1805Z" fill="#15243E"/>
<path d="M48.0001 34.1709C48.0447 34.4209 48.0299 34.6778 47.957 34.921C47.884 35.1642 47.7549 35.3868 47.5801 35.5709C46.1149 37.11 44.458 38.4543 42.6501 39.5709C40.0453 41.0916 37.1853 42.1251 34.2101 42.6209C33.5847 42.7291 32.9437 42.7086 32.3265 42.5607C31.7093 42.4128 31.1286 42.1407 30.6201 41.7609C30.7308 40.9054 30.6589 40.0361 30.4089 39.2104C30.159 38.3847 29.7367 37.6214 29.1701 36.9709C27.5101 35.1209 25.7901 34.9709 25.1201 35.9709C24.8061 36.775 24.6862 37.6418 24.7701 38.5009L9.91008 29.8209C9.91008 29.8209 10.1001 25.3309 7.00008 23.7509C3.90008 22.1709 3.88008 25.6209 3.85008 26.1309C3.49469 25.9194 3.19264 25.629 2.96724 25.2823C2.74184 24.9355 2.59912 24.5416 2.55008 24.1309C2.229 22.4327 2.18174 20.6941 2.41008 18.9809C3.87008 17.8409 5.69008 18.5109 6.79008 19.9009C7.89008 21.2909 10.6201 23.5709 15.0201 26.5709C19.4201 29.5709 29.7901 34.7709 30.6301 35.9109C31.4701 37.0509 31.9201 38.1009 35.3401 38.2409C38.7601 38.3809 42.8101 36.2409 45.1901 34.0109C45.8751 33.3625 46.3689 32.5383 46.6176 31.6283C46.8662 30.7184 46.8602 29.7577 46.6001 28.8509C47.3933 30.5218 47.8681 32.326 48.0001 34.1709Z" fill="#B3B7C4"/>
<path d="M36.5298 36.1191C33.7598 36.4491 32.8098 35.8091 32.0498 35.1191C31.2898 34.4291 29.5298 32.1891 28.5098 31.0091V30.8691C28.5098 30.8691 33.3598 32.9391 35.5098 34.1091C36.3619 34.4839 37.0654 35.1311 37.5098 35.9491C37.1862 36.0226 36.8591 36.0793 36.5298 36.1191Z" fill="white"/>
<path d="M45.1298 31.1407C45.3698 28.5707 42.4898 24.4307 41.8998 23.6207C41.8695 23.5687 41.8361 23.5187 41.7998 23.4707C42.5298 24.2807 44.3698 26.0107 45.7198 27.6707C45.8955 28.8607 45.6889 30.0757 45.1298 31.1407Z" fill="white"/>
<path d="M43.8398 38.2904C41.8729 39.5997 39.7229 40.6107 37.4598 41.2904C34.1598 42.1904 33.3798 42.0704 33.1898 41.3504C33.1455 41.177 33.1415 40.9959 33.1781 40.8208C33.2147 40.6457 33.291 40.4813 33.4011 40.3403C33.5112 40.1993 33.6522 40.0854 33.8132 40.0074C33.9742 39.9294 34.1509 39.8894 34.3298 39.8904C35.1698 39.8004 35.5998 40.9804 36.6498 40.8904C39.0858 40.3546 41.408 39.3932 43.5098 38.0504C45.3798 36.6604 46.0998 35.9104 46.5098 34.8304C46.9198 33.7504 46.8998 32.5304 47.2298 32.3204C47.5598 32.1104 47.6098 33.1604 47.5998 33.6804C47.5358 34.4044 47.2728 35.0966 46.8398 35.6804C45.933 36.652 44.9276 37.5267 43.8398 38.2904Z" fill="#15243E"/>
<path d="M33.6599 40.65C33.4599 41.07 33.5099 41.52 33.7899 41.65C34.0699 41.78 34.4499 41.55 34.6599 41.13C34.8699 40.71 34.8099 40.26 34.5299 40.13C34.2499 40 33.8699 40.23 33.6599 40.65Z" fill="#B3B7C4"/>
<path d="M47 33.3507C47 33.7107 47.05 34.0107 47.17 34.0207C47.29 34.0307 47.41 33.7407 47.44 33.3807C47.47 33.0207 47.44 32.7207 47.27 32.7207C47.1 32.7207 47.07 32.9907 47 33.3507Z" fill="#B3B7C4"/>
<path d="M30.6398 33.5001C29.9098 32.6301 29.0798 31.6201 28.5098 30.9701V30.8301C28.5098 30.8301 33.3598 32.9001 35.5098 34.0701C35.5198 34.1001 32.2898 34.5801 30.6398 33.5001Z" fill="#B3B7C4"/>
<path d="M44.6298 28.5002C43.9147 26.7782 42.9983 25.1469 41.8998 23.6402C41.8695 23.5883 41.8361 23.5382 41.7998 23.4902C42.3898 24.1402 43.7098 25.4002 44.9098 26.7402C44.8532 27.3322 44.7596 27.92 44.6298 28.5002Z" fill="#B3B7C4"/>
<path d="M34.4701 34.1995C34.4701 34.1995 34.4101 35.0195 33.7801 34.9995C33.3801 34.9995 33.3101 34.5295 33.3101 34.1895C33.7601 34.2195 34.1401 34.2095 34.4701 34.1995Z" fill="#999FB0"/>
<path d="M33 34.1798C33 34.4498 32.81 34.9298 32.49 35.0098C32.17 35.0898 31.73 34.3898 31.91 34.0098C32.2691 34.091 32.6332 34.1478 33 34.1798Z" fill="#999FB0"/>
<path d="M33.8202 35.5498C34.9177 35.2724 36.0576 35.2045 37.1802 35.3498C37.3374 35.525 37.4656 35.7242 37.5602 35.9398C37.2303 36.0172 36.8965 36.0773 36.5602 36.1198C35.4449 36.3301 34.294 36.2474 33.2202 35.8798C33.3935 35.7731 33.5935 35.6631 33.8202 35.5498Z" fill="#B3B7C4"/>
<path d="M9.90984 29.8195C9.90984 29.8195 10.0998 25.3295 6.99984 23.7495C3.89984 22.1695 3.87984 25.6195 3.84984 26.1295C3.49445 25.918 3.1924 25.6276 2.967 25.2809C2.7416 24.9341 2.59888 24.5402 2.54984 24.1295C2.54984 23.7995 2.41984 23.2195 2.33984 22.5195C2.57288 23.3829 3.04009 24.1651 3.68984 24.7795C3.78984 24.7795 3.91984 21.6695 7.22984 23.2295C10.5398 24.7895 10.7198 28.9195 10.7198 28.9195C10.7198 28.9195 23.7198 36.2895 24.3598 36.7295C24.3494 36.3736 24.4343 36.0213 24.6056 35.7091C24.7768 35.3969 25.0284 35.1361 25.3342 34.9536C25.64 34.7711 25.989 34.6736 26.3451 34.6711C26.7012 34.6687 27.0515 34.7613 27.3598 34.9395C28.7121 35.57 29.8228 36.6229 30.5244 37.9396C31.2261 39.2564 31.4807 40.7655 31.2498 42.2395C31.0328 42.1193 30.8255 41.9822 30.6298 41.8295C30.7406 40.974 30.6686 40.1047 30.4187 39.279C30.1687 38.4533 29.7465 37.69 29.1798 37.0395C27.5198 35.1895 25.7998 35.0395 25.1298 36.0395C24.8233 36.8212 24.7001 37.6628 24.7698 38.4995L9.90984 29.8195Z" fill="#999FB0"/>
<path d="M4.50982 17.14C4.36048 17.5422 4.26629 17.9627 4.22982 18.39C3.56938 18.339 2.91449 18.543 2.39982 18.96C2.39982 19.09 2.33982 19.2201 2.31982 19.3601C2.3986 18.5621 2.75207 17.8163 3.31982 17.25L3.44982 17.13C3.80256 17.0968 4.15778 17.1002 4.50982 17.14Z" fill="#C1272D"/>
<path d="M32.44 25.2605C32.94 25.0605 36.53 23.1005 37.44 22.5005C37.992 22.1142 38.4333 21.5902 38.72 20.9805C40.12 22.4205 41.22 23.5805 41.22 23.5805C41.22 23.5805 41.28 26.3805 37.36 28.5805C33.44 30.7805 30.14 31.1905 28.54 30.9105C27.7562 30.3124 27.0799 29.5854 26.54 28.7605C28.53 25.3005 32 25.5005 32.44 25.2605Z" fill="#495D8F"/>
<path d="M38.3899 21.57L33.6899 16.88C33.8276 16.6768 33.9544 16.4665 34.0699 16.25C35.1699 17.31 37.1399 19.32 38.7299 20.98C38.6309 21.1845 38.5172 21.3817 38.3899 21.57Z" fill="#113C70"/>
<path d="M30.3598 22.4109L29.5698 20.1909C30.42 19.7363 31.2326 19.2147 31.9998 18.6309L38.1498 21.9309C37.9589 22.1484 37.7404 22.34 37.4998 22.5009C37.1298 22.7509 36.2998 23.2209 35.4198 23.7109C33.9098 22.3009 30.3598 22.4109 30.3598 22.4109Z" fill="#495D8F"/>
<path d="M25.3399 24.4292L25.1699 22.1992C26.6851 21.6448 28.1559 20.9762 29.5699 20.1992L30.3599 22.4192L25.9999 24.7592L25.3399 24.4292Z" fill="#083356"/>
<path d="M32.44 25.2604C31.229 25.3806 30.0499 25.7194 28.96 26.2604C28.41 25.4404 25.96 24.7504 25.96 24.7504L30.37 22.4004C30.37 22.4004 33.92 22.2904 35.37 23.7004C34.1 24.4104 32.73 25.1404 32.44 25.2604Z" fill="#082A4C"/>
<path d="M25.1699 22.1992L25.3399 24.4292L22.6299 23.0092C23.4912 22.7875 24.3392 22.5171 25.1699 22.1992Z" fill="#495D8F"/>
<path d="M26.5398 28.7098C25.3298 27.1598 23.7598 25.0198 22.0298 23.1298L22.6298 23.0098L25.3398 24.4298L25.9498 24.7598L27.7698 27.1598C27.2867 27.614 26.8724 28.1361 26.5398 28.7098Z" fill="#082A4C"/>
<path d="M27.77 27.1598L26 24.7598C26 24.7598 28.46 25.4498 29 26.2698C28.4314 26.6011 27.9157 27.0157 27.47 27.4998C27.5607 27.3786 27.6611 27.2649 27.77 27.1598Z" fill="#113C70"/>
<path d="M24.7202 26.3595L26.4702 25.4395L27.7702 27.1595C27.2872 27.6137 26.8728 28.1358 26.5402 28.7095C26.0002 28.0195 25.3902 27.2095 24.7202 26.3595Z" fill="#082A4C"/>
<path d="M24.61 30.6306C23.0296 29.8916 21.4907 29.067 20 28.1606L23.15 26.6406C23.8159 27.493 24.3985 28.4071 24.89 29.3706C25.5 30.4406 25.36 30.8606 24.61 30.6306Z" fill="#495D8F"/>
<path d="M19.9999 28.1593L20.6299 28.5193C19.3999 27.8193 18.1599 27.0893 17.3199 26.5793C17.3199 25.7293 17.1899 24.1893 17.0699 23.4793C16.9541 22.8653 16.629 22.3104 16.1499 21.9093V20.7793C18.7979 22.3226 21.1649 24.304 23.1499 26.6393L19.9999 28.1593Z" fill="#082A4C"/>
<path d="M16.1498 25.8704L15.0498 25.1804L15.5298 20.4004L16.1498 20.7804V25.8704Z" fill="#2D313F"/>
<path d="M12.3901 23.3092L15.3901 21.9492L15.0701 25.1792C14.1901 24.6192 13.3101 24.0192 12.3901 23.3092Z" fill="#15243E"/>
<path d="M15.4401 25.4297L15.0601 25.1797L15.4401 25.4297Z" fill="#15243E"/>
<path d="M8.89983 17.4199C11.2234 18.1472 13.4498 19.1546 15.5298 20.4199L15.3698 21.9599L12.3698 23.3199C11.9298 22.9899 11.4798 22.6299 11.0098 22.2499C8.84983 20.4199 8.47983 17.4999 8.89983 17.4199Z" fill="#111F33"/>
<path d="M9.83977 20.9106C9.71977 20.7306 9.60977 20.5506 9.50977 20.3706L10.3598 17.8906L10.6898 18.0206L9.83977 20.9106Z" fill="#2D313F"/>
<path d="M28.7798 25.9201C27.2898 26.4201 26.5398 28.7101 26.5398 28.7101L26.0498 28.0801C26.4098 27.1501 27.3898 25.3901 28.6598 25.0801C29.9298 24.7701 30.1098 25.7501 30.1098 25.7601C29.9398 25.8201 29.7598 25.8801 29.5798 25.9601C29.4598 25.8201 29.2598 25.7401 28.7798 25.9201Z" fill="#495D8F"/>
<path d="M40.8101 23.1406L41.2301 23.5806C41.2301 23.5806 41.2901 26.3806 37.3701 28.5806C33.4501 30.7806 30.1501 31.1906 28.5501 30.9106C28.2867 30.7567 28.0503 30.5608 27.8501 30.3306C31.3589 30.313 34.7861 29.2703 37.7101 27.3306C40.7601 25.1706 40.8101 23.1406 40.8101 23.1406Z" fill="#15243E"/>
<path d="M23.67 27.3301C24.1141 27.9732 24.5214 28.6409 24.89 29.3301C25.5 30.4001 25.36 30.8201 24.61 30.5901C24.1358 30.401 23.6748 30.1805 23.23 29.9301L23.67 27.3301Z" fill="#082A4C"/>
<path d="M23.9999 30.3397C23.9999 30.3397 24.0699 28.8397 22.9399 28.9297C22.5008 28.9941 22.0838 29.1643 21.725 29.4256C21.3661 29.6869 21.0761 30.0315 20.8799 30.4297C20.8099 30.7197 21.1899 30.9997 21.6299 31.0197C22.4685 31.0224 23.2904 30.7866 23.9999 30.3397Z" fill="#B3B7C4"/>
<path d="M23.8901 29.7695C23.9326 29.9565 23.9528 30.1478 23.9501 30.3395C23.2406 30.7864 22.4186 31.0223 21.5801 31.0195C21.1401 31.0195 20.7601 30.7195 20.8301 30.4295C21.893 30.5183 22.9583 30.2885 23.8901 29.7695Z" fill="#113C70"/>
<path d="M40.0002 21.5004L38.9102 20.3704C39.0522 20.1017 39.2702 19.8807 39.5369 19.7349C39.8036 19.5891 40.1073 19.5249 40.4102 19.5504C41.2402 19.5904 40.5902 20.9804 40.0002 21.5004Z" fill="#B3B7C4"/>
<path d="M40.56 19.5898C41.12 19.8298 40.56 21.0298 39.96 21.4998L39.5 21.0198C39.9225 20.5985 40.2797 20.1166 40.56 19.5898Z" fill="#113C70"/>
<path d="M17.5 28.6607C17.04 28.4207 16.5 28.1407 16 27.8307C15.71 27.6607 15.69 28.0807 15.9 28.2707C16.3733 28.6126 16.8831 28.9011 17.42 29.1307C17.67 29.1907 17.69 28.7707 17.5 28.6607Z" fill="#082A4C"/>
<path d="M10.75 24.0103C10.29 23.7703 9.74997 23.4903 9.24997 23.1803C8.95997 23.0103 8.93997 23.4303 9.14997 23.6203C9.62092 23.9659 10.1311 24.2546 10.67 24.4803C10.92 24.5003 10.94 24.1203 10.75 24.0103Z" fill="#082A4C"/>
<path d="M32 18.6309L38.15 21.9309C37.9591 22.1484 37.7406 22.34 37.5 22.5009L37.25 22.6609L31 19.3509C31.3 19.1209 31.63 18.8809 32 18.6309Z" fill="#113C70"/>
<path d="M16.1499 25.8691V21.8691C16.6411 22.2854 16.9674 22.8635 17.0699 23.4991C17.1899 24.2091 17.2799 25.7491 17.3199 26.5991L17.0199 26.4291L16.1499 25.8691Z" fill="#172233"/>
<path d="M31.5699 20.2793C31.5699 20.2793 32.3899 20.6893 32.4899 20.9293C32.5899 21.1693 32.3199 21.4493 31.9499 21.2393L31.4599 20.9793C31.4397 20.7405 31.4774 20.5004 31.5699 20.2793Z" fill="#15243E"/>
<path d="M45.1399 30.8305C45.1399 30.3505 45.2799 29.4405 45.3299 29.0905C45.4199 28.3405 45.4199 27.3105 45.4199 27.3105L45.7199 27.6705C45.8956 28.8605 45.689 30.0755 45.1299 31.1405C45.1399 31.0405 45.1399 30.9305 45.1399 30.8305Z" fill="#B3B7C4"/>
<path d="M44.8099 27.5C44.8099 27.5 45.1199 28.43 44.8099 28.91C44.7099 28.64 44.6499 28.46 44.6499 28.46L44.8099 27.5Z" fill="#999FB0"/>
</svg>
