<svg width="73" height="58" viewBox="0 0 73 58" fill="none" xmlns="http://www.w3.org/2000/svg">
<path d="M11.7339 26.4667C15.8348 26.4667 16.0428 30.3055 16.0428 31.0751C16.0428 33.3761 14.6539 35.2446 12.2175 36.2447C8.80751 35.1913 7.28169 33.5551 7.28169 30.9715C7.28132 28.7297 8.65836 26.4667 11.7339 26.4667ZM6.417 47.3848C6.417 44.5849 8.10761 42.4121 11.0698 41.3811C15.2449 42.7242 16.9556 44.5998 16.9556 47.7987C16.9556 50.8649 14.8377 52.925 11.6861 52.925C10.2327 52.925 8.96486 52.457 8.02073 51.5726C6.93268 50.5531 6.3484 49.0389 6.41664 47.4187L6.417 47.3848ZM17.6805 38.4928C19.0098 37.6076 20.0509 36.5337 20.7855 35.2871C21.6103 33.8874 22.0283 32.3134 22.0283 30.6094C22.0283 28.2058 21.1352 25.9697 19.5147 24.3126C17.6798 22.437 15.0726 21.4456 11.974 21.4456C9.03237 21.4456 6.34243 22.4184 4.40086 24.1847C3.42914 25.0688 2.67181 26.1199 2.15053 27.3102C1.61508 28.5321 1.34362 29.8689 1.34362 31.2828C1.34362 32.9332 1.79331 34.5354 2.64309 35.9169C3.35827 37.0796 4.33633 38.0766 5.559 38.8921C4.05705 39.7658 2.84818 40.8389 1.95439 42.0948C0.752236 43.7839 0.142578 45.7728 0.142578 48.0068C0.142578 50.7064 1.23064 53.198 3.20614 55.0224C4.22484 55.9628 5.44454 56.6967 6.83164 57.203C8.27952 57.7314 9.88066 57.9995 11.5896 57.9995C14.7747 57.9995 17.6977 56.9502 19.819 55.0444C20.8847 54.0869 21.7162 52.9481 22.2893 51.6587C22.8807 50.329 23.1805 48.8741 23.1805 47.3337C23.1805 45.1643 22.557 43.2287 21.3273 41.5806C20.4152 40.3568 19.1918 39.3224 17.6805 38.4928Z" fill="#F7CB3A"/>
<path d="M41.7724 38.6732C41.4536 38.4887 41.124 38.322 40.7847 38.1729C41.9693 37.4603 42.9399 36.5736 43.6826 35.5228C44.7401 34.0265 45.2763 32.2866 45.2763 30.351C45.2763 27.9817 44.4217 25.8052 42.8698 24.2216C41.0904 22.4057 38.4959 21.4456 35.3664 21.4456C31.7278 21.4456 28.3205 22.8558 26.5568 24.2533L26.0858 24.6266L27.8018 29.7727L28.9383 28.8971C30.1464 27.9672 32.3408 26.8814 34.5498 26.8814C38.6123 26.8814 39.0504 29.8144 39.0504 31.0755C39.0504 34.6085 35.4685 35.8908 33.0609 35.8908H29.7318V41.0679H33.0609C36.4619 41.0679 40.1112 42.6067 40.1556 46.9265V46.9321C40.169 47.714 40.0322 49.6862 38.4751 51.1125C37.4254 52.0745 35.9432 52.5622 34.0699 52.5622C31.2938 52.5622 28.7187 51.2918 27.7451 50.6203L26.6186 49.8435L24.877 55.1641L25.3979 55.5325C27.0057 56.6698 30.2538 57.998 34.1176 57.998C37.9139 57.998 41.1005 56.8537 43.3336 54.6887C45.361 52.7237 46.4774 50.0009 46.4774 47.022C46.4774 44.6005 45.7007 42.4155 44.2319 40.7039C43.5425 39.9011 42.7147 39.2176 41.7724 38.6732Z" fill="#F7CB3A"/>
<path d="M61.0157 26.4667C65.1166 26.4667 65.3247 30.3055 65.3247 31.0751C65.3247 33.3761 63.9357 35.2446 61.4993 36.2447C58.0894 35.1913 56.5636 33.5551 56.5636 30.9715C56.5636 28.7297 57.9398 26.4667 61.0157 26.4667ZM55.6989 47.3848C55.6989 44.5849 57.3895 42.4121 60.3516 41.3811C64.5267 42.7242 66.2371 44.5998 66.2371 47.7987C66.2371 50.8649 64.1196 52.925 60.9676 52.925C59.5141 52.925 58.2464 52.457 57.3022 51.5726C56.2142 50.5531 55.6299 49.0389 55.6977 47.4187L55.6989 47.3848ZM70.6095 41.5795C69.6971 40.3568 68.474 39.3224 66.9628 38.4928C68.2921 37.6076 69.3328 36.5337 70.0673 35.2871C70.8921 33.8874 71.3101 32.3134 71.3101 30.6094C71.3101 28.2058 70.4174 25.9697 68.7969 24.3126C66.9616 22.437 64.3545 21.4456 61.2562 21.4456C58.3146 21.4456 55.6246 22.4184 53.6827 24.1847C52.711 25.0688 51.954 26.1199 51.4328 27.3102C50.8973 28.5321 50.6258 29.8689 50.6258 31.2828C50.6258 32.9332 51.0752 34.5354 51.925 35.9169C52.6405 37.0796 53.6182 38.0766 54.8409 38.8921C53.3397 39.7658 52.1304 40.8389 51.2366 42.0948C50.0345 43.7839 49.4248 45.7728 49.4248 48.0068C49.4248 50.7064 50.5125 53.198 52.4884 55.0224C53.5067 55.9628 54.7268 56.6967 56.1139 57.203C57.5618 57.7314 59.1625 57.9995 60.8718 57.9995C64.0569 57.9995 66.9799 56.9502 69.1012 55.0444C70.1669 54.0869 70.998 52.9481 71.5711 51.6587C72.1629 50.329 72.4627 48.8741 72.4627 47.3337C72.4631 45.1636 71.8396 43.2276 70.6095 41.5795Z" fill="#F7CB3A"/>
<path d="M0 2.56577H4.9067V17.7195H7.54219V2.56577H12.4728V0H0V2.56577Z" fill="#00B7F4"/>
<path d="M27.7292 5.53574L29.1529 9.95098H25.0934L26.5178 5.50964L26.52 5.50218C26.7188 4.84144 26.9112 4.13782 27.1118 3.33502C27.2859 4.03491 27.4787 4.76053 27.7292 5.53574ZM25.7396 0L20.0342 17.7195H22.7655L24.4408 12.3654H29.8084L31.5315 17.7195H34.3337L28.6037 0H25.7396Z" fill="#00B7F4"/>
<path d="M56.7012 0.000745346H53.6309L51.3497 4.13484C50.8534 5.03534 50.4685 5.76282 50.0636 6.632C49.6646 5.81614 49.2358 5.01334 48.7656 4.13894L46.5559 0H43.4748L48.4091 8.75666L43.2783 17.7191H46.3426L48.3573 13.8349C49.0982 12.5171 49.5337 11.6636 49.9226 10.8414C50.3913 11.7352 50.9041 12.6357 51.5909 13.8155L53.7264 17.7191H56.8115L51.5868 8.63547L56.7012 0.000745346Z" fill="#00B7F4"/>
<path d="M70.405 0H67.793V17.7195H70.405V0Z" fill="#00B7F4"/>
</svg>
