<svg width="34" height="54" viewBox="0 0 34 54" fill="none" xmlns="http://www.w3.org/2000/svg">
<path d="M34 17.2332C34 26.7512 17 53.6151 17 53.6151C17 53.6151 0 26.7512 0 17.2332C0 7.7152 7.61066 0 17 0C26.3893 0 34 7.7152 34 17.2332Z" fill="#2B5082"/>
<path d="M17.0001 28.0987C23.1299 28.0987 28.0991 23.1295 28.0991 16.9997C28.0991 10.8699 23.1299 5.9007 17.0001 5.9007C10.8703 5.9007 5.90112 10.8699 5.90112 16.9997C5.90112 23.1295 10.8703 28.0987 17.0001 28.0987Z" fill="#152A48" stroke="white" stroke-width="0.947222"/>
<path d="M11.958 22H14.478L15.08 19.9H18.202L18.818 22H21.338L17.936 11.99H15.36L11.958 22ZM15.654 17.94L16.228 15.994C16.41 15.364 16.634 14.272 16.634 14.272H16.662C16.662 14.272 16.886 15.364 17.068 15.994L17.628 17.94H15.654Z" fill="white"/>
</svg>
