<svg width="34" height="54" viewBox="0 0 34 54" fill="none" xmlns="http://www.w3.org/2000/svg">
<path d="M34 17.2332C34 26.7512 17 53.6151 17 53.6151C17 53.6151 0 26.7512 0 17.2332C0 7.7152 7.61066 0 17 0C26.3893 0 34 7.7152 34 17.2332Z" fill="#FFCA46"/>
<path d="M16.9999 28.0986C23.1297 28.0986 28.0988 23.1294 28.0988 16.9997C28.0988 10.8699 23.1297 5.90063 16.9999 5.90063C10.8701 5.90063 5.90088 10.8699 5.90088 16.9997C5.90088 23.1294 10.8701 28.0986 16.9999 28.0986Z" fill="white" stroke="white" stroke-width="0.947222"/>
<path d="M13.2688 22H17.4268C19.3728 22 20.6888 20.684 20.6888 18.836C20.6888 16.988 19.3728 15.644 17.4268 15.644H15.7188V14.09H19.7788V11.99H13.2688V22ZM15.7188 19.9V17.744H16.9228C17.7768 17.744 18.1968 18.206 18.1968 18.836C18.1968 19.466 17.7768 19.9 16.9648 19.9H15.7188Z" fill="#113C70"/>
</svg>
